<?xml version="1.0" encoding="utf-8"?>
<!-- Generator: Adobe Illustrator 27.5.0, SVG Export Plug-In . SVG Version: 6.00 Build 0)  -->
<svg version="1.1" xmlns="http://www.w3.org/2000/svg" xmlns:xlink="http://www.w3.org/1999/xlink" x="0px" y="0px"
	 viewBox="0 0 500 500" style="enable-background:new 0 0 500 500;" xml:space="preserve">
<g id="Background_Simple">
	<g>
		<g>
			<path style="opacity:0.7;fill:#92E3A9;" d="M145.504,30.022C234,12.825,294.59,82.906,316.696,107.294
				c22.178,24.467,44.355,48.934,66.533,73.402c20.148,22.228,40.853,45.455,47.522,72.739c8.279,33.868,3.52,92.324-24.753,117.639
				c-28.273,25.315-67.97,40.468-108.785,46.848c-40.815,6.379-82.899,4.525-124.037-0.209
				c-23.795-2.738-47.709-6.501-69.575-14.777c-21.866-8.275-41.732-21.492-52.575-39.33c-13.026-21.43-11.771-46.955-6.225-70.524
				c5.546-23.569,15.06-46.552,17.681-70.469C64.755,201.879,21.575,54.104,145.504,30.022z"/>
		</g>
		<g>
			<path style="opacity:0.7;fill:#FFFFFF;" d="M405.833,371.178c-28.268,25.317-67.961,40.47-108.778,46.855
				c-27.649,4.316-55.885,4.862-84.006,3.287c-2.888-0.158-5.786-0.336-8.674-0.546c-10.49-0.746-20.949-1.754-31.355-2.951
				c-4.736-0.546-9.472-1.124-14.208-1.785c-2.331-0.326-4.673-0.662-7.004-1.029c-6.804-1.05-13.567-2.268-20.225-3.749
				c-3.938-0.861-7.834-1.827-11.687-2.888c-1.449-0.399-2.898-0.819-4.347-1.249c-3.024-0.903-6.017-1.88-8.978-2.94
				c-1.05-0.367-2.09-0.756-3.129-1.145c-16.738-6.332-32.321-15.573-43.557-27.565c-3.444-3.665-6.479-7.582-9.02-11.761
				c-13.021-21.432-11.771-46.96-6.227-70.524c5.544-23.574,15.069-46.55,17.683-70.471c2.279-20.729-40.901-168.507,83.02-192.585
				c88.501-17.2,149.091,52.882,171.195,77.265c22.178,24.467,44.356,48.934,66.533,73.401
				c20.151,22.23,40.859,45.458,47.527,72.739C438.869,287.413,434.112,345.861,405.833,371.178z"/>
		</g>
	</g>
</g>
<g id="Graphics">
	<g>
		
			<line style="fill:none;stroke:#263238;stroke-linecap:round;stroke-linejoin:round;stroke-dasharray:3,3;" x1="259.167" y1="116.027" x2="313.46" y2="236.23"/>
		
			<line style="fill:none;stroke:#263238;stroke-linecap:round;stroke-linejoin:round;stroke-dasharray:3,3;" x1="366.851" y1="210.322" x2="376.976" y2="238.495"/>
		
			<line style="fill:none;stroke:#263238;stroke-linecap:round;stroke-linejoin:round;stroke-dasharray:3,3;" x1="165.633" y1="147.811" x2="296.958" y2="241.907"/>
		
			<line style="fill:none;stroke:#263238;stroke-linecap:round;stroke-linejoin:round;stroke-dasharray:3,3;" x1="153.96" y1="254.088" x2="295.753" y2="282.512"/>
	</g>
</g>
<g id="Printer">
	<g id="Layer_14">
	</g>
	<g>
		<g>
			<g>
				<g>
					<polyline style="fill:none;stroke:#5C5C5C;stroke-linecap:round;stroke-linejoin:round;stroke-miterlimit:10;" points="
						106.571,358.724 213.049,358.724 213.049,421.32 					"/>
					
						<line style="fill:none;stroke:#5C5C5C;stroke-linecap:round;stroke-linejoin:round;stroke-miterlimit:10;" x1="106.571" y1="386.418" x2="106.571" y2="358.724"/>
					
						<line style="fill:none;stroke:#5C5C5C;stroke-linecap:round;stroke-linejoin:round;stroke-miterlimit:10;" x1="106.571" y1="394.174" x2="106.571" y2="390.224"/>
				</g>
				<g>
					
						<rect x="57.28" y="354.037" style="fill:none;stroke:#5C5C5C;stroke-linecap:round;stroke-linejoin:round;stroke-miterlimit:10;" width="51.413" height="4.682"/>
					
						<line style="fill:none;stroke:#5C5C5C;stroke-linecap:round;stroke-linejoin:round;stroke-miterlimit:10;" x1="106.571" y1="398.102" x2="106.571" y2="404.182"/>
					<polyline style="fill:none;stroke:#5C5C5C;stroke-linecap:round;stroke-linejoin:round;stroke-miterlimit:10;" points="
						59.884,375.473 59.884,358.724 106.571,358.724 					"/>
				</g>
			</g>
			<g>
				
					<rect x="115.552" y="364.409" style="fill:none;stroke:#5C5C5C;stroke-linecap:round;stroke-linejoin:round;stroke-miterlimit:10;" width="88.82" height="20.541"/>
				
					<rect x="115.552" y="364.409" style="fill:none;stroke:#5C5C5C;stroke-linecap:round;stroke-linejoin:round;stroke-miterlimit:10;" width="88.82" height="20.541"/>
			</g>
			<g>
				<path style="fill:none;stroke:#5C5C5C;stroke-linecap:round;stroke-linejoin:round;stroke-miterlimit:10;" d="M204.375,387.833
					v20.54h-84.479c-1.449-0.399-2.898-0.819-4.347-1.249v-19.29H204.375z"/>
				<path style="fill:none;stroke:#5C5C5C;stroke-linecap:round;stroke-linejoin:round;stroke-miterlimit:10;" d="M204.375,387.833
					v20.54h-84.479c-1.449-0.399-2.898-0.819-4.347-1.249v-19.29H204.375z"/>
			</g>
			<g>
				<polyline style="fill:none;stroke:#5C5C5C;stroke-linecap:round;stroke-linejoin:round;stroke-miterlimit:10;" points="
					148.256,411.26 204.375,411.26 204.375,420.774 				"/>
				
					<line style="fill:none;stroke:#5C5C5C;stroke-linecap:round;stroke-linejoin:round;stroke-miterlimit:10;" x1="131.584" y1="411.26" x2="141.06" y2="411.26"/>
				<polyline style="fill:none;stroke:#5C5C5C;stroke-linecap:round;stroke-linejoin:round;stroke-miterlimit:10;" points="
					144.173,411.26 204.375,411.26 204.375,420.774 				"/>
				
					<line style="fill:none;stroke:#5C5C5C;stroke-linecap:round;stroke-linejoin:round;stroke-miterlimit:10;" x1="131.584" y1="411.26" x2="138.417" y2="411.26"/>
			</g>
			<g>
				<path style="fill:none;stroke:#5C5C5C;stroke-linecap:round;stroke-linejoin:round;stroke-miterlimit:10;" d="M165.47,369.193
					h-11.016c-1.667,0-3.15-1.056-3.696-2.631l-0.747-2.153h19.902l-0.747,2.153C168.621,368.137,167.137,369.193,165.47,369.193z"
					/>
				<path style="fill:none;stroke:#5C5C5C;stroke-linecap:round;stroke-linejoin:round;stroke-miterlimit:10;" d="M165.795,364.409
					l-0.746,2.153c-0.546,1.575-2.03,2.631-3.696,2.631h4.118c1.667,0,3.15-1.056,3.696-2.631l0.747-2.153H165.795z"/>
				<path style="opacity:0.6;fill:none;stroke:#5C5C5C;stroke-linecap:round;stroke-linejoin:round;stroke-miterlimit:10;" d="
					M165.795,364.409l-0.746,2.153c-0.546,1.575-2.03,2.631-3.696,2.631h4.118c1.667,0,3.15-1.056,3.696-2.631l0.747-2.153H165.795z
					"/>
			</g>
			<g>
				<path style="fill:none;stroke:#5C5C5C;stroke-linecap:round;stroke-linejoin:round;stroke-miterlimit:10;" d="M165.47,392.616
					h-11.016c-1.667,0-3.15-1.056-3.696-2.631l-0.747-2.153h19.902l-0.747,2.153C168.621,391.56,167.137,392.616,165.47,392.616z"/>
				<path style="fill:none;stroke:#5C5C5C;stroke-linecap:round;stroke-linejoin:round;stroke-miterlimit:10;" d="M165.795,387.832
					l-0.746,2.153c-0.546,1.575-2.03,2.631-3.696,2.631h4.118c1.667,0,3.15-1.056,3.696-2.631l0.747-2.153H165.795z"/>
				<path style="opacity:0.6;fill:none;stroke:#5C5C5C;stroke-linecap:round;stroke-linejoin:round;stroke-miterlimit:10;" d="
					M165.795,387.832l-0.746,2.153c-0.546,1.575-2.03,2.631-3.696,2.631h4.118c1.667,0,3.15-1.056,3.696-2.631l0.747-2.153H165.795z
					"/>
			</g>
			<g>
				<path style="fill:none;stroke:#5C5C5C;stroke-linecap:round;stroke-linejoin:round;stroke-miterlimit:10;" d="M169.912,411.26
					l-0.746,2.153c-0.546,1.575-2.027,2.625-3.696,2.625h-11.015c-1.008,0-1.943-0.378-2.646-1.029
					c-0.473-0.42-0.83-0.966-1.05-1.596l-0.746-2.153H169.912z"/>
				<path style="fill:none;stroke:#5C5C5C;stroke-linecap:round;stroke-linejoin:round;stroke-miterlimit:10;" d="M165.795,411.256
					l-0.746,2.153c-0.546,1.575-2.03,2.631-3.696,2.631h4.118c1.667,0,3.15-1.056,3.696-2.631l0.747-2.153H165.795z"/>
				<path style="opacity:0.6;fill:none;stroke:#5C5C5C;stroke-linecap:round;stroke-linejoin:round;stroke-miterlimit:10;" d="
					M165.795,411.256l-0.746,2.153c-0.546,1.575-2.03,2.631-3.696,2.631h4.118c1.667,0,3.15-1.056,3.696-2.631l0.747-2.153H165.795z
					"/>
			</g>
			<g>
				<g>
					
						<rect x="108.694" y="354.037" style="fill:none;stroke:#5C5C5C;stroke-linecap:round;stroke-linejoin:round;stroke-miterlimit:10;" width="106.96" height="4.682"/>
				</g>
			</g>
		</g>
		<g>
			<path style="fill:#263238;" d="M159.394,315.571h0.517c0.627,0,1.055-0.509,0.956-1.136l-4.543-28.684
				c-0.099-0.627-0.688-1.136-1.316-1.136h-0.517H84.765l4.903,30.956H159.394z"/>
			<g>
				<path style="fill:#263238;" d="M89.927,315.571L89.927,315.571c-0.77,0-1.493-0.624-1.615-1.394L83.85,286.01
					c-0.122-0.77,0.404-1.394,1.174-1.394l0,0c0.77,0,1.493,0.624,1.615,1.394l4.461,28.167
					C91.222,314.947,90.697,315.571,89.927,315.571z"/>
				<path style="opacity:0.2;fill:#FFFFFF;stroke:#263238;stroke-linecap:round;stroke-linejoin:round;stroke-miterlimit:10;" d="
					M89.927,315.571L89.927,315.571c-0.77,0-1.493-0.624-1.615-1.394L83.85,286.01c-0.122-0.77,0.404-1.394,1.174-1.394l0,0
					c0.77,0,1.493,0.624,1.615,1.394l4.461,28.167C91.222,314.947,90.697,315.571,89.927,315.571z"/>
			</g>
			<path style="fill:#999999;stroke:#263238;stroke-linecap:round;stroke-linejoin:round;stroke-miterlimit:10;" d="M187.05,353.978
				H96.797l5.156-45.63h84.074c3.294,0,5.855,2.867,5.486,6.14L187.05,353.978z"/>
			<path style="fill:#999999;stroke:#263238;stroke-linecap:round;stroke-linejoin:round;stroke-miterlimit:10;" d="M191.531,313.48
				h-80.472c-0.194-2.827-2.554-5.132-5.508-5.132h80.479C188.977,308.348,191.331,310.647,191.531,313.48z"/>
			<polygon style="fill:#263238;" points="181.342,352.386 182.974,337.948 115.17,337.948 113.538,352.386 			"/>
			<g>
				<path style="fill:#999999;stroke:#263238;stroke-linecap:round;stroke-linejoin:round;stroke-miterlimit:10;" d="
					M209.583,352.386H141.06v-2.32h68.523c0.61,0,1.105,0.495,1.105,1.105v0.111C210.688,351.891,210.193,352.386,209.583,352.386z"
					/>
			</g>
			<g>
				<path style="fill:#263238;" d="M181.605,350.065h18.535c0-2.705-2.193-4.898-4.898-4.898h-13.083L181.605,350.065z"/>
				<path style="fill:#5C5C5C;stroke:#263238;stroke-linecap:round;stroke-linejoin:round;stroke-miterlimit:10;" d="
					M181.605,350.065h18.535c0-2.705-2.193-4.898-4.898-4.898h-13.083L181.605,350.065z"/>
			</g>
			<g>
				<path style="fill:#263238;" d="M143.292,350.065h-5.226c0-2.705-2.193-4.898-4.898-4.898h-18.814l-0.553,4.898l-0.262,2.32
					h29.754c0.486,0,0.88-0.394,0.88-0.88v-0.56C144.173,350.46,143.779,350.065,143.292,350.065z"/>
				<path style="fill:#999999;stroke:#263238;stroke-linecap:round;stroke-linejoin:round;stroke-miterlimit:10;" d="
					M143.292,350.065h-5.226c0-2.705-2.193-4.898-4.898-4.898h-18.814l-0.553,4.898l-0.262,2.32h29.754
					c0.486,0,0.88-0.394,0.88-0.88v-0.56C144.173,350.46,143.779,350.065,143.292,350.065z"/>
			</g>
			<g>
				<polygon style="fill:#92E3A9;" points="146.887,308.347 104.749,308.347 99.672,276.291 141.809,276.291 				"/>
				<polygon style="fill:#FFFFFF;stroke:#263238;stroke-linecap:round;stroke-linejoin:round;stroke-miterlimit:10;" points="
					146.887,308.347 104.749,308.347 99.672,276.291 141.809,276.291 				"/>
			</g>
			<g>
				<path style="fill:#5C5C5C;stroke:#263238;stroke-linecap:round;stroke-linejoin:round;stroke-miterlimit:10;" d="
					M121.333,311.652h60.19c-0.849-1.93-2.776-3.304-5.056-3.304h-60.19C118.557,308.347,120.484,309.721,121.333,311.652z"/>
			</g>
		</g>
	</g>
	<path style="fill:#5C5C5C;stroke:#263238;stroke-linecap:round;stroke-linejoin:round;stroke-miterlimit:10;" d="M111.034,314.487
		l-4.458,39.49H81.863v-41.013c0-2.548,2.069-4.616,4.622-4.616h19.066c2.954,0,5.314,2.305,5.508,5.132
		C111.077,313.807,111.071,314.147,111.034,314.487z"/>
</g>
<g id="Text_Files">
	<g>
		<g>
			<g>
				<g>
					<g>
						<g>
							<g>
								<g>
									<defs>
										<polygon id="XMLID_17_" points="260.656,264.172 182.335,264.172 182.335,160.287 226.028,160.287 260.656,194.916 
																					"/>
									</defs>
									<use xlink:href="#XMLID_17_"  style="overflow:visible;fill:#FFFFFF;"/>
									<clipPath id="XMLID_00000098210608020156819190000003049513614032567730_">
										<use xlink:href="#XMLID_17_"  style="overflow:visible;"/>
									</clipPath>
									<g style="clip-path:url(#XMLID_00000098210608020156819190000003049513614032567730_);">
										<path style="fill:#92E3A9;" d="M260.684,195.143v13.304l0,0c-3.559-9.537-34.628-13.304-34.628-13.304H260.684z"/>
										<path style="fill:#FFFFFF;" d="M260.684,195.143v13.304l0,0c-3.559-9.537-34.628-13.304-34.628-13.304H260.684z"/>
									</g>
									
										<use xlink:href="#XMLID_17_"  style="overflow:visible;fill:none;stroke:#263238;stroke-linecap:round;stroke-linejoin:round;stroke-miterlimit:10;"/>
								</g>
								<polygon style="fill:#FFFFFF;stroke:#263238;stroke-linecap:round;stroke-linejoin:round;stroke-miterlimit:10;" points="
									260.656,194.916 226.028,194.916 226.028,160.287 								"/>
							</g>
							<g>
								<g>
									
										<line style="fill:none;stroke:#263238;stroke-width:3;stroke-linecap:round;stroke-linejoin:round;stroke-miterlimit:10;" x1="202.104" y1="207.973" x2="240.888" y2="207.973"/>
									
										<line style="fill:none;stroke:#263238;stroke-width:3;stroke-linecap:round;stroke-linejoin:round;stroke-miterlimit:10;" x1="202.104" y1="218.64" x2="240.888" y2="218.64"/>
									
										<line style="fill:none;stroke:#263238;stroke-width:3;stroke-linecap:round;stroke-linejoin:round;stroke-miterlimit:10;" x1="202.104" y1="229.307" x2="240.888" y2="229.307"/>
								</g>
							</g>
						</g>
					</g>
				</g>
				<g>
					
						<rect x="179.673" y="240.945" style="fill:#92E3A9;stroke:#263238;stroke-linecap:round;stroke-linejoin:round;stroke-miterlimit:10;" width="48.51" height="25.845"/>
					<g>
						<path style="fill:#263238;" d="M195.477,258.144v1.737h-1.737v-1.737H195.477z"/>
						<path style="fill:#263238;" d="M195.28,248.409h5.572v1.639h-1.885v9.833h-1.803v-9.833h-1.885V248.409z"/>
						<path style="fill:#263238;" d="M207.653,248.409l-1.885,5.572l2.016,5.899h-1.901l-1.475-4.539l-1.492,4.539h-1.688
							l2.016-5.899l-1.885-5.572h1.868l1.36,4.228l1.393-4.228H207.653z"/>
						<path style="fill:#263238;" d="M208.161,248.409h5.572v1.639h-1.885v9.833h-1.803v-9.833h-1.884V248.409z"/>
					</g>
				</g>
			</g>
			<g>
				<g>
					<g>
						<g>
							<defs>
								<polygon id="XMLID_16_" points="143.459,253.066 85.285,253.066 85.285,175.903 117.738,175.903 143.459,201.624 								
									"/>
							</defs>
							<use xlink:href="#XMLID_16_"  style="overflow:visible;fill:#FFFFFF;"/>
							<clipPath id="XMLID_00000165224902351716762400000001748103896917490853_">
								<use xlink:href="#XMLID_16_"  style="overflow:visible;"/>
							</clipPath>
							<g style="clip-path:url(#XMLID_00000165224902351716762400000001748103896917490853_);">
								<path style="fill:#92E3A9;" d="M143.479,201.793v9.882l0,0c-2.643-7.084-25.721-9.882-25.721-9.882H143.479z"/>
								<path style="opacity:0.6;fill:#FFFFFF;" d="M143.479,201.793v9.882l0,0c-2.643-7.084-25.721-9.882-25.721-9.882H143.479z"/>
							</g>
							
								<use xlink:href="#XMLID_16_"  style="overflow:visible;fill:none;stroke:#263238;stroke-linecap:round;stroke-linejoin:round;stroke-miterlimit:10;"/>
						</g>
						<polygon style="fill:#FFFFFF;stroke:#263238;stroke-linecap:round;stroke-linejoin:round;stroke-miterlimit:10;" points="
							143.459,201.624 117.738,201.624 117.738,175.903 						"/>
					</g>
					<g>
						<g>
							
								<line style="fill:none;stroke:#263238;stroke-width:3;stroke-linecap:round;stroke-linejoin:round;stroke-miterlimit:10;" x1="99.968" y1="211.322" x2="128.776" y2="211.322"/>
							
								<line style="fill:none;stroke:#263238;stroke-width:3;stroke-linecap:round;stroke-linejoin:round;stroke-miterlimit:10;" x1="99.968" y1="219.245" x2="128.776" y2="219.245"/>
							
								<line style="fill:none;stroke:#263238;stroke-width:3;stroke-linecap:round;stroke-linejoin:round;stroke-miterlimit:10;" x1="99.968" y1="227.169" x2="128.776" y2="227.169"/>
						</g>
					</g>
				</g>
				<g>
					
						<rect x="82.825" y="235.891" style="fill:#92E3A9;stroke:#263238;stroke-linecap:round;stroke-linejoin:round;stroke-miterlimit:10;" width="36.032" height="19.197"/>
					<g>
						<path style="fill:#263238;" d="M91.02,248.652v1.291h-1.291v-1.291H91.02z"/>
						<path style="fill:#263238;" d="M91.993,241.419h2.119c1.339,0,1.997,0.743,1.997,2.106v4.311c0,1.364-0.657,2.107-1.997,2.107
							h-2.119V241.419z M93.332,242.637v6.088h0.755c0.426,0,0.682-0.219,0.682-0.828v-4.433c0-0.609-0.255-0.828-0.682-0.828
							H93.332z"/>
						<path style="fill:#263238;" d="M96.85,243.465c0-1.364,0.718-2.143,2.034-2.143c1.315,0,2.033,0.779,2.033,2.143v4.433
							c0,1.363-0.718,2.142-2.033,2.142c-1.315,0-2.034-0.779-2.034-2.142V243.465z M98.189,247.982c0,0.609,0.268,0.84,0.694,0.84
							c0.426,0,0.694-0.232,0.694-0.84v-4.603c0-0.609-0.268-0.84-0.694-0.84c-0.426,0-0.694,0.231-0.694,0.84V247.982z"/>
						<path style="fill:#263238;" d="M105.664,246.765v1.133c0,1.363-0.682,2.142-1.997,2.142c-1.315,0-1.997-0.779-1.997-2.142
							v-4.433c0-1.364,0.682-2.143,1.997-2.143c1.315,0,1.997,0.779,1.997,2.143v0.828h-1.267v-0.913c0-0.609-0.268-0.84-0.694-0.84
							c-0.426,0-0.694,0.231-0.694,0.84v4.603c0,0.609,0.268,0.828,0.694,0.828c0.426,0,0.694-0.219,0.694-0.828v-1.218H105.664z"/>
						<path style="fill:#263238;" d="M110.813,241.419l-1.4,4.14l1.498,4.383h-1.413l-1.096-3.373l-1.108,3.373h-1.254l1.497-4.383
							l-1.4-4.14h1.388l1.011,3.142l1.035-3.142H110.813z"/>
					</g>
				</g>
			</g>
			<g>
				<g>
					<g>
						<g>
							<g>
								<defs>
									<polygon id="XMLID_15_" points="255.293,106.626 197.119,106.626 197.119,29.463 229.572,29.463 255.293,55.184 									
										"/>
								</defs>
								<use xlink:href="#XMLID_15_"  style="overflow:visible;fill:#FFFFFF;"/>
								<clipPath id="XMLID_00000114772066811974950700000016469664730396671115_">
									<use xlink:href="#XMLID_15_"  style="overflow:visible;"/>
								</clipPath>
								<g style="clip-path:url(#XMLID_00000114772066811974950700000016469664730396671115_);">
									<path style="fill:#92E3A9;" d="M255.313,55.353v9.881l0,0c-2.643-7.084-25.721-9.881-25.721-9.881H255.313z"/>
									<path style="opacity:0.6;fill:#FFFFFF;" d="M255.313,55.353v9.881l0,0c-2.643-7.084-25.721-9.881-25.721-9.881H255.313z"/>
								</g>
								
									<use xlink:href="#XMLID_15_"  style="overflow:visible;fill:none;stroke:#263238;stroke-linecap:round;stroke-linejoin:round;stroke-miterlimit:10;"/>
							</g>
							<polygon style="fill:#FFFFFF;stroke:#263238;stroke-linecap:round;stroke-linejoin:round;stroke-miterlimit:10;" points="
								255.293,55.184 229.572,55.184 229.572,29.463 							"/>
						</g>
						<g>
							<g>
								
									<line style="fill:none;stroke:#263238;stroke-width:3;stroke-linecap:round;stroke-linejoin:round;stroke-miterlimit:10;" x1="211.802" y1="64.882" x2="240.61" y2="64.882"/>
								
									<line style="fill:none;stroke:#263238;stroke-width:3;stroke-linecap:round;stroke-linejoin:round;stroke-miterlimit:10;" x1="211.802" y1="72.806" x2="240.61" y2="72.806"/>
								
									<line style="fill:none;stroke:#263238;stroke-width:3;stroke-linecap:round;stroke-linejoin:round;stroke-miterlimit:10;" x1="211.802" y1="80.729" x2="240.61" y2="80.729"/>
							</g>
						</g>
					</g>
				</g>
				<g>
					
						<rect x="195.141" y="89.373" style="fill:#92E3A9;stroke:#263238;stroke-linecap:round;stroke-linejoin:round;stroke-miterlimit:10;" width="36.032" height="19.197"/>
					<g>
						<path style="fill:#263238;" d="M205.985,102.135v1.29h-1.291v-1.29H205.985z"/>
						<path style="fill:#263238;" d="M210.928,97.008v1.108c0,1.364-0.657,2.106-1.997,2.106h-0.633v3.203h-1.34v-8.523h1.973
							C210.27,94.902,210.928,95.645,210.928,97.008z M208.298,96.119v2.886h0.633c0.426,0,0.658-0.195,0.658-0.804v-1.279
							c0-0.608-0.232-0.804-0.658-0.804H208.298z"/>
						<path style="fill:#263238;" d="M211.547,94.902h2.119c1.339,0,1.997,0.743,1.997,2.106v4.311c0,1.364-0.657,2.106-1.997,2.106
							h-2.119V94.902z M212.887,96.119v6.088h0.755c0.426,0,0.682-0.219,0.682-0.828v-4.433c0-0.609-0.255-0.828-0.682-0.828
							H212.887z"/>
						<path style="fill:#263238;" d="M217.853,98.688h1.729v1.218h-1.729v3.519h-1.339v-8.523h3.543v1.217h-2.204V98.688z"/>
					</g>
				</g>
			</g>
			<g>
				<g>
					<g>
						<g>
							<g>
								<g>
									<defs>
										<polygon id="XMLID_14_" points="153.022,147.811 94.848,147.811 94.848,70.648 127.301,70.648 153.022,96.369 										
											"/>
									</defs>
									<use xlink:href="#XMLID_14_"  style="overflow:visible;fill:#FFFFFF;"/>
									<clipPath id="XMLID_00000100378444692644138350000011602562661616660392_">
										<use xlink:href="#XMLID_14_"  style="overflow:visible;"/>
									</clipPath>
									<g style="clip-path:url(#XMLID_00000100378444692644138350000011602562661616660392_);">
										<path style="fill:#92E3A9;" d="M153.042,96.538v9.882l0,0c-2.643-7.084-25.721-9.882-25.721-9.882H153.042z"/>
										<path style="opacity:0.6;fill:#FFFFFF;" d="M153.042,96.538v9.882l0,0c-2.643-7.084-25.721-9.882-25.721-9.882H153.042z"
											/>
									</g>
									
										<use xlink:href="#XMLID_14_"  style="overflow:visible;fill:none;stroke:#263238;stroke-linecap:round;stroke-linejoin:round;stroke-miterlimit:10;"/>
								</g>
								<polygon style="fill:#FFFFFF;stroke:#263238;stroke-linecap:round;stroke-linejoin:round;stroke-miterlimit:10;" points="
									153.022,96.369 127.301,96.369 127.301,70.648 								"/>
							</g>
							<g>
								<g>
									
										<line style="fill:none;stroke:#263238;stroke-width:3;stroke-linecap:round;stroke-linejoin:round;stroke-miterlimit:10;" x1="109.531" y1="106.068" x2="138.339" y2="106.068"/>
									
										<line style="fill:none;stroke:#263238;stroke-width:3;stroke-linecap:round;stroke-linejoin:round;stroke-miterlimit:10;" x1="109.531" y1="113.991" x2="138.339" y2="113.991"/>
									
										<line style="fill:none;stroke:#263238;stroke-width:3;stroke-linecap:round;stroke-linejoin:round;stroke-miterlimit:10;" x1="109.531" y1="121.914" x2="138.339" y2="121.914"/>
								</g>
							</g>
						</g>
					</g>
				</g>
				<g>
					
						<rect x="92.87" y="130.559" style="fill:#92E3A9;stroke:#263238;stroke-linecap:round;stroke-linejoin:round;stroke-miterlimit:10;" width="36.032" height="19.197"/>
					<g>
						<path style="fill:#263238;" d="M104.609,143.332v1.291h-1.29v-1.291H104.609z"/>
						<path style="fill:#263238;" d="M110.051,136.099l-1.4,4.14l1.498,4.383h-1.413l-1.096-3.373l-1.108,3.373h-1.254l1.498-4.383
							l-1.4-4.14h1.388l1.011,3.142l1.035-3.142H110.051z"/>
						<path style="fill:#263238;" d="M110.816,136.099h1.339v7.306h2.204v1.218h-3.543V136.099z"/>
						<path style="fill:#263238;" d="M116.745,136.001c1.303,0,1.973,0.779,1.973,2.143v0.268h-1.266v-0.353
							c0-0.609-0.244-0.84-0.67-0.84c-0.426,0-0.67,0.232-0.67,0.84c0,1.753,2.618,2.082,2.618,4.518
							c0,1.363-0.682,2.143-1.997,2.143c-1.315,0-1.997-0.779-1.997-2.143v-0.524h1.266v0.609c0,0.609,0.268,0.828,0.694,0.828
							c0.426,0,0.694-0.219,0.694-0.828c0-1.753-2.618-2.082-2.618-4.518C114.772,136.781,115.442,136.001,116.745,136.001z"/>
					</g>
				</g>
			</g>
		</g>
		<g>
			<g>
				<g>
					<g>
						<defs>
							<polygon id="XMLID_13_" points="364.048,203.538 305.873,203.538 305.873,126.375 338.327,126.375 364.048,152.096 							
								"/>
						</defs>
						<use xlink:href="#XMLID_13_"  style="overflow:visible;fill:#FFFFFF;"/>
						<clipPath id="XMLID_00000054952287189406183830000006327485914858835103_">
							<use xlink:href="#XMLID_13_"  style="overflow:visible;"/>
						</clipPath>
						<g style="clip-path:url(#XMLID_00000054952287189406183830000006327485914858835103_);">
							<path style="fill:#92E3A9;" d="M364.068,152.265v9.882l0,0c-2.643-7.084-25.721-9.882-25.721-9.882H364.068z"/>
							<path style="opacity:0.6;fill:#FFFFFF;" d="M364.068,152.265v9.882l0,0c-2.643-7.084-25.721-9.882-25.721-9.882H364.068z"/>
						</g>
						
							<use xlink:href="#XMLID_13_"  style="overflow:visible;fill:none;stroke:#263238;stroke-linecap:round;stroke-linejoin:round;stroke-miterlimit:10;"/>
					</g>
					<polygon style="fill:#FFFFFF;stroke:#263238;stroke-linecap:round;stroke-linejoin:round;stroke-miterlimit:10;" points="
						364.048,152.096 338.327,152.096 338.327,126.375 					"/>
				</g>
				<g>
					<g>
						
							<line style="fill:none;stroke:#263238;stroke-width:3;stroke-linecap:round;stroke-linejoin:round;stroke-miterlimit:10;" x1="320.556" y1="161.794" x2="349.365" y2="161.794"/>
						
							<line style="fill:none;stroke:#263238;stroke-width:3;stroke-linecap:round;stroke-linejoin:round;stroke-miterlimit:10;" x1="320.556" y1="169.717" x2="349.365" y2="169.717"/>
						
							<line style="fill:none;stroke:#263238;stroke-width:3;stroke-linecap:round;stroke-linejoin:round;stroke-miterlimit:10;" x1="320.556" y1="177.641" x2="349.365" y2="177.641"/>
					</g>
				</g>
			</g>
			<g>
				
					<rect x="303.895" y="186.285" style="fill:#92E3A9;stroke:#263238;stroke-linecap:round;stroke-linejoin:round;stroke-miterlimit:10;" width="36.032" height="19.197"/>
				<g>
					<path style="fill:#263238;" d="M314.077,199.046v1.29h-1.29v-1.29H314.077z"/>
					<path style="fill:#263238;" d="M315.051,191.813h2.118c1.34,0,1.997,0.743,1.997,2.106v4.311c0,1.364-0.657,2.106-1.997,2.106
						h-2.118V191.813z M316.39,193.03v6.088h0.755c0.427,0,0.683-0.219,0.683-0.828v-4.433c0-0.609-0.256-0.828-0.683-0.828H316.39z
						"/>
					<path style="fill:#263238;" d="M319.908,193.858c0-1.364,0.718-2.143,2.033-2.143c1.314,0,2.033,0.779,2.033,2.143v4.433
						c0,1.363-0.719,2.143-2.033,2.143c-1.315,0-2.033-0.779-2.033-2.143V193.858z M321.247,198.376c0,0.609,0.267,0.84,0.694,0.84
						c0.426,0,0.694-0.231,0.694-0.84v-4.603c0-0.609-0.268-0.84-0.694-0.84c-0.427,0-0.694,0.231-0.694,0.84V198.376z"/>
					<path style="fill:#263238;" d="M328.722,197.158v1.133c0,1.363-0.682,2.143-1.997,2.143c-1.314,0-1.996-0.779-1.996-2.143
						v-4.433c0-1.364,0.682-2.143,1.996-2.143c1.315,0,1.997,0.779,1.997,2.143v0.828h-1.266v-0.913c0-0.609-0.269-0.84-0.694-0.84
						c-0.427,0-0.694,0.231-0.694,0.84v4.603c0,0.609,0.268,0.828,0.694,0.828c0.426,0,0.694-0.219,0.694-0.828v-1.218H328.722z"/>
				</g>
			</g>
		</g>
	</g>
</g>
<g id="Character">
	<g>
		<g>
			<path style="fill:#263238;stroke:#263238;stroke-linecap:round;stroke-linejoin:round;stroke-miterlimit:10;" d="
				M277.528,390.794c8.172,0,31.784-5.679,31.784-5.679h-63.567C245.745,385.115,269.357,390.794,277.528,390.794z"/>
			
				<rect x="270.245" y="387.954" transform="matrix(-1 -1.224647e-16 1.224647e-16 -1 555.0566 786.5389)" style="fill:#263238;stroke:#263238;stroke-linecap:round;stroke-linejoin:round;stroke-miterlimit:10;" width="14.567" height="10.63"/>
			
				<rect x="247.265" y="344.23" transform="matrix(-1 -1.224647e-16 1.224647e-16 -1 506.7965 715.7816)" style="fill:#263238;stroke:#263238;stroke-linecap:round;stroke-linejoin:round;stroke-miterlimit:10;" width="12.267" height="27.321"/>
			
				<rect x="268.091" y="398.585" transform="matrix(-1 -1.224647e-16 1.224647e-16 -1 555.0566 845.3525)" style="fill:#263238;stroke:#263238;stroke-linecap:round;stroke-linejoin:round;stroke-miterlimit:10;" width="18.875" height="48.183"/>
			<g>
				<path style="fill:#999999;stroke:#263238;stroke-linecap:round;stroke-linejoin:round;stroke-miterlimit:10;" d="
					M223.509,347.358h52.878c6.216,0,11.124-5.622,10.67-12.224l-4.182-60.792c-0.41-5.953-5.065-10.56-10.67-10.56h-44.514
					c-5.605,0-10.26,4.607-10.67,10.56l-4.182,60.792C212.385,341.735,217.292,347.358,223.509,347.358z"/>
				<path style="opacity:0.2;enable-background:new    ;" d="M223.509,347.358h52.878c6.216,0,11.124-5.622,10.67-12.224
					l-4.182-60.792c-0.41-5.953-5.065-10.56-10.67-10.56h-44.514c-5.605,0-10.26,4.607-10.67,10.56l-4.182,60.792
					C212.385,341.735,217.292,347.358,223.509,347.358z"/>
				<g>
					<defs>
						<path id="XMLID_10_" d="M222.217,335.133l4.182-60.792c0.41-5.952,5.064-10.559,10.67-10.559h35.136
							c5.605,0,10.26,4.607,10.67,10.559l4.183,60.792c0.454,6.602-4.453,12.224-10.67,12.224h-43.501
							C226.67,347.358,221.763,341.735,222.217,335.133z"/>
					</defs>
					<use xlink:href="#XMLID_10_"  style="overflow:visible;fill:#999999;"/>
					<clipPath id="XMLID_00000088822179284820752700000007797672544421472152_">
						<use xlink:href="#XMLID_10_"  style="overflow:visible;"/>
					</clipPath>
					
						<use xlink:href="#XMLID_10_"  style="overflow:visible;fill:none;stroke:#263238;stroke-linecap:round;stroke-linejoin:round;stroke-miterlimit:10;"/>
				</g>
			</g>
			<path style="fill:#263238;stroke:#263238;stroke-linecap:round;stroke-linejoin:round;stroke-miterlimit:10;" d="
				M245.745,456.445c0,1.073,0.928,1.871,1.912,1.642c5.784-1.343,23.111-5.229,29.871-5.229s24.087,3.887,29.871,5.229
				c0.984,0.228,1.913-0.57,1.913-1.642l0,0c0-2.079-1.36-3.875-3.269-4.311c-6.771-1.549-22.221-4.917-28.514-4.917
				s-21.743,3.368-28.514,4.917C247.105,452.571,245.745,454.366,245.745,456.445L245.745,456.445z"/>
			<g>
				<path style="fill:#858585;stroke:#263238;stroke-linecap:round;stroke-linejoin:round;stroke-miterlimit:10;" d="
					M303.876,462.944c0,3.197,2.434,5.788,5.436,5.788c3.002,0,5.436-2.591,5.436-5.788c0-3.197-2.434-5.788-5.436-5.788
					C306.31,457.156,303.876,459.747,303.876,462.944z M306.368,462.944c0-1.731,1.318-3.135,2.944-3.135
					c1.626,0,2.944,1.404,2.944,3.135c0,1.731-1.318,3.135-2.944,3.135C307.686,466.079,306.368,464.675,306.368,462.944z"/>
				<path style="fill:#858585;stroke:#263238;stroke-linecap:round;stroke-linejoin:round;stroke-miterlimit:10;" d="
					M272.092,462.944c0,3.197,2.434,5.788,5.436,5.788s5.436-2.591,5.436-5.788c0-3.197-2.434-5.788-5.436-5.788
					S272.092,459.747,272.092,462.944z M274.584,462.944c0-1.731,1.318-3.135,2.944-3.135c1.626,0,2.944,1.404,2.944,3.135
					c0,1.731-1.318,3.135-2.944,3.135C275.902,466.079,274.584,464.675,274.584,462.944z"/>
				<path style="fill:#858585;stroke:#263238;stroke-linecap:round;stroke-linejoin:round;stroke-miterlimit:10;" d="
					M240.969,462.944c0,3.197,2.434,5.788,5.436,5.788c3.002,0,5.436-2.591,5.436-5.788c0-3.197-2.434-5.788-5.436-5.788
					C243.403,457.156,240.969,459.747,240.969,462.944z M243.46,462.944c0-1.731,1.318-3.135,2.944-3.135
					c1.626,0,2.944,1.404,2.944,3.135c0,1.731-1.318,3.135-2.944,3.135C244.779,466.079,243.46,464.675,243.46,462.944z"/>
			</g>
			<g>
				<g>
					<defs>
						<path id="XMLID_1_" d="M261.461,367.266H324.9c4.342,0,7.862,3.748,7.862,8.372v1.105c0,4.624-3.52,8.372-7.862,8.372h-63.438
							V367.266z"/>
					</defs>
					<use xlink:href="#XMLID_1_"  style="overflow:visible;fill:#999999;"/>
					<clipPath id="XMLID_00000106850805150595029410000018162377743755169465_">
						<use xlink:href="#XMLID_1_"  style="overflow:visible;"/>
					</clipPath>
					
						<path style="clip-path:url(#XMLID_00000106850805150595029410000018162377743755169465_);fill:#999999;stroke:#263238;stroke-linecap:round;stroke-linejoin:round;stroke-miterlimit:10;" d="
						M261.461,367.266H324.9c4.342,0,7.862,3.748,7.862,8.372v1.105c0,4.624-3.52,8.372-7.862,8.372h-63.438V367.266z"/>
					
						<use xlink:href="#XMLID_1_"  style="overflow:visible;fill:none;stroke:#263238;stroke-linecap:round;stroke-linejoin:round;stroke-miterlimit:10;"/>
				</g>
				<path style="fill:#999999;stroke:#263238;stroke-linecap:round;stroke-linejoin:round;stroke-miterlimit:10;" d="
					M229.132,385.115h37.474c3.776,0,6.837-3.061,6.837-6.837v-4.175c0-3.776-3.061-6.837-6.837-6.837h-37.474
					c-3.776,0-6.837,3.061-6.837,6.837v4.175C222.295,382.054,225.356,385.115,229.132,385.115z"/>
				<path style="opacity:0.2;enable-background:new    ;" d="M229.132,385.115h37.474c3.776,0,6.837-3.061,6.837-6.837v-4.175
					c0-3.776-3.061-6.837-6.837-6.837h-37.474c-3.776,0-6.837,3.061-6.837,6.837v4.175
					C222.295,382.054,225.356,385.115,229.132,385.115z"/>
			</g>
			<path style="fill:#263238;stroke:#263238;stroke-linecap:round;stroke-linejoin:round;stroke-miterlimit:10;" d="
				M308.865,453.331h-63.193c-1.419,0-2.569-1.15-2.569-2.569v-1.425c0-1.419,1.15-2.569,2.569-2.569h63.193
				c1.419,0,2.569,1.15,2.569,2.569v1.425C311.434,452.181,310.284,453.331,308.865,453.331z"/>
		</g>
		<g>
			<g>
				<g>
					<g>
						<path style="fill:#263238;stroke:#263238;stroke-linecap:round;stroke-linejoin:round;stroke-miterlimit:10;" d="
							M311.29,294.97c-1.407,1.336-2.283,3.094-2.789,4.9c-0.656,2.34-0.586,5.142,1.319,6.732c2.11,1.76,5.537,1.221,7.974-0.207
							c3.349-1.963,5.658-5.42,6.061-9.072C324.591,290.651,314.865,291.576,311.29,294.97z"/>
						<g>
							<g>
								<path style="fill:#FFFFFF;stroke:#263238;stroke-linecap:round;stroke-linejoin:round;stroke-miterlimit:10;" d="
									M342.471,305.917c0,0,2.622,5.141,1.535,5.361c-1.086,0.22-3.241-4.227-3.241-4.227l-6.164-1.636l4.688-0.669
									L342.471,305.917z"/>
								<path style="opacity:0.3;stroke:#263238;stroke-linecap:round;stroke-linejoin:round;stroke-miterlimit:10;" d="
									M342.471,305.917c0,0,2.622,5.141,1.535,5.361c-1.086,0.22-3.241-4.227-3.241-4.227l-6.164-1.636l4.688-0.669
									L342.471,305.917z"/>
								<path style="fill:#FFFFFF;stroke:#263238;stroke-linecap:round;stroke-linejoin:round;stroke-miterlimit:10;" d="
									M340.467,302.418c0,0,3.867-1.122,4.88,0.84c1.013,1.962,3.982,7.769,2.799,8.479c-1.182,0.709-2.146-1.442-2.146-1.442
									L340.467,302.418z"/>
								<path style="fill:#FFFFFF;stroke:#263238;stroke-linecap:round;stroke-linejoin:round;stroke-miterlimit:10;" d="
									M328.247,308.538l7.08,3.387c0,0,5.256,1.141,7.07,0.035c1.814-1.106-4.477-3.246-4.477-3.246s-4.22-1.915-2.933-2.442
									c1.287-0.527,6.1-0.575,7.028,0.199c0.928,0.774,3.283,5.893,5.081,5.545c1.797-0.348-0.682-3.101-1.298-4.171
									c-0.617-1.07-1.955-5.367-4.875-5.462c-2.92-0.096-12.773,0.747-12.773,0.747l-9.17-9.721c0,0-4.216-1.167-6.58,0.069
									c-3.299,1.726-5.045,4.71-3.511,6.999C312.774,306.275,328.247,308.538,328.247,308.538z"/>
							</g>
						</g>
						<g>
							<defs>
								<path id="XMLID_9_" d="M293.937,257.208c-0.801-3.688,5.244-10.172,5.244-10.172c3.997,0.058,7.188,4.199,9.461,8.618
									c2.73,5.308,4.142,11.14,4.341,17.063c0.175,5.219,0.595,11.114,3.893,16.991c1.057-0.004,3.639,2.105,5.554,3.575
									c-1.285,0.265-3.895,0.317-6.897,2.59c-3.231,2.445-5.486,8.215-4.6,11.068c-1.933-1.905-6.184-6.415-8.211-10.793
									C302.721,296.148,299.118,281.078,293.937,257.208z"/>
							</defs>
							<use xlink:href="#XMLID_9_"  style="overflow:visible;fill:#92E3A9;"/>
							<clipPath id="XMLID_00000039847621135637129880000002689037387406455684_">
								<use xlink:href="#XMLID_9_"  style="overflow:visible;"/>
							</clipPath>
							
								<path style="opacity:0.2;clip-path:url(#XMLID_00000039847621135637129880000002689037387406455684_);enable-background:new    ;" d="
								M316.031,281.21c0.288,1.151,0.511,2.323,0.968,3.423c1.654,3.979,7.022,9.425,11.047,11.43
								c-4.904-0.068-10.364-2.783-12.507,1.377c-0.117,0.227-1.022-0.412-1.635,1.453c-0.274,0.834-0.625,0.687-0.509-0.176
								c0.107-0.793,0.137-1.406,0.141-1.959c0.012-1.617-1.572-2.769-3.28-2.482c-1.183,0.199-2.061-0.011-1.741-1.31
								c0.213-0.468,0.478-0.915,0.789-1.334c0.812-1.094,0.616-2.532-0.469-3.359c-1.256-0.957-2.173-2.415-2.602-3.905
								c-0.73-2.53-0.456-5.221-0.702-7.839c-0.304-3.243-1.405-6.366-1.825-9.598c-0.133-1.023-0.154-1.88,0.405-2.778
								C310.283,265.312,314.748,276.079,316.031,281.21z"/>
							
								<use xlink:href="#XMLID_9_"  style="overflow:visible;fill:none;stroke:#263238;stroke-linecap:round;stroke-linejoin:round;stroke-miterlimit:10;"/>
						</g>
						<path style="fill:none;stroke:#263238;stroke-linecap:round;stroke-linejoin:round;stroke-miterlimit:10;" d="
							M315.072,288.325c-2.791,0.106-5.552,1.081-7.743,2.733"/>
						<path style="fill:none;stroke:#263238;stroke-linecap:round;stroke-linejoin:round;stroke-miterlimit:10;" d="
							M316.876,289.709c-2.942,0.234-5.679,2.19-6.703,4.791"/>
					</g>
					<g>
						<g>
							<g>
								<path style="fill:#263238;stroke:#263238;stroke-linecap:round;stroke-linejoin:round;stroke-miterlimit:10;" d="
									M319.805,362.28c-1.78,4.841-6.071,5.339-11.381,6.621c-3.827,0.922-7.663,1.807-11.549,2.471
									c-11.608,1.983-23.494,1.835-35.053-0.314c-7.466-1.392-12.053-8.428-14.466-15.15c-2.245-6.27-3.214-13.057-2.818-19.752
									c4.222,2.499,9.75,3.403,14.812,2.794c7.762-0.941,14.763-4.638,21.734-7.94c0.821-0.387,1.691-0.784,2.61-0.747
									c0.613,0.028,1.206,0.24,1.78,0.452c9.127,3.421,19.173,7.119,28.576,5.726c0.307,1.291,0.583,2.702,0.85,4.288
									c0.811,4.915,3.095,8.52,4.539,12.817C320.477,356.646,320.952,359.154,319.805,362.28z"/>
								<g>
									<defs>
										<path id="XMLID_8_" d="M302.57,304.149c0.178-0.599-0.465-7.162,2.786-14.029c7.34-6.228-0.453-41.118-1.744-41.311
											c-3.085-0.461-13.965-6.912-14.489-4.985c-0.316,1.134-0.761,2.646-1.542,4.73c-1.355,3.633,1.523,5.348,1.701,6.344
											l0.198,1.07c2.096,12.513,0.128,25.755-4.796,37.539c0,0-1.223-9.309-3.618-18.764
											c-2.449-9.666-6.072-19.484-6.017-19.661c0.178-0.563,1.013-1.577,1.033-2.167c0.049-1.374,0.03-1.466-2.363-4.758
											c-1.454-2.02-2.185-3.79-2.996-5.57v-0.009c-0.109-0.231-0.208-0.443-0.316-0.673
											c-5.399,4.232-17.304,7.949-24.384,10.337c2.353,0,4.252,4.518,4.726,7.377c0.485,2.914,4.954,25.026,4.954,40.748
											c0,1.66-0.445,8.88-0.445,8.88c-6.635,7.46-10.135,17.078-10.719,26.907c4.222,2.499,9.75,3.403,14.812,2.794
											c7.762-0.941,14.763-4.638,21.734-7.94c0.821-0.387,1.691-0.784,2.61-0.747c0.613,0.028,1.206,0.24,1.78,0.452
											c9.127,3.421,19.173,7.119,28.576,5.726c-1.236-5.339-5.531-17.748-9.466-25.263
											C303.219,308.569,302.125,305.597,302.57,304.149z"/>
									</defs>
									<use xlink:href="#XMLID_8_"  style="overflow:visible;fill:#92E3A9;"/>
									<clipPath id="XMLID_00000064352968799672376260000017646528274472725904_">
										<use xlink:href="#XMLID_8_"  style="overflow:visible;"/>
									</clipPath>
									
										<path style="opacity:0.2;clip-path:url(#XMLID_00000064352968799672376260000017646528274472725904_);enable-background:new    ;" d="
										M253.5,269.638c2.793,0.842,4.121-1.841,7.41,3.21c1.524,2.34,1.996,5.149,3.179,7.654
										c3.252,6.884,10.834,12.301,18.88,11.76c8.79-0.591,15.342-7.515,20.871-13.915c0.656-0.759,1.312-1.519,1.968-2.278
										c1.63,1.55,2.673,6.803,2.043,8.894c-0.63,2.09-0.761,3.709-2.496,5.158c-6.243,5.214-17.089,3.906-25.382,5.036
										c-3.859,0.526-7.718,1.052-11.579,1.578c-7.484,1.02-12.101-0.485-12.4-7.468c-0.06-1.409-0.786-6.625-1.093-11.807
										C254.603,272.442,255.092,270.118,253.5,269.638z"/>
									
										<use xlink:href="#XMLID_8_"  style="overflow:visible;fill:none;stroke:#263238;stroke-linecap:round;stroke-linejoin:round;stroke-miterlimit:10;"/>
								</g>
								<g>
									<path style="fill:none;stroke:#263238;stroke-linecap:round;stroke-linejoin:round;stroke-miterlimit:10;" d="
										M268.238,293.513c-0.77-0.1-1.538-0.208-2.306-0.323"/>
									<path style="fill:none;stroke:#263238;stroke-linecap:round;stroke-linejoin:round;stroke-miterlimit:10;" d="
										M294.911,294.061c-8.029,0.717-16.158,0.631-24.206-0.252"/>
								</g>
								<path style="fill:none;stroke:#263238;stroke-linecap:round;stroke-linejoin:round;stroke-miterlimit:10;" d="
									M271.918,310.912c7.842,2.256,16.484,1.947,24.155-0.752"/>
								<path style="fill:none;stroke:#263238;stroke-linecap:round;stroke-linejoin:round;stroke-miterlimit:10;" d="
									M284.623,296.828c-0.072,12.272-0.122,20.762-0.194,33.034"/>
							</g>
							<g>
								<g>
									<path style="fill:#FFFFFF;stroke:#263238;stroke-linecap:round;stroke-linejoin:round;stroke-miterlimit:10;" d="
										M244.17,450.755l-2.281-0.493c0,0,1.33-10.218,6.247-15.991C248.135,434.271,245.496,447.514,244.17,450.755z"/>
								</g>
								<path style="fill:#FFFFFF;stroke:#263238;stroke-linecap:round;stroke-linejoin:round;stroke-miterlimit:10;" d="
									M240.234,427.083c0,0-6.263,2.758-8.177,5.615c-1.914,2.856-8.04,12.675-9.763,16.245
									c-1.723,3.571-8.394,20.503,2.71,19.789c11.103-0.714,12.374-11.471,14.902-16.04
									C242.434,448.124,256.889,424.227,240.234,427.083z"/>
								<g>
									<g>
										<polygon style="fill:#FFFFFF;stroke:#263238;stroke-linecap:round;stroke-linejoin:round;stroke-miterlimit:10;" points="
											292.456,442.613 290.501,454.711 292.6,456.031 295.135,448.16 										"/>
										<path style="fill:#FFFFFF;stroke:#263238;stroke-linecap:round;stroke-linejoin:round;stroke-miterlimit:10;" d="
											M298.882,436.802c0,0,4.484,1.192,6.899,3.624c2.415,2.431,18.105,28.168,12.402,28.425c0,0-6.197,3.388-16.245-9.571
											C298.741,455.156,283.727,443.132,298.882,436.802z"/>
										<g>
											<g>
												<path style="fill:#5C5C5C;stroke:#263238;stroke-linecap:round;stroke-linejoin:round;stroke-miterlimit:10;" d="
													M284.652,363.328c2.379,3.832,7.195,6.05,11.374,5.345c-1.124,8.246,0.806,24.156,3.384,36.432
													c1.861,8.862,2.335,20.548,1.785,28.65c-0.346,5.113-3.688,3.13-3.07,8.277c0.881,7.338,6.55,12.895,12.274,18.195
													c2.029,1.878,7.085,1.636,6.494-0.972c0,0-6.696-8.928-5.268-22.453c0.877-8.304,7.71-48.346,7.101-69.385
													c-0.175-6.055-0.414-10.917-1.262-13.735c-1.882-6.252-2.885-9.848-9.43-12.762c-5.916-2.635-14.849-1.298-19.609,2.506
													C288.426,343.426,277.422,351.68,284.652,363.328z"/>
											</g>
											<path style="fill:none;stroke:#263238;stroke-linecap:round;stroke-linejoin:round;stroke-miterlimit:10;" d="
												M316.894,367.251c0.848-3.686,1.274-8.125,0.571-13.569"/>
											<path style="fill:none;stroke:#263238;stroke-linecap:round;stroke-linejoin:round;stroke-miterlimit:10;" d="
												M315.449,372.095c0.349-0.965,0.689-1.994,0.998-3.096"/>
										</g>
									</g>
									<g>
										<path style="fill:#5C5C5C;stroke:#263238;stroke-linecap:round;stroke-linejoin:round;stroke-miterlimit:10;" d="
											M297.085,365.06c-0.775,2.841-3.34,7.152-6.64,12.459c-11.477,18.452-19.961,21.854-35.285,44.754
											c-1.269,1.894-4.075,6.404-5.384,8.273c-0.975,1.42-2.191,2.691-2.979,4.211c-0.494,0.959-0.802,1.981-1.162,2.99
											c-2.325,6.479-12.171,21.293-18.224,19.972c-6.052-1.321-3.26-11.849-1.243-14.665c0.494-0.71,1.162-1.819,1.884-3.078
											c2.619-4.622,5.611-9.058,8.885-13.306c5.197-6.741,9.539-17.281,12.799-25.816c4.503-11.836,11.73-26.488,17.582-33.067
											c-4.529-1.383-8.016-5.594-8.163-10.042c-0.441-13.506,15.164-15.387,15.164-15.387c3.14-0.461,5.999,0.087,8.591,1.308
											c3.073,1.433,5.785,3.825,8.137,6.591c0.561,0.648,1.095,1.271,1.59,1.856C296.47,356.6,298.621,359.503,297.085,365.06z"
											/>
									</g>
									<path style="fill:#263238;stroke:#263238;stroke-linecap:round;stroke-linejoin:round;stroke-miterlimit:10;" d="
										M300.434,346.283c-2.699,1.258-4.983,3.327-6.4,5.819c-0.04,0.062-0.134,0.062-0.294,0.013
										c-0.494-0.586-1.029-1.209-1.59-1.856c-2.351-2.766-5.064-5.158-8.136-6.591
										C290.013,344.489,295.932,345.648,300.434,346.283z"/>
									<path style="fill:none;stroke:#263238;stroke-linecap:round;stroke-linejoin:round;stroke-miterlimit:10;" d="
										M288.732,376.503c2.953-2.778,5.924-6.408,8.356-11.443"/>
									<path style="fill:none;stroke:#263238;stroke-linecap:round;stroke-linejoin:round;stroke-miterlimit:10;" d="
										M284.523,379.997c0.898-0.667,1.825-1.393,2.763-2.197"/>
								</g>
							</g>
							<g>
								<g>
									<path style="fill:#FFFFFF;stroke:#263238;stroke-linecap:round;stroke-linejoin:round;stroke-miterlimit:10;" d="
										M319.811,362.281c-0.16,0.399-0.307,0.76-0.494,1.096c-0.053-0.81-0.134-1.62-0.24-2.405
										c-0.04-0.336-0.08-0.66-0.147-0.984c-0.134-0.959-0.307-1.919-0.534-2.878c-0.067-0.349-0.16-0.685-0.254-1.022
										c-0.04-0.187-0.08-0.361-0.134-0.536c-0.12-0.449-0.254-0.885-0.387-1.321c-0.134-0.436-0.281-0.885-0.441-1.308
										c-2.338-6.454-7.054-8.672-13.454-11.998c6.747,6.005,3.166,6.429-4.396,5.357c-5.01-0.71-11.771-2.068-18.451-2.89
										c-3.38-0.424-6.72-0.698-9.82-0.685c0,0-16.727,2.018-16.246,16.496c0.16,4.759,3.888,9.27,8.738,10.753
										c-0.334,0.386-0.681,0.785-1.029,1.221c-0.241-0.037-0.468-0.075-0.695-0.125c-7.468-1.383-12.064-8.422-14.469-15.15
										c-2.245-6.267-3.22-13.057-2.819-19.748c4.222,2.504,9.753,3.401,14.817,2.791c7.762-0.934,14.763-4.635,21.724-7.936
										c0.828-0.386,1.697-0.785,2.619-0.748c0.615,0.025,1.202,0.237,1.777,0.461c9.125,3.414,19.172,7.114,28.578,5.719
										c0.307,1.296,0.588,2.704,0.842,4.286c0,0,2.846,5.308,4.289,9.606C320.225,353.435,320.947,359.154,319.811,362.281z"/>
								</g>
							</g>
							<path style="fill:#92E3A9;stroke:#263238;stroke-linecap:round;stroke-linejoin:round;stroke-miterlimit:10;" d="
								M284.68,293.514c0,0-2.262-18.77-9.083-36.291c0.493,0.735,1.019,1.46,1.554,2.174c0.042,0.063,0.095,0.136,0.147,0.2
								c3.129,4.169,10.028,3.15,11.593-1.722c0.21-0.62,0.399-1.26,0.588-1.901C291.579,268.48,289.616,281.732,284.68,293.514z"/>
							<path style="fill:#263238;stroke:#263238;stroke-linecap:round;stroke-linejoin:round;stroke-miterlimit:10;" d="
								M257.331,205.329c-0.592-0.505-1.181-1.056-1.486-1.772c-0.535-1.257-0.078-2.7,0.452-3.96
								c1.269-3.017,2.992-5.904,5.444-8.073c2.051-1.814,4.531-3.06,6.98-4.284c3.729-1.865,7.458-3.729,11.186-5.594
								c-0.991,2.481-2.157,4.893-3.485,7.211c2.454-0.948,5.141-1.285,7.753-0.974c-1.531,1.85-3.329,3.479-5.322,4.818
								c2.258-0.301,4.517-0.602,6.775-0.904c-0.325,1.051-3.511,3.466,0.176,3.128c0,0-2.958,1.835-4.745,2.096
								c-2.231,0.327-4.403,1.053-6.382,2.134c-1.457,0.796-2.951,2.037-2.971,3.697c-0.005,0.41,0.082,0.838-0.07,1.219
								c-0.162,0.409-0.559,0.667-0.933,0.898c-1.938,1.201-4.694,3.745-7.041,3.902
								C261.382,209.026,258.953,206.681,257.331,205.329z"/>
							<polygon style="fill:#92E3A9;stroke:#263238;stroke-linecap:round;stroke-linejoin:round;stroke-miterlimit:10;" points="
								260.123,197.862 260.266,200.85 270.518,200.85 270.518,197.862 							"/>
							<path style="fill:#263238;stroke:#263238;stroke-linecap:round;stroke-linejoin:round;stroke-miterlimit:10;" d="
								M263.755,233.279c-0.642-0.375-1.111-0.982-1.544-1.587c-2.539-3.548-4.434-7.611-5.11-11.92
								c-0.676-4.31-0.082-8.874,2.04-12.686c1.791-3.218,4.563-5.77,7.423-8.09c1.832-1.486,23.267-7.868,27.331,9.828
								c0.534,2.323,0.33,4.76,0.187,7.139c-0.204,3.401-0.856,6.849-2.554,9.803c-1.228,2.136-2.969,3.949-4.926,5.448
								c-3.652,2.798-8.058,4.467-12.623,4.943C270.099,236.562,267.091,235.227,263.755,233.279z"/>
							<path style="fill:#FFFFFF;stroke:#263238;stroke-linecap:round;stroke-linejoin:round;stroke-miterlimit:10;" d="
								M289.475,255.97c-0.183,0.644-0.377,1.282-0.579,1.909c-1.571,4.87-8.469,5.882-11.598,1.718
								c-0.05-0.066-0.1-0.132-0.15-0.199c-0.537-0.713-1.055-1.442-1.547-2.172c0,0-6.553-11.983-7.363-13.756l2.487-0.887
								c0.387-3.357-0.901-7.635-0.901-7.635c0.955,0.942,2.102,1.731,3.321,2.35c2.565,1.307,5.449,1.943,8.306,2.486
								c1.292,0.246,1.838,0.56,3.093,0.203c0.328-0.093,0.637-0.229,0.928-0.39c0.592-0.323,1.119-0.755,1.601-1.205
								c0,0,0.045-0.051,0.118-0.119c0.273-0.229-0.429,0.841-0.429,2.355c0,1.781,0.496,2.842,2.358,3.194
								C288.811,244.958,289.475,255.97,289.475,255.97z"/>
							<path style="fill:#263238;stroke:#263238;stroke-linecap:round;stroke-linejoin:round;stroke-miterlimit:10;" d="
								M281.29,243.437c3.768,0.609,7.168-7.539,6.361-8.49c-0.594-0.699-1.605-0.956-2.557-1.045
								c-3.011-0.282-5.93,0.669-8.921,0.738c-1.563,0.036-2.811-0.271-4.269-0.728c-1.491-0.468-2.355-0.849-2.052,0.922
								C270.559,238.986,277.318,242.795,281.29,243.437z"/>
							<path style="fill:#FFFFFF;stroke:#263238;stroke-linecap:round;stroke-linejoin:round;stroke-miterlimit:10;" d="
								M292.499,227.497c-0.049,0.443,0.312,8.391-5.511,11.533c-0.069,0.074-0.119,0.12-0.119,0.12
								c-0.495,0.461-1.028,0.904-1.632,1.236c-0.178,0.092-0.346,0.184-0.534,0.249c-0.129,0.064-1.595,0.24-1.748,0.242
								c-3.968,0.044-5.222-1.246-7.417-1.745c-3.18-0.723-8.929-4.184-9.277-8.354c-0.046-0.553-1.078-0.267-1.642-0.295
								c-0.356-0.019-0.702-0.083-1.028-0.184c-0.03-0.295-0.05-0.6-0.069-0.895c-0.03-0.517-0.03-1.042,0-1.568
								c0.109-2.195,2.68-4.279,4.321-5.856c2.512-2.443,4.42-5.413,5.547-8.612c0.85-2.425,1.276-4.989,2.561-7.239
								c1.117-1.973,3.174-3.688,5.488-3.9c0.059,0,0.119-0.009,0.188-0.009c0.168,0,0.336,0.009,0.514,0.028
								c6.105,5.646,7.901,10.706,8.494,11.904c0.03,0.12,0.06,0.249,0.089,0.369c0.089,0.359,0.168,0.738,0.237,1.097
								C291.793,219.683,292.924,223.366,292.499,227.497z"/>
							<g>
								<path style="fill:#FFFFFF;stroke:#263238;stroke-linecap:round;stroke-linejoin:round;stroke-miterlimit:10;" d="
									M291.716,224.682c-0.178,0.242-0.399,0.441-0.641,0.63c-1.061,0.819-2.457,1.218-3.801,1.071
									c-0.462-0.053-0.924-0.168-1.355-0.347c0.284-0.809,0.126-1.68-0.798-1.691c-0.788-0.094-1.092,0.053-1.533-0.231
									c-0.116-0.367-0.011-0.767,0.168-1.187c0.21-0.514,0.85-0.672,1.407-0.746c2.247-0.294,4.536-0.347,6.805-0.157
									C292.209,222.823,292.23,224.02,291.716,224.682z"/>
								<path style="fill:none;stroke:#263238;stroke-linecap:round;stroke-linejoin:round;" d="M277.734,231.697
									c3.643,2.546,6.539,1.134,6.539,1.134"/>
								<path style="fill:#263238;" d="M286.647,218.75c0.593-0.03,1.121,0.894,1.182,1.944c0.061,1.051-0.357,2.013-0.951,2.043
									c-0.594,0.03-1.118-0.837-1.182-1.935C285.633,219.695,286.054,218.78,286.647,218.75z"/>
								<path style="fill:#263238;" d="M276.001,218.927c0.584-0.029,1.121,0.894,1.182,1.944c0.061,1.051-0.357,2.012-0.951,2.043
									c-0.593,0.03-1.118-0.837-1.182-1.935C274.986,219.872,275.417,218.957,276.001,218.927z"/>
								<path style="fill:#FFFFFF;stroke:#263238;stroke-linecap:round;stroke-linejoin:round;stroke-miterlimit:10;" d="
									M280.4,222.835c-0.025-0.289-0.079-0.567-0.154-0.809c-2.264-0.188-4.549-0.134-6.802,0.161
									c-0.553,0.073-1.197,0.229-1.41,0.745c-0.236,0.573-0.35,1.093,0.044,1.57c0.861,1.04,2.136,1.728,3.478,1.877
									c1.342,0.149,2.737-0.244,3.805-1.071c0.236-0.183,0.457-0.387,0.639-0.623c0.875-1.136,0.009-2.336,2.017-2.456
									c0.56-0.034,1.171,0.221,1.407,0.73"/>
								<path style="fill:none;stroke:#263238;stroke-linecap:round;stroke-linejoin:round;" d="M285.059,214.398
									c0.023-0.017,0.046-0.033,0.069-0.049c1.74-1.2,4.194-0.857,5.481,0.766"/>
								<path style="fill:none;stroke:#263238;stroke-linecap:round;stroke-linejoin:round;" d="M272.215,215.898
									c3.916-3.105,6.773-0.633,6.773-0.633"/>
							</g>
							<g>
								<path style="fill:#263238;stroke:#263238;stroke-linecap:round;stroke-linejoin:round;stroke-miterlimit:10;" d="
									M238.182,313.78c2.274,2.418,5.477,1.391,5.477,1.391c0.382-0.119,0.764-0.238,1.128-0.365
									c8.615-2.859,11.717-6.609,12.846-8.967c0.646-1.366,0.628-2.265,0.628-2.265c-1.247-0.933-2.638-1.408-4.085-1.51
									c-5.267-0.407-11.335,3.886-14.338,7.458C238.255,311.397,237.527,313.076,238.182,313.78z"/>
								<g>
									<g>
										<g>
											<g>
												<g>
													<defs>
														<path id="XMLID_6_" d="M252.162,296.087c0.435-5.745,0.742-7.239,2.848-13.444l-1.357-23.651
															c-0.217-3.783-3.569-6.747-7.632-6.748c-6.346,22.132-11.532,26.346-11.44,48.998c0,4.795,2.284,8.742,3.243,11.231
															c0.554-1.355,3.728-5.45,6.625-7.091c2.858-1.614,4.48-3.126,7.812-3.347c2.245-0.138,5.547,1.374,6.833,1.623
															C257.967,301.574,256.187,299.471,252.162,296.087z"/>
													</defs>
													<use xlink:href="#XMLID_6_"  style="overflow:visible;fill:#92E3A9;"/>
													<clipPath id="XMLID_00000021084462592080520180000002976327832511217550_">
														<use xlink:href="#XMLID_6_"  style="overflow:visible;"/>
													</clipPath>
													
														<path style="opacity:0.2;clip-path:url(#XMLID_00000021084462592080520180000002976327832511217550_);enable-background:new    ;" d="
														M243.379,287.872c-0.066,1.245-0.188,2.716-1.334,3.358c-0.759,0.425-1.727,0.323-2.564,0.592
														c-0.837,0.269-1.513,1.349-0.835,1.879c0.882,0.104,1.807,0.224,2.525,0.713c0.719,0.489,1.13,1.477,0.647,2.174
														c-0.495,0.714-1.809,1.185-1.454,1.969c1.447-0.526,2.893-1.052,4.34-1.578c0.159,1.228-0.139,2.503-0.832,3.558
														c4.704,2.96,10.882,2.508,16.524,1.94c-2.421-2.237-4.842-4.475-7.262-6.712c-0.295-0.273-0.597-0.554-0.774-0.904
														c-0.412-0.817-0.059-1.774,0.276-2.621c1.52-3.848,6.651-20.111,0.863-22.602
														C246.936,266.813,243.557,284.53,243.379,287.872z"/>
												</g>
												
													<path id="XMLID_5_" style="fill:none;stroke:#263238;stroke-linecap:round;stroke-linejoin:round;stroke-miterlimit:10;" d="
													M246.021,252.243c-6.346,22.132-11.532,26.346-11.44,48.998c0,4.795,2.284,8.742,3.243,11.231
													c0.554-1.355,3.728-5.45,6.625-7.091c2.858-1.614,4.48-3.126,7.812-3.347c2.245-0.138,5.547,1.374,6.833,1.623
													c-1.127-2.084-2.907-4.186-6.931-7.571c0.435-5.745,0.742-7.239,2.848-13.444"/>
											</g>
											<g>
												<g>
													<path style="opacity:0.2;" d="M246.986,308.59c-0.988,1.424-1.977,2.848-2.965,4.271
														c-0.168,0.242-0.402,0.516-0.71,0.486c-0.192-0.019-0.343-0.155-0.476-0.285c-1.355-1.332-2.408-2.931-3.069-4.661
														c1.987-2.432,5.69-5.561,9.1-6.01C254.265,301.68,248.218,306.816,246.986,308.59z"/>
												</g>
											</g>
										</g>
									</g>
								</g>
								<path style="fill:#92E3A9;stroke:#263238;stroke-linecap:round;stroke-linejoin:round;stroke-miterlimit:10;" d="
									M248.971,294.145c-2.593-0.972-5.525-1.136-8.224-0.46"/>
								<path style="fill:none;stroke:#263238;stroke-linecap:round;stroke-linejoin:round;stroke-miterlimit:10;" d="
									M250.033,296.107c-2.785-0.913-6.11-0.167-8.144,1.828"/>
							</g>
							<path style="fill:#FFFFFF;stroke:#263238;stroke-linecap:round;stroke-linejoin:round;stroke-miterlimit:10;" d="
								M266.61,222.915c0,0,5.564-0.195,5.424,0.017"/>
						</g>
					</g>
				</g>
				<path style="fill:none;stroke:#263238;stroke-linecap:round;stroke-linejoin:round;stroke-miterlimit:10;" d="M248.008,253.774
					c5.348,7.979,6.848,14.276,6.894,23.685"/>
				<g>
					<g>
						<path style="fill:#FFFFFF;stroke:#263238;stroke-linecap:round;stroke-linejoin:round;stroke-miterlimit:10;" d="
							M296.874,311.814c0,0,5.29,3.019,2.655,4.417c-1.683,0.893-4.742-2.621-7.039-2.769c-2.297-0.148,1.169-2.106,1.169-2.106
							L296.874,311.814z"/>
						<g>
							<path style="fill:#FFFFFF;stroke:#263238;stroke-linecap:round;stroke-linejoin:round;stroke-miterlimit:10;" d="
								M256.241,302.765c0.438,0.221,4.936,1.994,5.419,2.108c1.959,0.464,7.574,1.767,9.751,1.985
								c3.849,0.385,15.484-0.055,15.484-0.055c0.268-0.001,0.533,0.056,0.774,0.165l6.608,3.008
								c0.241,0.11,0.451,0.269,0.615,0.467c0,0,1.882,2.025,1.944,2.194l0.626,2.353c-0.232-0.893,0.04,0.138,0.048,0.213
								c0.039,0.372,0.005,0.801-0.106,1.172c-0.191,0.639-1.042,0.873-1.619,0.484l0,0l-0.264-0.802
								c0.692,1.706,0.153,2.038-0.146,2.162c-0.799,0.332-1.732-0.103-2.063-0.858l-0.42-0.96c0,0-0.601,1.819-2.616-0.03
								c-0.266-0.244-0.775-1.368-1.69-2.454c0,0-1.286-1.552-2.147-1.877c-1.939-0.732-2.289-1.081-2.906-1.182
								c0,0,6.001,4.316,4.517,5.467c-1.484,1.151-5.838-3.499-7.559-3.375c-1.684,0.121-2.519,3.882-11.257,1.09
								c-0.387-0.124-0.798-0.174-1.206-0.134c-1.621,0.158-6.039,0.826-8.578,0.838c-14.664,0.064-19.524-4.221-19.613-5.221
								C239.631,307.197,250.789,300.006,256.241,302.765z"/>
							<path style="fill:none;stroke:#263238;stroke-linecap:round;stroke-linejoin:round;stroke-miterlimit:10;" d="
								M286.754,309.899l1.275,0.414c0.621,0.202,1.169,0.561,1.585,1.036l1.776,2.133c0.205,0.234,1.373,2.641,1.502,2.917"/>
							<path style="fill:none;stroke:#263238;stroke-linecap:round;stroke-linejoin:round;stroke-miterlimit:10;" d="
								M289.831,309.322c0,0,2.688,1.242,3.104,1.717l1.654,3.03c0.205,0.234,1.375,2.412,1.154,3.619"/>
						</g>
					</g>
					<path style="fill:none;stroke:#263238;stroke-linecap:round;stroke-linejoin:round;stroke-miterlimit:10;" d="M271.776,308.151
						c3.289-0.931,8.263-1.504,10.661-1.215"/>
				</g>
			</g>
			<path style="fill:none;stroke:#263238;stroke-linecap:round;stroke-linejoin:round;" d="M285.823,224.727
				c0.23,1.252-0.046,2.591-0.753,3.65c0.102-0.108,0.178-0.24,0.221-0.382"/>
		</g>
	</g>
</g>
<g id="Plant">
	<g>
		<g>
			<path style="fill:#5C5C5C;stroke:#263238;stroke-linecap:round;stroke-linejoin:round;stroke-miterlimit:10;" d="
				M371.435,467.444h18.544c4.976,0,9.01-4.034,9.01-9.01v-22.812c0-4.976-4.034-9.01-9.01-9.01h-18.544
				c-4.976,0-9.01,4.034-9.01,9.01v22.812C362.425,463.41,366.459,467.444,371.435,467.444z"/>
			<path style="fill:#999999;stroke:#263238;stroke-linecap:round;stroke-linejoin:round;stroke-miterlimit:10;" d="
				M406.884,467.444h8.673c4.458,0,8.073-3.614,8.073-8.073v-24.687c0-4.458-3.615-8.073-8.073-8.073h-8.673
				c-4.458,0-8.073,3.614-8.073,8.073v24.687C398.811,463.829,402.426,467.444,406.884,467.444z"/>
		</g>
		<g>
			<g>
				<path style="fill:#92E3A9;" d="M362.64,418.287c3.542,2.385,7.669,3.637,11.787,3.575c0.495-0.008,1.007-0.038,1.452-0.284
					c0.445-0.246,0.81-0.762,0.774-1.323c-0.041-0.643-0.555-1.096-1.03-1.449c-2.652-1.971-5.537-3.535-8.55-4.649
					c-1.524-0.564-3.082-1.014-4.659-1.342c-1.266-0.263-2.618-0.881-3.898-0.869C358.272,414.706,360.784,417.037,362.64,418.287z"
					/>
				<g>
					<g>
						<path style="fill:#92E3A9;" d="M412.872,402.429c1.766-2.266,4.308-3.731,6.961-4.015c0.154-0.017,0.323-0.025,0.45,0.076
							c0.17,0.135,0.194,0.405,0.199,0.64c0.065,3.555-1.016,7.124-2.993,9.882c-0.912,1.272-2.049,2.401-3.426,2.897
							c-0.996,0.358-2.186,0.354-3.134-0.187c-0.951-0.543-0.777-1.32-0.68-2.391C410.479,406.788,411.375,404.348,412.872,402.429z
							"/>
						<path style="opacity:0.2;" d="M412.872,402.429c1.766-2.266,4.308-3.731,6.961-4.015c0.154-0.017,0.323-0.025,0.45,0.076
							c0.17,0.135,0.194,0.405,0.199,0.64c0.065,3.555-1.016,7.124-2.993,9.882c-0.912,1.272-2.049,2.401-3.426,2.897
							c-0.996,0.358-2.186,0.354-3.134-0.187c-0.951-0.543-0.777-1.32-0.68-2.391C410.479,406.788,411.375,404.348,412.872,402.429z
							"/>
					</g>
					<g>
						<path style="fill:#92E3A9;" d="M395.831,405.654c1.308-1.606,2.268-3.671,2.31-5.858c0.035-1.833-0.572-3.623-1.445-5.166
							c-0.873-1.543-2.003-2.873-3.125-4.192c-0.365,3.973-0.47,7.976-0.315,11.966c0.033,0.847,0.085,1.726,0.441,2.472
							c0.356,0.746,1.104,1.32,1.833,1.134L395.831,405.654z"/>
					</g>
					<g>
						<path style="fill:#92E3A9;" d="M400.884,393.506c-2.465,2.504-4.014,6.136-4.215,9.884c-0.071,1.324,0.031,2.706,0.599,3.866
							c0.568,1.159,1.685,2.042,2.849,1.921c1.215-0.126,2.156-1.249,2.842-2.395c1.14-1.904,2.525-4.62,1.876-6.966
							C404.138,397.306,402.763,395.056,400.884,393.506z"/>
						<path style="opacity:0.1;" d="M400.884,393.506c-2.465,2.504-4.014,6.136-4.215,9.884c-0.071,1.324,0.031,2.706,0.599,3.866
							c0.568,1.159,1.685,2.042,2.849,1.921c1.215-0.126,2.156-1.249,2.842-2.395c1.14-1.904,2.525-4.62,1.876-6.966
							C404.138,397.306,402.763,395.056,400.884,393.506z"/>
					</g>
					<g>
						<path style="fill:#92E3A9;" d="M408.362,406.696c2.011-1.874,2.832-5.011,2.742-7.962c-0.09-2.951-0.969-5.789-1.838-8.572
							c-1.96,2.688-3.558,5.717-4.721,8.947c-0.445,1.238-0.832,2.53-0.858,3.867c-0.027,1.336,0.351,2.736,1.229,3.627
							c0.878,0.892,2.302,1.13,3.252,0.341c-0.112,0.066-0.224,0.133-0.337,0.2L408.362,406.696z"/>
					</g>
					<g style="opacity:0.2;">
						<path d="M408.362,406.696c2.011-1.874,2.832-5.011,2.742-7.962c-0.09-2.951-0.969-5.789-1.838-8.572
							c-1.96,2.688-3.558,5.717-4.721,8.947c-0.445,1.238-0.832,2.53-0.858,3.867c-0.027,1.336,0.351,2.736,1.229,3.627
							c0.878,0.892,2.302,1.13,3.252,0.341c-0.112,0.066-0.224,0.133-0.337,0.2L408.362,406.696z"/>
					</g>
					<g>
						<g>
							<path style="fill:#92E3A9;" d="M412.949,395.117c0.502,3.645,0.995,7.378,0.379,11c-0.615,3.622-2.564,7.173-5.613,8.451
								c-1.269,0.532-2.901,0.537-3.751-0.656c-0.572-0.802-0.629-1.956-0.372-2.946c0.258-0.99,0.786-1.855,1.307-2.702
								c2.433-3.955,7.502-13.541,8.017-13.139L412.949,395.117z"/>
						</g>
						<g>
							<path style="fill:#92E3A9;" d="M412.949,395.117c0.502,3.645,0.995,7.378,0.379,11c-0.615,3.622-2.564,7.173-5.613,8.451
								c-1.269,0.532-2.901,0.537-3.751-0.656c-0.572-0.802-0.629-1.956-0.372-2.946c0.258-0.99,0.786-1.855,1.307-2.702
								c2.433-3.955,7.502-13.541,8.017-13.139L412.949,395.117z"/>
						</g>
						<g style="opacity:0.1;">
							<path d="M412.949,395.117c0.502,3.645,0.995,7.378,0.379,11c-0.615,3.622-2.564,7.173-5.613,8.451
								c-1.269,0.532-2.901,0.537-3.751-0.656c-0.572-0.802-0.629-1.956-0.372-2.946c0.258-0.99,0.786-1.855,1.307-2.702
								c2.433-3.955,7.502-13.541,8.017-13.139L412.949,395.117z"/>
						</g>
					</g>
					<path style="fill:#92E3A9;" d="M403.527,400.043c1.19,2.161,2.192,4.498,2.602,7.004c0.411,2.506,0.189,5.205-0.934,7.412
						c-1.123,2.207-3.224,3.833-5.469,3.851c-1.736,0.013-3.436-1.039-4.376-2.691c-1.038-1.824-0.279-3.48,0.512-5.264
						C397.661,406.298,400.644,403.106,403.527,400.043z"/>
					<g>
						<path style="fill:#92E3A9;" d="M425.906,406.783c0.622,1.011,0.599,2.4,0.181,3.539c-0.418,1.138-1.176,2.068-1.966,2.915
							c-5.37,5.752-13.004,8.672-20.346,7.782c-0.611-0.074-1.302-0.231-1.618-0.829c-0.349-0.66-0.035-1.56,0.502-2.031
							c0.536-0.47,1.23-0.624,1.893-0.786c3.759-0.922,7.353-2.579,10.637-4.847C418.48,410.252,422.393,408.679,425.906,406.783z"
							/>
						<path style="opacity:0.1;" d="M425.906,406.783c0.622,1.011,0.599,2.4,0.181,3.539c-0.418,1.138-1.176,2.068-1.966,2.915
							c-5.37,5.752-13.004,8.672-20.346,7.782c-0.611-0.074-1.302-0.231-1.618-0.829c-0.349-0.66-0.035-1.56,0.502-2.031
							c0.536-0.47,1.23-0.624,1.893-0.786c3.759-0.922,7.353-2.579,10.637-4.847C418.48,410.252,422.393,408.679,425.906,406.783z"
							/>
					</g>
					<path style="fill:#92E3A9;" d="M412.924,406.773c0.544-0.809,1.229-1.743,2.121-1.642c0.691,0.079,1.201,0.781,1.487,1.499
						c1.163,2.918-0.228,6.491-2.452,8.463c-2.224,1.971-5.079,2.719-7.833,3.414c-0.945,0.238-1.89,0.477-2.834,0.715
						c-1.124,0.284-3.381-0.095-2.377-1.875c0.673-1.193,2.925-1.873,3.969-2.577C408.059,412.707,410.767,409.98,412.924,406.773z"
						/>
					<path style="fill:#92E3A9;" d="M424.614,418.287c-3.542,2.385-7.669,3.637-11.787,3.575c-0.495-0.008-1.007-0.038-1.452-0.284
						c-0.445-0.246-0.81-0.762-0.775-1.323c0.041-0.643,0.555-1.096,1.03-1.449c2.652-1.971,5.537-3.535,8.55-4.649
						c1.524-0.564,3.082-1.014,4.659-1.342c1.265-0.263,2.618-0.881,3.897-0.869C428.981,414.706,426.47,417.037,424.614,418.287z"
						/>
					<g>
						<path style="fill:#92E3A9;" d="M413.196,429.208c3.476-0.251,6.808-1.837,9.67-4.089c0.546-0.429,1.143-1.118,0.902-1.82
							c-0.17-0.493-0.674-0.699-1.121-0.849c-3.288-1.102-6.648-2.214-10.074-2.065c-1.618,0.07-3.241,0.462-4.721,1.212
							c-1.156,0.587-3.553,2.026-3.891,3.582c-0.35,1.609,2.653,2.782,3.757,3.213C409.47,429.076,411.348,429.341,413.196,429.208z
							"/>
						<path style="opacity:0.1;" d="M413.196,429.208c3.476-0.251,6.808-1.837,9.67-4.089c0.546-0.429,1.143-1.118,0.902-1.82
							c-0.17-0.493-0.674-0.699-1.121-0.849c-3.288-1.102-6.648-2.214-10.074-2.065c-1.618,0.07-3.241,0.462-4.721,1.212
							c-1.156,0.587-3.553,2.026-3.891,3.582c-0.35,1.609,2.653,2.782,3.757,3.213C409.47,429.076,411.348,429.341,413.196,429.208z
							"/>
					</g>
					<g>
						<path style="fill:#92E3A9;" d="M399.475,420.604c3.382-0.774,6.866-0.963,10.297-0.558c0.852,0.101,1.723,0.245,2.475,0.711
							c0.752,0.466,1.371,1.319,1.399,2.291c0.028,0.979-0.548,1.878-1.272,2.41c-0.724,0.533-1.583,0.766-2.424,0.987
							c-2.479,0.653-5.021,1.285-7.547,0.943c-1.857-0.252-4.041-1.155-5.242-2.877C395.603,422.277,397.657,421.02,399.475,420.604
							z"/>
						<path style="opacity:0.1;fill:#FFFFFF;" d="M399.475,420.604c3.382-0.774,6.866-0.963,10.297-0.558
							c0.852,0.101,1.723,0.245,2.475,0.711c0.752,0.466,1.371,1.319,1.399,2.291c0.028,0.979-0.548,1.878-1.272,2.41
							c-0.724,0.533-1.583,0.766-2.424,0.987c-2.479,0.653-5.021,1.285-7.547,0.943c-1.857-0.252-4.041-1.155-5.242-2.877
							C395.603,422.277,397.657,421.02,399.475,420.604z"/>
					</g>
					<g>
						<g>
							<path style="fill:#92E3A9;" d="M389.16,420.572c-0.655-0.5-1.309-1.065-1.682-1.855c-0.373-0.79-0.39-1.862,0.158-2.508
								c0.783-0.922,5.145-2.232,6.241-2.485c0.915-0.212,1.848,0.175,2.713,0.576c1.249,0.58,2.483,1.205,3.697,1.874
								c0.605,0.333,1.219,0.688,1.682,1.241c0.463,0.553,0.755,1.35,0.586,2.089c-0.238,1.041-1.24,1.572-2.143,1.896
								c-2.333,0.837-4.791,1.227-7.237,1.147C393.344,422.509,390.245,421.401,389.16,420.572z"/>
						</g>
						<g style="opacity:0.1;">
							<path d="M389.16,420.572c-0.655-0.5-1.309-1.065-1.682-1.855c-0.373-0.79-0.39-1.862,0.158-2.508
								c0.783-0.922,5.145-2.232,6.241-2.485c0.915-0.212,1.848,0.175,2.713,0.576c1.249,0.58,2.483,1.205,3.697,1.874
								c0.605,0.333,1.219,0.688,1.682,1.241c0.463,0.553,0.755,1.35,0.586,2.089c-0.238,1.041-1.24,1.572-2.143,1.896
								c-2.333,0.837-4.791,1.227-7.237,1.147C393.344,422.509,390.245,421.401,389.16,420.572z"/>
						</g>
					</g>
					<path style="fill:#92E3A9;" d="M398.016,422.292c1.072,0.329,2.096,1.062,2.601,2.185c0.504,1.123,0.359,2.657-0.505,3.448
						c-0.628,0.576-1.485,0.679-2.29,0.759c-0.993,0.099-1.986,0.197-2.978,0.296c-0.629,0.063-1.318,0.108-1.832-0.309
						c-0.693-0.563-0.754-1.687-0.747-2.655c0.006-0.923,0.016-1.874,0.334-2.723c0.407-1.087,1.166-1.634,2.156-1.477
						C395.828,421.986,396.964,421.969,398.016,422.292z"/>
					<g>
						<path style="fill:#92E3A9;" d="M374.382,402.429c-1.766-2.266-4.308-3.731-6.961-4.015c-0.154-0.017-0.323-0.025-0.45,0.076
							c-0.169,0.135-0.194,0.405-0.199,0.64c-0.065,3.555,1.016,7.124,2.993,9.882c0.912,1.272,2.049,2.401,3.426,2.897
							c0.996,0.358,2.185,0.354,3.134-0.187c0.951-0.543,0.777-1.32,0.68-2.391C376.774,406.788,375.878,404.348,374.382,402.429z"
							/>
						<path style="opacity:0.2;" d="M374.382,402.429c-1.766-2.266-4.308-3.731-6.961-4.015c-0.154-0.017-0.323-0.025-0.45,0.076
							c-0.169,0.135-0.194,0.405-0.199,0.64c-0.065,3.555,1.016,7.124,2.993,9.882c0.912,1.272,2.049,2.401,3.426,2.897
							c0.996,0.358,2.185,0.354,3.134-0.187c0.951-0.543,0.777-1.32,0.68-2.391C376.774,406.788,375.878,404.348,374.382,402.429z"
							/>
					</g>
					<g>
						<path style="fill:#92E3A9;" d="M391.423,405.654c-1.308-1.606-2.268-3.671-2.31-5.858c-0.036-1.833,0.572-3.623,1.445-5.166
							c0.872-1.543,2.003-2.873,3.125-4.192c0.365,3.973,0.47,7.976,0.315,11.966c-0.033,0.847-0.085,1.726-0.441,2.472
							c-0.356,0.746-1.103,1.32-1.833,1.134L391.423,405.654z"/>
					</g>
					<g>
						<path style="fill:#92E3A9;" d="M386.37,393.506c2.465,2.504,4.014,6.136,4.215,9.884c0.071,1.324-0.031,2.706-0.599,3.866
							c-0.568,1.159-1.685,2.042-2.849,1.921c-1.215-0.126-2.156-1.249-2.842-2.395c-1.14-1.904-2.525-4.62-1.876-6.966
							C383.115,397.306,384.49,395.056,386.37,393.506z"/>
						<path style="opacity:0.1;" d="M386.37,393.506c2.465,2.504,4.014,6.136,4.215,9.884c0.071,1.324-0.031,2.706-0.599,3.866
							c-0.568,1.159-1.685,2.042-2.849,1.921c-1.215-0.126-2.156-1.249-2.842-2.395c-1.14-1.904-2.525-4.62-1.876-6.966
							C383.115,397.306,384.49,395.056,386.37,393.506z"/>
					</g>
					<g>
						<path style="fill:#92E3A9;" d="M378.891,406.696c-2.011-1.874-2.832-5.011-2.742-7.962c0.09-2.951,0.969-5.789,1.838-8.572
							c1.96,2.688,3.558,5.717,4.721,8.947c0.445,1.238,0.832,2.53,0.858,3.867c0.027,1.336-0.351,2.736-1.229,3.627
							c-0.878,0.892-2.302,1.13-3.252,0.341c0.112,0.066,0.224,0.133,0.337,0.2L378.891,406.696z"/>
					</g>
					<g style="opacity:0.2;">
						<path d="M378.891,406.696c-2.011-1.874-2.832-5.011-2.742-7.962c0.09-2.951,0.969-5.789,1.838-8.572
							c1.96,2.688,3.558,5.717,4.721,8.947c0.445,1.238,0.832,2.53,0.858,3.867c0.027,1.336-0.351,2.736-1.229,3.627
							c-0.878,0.892-2.302,1.13-3.252,0.341c0.112,0.066,0.224,0.133,0.337,0.2L378.891,406.696z"/>
					</g>
					<g>
						<g>
							<path style="fill:#92E3A9;" d="M374.305,395.117c-0.502,3.645-0.995,7.378-0.379,11c0.615,3.622,2.565,7.173,5.613,8.451
								c1.269,0.532,2.901,0.537,3.752-0.656c0.572-0.802,0.629-1.956,0.371-2.946c-0.258-0.99-0.786-1.855-1.307-2.702
								c-2.433-3.955-7.502-13.541-8.017-13.139L374.305,395.117z"/>
						</g>
						<g>
							<path style="fill:#92E3A9;" d="M374.305,395.117c-0.502,3.645-0.995,7.378-0.379,11c0.615,3.622,2.565,7.173,5.613,8.451
								c1.269,0.532,2.901,0.537,3.752-0.656c0.572-0.802,0.629-1.956,0.371-2.946c-0.258-0.99-0.786-1.855-1.307-2.702
								c-2.433-3.955-7.502-13.541-8.017-13.139L374.305,395.117z"/>
						</g>
						<g style="opacity:0.1;">
							<path d="M374.305,395.117c-0.502,3.645-0.995,7.378-0.379,11c0.615,3.622,2.565,7.173,5.613,8.451
								c1.269,0.532,2.901,0.537,3.752-0.656c0.572-0.802,0.629-1.956,0.371-2.946c-0.258-0.99-0.786-1.855-1.307-2.702
								c-2.433-3.955-7.502-13.541-8.017-13.139L374.305,395.117z"/>
						</g>
					</g>
					<path style="fill:#92E3A9;" d="M383.726,400.043c-1.19,2.161-2.192,4.498-2.602,7.004c-0.41,2.506-0.189,5.205,0.934,7.412
						c1.123,2.207,3.224,3.833,5.47,3.851c1.736,0.013,3.436-1.039,4.376-2.691c1.038-1.824,0.279-3.48-0.512-5.264
						C389.592,406.298,386.61,403.106,383.726,400.043z"/>
					<g>
						<path style="fill:#92E3A9;" d="M361.338,407.067c-0.61,0.991-0.587,2.353-0.178,3.469c0.41,1.116,1.153,2.028,1.928,2.857
							c5.264,5.639,12.747,8.501,19.944,7.629c0.599-0.073,1.276-0.227,1.586-0.813c0.342-0.647,0.034-1.53-0.492-1.991
							c-0.526-0.461-1.206-0.611-1.855-0.77c-3.685-0.903-7.208-2.528-10.427-4.751
							C368.617,410.467,364.782,408.926,361.338,407.067z"/>
						<path style="opacity:0.1;" d="M361.338,407.067c-0.61,0.991-0.587,2.353-0.178,3.469c0.41,1.116,1.153,2.028,1.928,2.857
							c5.264,5.639,12.747,8.501,19.944,7.629c0.599-0.073,1.276-0.227,1.586-0.813c0.342-0.647,0.034-1.53-0.492-1.991
							c-0.526-0.461-1.206-0.611-1.855-0.77c-3.685-0.903-7.208-2.528-10.427-4.751
							C368.617,410.467,364.782,408.926,361.338,407.067z"/>
					</g>
					<path style="fill:#92E3A9;" d="M373.711,406.524c-0.535-0.794-1.206-1.712-2.082-1.612c-0.679,0.077-1.179,0.766-1.46,1.472
						c-1.142,2.865,0.224,6.373,2.407,8.308c2.183,1.935,4.986,2.669,7.69,3.352c0.928,0.234,1.855,0.468,2.783,0.702
						c1.104,0.279,3.319-0.093,2.334-1.84c-0.661-1.171-2.872-1.838-3.897-2.531C378.488,412.349,375.83,409.672,373.711,406.524z"
						/>
					<g>
						<path style="fill:#92E3A9;" d="M374.058,429.208c-3.476-0.251-6.808-1.837-9.67-4.089c-0.546-0.429-1.143-1.118-0.902-1.82
							c0.17-0.493,0.674-0.699,1.121-0.849c3.288-1.102,6.648-2.214,10.074-2.065c1.618,0.07,3.241,0.462,4.721,1.212
							c1.156,0.587,3.553,2.026,3.891,3.582c0.35,1.609-2.653,2.782-3.757,3.213C377.783,429.076,375.905,429.341,374.058,429.208z"
							/>
						<path style="opacity:0.1;" d="M374.058,429.208c-3.476-0.251-6.808-1.837-9.67-4.089c-0.546-0.429-1.143-1.118-0.902-1.82
							c0.17-0.493,0.674-0.699,1.121-0.849c3.288-1.102,6.648-2.214,10.074-2.065c1.618,0.07,3.241,0.462,4.721,1.212
							c1.156,0.587,3.553,2.026,3.891,3.582c0.35,1.609-2.653,2.782-3.757,3.213C377.783,429.076,375.905,429.341,374.058,429.208z"
							/>
					</g>
					<g>
						<path style="fill:#92E3A9;" d="M387.778,420.604c-3.382-0.774-6.866-0.963-10.297-0.558c-0.852,0.101-1.723,0.245-2.475,0.711
							c-0.752,0.466-1.371,1.319-1.399,2.291c-0.028,0.979,0.548,1.878,1.272,2.41c0.724,0.533,1.583,0.766,2.424,0.987
							c2.479,0.653,5.021,1.285,7.547,0.943c1.857-0.252,4.041-1.155,5.242-2.877C391.65,422.277,389.596,421.02,387.778,420.604z"
							/>
						<path style="opacity:0.1;fill:#FFFFFF;" d="M387.778,420.604c-3.382-0.774-6.866-0.963-10.297-0.558
							c-0.852,0.101-1.723,0.245-2.475,0.711c-0.752,0.466-1.371,1.319-1.399,2.291c-0.028,0.979,0.548,1.878,1.272,2.41
							c0.724,0.533,1.583,0.766,2.424,0.987c2.479,0.653,5.021,1.285,7.547,0.943c1.857-0.252,4.041-1.155,5.242-2.877
							C391.65,422.277,389.596,421.02,387.778,420.604z"/>
					</g>
					<g>
						<g>
							<path style="fill:#92E3A9;" d="M398.093,420.572c0.655-0.5,1.309-1.065,1.682-1.855c0.373-0.79,0.39-1.862-0.158-2.508
								c-0.784-0.922-5.145-2.232-6.241-2.485c-0.915-0.212-1.848,0.175-2.712,0.576c-1.25,0.58-2.483,1.205-3.697,1.874
								c-0.605,0.333-1.219,0.688-1.682,1.241c-0.463,0.553-0.755,1.35-0.586,2.089c0.238,1.041,1.24,1.572,2.143,1.896
								c2.333,0.837,4.791,1.227,7.237,1.147C393.909,422.509,397.009,421.401,398.093,420.572z"/>
						</g>
						<g style="opacity:0.1;">
							<path d="M398.093,420.572c0.655-0.5,1.309-1.065,1.682-1.855c0.373-0.79,0.39-1.862-0.158-2.508
								c-0.784-0.922-5.145-2.232-6.241-2.485c-0.915-0.212-1.848,0.175-2.712,0.576c-1.25,0.58-2.483,1.205-3.697,1.874
								c-0.605,0.333-1.219,0.688-1.682,1.241c-0.463,0.553-0.755,1.35-0.586,2.089c0.238,1.041,1.24,1.572,2.143,1.896
								c2.333,0.837,4.791,1.227,7.237,1.147C393.909,422.509,397.009,421.401,398.093,420.572z"/>
						</g>
					</g>
					<path style="fill:#92E3A9;" d="M389.238,422.292c-1.072,0.329-2.096,1.062-2.601,2.185c-0.504,1.123-0.359,2.657,0.505,3.448
						c0.629,0.576,1.485,0.679,2.29,0.759c0.993,0.099,1.986,0.197,2.978,0.296c0.629,0.063,1.318,0.108,1.832-0.309
						c0.694-0.563,0.754-1.687,0.747-2.655c-0.006-0.923-0.016-1.874-0.334-2.723c-0.407-1.087-1.166-1.634-2.156-1.477
						C391.426,421.986,390.29,421.969,389.238,422.292z"/>
					<g>
						<path style="fill:#92E3A9;" d="M394.149,400.973c-0.183-0.143-0.366-0.267-0.521-0.325c0.063-0.026,0.126-0.039,0.177-0.032
							c0.034,0,0.069,0.013,0.103,0.032h0.006c0.034,0.013,0.063,0.039,0.092,0.071c0.029,0.033,0.057,0.065,0.08,0.111
							c0.023,0.033,0.04,0.065,0.052,0.111C394.143,400.947,394.149,400.96,394.149,400.973z"/>
						<path style="opacity:0.1;fill:#92E3A9;" d="M394.154,400.973h-0.006c-0.183-0.143-0.366-0.267-0.521-0.325
							c0.063-0.026,0.126-0.039,0.177-0.032c0.034,0,0.069,0.013,0.103,0.032h0.006c0.034,0.013,0.063,0.039,0.092,0.071
							c0.029,0.033,0.057,0.065,0.08,0.111c0.023,0.033,0.04,0.065,0.052,0.111C394.143,400.947,394.149,400.96,394.154,400.973z"/>
						<g>
							<g>
								<path style="fill:#92E3A9;" d="M397.865,411.086c-0.372,1.001-0.848,1.983-1.54,2.736c-0.687,0.76-1.62,1.287-2.582,1.254
									c-0.04,0-0.074,0-0.115-0.006h-0.006c-0.034,0.006-0.074,0.006-0.115,0.006c-0.962,0.033-1.89-0.494-2.582-1.254
									c-0.687-0.754-1.163-1.736-1.54-2.736c-0.487-1.326-0.825-2.769-0.636-4.192c0.212-1.567,1.054-2.958,2.096-4.024
									c0.275,0,1.145-1.014,1.42-1.222c0.023-0.013,0.046-0.033,0.074-0.052c0.023-0.026,0.052-0.046,0.086-0.072
									c0.183-0.149,0.435-0.37,0.681-0.559c0.115-0.084,0.229-0.163,0.332-0.227c0.029-0.013,0.063-0.033,0.092-0.046
									c0.034-0.02,0.069-0.033,0.097-0.046c0.155,0.059,0.338,0.182,0.521,0.325h0.006c0.332,0.247,0.664,0.552,0.83,0.676
									c0.28,0.208,1.145,1.222,1.426,1.222c1.042,1.066,1.884,2.457,2.09,4.024C398.695,408.318,398.357,409.76,397.865,411.086z"
									/>
								<path style="fill:#92E3A9;" d="M393.628,400.648c-0.029,0.013-0.063,0.026-0.097,0.046
									c-0.029,0.013-0.057,0.026-0.092,0.046c-0.103,0.065-0.217,0.143-0.332,0.227c0.074-0.208,0.189-0.338,0.344-0.351
									C393.502,400.609,393.565,400.622,393.628,400.648z"/>
							</g>
							<g style="opacity:0.2;">
								<path style="fill:#FFFFFF;" d="M397.865,411.086c-0.372,1.001-0.848,1.983-1.54,2.736c-0.687,0.76-1.62,1.287-2.582,1.254
									c-0.04,0-0.074,0-0.115-0.006h-0.006c-0.034,0.006-0.074,0.006-0.115,0.006c-0.962,0.033-1.89-0.494-2.582-1.254
									c-0.687-0.754-1.163-1.736-1.54-2.736c-0.487-1.326-0.825-2.769-0.636-4.192c0.212-1.567,1.054-2.958,2.096-4.024
									c0.275,0,1.145-1.014,1.42-1.222c0.172-0.124,0.515-0.436,0.842-0.683c0.189-0.143,0.366-0.26,0.521-0.318
									c0.155,0.059,0.344,0.182,0.527,0.325c0.332,0.247,0.664,0.552,0.83,0.676c0.28,0.208,1.145,1.222,1.426,1.222
									c1.042,1.066,1.884,2.457,2.09,4.024C398.695,408.318,398.357,409.76,397.865,411.086z"/>
								<path style="fill:#FFFFFF;" d="M393.628,400.648c-0.155,0.059-0.332,0.176-0.521,0.318c0.074-0.208,0.189-0.338,0.344-0.351
									C393.502,400.609,393.565,400.622,393.628,400.648z"/>
							</g>
						</g>
					</g>
					<path style="opacity:0.1;fill:#FFFFFF;" d="M394.154,400.973c-0.183-0.143-0.372-0.267-0.527-0.325
						c0.063-0.026,0.126-0.039,0.177-0.032C393.96,400.628,394.074,400.758,394.154,400.973z"/>
				</g>
			</g>
		</g>
	</g>
</g>
<g id="Desk">
	<g>
		<g>
			<g>
				<path style="fill:#FFFFFF;stroke:#263238;stroke-linecap:round;stroke-linejoin:round;stroke-miterlimit:10;" d="
					M394.263,318.552c0,0,0.294-2.495-4.48-3.786c-8.608-2.328-13.725,2.581-13.77,2.621c-2.024,1.807-0.962,4.754,1.577,4.751
					c1.437-0.002,3.245-0.003,5.513-0.003L394.263,318.552z"/>
			</g>
			<g>
				<path style="fill:#FFFFFF;stroke:#263238;stroke-linecap:round;stroke-linejoin:round;stroke-miterlimit:10;" d="
					M384.863,322.051h7.667c0.957,0,1.733-0.776,1.733-1.733v-2.474H383.13v2.474C383.13,321.276,383.906,322.051,384.863,322.051z"
					/>
				<path style="fill:#FFFFFF;stroke:#263238;stroke-linecap:round;stroke-linejoin:round;stroke-miterlimit:10;" d="
					M394.263,317.863c0-1.598-2.492-2.894-5.566-2.894c-3.074,0-5.566,1.296-5.566,2.894H394.263z"/>
				<path style="fill:#FFFFFF;stroke:#263238;stroke-linecap:round;stroke-linejoin:round;stroke-miterlimit:10;" d="
					M383.13,317.863c0-1.598,2.492-2.894,5.566-2.894v2.894H383.13z"/>
			</g>
		</g>
		<g>
			<polygon style="fill:#FFFFFF;stroke:#263238;stroke-linecap:round;stroke-linejoin:round;stroke-miterlimit:10;" points="
				276.106,321.803 297.726,321.803 297.726,316.516 276.106,318.781 			"/>
			
				<rect x="297.726" y="316.516" transform="matrix(-1 -1.224647e-16 1.224647e-16 -1 649.5379 638.3182)" style="fill:#999999;stroke:#263238;stroke-linecap:round;stroke-linejoin:round;stroke-miterlimit:10;" width="54.086" height="5.287"/>
		</g>
		<g>
			<g>
				<path style="fill:#FFFFFF;stroke:#263238;stroke-linecap:round;stroke-linejoin:round;stroke-miterlimit:10;" d="
					M314.107,242.408h6.181l-6.305,59.988h-6.181c-1.419,0-2.448-1.15-2.299-2.569l5.765-54.85
					C311.417,243.559,312.688,242.408,314.107,242.408z"/>
				<g>
					<path style="fill:#FFFFFF;stroke:#263238;stroke-linecap:round;stroke-linejoin:round;stroke-miterlimit:10;" d="
						M310.683,302.397h77.768c1.419,0,2.69-1.15,2.839-2.569l5.765-54.85c0.149-1.419-0.88-2.569-2.299-2.569h-77.768
						c-1.419,0-2.69,1.15-2.84,2.569l-5.765,54.85C308.235,301.246,309.264,302.397,310.683,302.397z"/>
					<g>
						
							<line style="fill:none;stroke:#263238;stroke-linecap:round;stroke-linejoin:round;stroke-miterlimit:10;" x1="337.706" y1="246.947" x2="344.037" y2="246.947"/>
						<path style="fill:none;stroke:#263238;stroke-linecap:round;stroke-linejoin:round;stroke-miterlimit:10;" d="
							M316.103,267.239l1.577-13.204c0.483-4.044,3.912-7.088,7.985-7.088h8.534"/>
					</g>
					
						<rect x="337.706" y="314.741" transform="matrix(-1 -1.224647e-16 1.224647e-16 -1 714.087 635.6537)" style="fill:#5C5C5C;stroke:#263238;stroke-linecap:round;stroke-linejoin:round;stroke-miterlimit:10;" width="38.675" height="6.172"/>
					
						<rect x="326.389" y="314.741" transform="matrix(-1 -1.224647e-16 1.224647e-16 -1 664.0954 635.6537)" style="fill:#999999;stroke:#263238;stroke-linecap:round;stroke-linejoin:round;stroke-miterlimit:10;" width="11.316" height="6.172"/>
					<path style="fill:#263238;stroke:#263238;stroke-linecap:round;stroke-linejoin:round;stroke-miterlimit:10;" d="
						M357.375,288.598c-0.3-2.852-2.52-5.228-5.237-5.887c0.46-0.118,0.938-0.198,1.447-0.198c3.361,0,6.372,2.725,6.725,6.086
						c0.353,3.361-2.085,6.086-5.446,6.086c-0.509,0-1.003-0.081-1.488-0.198C355.954,293.826,357.675,291.45,357.375,288.598z"/>
					<path style="fill:#999999;stroke:#263238;stroke-linecap:round;stroke-linejoin:round;stroke-miterlimit:10;" d="
						M343.584,278.112l3.85,36.629h-2.935l-3.85-36.629c-0.092-0.879,0.545-1.592,1.424-1.592h2.935
						C344.129,276.52,343.492,277.233,343.584,278.112z"/>
					<path style="fill:#5C5C5C;stroke:#263238;stroke-linecap:round;stroke-linejoin:round;stroke-miterlimit:10;" d="
						M343.584,278.112l3.85,36.629h19.076l-3.85-36.629c-0.092-0.879-0.88-1.592-1.759-1.592h-15.892
						C344.129,276.52,343.492,277.233,343.584,278.112z"/>
				</g>
			</g>
		</g>
		<g>
			<g>
				<path style="fill:#92E3A9;stroke:#263238;stroke-linecap:round;stroke-linejoin:round;stroke-miterlimit:10;" d="
					M458.525,359.549v71.453c0,20.965-16.423,37.973-36.695,37.973h-24.149c20.26,0,36.696-17.008,36.696-37.973v-71.453
					c0-20.965-16.436-37.973-36.696-37.973h24.149C442.102,321.576,458.525,338.584,458.525,359.549z"/>
				<path style="opacity:0.1;stroke:#263238;stroke-linecap:round;stroke-linejoin:round;stroke-miterlimit:10;" d="
					M458.525,359.549v71.453c0,20.965-16.423,37.973-36.695,37.973h-24.149c20.26,0,36.696-17.008,36.696-37.973v-71.453
					c0-20.965-16.436-37.973-36.696-37.973h24.149C442.102,321.576,458.525,338.584,458.525,359.549z"/>
			</g>
			<g>
				<path style="fill:#92E3A9;stroke:#263238;stroke-linecap:round;stroke-linejoin:round;stroke-miterlimit:10;" d="
					M249.654,468.975h-24.162c-20.26,0-36.682-17.008-36.682-37.973v-71.453c0-20.965,16.423-37.973,36.682-37.973h24.162
					c-20.273,0-36.696,17.008-36.696,37.973v71.453C212.959,451.967,229.381,468.975,249.654,468.975z"/>
				<path style="opacity:0.1;stroke:#263238;stroke-linecap:round;stroke-linejoin:round;stroke-miterlimit:10;" d="
					M249.654,468.975h-24.162c-20.26,0-36.682-17.008-36.682-37.973v-71.453c0-20.965,16.423-37.973,36.682-37.973h24.162
					c-20.273,0-36.696,17.008-36.696,37.973v71.453C212.959,451.967,229.381,468.975,249.654,468.975z"/>
				<g>
					<path style="fill:#92E3A9;stroke:#263238;stroke-linecap:round;stroke-linejoin:round;stroke-miterlimit:10;" d="
						M421.835,321.581H249.65c-20.264,0-36.691,16.999-36.691,37.968v71.454c0,20.969,16.427,37.968,36.691,37.968h172.184
						c20.264,0,36.691-16.999,36.691-37.968v-71.454C458.526,338.58,442.099,321.581,421.835,321.581z M421.835,321.581H249.65
						c-20.264,0-36.691,16.999-36.691,37.968v71.454c0,20.969,16.427,37.968,36.691,37.968h172.184
						c20.264,0,36.691-16.999,36.691-37.968v-71.454C458.526,338.58,442.099,321.581,421.835,321.581z M449.452,431.003
						c0,15.758-12.389,28.579-27.618,28.579H249.65c-15.228,0-27.617-12.82-27.617-28.579v-71.454
						c0-15.758,12.389-28.579,27.617-28.579h172.184c15.228,0,27.618,12.82,27.618,28.579V431.003z M449.452,431.003
						c0,15.758-12.389,28.579-27.618,28.579H249.65c-15.228,0-27.617-12.82-27.617-28.579v-71.454
						c0-15.758,12.389-28.579,27.617-28.579h172.184c15.228,0,27.618,12.82,27.618,28.579V431.003z"/>
					<path style="opacity:0.3;fill:#FFFFFF;stroke:#263238;stroke-linecap:round;stroke-linejoin:round;stroke-miterlimit:10;" d="
						M421.835,321.581H249.65c-20.264,0-36.691,16.999-36.691,37.968v71.454c0,20.969,16.427,37.968,36.691,37.968h172.184
						c20.264,0,36.691-16.999,36.691-37.968v-71.454C458.526,338.58,442.099,321.581,421.835,321.581z M449.452,431.003
						c0,15.758-12.389,28.579-27.618,28.579H249.65c-15.228,0-27.617-12.82-27.617-28.579v-71.454
						c0-15.758,12.389-28.579,27.617-28.579h172.184c15.228,0,27.618,12.82,27.618,28.579V431.003z"/>
				</g>
			</g>
		</g>
	</g>
</g>
<g id="Floor">
	
		<line style="fill:none;stroke:#263238;stroke-linecap:round;stroke-linejoin:round;" x1="476.168" y1="469.427" x2="25.124" y2="469.427"/>
</g>
</svg>
