<?xml version="1.0" encoding="utf-8"?>
<!-- Generator: Adobe Illustrator 27.5.0, SVG Export Plug-In . SVG Version: 6.00 Build 0)  -->
<svg version="1.1" xmlns="http://www.w3.org/2000/svg" xmlns:xlink="http://www.w3.org/1999/xlink" x="0px" y="0px"
	 viewBox="0 0 3710 3710" style="enable-background:new 0 0 3710 3710;" xml:space="preserve">
<g id="Background">
	<g>
		<g>
			<rect style="fill:#FFFFFF;" width="3710" height="3710"/>
		</g>
	</g>
</g>
<g id="Illustration">
	<g>
		<path style="fill:#F4F7FA;" d="M2361.424,514.718c-211.6-47.207-431.599-69.833-646.704-55.41
			c-190.651,12.783-406.759,47.673-560.179,172.648c-73.114,59.558-160.306,166.577-184.221,260.989
			c-0.003,0.011-125.886,496.951-377.648,603.44c-251.766,106.489-426.603,1923.907,1482.619,1746.425
			c0,0,1121.373-46.507,1188.893-1386.112c16.311-323.606,7.198-679.362-188.2-949.951
			c-149.734-207.354-359.526-299.551-600.6-364.062C2437.723,532.607,2399.711,523.26,2361.424,514.718z"/>
		<g>
			<g>
				<defs>
					<path id="SVGID_1_" d="M2133.305,2689.372l219.722-11.06c0,0,35.688-114.794-22.162-191.628
						c-118.03-156.765,27.507-249.198,82.672-297.032c83.194-72.137,125.046-171.99-4.429-208.027
						c-129.476-36.036-11.445-239.826,139.703-336.964c147.908-95.056,64.284-412.831-274.737-236.488
						c-202.462,105.312-158.943,323.4-163.149,438.757c-4.206,115.357-174.547,133.459-109.023,270.824
						c55.97,117.335,155.249,199.948,86.988,285.989C2020.628,2489.784,2017.788,2582.544,2133.305,2689.372z"/>
				</defs>
				<clipPath id="SVGID_00000172398039413502536570000013031735512832269957_">
					<use xlink:href="#SVGID_1_"  style="overflow:visible;"/>
				</clipPath>
				
					<linearGradient id="SVGID_00000050649425799187892280000000537706771456468638_" gradientUnits="userSpaceOnUse" x1="4756.3535" y1="2697.2864" x2="4318.3657" y2="3942.095" gradientTransform="matrix(0.9987 -0.0503 0.0503 0.9987 -2428.0967 -1063.5695)">
					<stop  offset="0" style="stop-color:#FF9085"/>
					<stop  offset="1" style="stop-color:#FB6FBB"/>
				</linearGradient>
				
					<path style="clip-path:url(#SVGID_00000172398039413502536570000013031735512832269957_);fill:url(#SVGID_00000050649425799187892280000000537706771456468638_);" d="
					M2133.305,2689.372l219.722-11.06c0,0,35.688-114.794-22.162-191.628c-118.03-156.765,27.507-249.198,82.672-297.032
					c83.194-72.137,116.949-161.632,9.942-213.197c-121.073-58.344-25.817-234.656,125.331-331.794
					c147.908-95.056,64.284-412.831-274.737-236.488c-202.462,105.312-158.943,323.4-163.149,438.757
					c-4.206,115.357-174.547,133.459-109.023,270.824c55.97,117.335,155.249,199.948,86.988,285.989
					C2020.628,2489.784,2017.788,2582.544,2133.305,2689.372z"/>
				<g style="opacity:0.5;clip-path:url(#SVGID_00000172398039413502536570000013031735512832269957_);">
					<path style="fill:#BEB8F2;" d="M2229.427,2704.978l4.521-1.066c-0.66-2.8-65.752-283.353-46.418-580.934
						c17.81-274.151,113.009-619.272,465.382-706.561l-1.116-4.508c-156.861,38.856-276.675,131.145-356.118,274.303
						c-63.461,114.359-101.409,261.238-112.79,436.559C2163.529,2421.031,2228.767,2702.172,2229.427,2704.978z"/>
					<path style="fill:#BEB8F2;" d="M2265.066,1747.468l4.575-0.807c-26.785-152.243,20.627-372.804,21.109-375.014l-4.537-0.992
						C2285.729,1372.876,2238.124,1594.332,2265.066,1747.468z"/>
					<path style="fill:#BEB8F2;" d="M2320.612,1653.533c151.251-105.146,299.489-65.809,300.968-65.399l1.24-4.474
						c-1.501-0.418-151.753-40.374-304.859,66.059L2320.612,1653.533z"/>
					<path style="fill:#BEB8F2;" d="M2185.49,2318.215c40.855-221.304,335.596-289.912,338.524-290.34l-0.37-4.625
						c-2.913,0.148-301.503,70.852-342.72,294.122L2185.49,2318.215z"/>
					<path style="fill:#BEB8F2;" d="M2179.393,2225.618l4.496-1.175c-36.273-138.947-193.452-227.899-195.037-228.781l-2.261,4.056
						C1988.16,2000.593,2143.63,2088.61,2179.393,2225.618z"/>
					<path style="fill:#BEB8F2;" d="M2224.677,2659.539c2.405-85.457,120.54-158.974,121.732-159.708l-2.429-3.956
						c-4.958,3.042-121.471,75.555-123.944,163.534L2224.677,2659.539z"/>
					<path style="fill:#BEB8F2;" d="M2208.37,2593.309l4.533-1.012c-14.712-65.975-119.033-135.045-153.314-157.741
						c-4.844-3.208-9.026-5.977-9.674-6.617l-3.31,3.257c0.901,0.916,3.676,2.765,10.421,7.232
						C2090.919,2460.869,2194.065,2529.161,2208.37,2593.309z"/>
				</g>
			</g>
			<g>
				
					<linearGradient id="SVGID_00000032637025587990175310000003903501099635781054_" gradientUnits="userSpaceOnUse" x1="-332.6978" y1="1591.0323" x2="436.3207" y2="3639.1326" gradientTransform="matrix(0.7023 -0.7119 0.7119 0.7023 933.8446 490.9901)">
					<stop  offset="0.0036" style="stop-color:#E38DDD"/>
					<stop  offset="1" style="stop-color:#9571F6"/>
				</linearGradient>
				<path style="fill:url(#SVGID_00000032637025587990175310000003903501099635781054_);" d="M2191.98,2787.179
					c-12.6,4.88-31.604-63.487-108.025-122.842c-19.092-14.829-117.616-102.931-206.652-58.797
					c-17.283,8.567-34.568,17.133-51.852,25.7c-35.188-30.205-62.757-65.193-19.191-107.604
					c67.658-65.863-4.378-199.27-52.547-234.208c-59.618-43.243-196.164-146.75-93.175-250.087
					c85.737-86.029,158.722-125.432,96.546-253.434c-62.177-128.003-33.226-244.464,90.915-301.929
					c130.64-60.473,146.075-274.104,279.024-277.274c231.657-5.519,221.199,356.248,46.222,553.958
					c-174.975,197.71-7.779,203.852,54.908,302.224c5.302,9.462,12.792,24.539,18.254,44.014
					c33.626,119.896-67.958,198.608-100.431,329.221C2101.689,2614.25,2213.208,2778.958,2191.98,2787.179z"/>
				<g>
					<defs>
						<path id="SVGID_00000124140303012075945540000018046629256107215292_" d="M2127.799,2509.299l-276.327,146.664
							c-36.212-28.157-93.875-84.953-45.211-132.327c67.658-65.865-4.378-199.271-52.547-234.209
							c-59.618-43.243-196.164-146.75-93.175-250.088c85.737-86.028,158.722-125.431,96.545-253.433
							c-62.177-128.002-33.225-244.464,90.916-301.929c130.639-60.473,146.073-274.105,279.023-277.273
							c231.658-5.52,221.198,356.246,46.223,553.956c-174.976,197.71-7.781,203.852,54.907,302.225
							c85.583,134.301-130.858,212.673-153.206,295.675C2057.427,2423.63,2098.045,2478.41,2127.799,2509.299z"/>
					</defs>
					<clipPath id="SVGID_00000116936331603770121770000007779162381212311954_">
						<use xlink:href="#SVGID_00000124140303012075945540000018046629256107215292_"  style="overflow:visible;"/>
					</clipPath>
					<g style="opacity:0.5;clip-path:url(#SVGID_00000116936331603770121770000007779162381212311954_);">
						<path style="fill:#FCFDFE;" d="M1975.336,2537.575l-6.47,2.035c-136.326-447.879-42.42-965.703,245.072-1351.394l5.425,3.613
							C1933.083,1575.895,1839.577,2091.556,1975.336,2537.575z"/>
						<path style="fill:#FCFDFE;" d="M1923.102,2286.448l-5.974,3.204c-89.229-161.014-305.729-207.743-307.907-208.196l1.677-6.311
							C1613.104,2075.602,1832.466,2122.896,1923.102,2286.448z"/>
						<path style="fill:#FCFDFE;" d="M1952.63,2454.439l-6.732,0.158c3.016-187.964,307.942-377.811,311.022-379.706l3.476,5.391
							C2257.35,2082.157,1955.588,2270.049,1952.63,2454.439z"/>
						<path style="fill:#FCFDFE;" d="M1941.997,1823.914l-6.718,0.711c-10.897-148.255-194.866-286.748-196.722-288.13l4.255-5.159
							C1744.692,1532.734,1930.9,1672.92,1941.997,1823.914z"/>
						<path style="fill:#FCFDFE;" d="M2027.78,1532.671l-5.777-3.097c91.197-149.11,322.419-217.704,324.749-218.378l1.716,6.172
							C2346.168,1318.031,2117.554,1385.883,2027.78,1532.671z"/>
					</g>
				</g>
			</g>
			<g>
				<defs>
					<path id="SVGID_00000009582499817119609400000004934628699168661396_" d="M2138.266,2870.42l162.822-147.95
						c0,0-45.245-111.375-138.708-134.063c-190.692-46.291-136.84-210.075-124.546-282.048
						c18.539-108.542-12.461-212.278-135.405-157.988s-161.002-178.118-105.798-349.097
						c54.021-167.315-212.228-359.891-362.401-8.494c-89.683,209.853,82.32,350.819,152.256,442.655s-50.248,213.9,87.55,278.508
						c117.705,55.187,246.858,56.058,248.682,165.873C1924.543,2787.63,1981.199,2861.133,2138.266,2870.42z"/>
				</defs>
				<clipPath id="SVGID_00000171707544582947612350000016469410207780052117_">
					<use xlink:href="#SVGID_00000009582499817119609400000004934628699168661396_"  style="overflow:visible;"/>
				</clipPath>
				
					<linearGradient id="SVGID_00000165200562473332933030000017730639526841488522_" gradientUnits="userSpaceOnUse" x1="167.6641" y1="1999.4391" x2="-270.3077" y2="3244.2021" gradientTransform="matrix(0.7401 -0.6725 0.6725 0.7401 96.6031 293.9064)">
					<stop  offset="0" style="stop-color:#FFC444"/>
					<stop  offset="0.9964" style="stop-color:#F36F56"/>
				</linearGradient>
				
					<path style="clip-path:url(#SVGID_00000171707544582947612350000016469410207780052117_);fill:url(#SVGID_00000165200562473332933030000017730639526841488522_);" d="
					M2138.266,2870.42l162.822-147.95c0,0-45.245-111.375-138.708-134.063c-190.692-46.291-136.84-210.075-124.546-282.048
					c18.539-108.542-12.147-199.134-127.576-171.103c-130.601,31.716-168.831-165.003-113.627-335.982
					c54.021-167.315-212.228-359.891-362.401-8.494c-89.683,209.853,82.32,350.819,152.256,442.655s-50.248,213.9,87.55,278.508
					c117.705,55.187,246.858,56.058,248.682,165.873C1924.543,2787.63,1981.199,2861.133,2138.266,2870.42z"/>
				<g style="opacity:0.5;clip-path:url(#SVGID_00000171707544582947612350000016469410207780052117_);">
					<path style="fill:#BEB8F2;" d="M2222.467,2821.498l2.818-3.692c-2.287-1.745-230.596-177.308-404.448-419.595
						c-160.167-223.21-305.54-550.377-88.545-841.409l-3.723-2.777c-96.597,129.553-130.657,276.905-101.239,437.964
						c23.5,128.658,87.354,266.267,189.788,409.006C1991.382,2643.824,2220.176,2819.748,2222.467,2821.498z"/>
					<path style="fill:#BEB8F2;" d="M1642.53,2058.761l3.025-3.526c-117.293-100.686-220.578-301.254-221.608-303.267l-4.136,2.112
						C1420.845,1756.103,1524.549,1957.485,1642.53,2058.761z"/>
					<path style="fill:#BEB8F2;" d="M1625.87,1950.911c50.203-177.234,189.744-240.877,191.147-241.498l-1.88-4.246
						c-1.426,0.629-142.916,65.071-193.736,244.477L1625.87,1950.911z"/>
					<path style="fill:#BEB8F2;" d="M1943.126,2550.417c-108.825-196.982,75.474-437.01,77.465-439.198l-3.22-3.341
						c-2.157,1.963-188.102,246.053-78.309,444.784L1943.126,2550.417z"/>
					<path style="fill:#BEB8F2;" d="M1879.666,2482.711l2.73-3.76c-116.192-84.389-294.121-53.425-295.906-53.102l0.826,4.57
						C1589.083,2430.1,1765.098,2399.497,1879.666,2482.711z"/>
					<path style="fill:#BEB8F2;" d="M2189.967,2789.389c-52.359-67.581-7.686-199.358-7.23-200.681l-4.388-1.517
						c-1.903,5.497-45.958,135.468,7.948,205.042L2189.967,2789.389z"/>
					<path style="fill:#BEB8F2;" d="M2135.343,2748.541l2.862-3.658c-53.229-41.663-177.687-28.866-218.585-24.66
						c-5.78,0.594-10.769,1.106-11.676,1.023l-0.492,4.618c1.278,0.136,4.595-0.195,12.643-1.022
						C1960.531,2720.685,2083.588,2708.032,2135.343,2748.541z"/>
				</g>
			</g>
		</g>
		<g>
			<g>
				
					<linearGradient id="SVGID_00000008135399668789696590000003206977028736493489_" gradientUnits="userSpaceOnUse" x1="3202.4541" y1="786.3914" x2="2550.2266" y2="754.3141">
					<stop  offset="0" style="stop-color:#FFC444"/>
					<stop  offset="0.9964" style="stop-color:#F36F56"/>
				</linearGradient>
				<path style="fill:url(#SVGID_00000008135399668789696590000003206977028736493489_);" d="M3128.994,991.135
					c-0.107,0.612-0.216,1.152-0.36,1.656c-16.594,65.587-148.091,53.168-240.604,24.874
					c-127.611-38.985-168.682-104.428-252.448-74.658c-38.662,13.715-68.036,41.181-86.791,62.239
					c8.497-154.104-8.89-310.224-0.863-464.363c0.035-1.476,0.144-2.988,0.216-4.464c109.575-54.32,214.074-39.669,266.235-16.595
					c61.698,27.322,82.145,47.804,136.752,58.1c48.524,9.143,98.885-50.36,136.717-8.315c2.556,2.844,5.688,6.372,9.216,12.455
					c27.107,46.832-4.93,103.42,3.925,202.268c4.535,50.54,15.513,64.579,25.666,161.771
					C3130.038,978.608,3129.822,986.744,3128.994,991.135z"/>
				<path style="fill:#FFFFFF;" d="M2831.958,621.757l34.3,69.5c1.271,2.575,3.727,4.36,6.569,4.773l76.698,11.145
					c7.156,1.04,10.013,9.834,4.835,14.881l-55.499,54.098c-2.056,2.004-2.995,4.892-2.509,7.722l13.102,76.388
					c1.222,7.127-6.258,12.562-12.658,9.197l-68.601-36.065c-2.542-1.336-5.578-1.336-8.12,0l-68.601,36.065
					c-6.4,3.365-13.881-2.07-12.658-9.197l13.101-76.388c0.486-2.83-0.453-5.718-2.509-7.722l-55.499-54.098
					c-5.178-5.047-2.321-13.841,4.835-14.881l76.698-11.145c2.842-0.413,5.298-2.198,6.569-4.773l34.3-69.5
					C2819.512,615.273,2828.758,615.273,2831.958,621.757z"/>
				
					<linearGradient id="SVGID_00000178914127189010755160000010909165406862350237_" gradientUnits="userSpaceOnUse" x1="2545.7502" y1="781.524" x2="3128.9939" y2="781.524">
					<stop  offset="0" style="stop-color:#FFC444"/>
					<stop  offset="0.9964" style="stop-color:#F36F56"/>
				</linearGradient>
				<path style="opacity:0.4;fill:url(#SVGID_00000178914127189010755160000010909165406862350237_);" d="M3128.994,991.135
					c-0.107,0.612-0.216,1.152-0.36,1.656c-16.594,65.587-148.091,53.168-240.604,24.874
					c-127.611-38.985-168.682-104.428-252.448-74.658c-38.662,13.715-68.036,41.181-86.791,62.239
					c8.497-154.104-8.89-310.224-0.863-464.363c24.117-18.935,77.322-42.513,143.34,38.697
					c90.749,111.663,27.43,206.407,169.008,211.195C2997.785,795.419,2972.334,1010.574,3128.994,991.135z"/>
			</g>
			<g>
				<path style="fill:#26264F;" d="M2549.524,1774.422c-3.976,0-7.199-3.224-7.199-7.199V491.517c0-3.976,3.224-7.199,7.199-7.199
					s7.199,3.223,7.199,7.199v1275.706C2556.723,1771.198,2553.5,1774.422,2549.524,1774.422z"/>
			</g>
		</g>
		<g>
			
				<linearGradient id="SVGID_00000120537245272023500670000016902452583051866506_" gradientUnits="userSpaceOnUse" x1="4221.5361" y1="1555.8721" x2="2447.6973" y2="2310.4155" gradientTransform="matrix(1 0.0219 0 1 0 -14.4292)">
				<stop  offset="0" style="stop-color:#AA80F9"/>
				<stop  offset="0.9964" style="stop-color:#6165D7"/>
			</linearGradient>
			<polygon style="fill:url(#SVGID_00000120537245272023500670000016902452583051866506_);" points="2691.265,3058.441 
				2127.711,3033.081 2127.711,1671.574 2691.265,1655.636 			"/>
			
				<linearGradient id="SVGID_00000173865773198231907670000016012022564058641067_" gradientUnits="userSpaceOnUse" x1="2703.9529" y1="2004" x2="3371.6116" y2="3103.1382" gradientTransform="matrix(1 0.0219 0 1 0 -14.4292)">
				<stop  offset="0" style="stop-color:#AA80F9"/>
				<stop  offset="0.9964" style="stop-color:#6165D7"/>
			</linearGradient>
			<polygon style="fill:url(#SVGID_00000173865773198231907670000016012022564058641067_);" points="3100.213,3028.079 
				2691.265,3058.441 2691.265,1655.636 3100.213,1678.993 			"/>
		</g>
		<g>
			
				<linearGradient id="SVGID_00000016754660388241854380000010523128478662850197_" gradientUnits="userSpaceOnUse" x1="3558.3213" y1="1823.011" x2="2101.531" y2="2442.6907" gradientTransform="matrix(1 0.0219 0 1 0 -14.4292)">
				<stop  offset="0" style="stop-color:#AA80F9"/>
				<stop  offset="0.9964" style="stop-color:#6165D7"/>
			</linearGradient>
			<polygon style="fill:url(#SVGID_00000016754660388241854380000010523128478662850197_);" points="1824.876,3127.083 
				1280.789,3092.353 1280.789,2264.257 1824.876,2279.908 			"/>
			
				<linearGradient id="SVGID_00000158707871000602697410000013504993377542315146_" gradientUnits="userSpaceOnUse" x1="1934.9425" y1="2457.2349" x2="2384.4932" y2="3197.3113" gradientTransform="matrix(1 0.0219 0 1 0 -14.4292)">
				<stop  offset="0" style="stop-color:#AA80F9"/>
				<stop  offset="0.9964" style="stop-color:#6165D7"/>
			</linearGradient>
			<polygon style="fill:url(#SVGID_00000158707871000602697410000013504993377542315146_);" points="2300.796,3086.568 
				1824.876,3127.083 1824.876,2279.908 2300.796,2269.972 			"/>
			
				<linearGradient id="SVGID_00000062172288028834025780000006377408865513842365_" gradientUnits="userSpaceOnUse" x1="1583.7129" y1="1921.6722" x2="1837.7793" y2="2345.4961">
				<stop  offset="0" style="stop-color:#AA80F9"/>
				<stop  offset="0.9964" style="stop-color:#6165D7"/>
			</linearGradient>
			<polygon style="fill:url(#SVGID_00000062172288028834025780000006377408865513842365_);" points="1280.789,2264.257 
				1798.277,2241.833 2300.796,2269.972 1819.206,2287.801 			"/>
		</g>
		<g>
			
				<linearGradient id="SVGID_00000140723470353417262070000010509682050632413354_" gradientUnits="userSpaceOnUse" x1="3146.7212" y1="1915.2452" x2="1837.4586" y2="2472.1704" gradientTransform="matrix(1 0.0219 0 1 0 -14.4292)">
				<stop  offset="0" style="stop-color:#AA80F9"/>
				<stop  offset="0.9964" style="stop-color:#6165D7"/>
			</linearGradient>
			<polygon style="fill:url(#SVGID_00000140723470353417262070000010509682050632413354_);" points="1054.993,3210.322 
				533.808,3170.19 533.808,2627.333 1054.993,2661.943 			"/>
			
				<linearGradient id="SVGID_00000114037191700172005980000017306384734454141337_" gradientUnits="userSpaceOnUse" x1="1239.2008" y1="2747.5701" x2="1582.8755" y2="3313.3469" gradientTransform="matrix(1 0.0219 0 1 0 -14.4292)">
				<stop  offset="0" style="stop-color:#AA80F9"/>
				<stop  offset="0.9964" style="stop-color:#6165D7"/>
			</linearGradient>
			<polygon style="fill:url(#SVGID_00000114037191700172005980000017306384734454141337_);" points="1615.799,3163.287 
				1054.993,3210.322 1054.993,2661.943 1615.799,2631.173 			"/>
			
				<linearGradient id="SVGID_00000038404593262640407400000008859133003179570870_" gradientUnits="userSpaceOnUse" x1="817.8555" y1="2200.6228" x2="1086.4458" y2="2648.6748">
				<stop  offset="0" style="stop-color:#AA80F9"/>
				<stop  offset="0.9964" style="stop-color:#6165D7"/>
			</linearGradient>
			<polygon style="fill:url(#SVGID_00000038404593262640407400000008859133003179570870_);" points="533.808,2627.333 
				1056.576,2603.547 1615.799,2631.173 1054.993,2661.943 			"/>
		</g>
		<g>
			
				<linearGradient id="SVGID_00000168836583794602136850000000903423532716514208_" gradientUnits="userSpaceOnUse" x1="-471.0794" y1="1327.0852" x2="-417.3436" y2="1450.7629" gradientTransform="matrix(-1 0 0 1 1015.0479 0)">
				<stop  offset="0" style="stop-color:#FFC444"/>
				<stop  offset="0.9964" style="stop-color:#F36F56"/>
			</linearGradient>
			<path style="fill:url(#SVGID_00000168836583794602136850000000903423532716514208_);" d="M1443.276,1413.102
				c0,0,10.522-54.947,21.043-71.315c10.522-16.367,30.152-26.889,30.152-26.889s4.094,6.727-8.937,20.9
				c-13.031,14.172-2.167,15.575,0,20.135c2.167,4.56-2.509,20.927-11.862,26.772c-9.353,5.846-12.861,37.714-12.861,37.714
				L1443.276,1413.102z"/>
			
				<linearGradient id="SVGID_00000091714389364742073960000001207021974222970272_" gradientUnits="userSpaceOnUse" x1="-333.6577" y1="1415.936" x2="-115.6712" y2="1917.6512" gradientTransform="matrix(-1 0 0 1 1015.0479 0)">
				<stop  offset="0" style="stop-color:#FF9085"/>
				<stop  offset="1" style="stop-color:#FB6FBB"/>
			</linearGradient>
			<path style="fill:url(#SVGID_00000091714389364742073960000001207021974222970272_);" d="M1473.673,1406.087
				c-11.301-1.948-22.603-3.897-33.904-5.846c-40.448,74.988-87.837,123.188-120.103,151.167
				c-38.128,33.063-62.745,54.41-103.193,65.114c-59.755,15.814-111.372-2.75-118.078,14.03
				c-3.279,8.204,8.096,17.085,26.304,38.872c53.024,63.445,48.013,97.555,77.16,106.971c24.083,7.78,48.321-8.955,89.436-38.288
				c37.402-26.684,84.296-60.139,123.923-123.923C1468.371,1528.632,1473.695,1444.457,1473.673,1406.087z"/>
			
				<linearGradient id="SVGID_00000151536852862642473090000008987681212263936675_" gradientUnits="userSpaceOnUse" x1="2602.3499" y1="1925.64" x2="2674.7485" y2="1636.0443" gradientTransform="matrix(-1 0 0 1 3624.1272 0)">
				<stop  offset="0" style="stop-color:#FF9085"/>
				<stop  offset="1" style="stop-color:#FB6FBB"/>
			</linearGradient>
			<path style="fill:url(#SVGID_00000151536852862642473090000008987681212263936675_);" d="M975.645,1637.37
				c-5.494,2.076-89.288,35.4-106.511,122.856c-1.391,7.065-14.854,82.203,36.103,135.285
				c57.139,59.521,167.164,58.046,210.836,8.287c10.185-11.604,15.558-24.465,18.567-35.271l0,0l-11.507-30.571
				c-14.04-16.95-33.157-20.967-43.368-23.484c-25.17-6.203-44.172,5.009-58.587-7.129c-7.976-6.715-9.56-16.381-10.976-25.015
				c-4.821-29.407,11.777-47.51,12.985-65.645c0.904-13.557,5.649-43.262-12.046-62.633
				C999.936,1641.784,984.415,1638.444,975.645,1637.37z"/>
			
				<linearGradient id="SVGID_00000047023377008715925230000003491954028737110201_" gradientUnits="userSpaceOnUse" x1="2412.3604" y1="2754.2813" x2="2446.7039" y2="2784.8298" gradientTransform="matrix(-0.9902 -0.14 -0.14 0.9902 3726.9702 206.9384)">
				<stop  offset="0" style="stop-color:#444B8C"/>
				<stop  offset="0.9964" style="stop-color:#26264F"/>
			</linearGradient>
			<path style="fill:url(#SVGID_00000047023377008715925230000003491954028737110201_);" d="M942.995,2612.036
				c-0.977-5.384-18.364-10.257-26.973-3.046c-4.275,3.581-7.219,10.839-4.745,14.117c0.899,1.192-2.786,3.29,0.746,3.331
				C923.734,2626.574,943.967,2617.386,942.995,2612.036z"/>
			
				<linearGradient id="SVGID_00000162336254663716226640000000961559484875066262_" gradientUnits="userSpaceOnUse" x1="1520.1766" y1="2784.8699" x2="1520.1766" y2="2725.0403" gradientTransform="matrix(-0.9902 -0.14 -0.14 0.9902 2810.769 77.4224)">
				<stop  offset="0" style="stop-color:#FFC444"/>
				<stop  offset="0.9964" style="stop-color:#F36F56"/>
			</linearGradient>
			<path style="fill:url(#SVGID_00000162336254663716226640000000961559484875066262_);" d="M924.771,2613.995l-17.882-2.528
				c8.284-9.974,6.751-41.738,6.751-41.738l19.016,4.245c0,0-2.167,8.718-5.853,21.579
				C925.541,2599.956,924.978,2606.846,924.771,2613.995z"/>
			
				<linearGradient id="SVGID_00000098179242549867837860000011228185191301885577_" gradientUnits="userSpaceOnUse" x1="2415.8132" y1="2750.4004" x2="2450.1565" y2="2780.9487" gradientTransform="matrix(-0.9902 -0.14 -0.14 0.9902 3726.9702 206.9384)">
				<stop  offset="0" style="stop-color:#444B8C"/>
				<stop  offset="0.9964" style="stop-color:#26264F"/>
			</linearGradient>
			<path style="fill:url(#SVGID_00000098179242549867837860000011228185191301885577_);" d="M926.357,2611.792
				c0,0-21.528-4.96-23.857-0.69c-2.329,4.271-4.136,15.705,9.522,15.336C925.681,2626.069,927.57,2615.413,926.357,2611.792z"/>
			
				<linearGradient id="SVGID_00000131368167648382805390000008357976373680714405_" gradientUnits="userSpaceOnUse" x1="2428.3923" y1="2615.4863" x2="2462.7373" y2="2646.0364" gradientTransform="matrix(-1 0 0 1 3624.1272 0)">
				<stop  offset="0" style="stop-color:#444B8C"/>
				<stop  offset="0.9964" style="stop-color:#26264F"/>
			</linearGradient>
			<path style="fill:url(#SVGID_00000131368167648382805390000008357976373680714405_);" d="M1188.349,2632.225
				c-1.721-5.194-19.619-7.586-27.135,0.759c-3.731,4.143-5.63,11.742-2.722,14.642c1.058,1.056-2.297,3.648,1.205,3.195
				C1171.313,2649.316,1190.06,2637.385,1188.349,2632.225z"/>
			
				<linearGradient id="SVGID_00000180332602312588268030000010668434027513195405_" gradientUnits="userSpaceOnUse" x1="1536.1646" y1="2646.0974" x2="1536.1646" y2="2586.2654" gradientTransform="matrix(-1 0 0 1 2698.8171 0)">
				<stop  offset="0" style="stop-color:#FFC444"/>
				<stop  offset="0.9964" style="stop-color:#F36F56"/>
			</linearGradient>
			<path style="fill:url(#SVGID_00000180332602312588268030000010668434027513195405_);" d="M1170.579,2636.715h-18.059
				c6.807-11.035,0.842-42.271,0.842-42.271l19.424,1.541c0,0-0.925,8.936-2.775,22.186
				C1169.377,2622.706,1169.783,2629.607,1170.579,2636.715z"/>
			
				<linearGradient id="SVGID_00000103261321649889772990000015014299691547189889_" gradientUnits="userSpaceOnUse" x1="-182.9095" y1="2673.5339" x2="-406.8636" y2="1769.3217" gradientTransform="matrix(1 0 0 1 1348.3801 0)">
				<stop  offset="0" style="stop-color:#444B8C"/>
				<stop  offset="0.9964" style="stop-color:#26264F"/>
			</linearGradient>
			<path style="fill:url(#SVGID_00000103261321649889772990000015014299691547189889_);" d="M1217.381,1953.787
				c8.365,27.626,20.313,72.214,28.003,128.155c21.936,159.564-24.688,164.654-15.981,341.471
				c2.779,56.441-48.897,186.587-53.452,189.461c-2.204,0.214-4.596,0.358-7.146,0.281c-4.495-0.135-10.833-0.825-18.202-3.034
				c-8.186-1.409-37.7-81.349-30.859-128.877c4.841-33.639,3.438-69.74,0.631-141.944c-0.455-11.699-30.387-227.616-30.387-227.616
				l0,0c-9.106,79.92-19.577,147.827-28.655,200.476c-29.166,169.153-123.998,271.535-128.945,273.177
				c-0.977,0.392-9.876,3.625-17.151-1.17c-3.239-2.134-4.34-4.888-4.34-4.888c-2.536-1.987,0.747-168.879,29.672-294.481
				c41.985-182.309,23.703-224.967,37.005-306.398C989.085,1907.94,1217.381,1953.787,1217.381,1953.787z"/>
			
				<linearGradient id="SVGID_00000065760420157225709750000009366223806560951436_" gradientUnits="userSpaceOnUse" x1="-270.9318" y1="1363.5065" x2="-30.8158" y2="1916.1548" gradientTransform="matrix(-1 0 0 1 1015.0479 0)">
				<stop  offset="0" style="stop-color:#FF9085"/>
				<stop  offset="1" style="stop-color:#FB6FBB"/>
			</linearGradient>
			<path style="fill:url(#SVGID_00000065760420157225709750000009366223806560951436_);" d="M1047.799,1623.14
				c27.874-0.819,91.944-10.659,127.233,21.094c0.614,0.551-6.616,4.414-3.056,8.585c3.305,3.871,14.64,17.427,24.916,35.751
				c7.444,13.271,14.162,28.741,20.94,51.798c11.955,40.662,15.385,75.286,16.532,90.372c6.45,84.836,0.054,123.975-5.75,150.591
				c-25.202,12.946-90.143,36.109-167.521,24.6c-35.336-5.257-63.617-17.015-83.516-27.512
				c20.078-60.792,4.326-93.323-3.106-123.305c-10.597-42.754-10.768-39.522-19.493-73.484
				c-14.396-56.039-16.758-113.301-6.866-125.019C974.783,1625.018,1022.841,1623.876,1047.799,1623.14z"/>
			
				<linearGradient id="SVGID_00000008106505572230704470000007702553696691386815_" gradientUnits="userSpaceOnUse" x1="2431.8447" y1="2611.6055" x2="2466.1895" y2="2642.1553" gradientTransform="matrix(-1 0 0 1 3624.1272 0)">
				<stop  offset="0" style="stop-color:#444B8C"/>
				<stop  offset="0.9964" style="stop-color:#26264F"/>
			</linearGradient>
			<path style="fill:url(#SVGID_00000008106505572230704470000007702553696691386815_);" d="M1171.841,2634.312
				c0,0-22.011-1.898-23.719,2.657c-1.708,4.554-1.898,16.128,11.575,13.851C1173.17,2648.543,1173.549,2637.727,1171.841,2634.312z
				"/>
			<g>
				
					<linearGradient id="SVGID_00000045595836893535988600000011181262767249957821_" gradientUnits="userSpaceOnUse" x1="3166.0642" y1="1666.7852" x2="3343.9629" y2="1890.6042" gradientTransform="matrix(-0.9663 0.2576 0.2576 0.9663 3759.3887 -923.8408)">
					<stop  offset="0" style="stop-color:#FFC444"/>
					<stop  offset="0.9964" style="stop-color:#F36F56"/>
				</linearGradient>
				<path style="fill:url(#SVGID_00000045595836893535988600000011181262767249957821_);" d="M1106.363,1570.907
					c4.583-16.33-3.431-31.452-5.196-34.711c-7.396-13.642-9.289-15.505-12.817-17.868l-4.905-3.026c0,0-0.284-0.114-0.583-0.22
					c-3.147-1.12-13.875-1.446-16.048-0.982c-6.942,1.482-14.334,29.765-12.225,69.749c-0.287,1.523-0.565,3.061-0.833,4.61
					c-1.094,6.315-1.962,12.504-2.634,18.555c-0.642,5.788-4.492,10.721-9.94,12.778c-36.892,13.925-36.819,2.805-40.636,14.788
					c-2.079,6.525,39.816,17.07,60.428,14.686c46.371,0.344,84.092-4.593,80.039-11.895c-1.8-3.241-37.729-12.63-47.833-21.935
					c-9.252-8.521-8.498-17.317-9.26-23.615C1086.724,1590.365,1102.989,1582.937,1106.363,1570.907z"/>
				<path style="fill:#26264F;" d="M1097.834,1503.944c-0.041,12.388-5.878,25.617-8.852,27.742
					c-0.384,0.275-2.545,1.982-4.486,4.901c-0.265,0.397-0.498,0.863-0.706,1.464c-2.713,7.806,9.698,16.992,7.302,20.488
					c-1.738,2.535-10.173-0.856-11.177,1.334c-0.945,2.06,6.066,6.328,4.992,8.796c-0.81,1.863-5.124,0.158-7.845,3.013
					c-1.356,1.422-0.958,2.548-2.395,6.894c-0.813,2.458-1.949,5.147-2.83,6.643c-4.281,7.273-16.406,9.93-18.739,7.019
					c-0.649-0.811-0.092-1.492-0.755-4.215c0,0-0.615-2.523-2.37-5.44c-2.508-4.167-8.563-7.148-14.672-11.547
					c-11.313-8.146-14.388-15.091-15.311-17.437c-0.328-0.836-0.533-1.467-0.68-1.921c-2.942-9.131-2.955-22.542,1.15-30.79
					c6.876-13.816,22.389-7.257,35.085-20.946c14.649-15.794,5.924-37.383,13.874-39.767
					C1078.181,1457.546,1097.909,1481.039,1097.834,1503.944z"/>
				
					<linearGradient id="SVGID_00000076604948482630119970000001415242048036482216_" gradientUnits="userSpaceOnUse" x1="3178.1013" y1="1655.4646" x2="3364.0835" y2="1889.4539" gradientTransform="matrix(-0.9663 0.2576 0.2576 0.9663 3759.3887 -923.8408)">
					<stop  offset="0" style="stop-color:#FFC444"/>
					<stop  offset="0.9964" style="stop-color:#F36F56"/>
				</linearGradient>
				<path style="fill:url(#SVGID_00000076604948482630119970000001415242048036482216_);" d="M1086.639,1555.628
					c-3.036-4.172-8.371-0.252-8.402,5.146c-0.032,5.397,5.199,11.009,10.272,9.943
					C1093.583,1569.651,1090.725,1561.244,1086.639,1555.628z"/>
			</g>
			<g>
				<path style="fill:#9B305E;" d="M986.455,1940.165c-0.039,0-0.076-0.002-0.114-0.006c-0.561-0.062-0.963-0.566-0.902-1.126
					c3.292-29.617-2.844-51.136-8.259-70.122c-1.336-4.686-2.598-9.112-3.698-13.552c-6.013-24.259-8.646-33.627-11.434-43.545
					c-1.816-6.46-3.693-13.141-6.602-24.307c-0.142-0.546,0.185-1.102,0.729-1.244c0.547-0.142,1.1,0.185,1.243,0.729
					c2.905,11.149,4.779,17.819,6.593,24.27c2.791,9.934,5.43,19.316,11.449,43.606c1.092,4.406,2.35,8.815,3.681,13.482
					c5.466,19.167,11.662,40.891,8.326,70.906C987.41,1939.78,986.967,1940.165,986.455,1940.165z"/>
			</g>
			<path style="fill:#26264F;" d="M1084.177,1546.599l7.043,9.162c0,0,7.593,11.226,12.026,5.076
				c3.622-5.025,4.56-4.913,4.782-4.702c0.042,0.04,0.053,0.1,0.064,0.097c0.063-0.017-0.531-2.501-1.066-4.685
				c1.875,2.692,4.459,7.058,6.024,12.933c1.52,5.706,3.149,11.815-0.07,17.685c-0.186,0.339-3.732,6.586-10.355,8.097
				c0,0-2.604,0.594-13.607-1.34c0,0,12.026-8.727,12.211-10.8c0.498-5.638-7.32-8.685-13.125-20.242
				C1085.865,1553.422,1084.762,1549.38,1084.177,1546.599z"/>
		</g>
		<g>
			<g>
				
					<linearGradient id="SVGID_00000049914132857135753610000002755158504461711001_" gradientUnits="userSpaceOnUse" x1="-1629.7239" y1="2589.1626" x2="-1220.9452" y2="3282.5332" gradientTransform="matrix(-0.9994 -0.034 -0.034 0.9994 1519.9918 -127.3651)">
					<stop  offset="0" style="stop-color:#311944"/>
					<stop  offset="1" style="stop-color:#893976"/>
				</linearGradient>
				<path style="fill:url(#SVGID_00000049914132857135753610000002755158504461711001_);" d="M2689.009,2830.254
					c-17.96-106.477,50.805-198.55,153.608-202.791c102.295-4.219,195.319,80.394,207.897,186.17
					c12.225,102.806-56.427,188-153.44,192.896C2799.603,3011.449,2706.46,2933.714,2689.009,2830.254z"/>
				
					<linearGradient id="SVGID_00000094584489017705922510000001713422183334238868_" gradientUnits="userSpaceOnUse" x1="3842.9868" y1="3536.6211" x2="2598.1328" y2="2602.9805">
					<stop  offset="0" style="stop-color:#311944"/>
					<stop  offset="1" style="stop-color:#893976"/>
				</linearGradient>
				<path style="fill:url(#SVGID_00000094584489017705922510000001713422183334238868_);" d="M2479.806,2813.208l10.031,50.951
					c2.917,14.815,16.867,26.233,31.164,25.561l25.988-1.221c7.792,23.811,17.832,46.533,29.797,67.915l-18.939,13.602
					c-10.846,7.788-11.974,23.867-2.567,35.888l31.8,40.632c9.252,11.823,42.793,18.832,53.557,11.216l0.433-16.271
					c17.457,17.506,36.453,33.219,56.619,46.878l-7.679,19.755c-4.777,12.293,1.968,27.279,15.025,33.497l44.262,21.074
					c12.914,6.148,50.995,7.103,55.908-4.996l-16.188-24.54c22.174,7.148,45.039,12.006,68.284,14.337l3.143,20.643
					c2.052,13.479,14.632,23.775,28.099,23.047l45.844-2.479c13.431-0.726,22.807-12.186,20.943-25.646l-2.856-20.612
					c22.1-4.726,43.06-11.884,62.648-21.198l12.714,17.576c8.215,11.356,48.299,17.184,59.11,9.823l12.162-27.817
					c10.856-7.416,13.112-22.73,4.996-34.24l-13.054-18.509c15.617-15.365,29.497-32.592,41.363-51.391l20.741,10.55
					c12.501,6.359,47.305,9.606,52.868-2.777l-1.254-50.758c5.61-12.583-0.012-28.098-12.601-34.637l-22.019-11.438
					c5.436-21.93,8.639-44.969,9.38-68.849l25.24-1.186c13.86-0.651,23.967-13.004,22.577-27.647l-4.782-50.355
					c-1.416-14.906-13.96-26.523-28.022-25.895l-27.113,1.21c-6.302-23.779-14.904-46.752-25.545-68.643l23.022-16.326
					c11.566-8.207,14.105-25.442,5.623-38.539l-2.083-52.802c-8.59-13.351-52.211-9.571-63.892-1.183l-24.395,17.519
					c-16.597-18.343-34.874-35.049-54.517-49.816l12.188-30.287c5.712-14.194-0.698-31.888-14.368-39.492l-23.179-29.926
					c-13.816-7.702-53.33,1.624-58.934,16.045l-12.23,31.468c-22.293-7.933-45.366-13.579-68.924-16.627l-5.015-36.204
					c-2.281-16.464-16.266-29.414-31.236-28.865l-51.107,1.876c-15.015,0.551-25.15,14.418-22.639,30.913l5.522,36.269
					c-22.545,4.821-43.896,12.196-63.844,21.797l2.844-38.055c-9.787-13.955-51.511-10.484-63.147-1.771l-39.529,29.602
					c-11.556,8.653-12.831,26.828-2.9,40.553l21.165,29.255c-15.462,16.323-29,34.494-40.376,54.189l-2.762-18.452
					c-14.295-7.441-56.965,0.905-61.802,14.969l-16.369,47.586c-4.767,13.86,2.915,30.926,17.111,38.149l28.203,14.343
					c-4.343,22.848-6.301,46.611-5.683,70.984l-27.926,1.247C2486.189,2785.326,2476.836,2798.124,2479.806,2813.208z
					 M2609.339,2838.255c-26.443-147.076,67.581-275.569,210.4-281.516c142.176-5.92,270.651,112.309,286.935,258.665
					c15.659,140.727-78.889,256.229-211.142,262.836C2762.723,3084.875,2634.756,2979.631,2609.339,2838.255z"/>
				
					<linearGradient id="SVGID_00000020389361532202795380000002074029171279489436_" gradientUnits="userSpaceOnUse" x1="-1152.73" y1="2344.2546" x2="-606.8148" y2="1406.7037" gradientTransform="matrix(-0.9994 -0.034 -0.034 0.9994 1519.9918 -127.3651)">
					<stop  offset="0" style="stop-color:#FFC444"/>
					<stop  offset="0.9964" style="stop-color:#F36F56"/>
				</linearGradient>
				<path style="fill:url(#SVGID_00000020389361532202795380000002074029171279489436_);" d="M2512.39,2812.772l9.804,50.957
					c2.85,14.816,16.751,26.236,31.051,25.564l25.995-1.221c7.687,23.813,17.625,46.538,29.496,67.922l-19,13.604
					c-10.882,7.788-12.081,23.871-2.728,35.893l31.621,40.637c9.2,11.825,25.364,15.202,36.149,7.578l17.867-12.634
					c17.38,17.509,36.307,33.223,56.413,46.884l-7.767,19.757c-4.832,12.294,1.847,27.282,14.876,33.501l44.171,21.077
					c12.888,6.149,27.297,1.325,32.228-10.795l7.626-18.745c22.143,7.15,44.988,12.007,68.224,14.339l3.051,20.646
					c1.992,13.48,14.527,23.777,27.997,23.049l45.858-2.479c13.435-0.726,22.863-12.188,21.058-25.649l-2.764-20.615
					c22.122-4.727,43.115-11.885,62.746-21.199l12.636,17.578c8.165,11.358,23.525,14.567,34.347,7.2l37.009-25.196
					c10.89-7.417,13.214-22.733,5.148-34.244l-12.971-18.511c15.686-15.366,29.644-32.596,41.594-51.397l20.695,10.551
					c12.474,6.359,27.082,1.47,32.671-10.943l19.185-42.599c5.666-12.584,0.113-28.101-12.448-34.641l-21.969-11.439
					c5.534-21.933,8.84-44.976,9.687-68.857l25.247-1.186c13.865-0.652,24.027-13.006,22.702-27.651l-4.558-50.361
					c-1.349-14.908-13.843-26.526-27.908-25.897l-27.121,1.211c-6.196-23.782-14.696-46.757-25.24-68.651l23.096-16.328
					c11.604-8.207,14.219-25.446,5.795-38.543l-28.963-45.027c-8.57-13.325-25.056-17.354-36.775-8.965l-24.475,17.521
					c-16.516-18.346-34.719-35.053-54.298-49.823l12.323-30.29c5.776-14.197-0.556-31.893-14.193-39.498l-46.763-26.083
					c-13.8-7.696-29.625-2.223-35.293,12.201l-12.372,31.471c-22.259-7.933-45.308-13.581-68.854-16.629l-4.854-36.208
					c-2.208-16.466-16.135-29.418-31.109-28.869l-51.119,1.876c-15.018,0.551-25.215,14.42-22.777,30.916l5.361,36.274
					c-22.567,4.822-43.953,12.198-63.945,21.8l-21.274-30.359c-9.76-13.929-27.179-18.186-38.855-9.473l-39.663,29.606
					c-11.596,8.653-12.951,26.831-3.082,40.558l21.036,29.259c-15.536,16.324-29.156,34.498-40.62,54.195l-29.777-15.504
					c-14.284-7.436-29.876-2.045-34.775,12.021l-16.582,47.592c-4.829,13.862,2.777,30.93,16.942,38.154l28.141,14.345
					c-4.446,22.851-6.509,46.617-6,70.993l-27.934,1.248C2518.898,2784.887,2509.487,2797.686,2512.39,2812.772z M2631.3,2838.305
					c-27.125-153.445,71.426-287.716,220.569-293.936c148.481-6.192,281.912,117.38,298.003,270.112
					c15.447,146.615-83.698,266.769-221.406,273.638C2790.188,3095.016,2657.33,2985.555,2631.3,2838.305z"/>
				
					<linearGradient id="SVGID_00000140734107014570011600000016700381829845051546_" gradientUnits="userSpaceOnUse" x1="-1155.1669" y1="2361.3154" x2="-610.6266" y2="1426.1257" gradientTransform="matrix(-0.9994 -0.034 -0.034 0.9994 1519.9918 -127.3651)">
					<stop  offset="0" style="stop-color:#FFC444"/>
					<stop  offset="0.9964" style="stop-color:#F36F56"/>
				</linearGradient>
				<path style="fill:url(#SVGID_00000140734107014570011600000016700381829845051546_);" d="M2709.702,2834.703
					c-17.648-106.346,51.335-198.305,154.086-202.54c102.243-4.214,194.971,80.293,207.245,185.94
					c11.93,102.682-56.919,187.774-153.889,192.664C2819.717,3015.68,2726.85,2938.037,2709.702,2834.703z"/>
			</g>
		</g>
	</g>
</g>
</svg>
