<?xml version="1.0" encoding="utf-8"?>
<!-- Generator: Adobe Illustrator 27.5.0, SVG Export Plug-In . SVG Version: 6.00 Build 0)  -->
<svg version="1.1" xmlns="http://www.w3.org/2000/svg" xmlns:xlink="http://www.w3.org/1999/xlink" x="0px" y="0px"
	 viewBox="0 0 3710 3710" style="enable-background:new 0 0 3710 3710;" xml:space="preserve">
<g id="Background">
	<g>
		<g>
			<rect style="fill:#FFFFFF;" width="3710" height="3710"/>
		</g>
	</g>
</g>
<g id="Illustration">
	<g id="Sortation_systems">
		<path style="fill:#F4F7FA;" d="M2063.506,455.249c372.919,6.587,949.897,148.377,1115.973,512.753
			c58.004,127.263,54.077,314.354,46.224,688.535c-2.309,109.981-6.136,270.282-33.017,469.179
			c-55.84,413.171-93.853,694.443-237.722,858.224c-360.491,410.383-1662.671,398.525-2218.74-340.299
			c-303.338-403.033-350.004-976.362-72.637-1450.188C968.962,671.777,1564.255,446.43,2063.506,455.249z"/>
		<g>
			<g>
				
					<linearGradient id="SVGID_1_" gradientUnits="userSpaceOnUse" x1="2385.6262" y1="924.1942" x2="2109.7363" y2="2527.7996" gradientTransform="matrix(0.9957 -0.0927 0.0927 0.9957 -31.0052 179.622)">
					<stop  offset="0.0036" style="stop-color:#E38DDD"/>
					<stop  offset="1" style="stop-color:#9571F6"/>
				</linearGradient>
				<path style="fill:url(#SVGID_1_);" d="M2839.242,1263.087l-50.751,3.329c-6.165-22.02-14.149-43.296-23.966-63.581
					l41.759-27.437c11.387-7.481,14.113-22.639,6.094-33.866l-50.231-70.322c-8.045-11.264-23.841-14.36-35.284-6.905
					l-42.394,27.616c-16.509-16.194-34.406-31.054-53.522-44.376l21.935-44.914c5.913-12.106,0.362-26.846-12.404-32.932
					l-80.063-38.17c-12.84-6.121-28.09-1.25-34.055,10.89l-22.159,45.101c-22.428-6.357-45.62-10.838-69.334-13.459l-4.725-50.723
					c-1.269-13.617-13.822-24.047-28.05-23.294l-89.273,4.725c-14.323,0.758-24.911,12.463-23.637,26.143l4.746,50.955
					c-23.232,5.245-45.661,12.302-67.035,21.166l-30.852-42.606c-8.322-11.493-24.694-14.702-36.573-7.157l-74.5,47.32
					c-11.948,7.589-14.844,23.089-6.461,34.611l31.034,42.652c-17.049,15.688-32.592,32.813-46.483,51.152l-49.065-22.742
					c-13.293-6.162-29.103-1.112-35.304,11.29l-38.845,77.686c-6.223,12.444-0.438,27.506,12.91,33.633l48.776,22.384
					c-6.298,21.841-10.504,44.463-12.679,67.611l-53.625,3.517c-14.691,0.964-25.565,12.984-24.274,26.846l8.075,86.692
					c1.291,13.863,14.254,24.267,28.939,23.24l53.178-3.721c6.323,22.705,14.611,44.599,24.805,65.452l-43.364,28.248
					c-12.047,7.848-14.971,23.5-6.522,34.95l52.739,71.478c8.419,11.411,24.965,14.267,36.951,6.392l42.943-28.216
					c17.239,16.519,35.957,31.551,55.898,44.96l-21.981,44.734c-6.145,12.505-0.416,27.422,12.787,33.306l82.325,36.69
					c13.126,5.85,28.698,0.476,34.789-11.994l21.622-44.27c23.108,6.034,46.959,10.058,71.276,12.14l4.539,48.728
					c1.274,13.68,13.896,23.811,28.18,22.63l89.028-7.361c14.19-1.173,24.654-13.163,23.386-26.781l-4.518-48.507
					c23.319-5.882,45.76-13.572,67.048-23.085l28.948,39.788c8.138,11.184,24.098,13.939,35.644,6.165l71.992-48.476
					c11.479-7.73,14.231-23.034,6.152-34.19l-28.961-39.995c16.561-15.97,31.633-33.292,45.004-51.797l45.593,20.925
					c12.68,5.819,27.704,0.635,33.563-11.572l36.583-76.206c5.84-12.166,0.342-26.767-12.287-32.62l-45.62-21.146
					c5.85-21.473,9.721-43.668,11.605-66.361l50.326-3.522c13.84-0.969,24.035-12.649,22.783-26.09l-7.829-84.055
					C2865.317,1272.34,2853.088,1262.179,2839.242,1263.087z M2376.972,1111.237c143.404-8.562,269.004,95.356,281.735,232.035
					c12.731,136.679-92.055,256.221-235.244,267.096c-144.526,10.976-273.181-92.734-286.128-231.737
					S2232.228,1119.879,2376.972,1111.237z"/>
				<g>
					<path style="opacity:0.74;fill:#FFFFFF;" d="M2329.675,603.464c-443.481,19.173-780.054,382.572-740.132,811.171
						c39.922,428.6,439.544,742.096,881.01,701.284c429.187-39.676,737.696-401.182,699.762-808.434
						S2760.821,584.824,2329.675,603.464z M2453.709,1935.085c-334.937,28.985-636.309-209.771-666.495-533.849
						s223.205-600.437,559.305-616.938c328.964-16.15,614.094,223.709,643.13,535.433
						C3018.685,1631.455,2781.535,1906.716,2453.709,1935.085z"/>
					<g>
						<path style="fill:#D8DEE8;" d="M1888.584,1675.331l-161.505,105.558c76.715,107.18,180.327,194.337,300.209,253.379
							l82.036-167.202C2021.032,1821.42,1944.896,1755.611,1888.584,1675.331z"/>
						<path style="fill:#D8DEE8;" d="M2854.766,1002.517l150.118-97.901c-73.804-91.236-168.388-166.357-276.452-218.826
							l-78.178,159.58C2729.428,883.267,2799.237,937.06,2854.766,1002.517z"/>
						<path style="fill:#D8DEE8;" d="M1868.374,1058.814c45.693-73.223,108.191-135.687,182.846-182.551l-111.631-153.802
							c-103.33,64.182-189.205,151.128-250.468,253.375L1868.374,1058.814z"/>
						<path style="fill:#D8DEE8;" d="M1787.214,1401.236c-0.646-6.933-0.982-13.816-1.368-20.707l-197.937,13.286
							c0.448,6.925,0.986,13.864,1.634,20.819c11.479,123.239,53.121,237.418,117.291,336.516l162.21-105.786
							C1824.471,1572.765,1795.492,1490.112,1787.214,1401.236z"/>
						<path style="fill:#D8DEE8;" d="M2989.649,1319.731c7.963,85.487-4.073,167.916-32.217,243.22l165.821,76.761
							c40.428-102.328,57.969-215.127,47.062-332.227c-0.616-6.609-1.326-13.189-2.114-19.745l-180.919,12.144
							C2988.133,1306.48,2989.028,1313.063,2989.649,1319.731z"/>
						<path style="fill:#D8DEE8;" d="M2944.727,1594.303c-37.839,84.912-96.954,159.563-171.648,217.403l106.636,147.098
							c100.374-76.162,179.701-175.281,230.462-288.104L2944.727,1594.303z"/>
						<path style="fill:#D8DEE8;" d="M2876.541,1029.612c51.947,69.007,88.787,149.356,105.466,236.791l181.393-11.973
							c-19.832-119.068-68.053-228.617-137.384-322.514L2876.541,1029.612z"/>
						
							<linearGradient id="SVGID_00000000203847438094897550000000960125556814304693_" gradientUnits="userSpaceOnUse" x1="1808.8296" y1="531.2488" x2="2165.0466" y2="2341.5334" gradientTransform="matrix(0.9957 -0.0927 0.0927 0.9957 -31.0052 179.622)">
							<stop  offset="0" style="stop-color:#FFC444"/>
							<stop  offset="0.9964" style="stop-color:#F36F56"/>
						</linearGradient>
						<path style="opacity:0.25;fill:url(#SVGID_00000000203847438094897550000000960125556814304693_);" d="M2435.792,1936.199
							c-103.897,6.053-204.16-13.534-293.738-53.476l-81.758,166.885c119.809,52.59,253.87,77.576,392.37,67.747L2435.792,1936.199z
							"/>
						
							<linearGradient id="SVGID_00000054949415655976299080000001748082609164886968_" gradientUnits="userSpaceOnUse" x1="2201.8704" y1="511.2694" x2="2546.5833" y2="2263.0901" gradientTransform="matrix(0.9957 -0.0927 0.0927 0.9957 -31.0052 179.622)">
							<stop  offset="0" style="stop-color:#FFC444"/>
							<stop  offset="0.9964" style="stop-color:#F36F56"/>
						</linearGradient>
						<path style="opacity:0.25;fill:url(#SVGID_00000054949415655976299080000001748082609164886968_);" d="M2744.963,1832.082
							c-78.049,53.358-171.006,89.248-273.434,101.025l16.854,180.946c136.409-15.554,259.964-63.647,363.278-134.964
							L2744.963,1832.082z"/>
						<path style="fill:#D8DEE8;" d="M2081.879,858.233c73.422-40.165,156.967-65.678,246.741-72.621l-16.874-181.156
							c-124.568,8.048-240.396,43.386-341.417,99.9L2081.879,858.233z"/>
						<path style="fill:#D8DEE8;" d="M1784.906,1345.422c0.646-92.018,24.143-179.218,65.749-256.304l-178.94-82.624
							c-56.553,105.612-87.319,225.571-85.213,352.025L1784.906,1345.422z"/>
						<path style="fill:#D8DEE8;" d="M2364.482,783.852c89.516-1.88,175.363,15.038,253.246,47.029L2696.174,671
							c-106.397-46.12-224.77-70.809-348.546-68.094L2364.482,783.852z"/>
					</g>
				</g>
			</g>
			<path style="fill:#D8DEE8;" d="M1480.041,937.597l-28.283,2.869c-3.424-12.104-7.862-23.757-13.318-34.818l23.259-16.108
				c6.348-4.397,7.873-12.879,3.407-18.949l-27.952-37.988c-4.474-6.08-13.258-7.452-19.621-3.062l-23.552,16.247
				c-9.157-8.623-19.079-16.473-29.672-23.438l12.166-25.388c3.281-6.846,0.207-14.896-6.87-17.98l-44.313-19.32
				c-7.097-3.093-15.521-0.045-18.816,6.811l-12.234,25.458c-12.371-3.011-25.151-4.968-38.21-5.881l-2.601-27.921
				c-0.698-7.496-7.606-12.968-15.433-12.222l-49.019,4.674c-7.852,0.749-13.652,7.445-12.952,14.958l2.606,27.982
				c-12.723,3.409-24.994,7.796-36.681,13.152l-16.865-22.766c-4.547-6.137-13.483-7.533-19.962-3.115l-40.571,27.67
				c-6.497,4.43-8.066,13.006-3.504,19.149l16.899,22.76c-9.275,8.98-17.724,18.711-25.27,29.069l-26.655-11.451
				c-7.216-3.1-15.787,0.001-19.144,6.929l-21.009,43.358c-3.363,6.939-0.227,15.071,7.003,18.161l26.439,11.301
				c-3.406,12.093-5.678,24.57-6.848,37.294l-29.04,2.946c-7.946,0.806-13.821,7.588-13.117,15.149l4.404,47.277
				c0.704,7.561,7.719,13.022,15.664,12.199l28.804-2.983c3.437,12.324,7.939,24.172,13.476,35.42l-23.498,16.21
				c-6.523,4.5-8.099,13.114-3.52,19.24l28.612,38.271c4.572,6.116,13.553,7.417,20.061,2.911l23.332-16.159
				c9.384,8.781,19.578,16.729,30.445,23.77l-11.962,24.889c-3.343,6.955-0.221,15.05,6.971,18.077l44.91,18.909
				c7.172,3.018,15.681-0.166,19.01-7.111l11.822-24.668c12.65,2.964,25.718,4.811,39.051,5.585l2.493,26.759
				c0.7,7.513,7.625,12.905,15.467,12.045l48.954-5.369c7.817-0.857,13.584-7.628,12.885-15.124l-2.487-26.701
				c12.857-3.609,25.24-8.205,36.995-13.795l15.993,21.537c4.498,6.058,13.325,7.338,19.717,2.862l39.909-27.954
				c6.374-4.463,7.905-12.985,3.423-19.036l-16.058-21.677c9.191-9.119,17.559-18.969,24.989-29.451l25.338,10.829
				c7.053,3.015,15.418-0.115,18.685-6.988l20.413-42.946c3.262-6.862,0.2-14.874-6.839-17.899l-25.406-10.914
				c3.264-12.026,5.426-24.419,6.482-37.053l28.052-2.905c7.723-0.8,13.418-7.486,12.724-14.936l-4.339-46.582
				C1494.586,942.217,1487.765,936.814,1480.041,937.597z M1224.201,863.061c78.958-7.786,148.408,47.112,155.439,122.587
				c7.03,75.474-50.976,143.439-129.877,151.838c-79.255,8.435-149.508-46.38-156.595-122.468
				C1086.08,938.93,1144.889,870.882,1224.201,863.061z"/>
		</g>
		<g>
			<g>
				
					<linearGradient id="SVGID_00000145029329150631031720000015421134336212068248_" gradientUnits="userSpaceOnUse" x1="-5552.6235" y1="1950.0344" x2="-5750.2202" y2="3479.8076" gradientTransform="matrix(-0.996 -0.0892 -0.0892 0.996 -2413.9456 18.7124)">
					<stop  offset="0" style="stop-color:#FFC444"/>
					<stop  offset="0.9964" style="stop-color:#F36F56"/>
				</linearGradient>
				<path style="fill:url(#SVGID_00000145029329150631031720000015421134336212068248_);" d="M2998.524,3106.359
					c25.217,0.256,57.875-3.833,90.422-21.181c35.215-18.769,82.546-59.585,73.759-88.762
					c-3.281-10.893-14.631-20.985-25.393-21.084c-15.9-0.146-19.702,21.617-49.252,43.013c-5.461,3.954-33.695,24.398-46.029,15.553
					c-6.132-4.397-7.099-15.148-5.323-23.097c5.193-23.241,34.231-24.281,64.115-47.268c30.298-23.305,57.659-66.243,47.051-97.879
					c-6.096-18.18-25.129-33.811-38.802-31.121c-5.843,1.149-9.87,5.48-30.504,41.283c-16.936,29.386-20.893,38.04-30.302,40.127
					c-9.685,2.149-23.99-2.917-28.724-12.693c-12.329-25.461,53.504-55.527,65.249-122.64c5.263-30.075,1.087-75.723-25.493-87.808
					c-17.969-8.169-45.289-0.597-56.367,15.567c-9.987,14.571-0.558,27.052-10.215,60.93c-2.931,10.28-8.961,31.436-17.722,31.789
					c-10.285,0.415-19.201-28.047-21.231-34.965c-15.285-52.089,9.726-75.931-6.748-102.028
					c-12.846-20.35-43.824-30.836-69.769-23.462c-22.703,6.453-42.223,26.772-45.428,49.355
					c-3.261,22.976,14.096,47.695,48.809,97.131c16.462,23.444,29.794,39.481,27.02,61.069
					c-1.352,10.524-6.869,25.003-14.555,25.682c-16.962,1.499-19.159-66.459-57.794-80.384c-19.776-7.128-45.877,1.062-58.57,18.327
					c-15.552,21.153-9.314,53.667,6.215,71.862c20.261,23.739,44.518,9.25,84.215,36.354c17.61,12.024,44.77,36.679,38.871,54.528
					c-2.568,7.771-11.584,14.8-20.808,15.018c-20.675,0.49-24.431-33.657-56.015-51.349c-22.755-12.746-55.639-14.533-64.623-1.861
					c-12.683,17.89,22.522,64.238,41.584,85.031C2829.211,3046.533,2884.504,3095.239,2998.524,3106.359z"/>
				<g style="opacity:0.5;">
					<path style="fill:#FFFFFF;" d="M2989.49,3094.787c8.364-56.007-18.615-173.921-40.863-230.491
						c-21.678-55.124-39.474-140.915-39.652-141.775l-4.161,0.858c0.177,0.864,18.046,87.006,39.859,142.471
						c22.078,56.139,48.875,172.989,40.614,228.309L2989.49,3094.787z"/>
				</g>
			</g>
			
				<linearGradient id="SVGID_00000113321179244307755680000005621762033239894695_" gradientUnits="userSpaceOnUse" x1="380.6317" y1="3129.9004" x2="-6.6261" y2="2671.9751" gradientTransform="matrix(-1 0 0 1 3179.3113 0)">
				<stop  offset="0.0036" style="stop-color:#E38DDD"/>
				<stop  offset="1" style="stop-color:#9571F6"/>
			</linearGradient>
			<path style="fill:url(#SVGID_00000113321179244307755680000005621762033239894695_);" d="M3012.526,3093.576
				c10.375-30.683,22.988-84.168,9.111-146.274c-5.718-25.591-16.886-75.575-59.681-108.5c-21.33-16.41-62.426-37.745-80.998-22.24
				c-11.95,9.977-13.735,34.504-4.742,49.975c9.067,15.6,23.743,12.792,47.967,36.55c8.964,8.791,19.305,19.165,16.434,27.704
				c-2.398,7.131-13.593,11.735-23.308,10.886c-20.068-1.754-21.32-25.684-45.508-35.69c-17.199-7.115-41.703-5.415-48.719,6.899
				c-6.091,10.691,1.186,29.057,12.613,39.279c18.298,16.368,38.225,3.793,59.148,21.405c9.282,7.813,18.276,21.16,14.562,28.671
				c-4.232,8.559-24.447,8.495-38.526,4.798c-18.588-4.88-22.33-15.002-33.01-13.133c-11.912,2.085-22.895,17.415-21.424,30.188
				c2.061,17.89,28.435,29.763,47.315,32.641c24.17,3.684,37.98-7.082,52.524,3.63c5.338,3.931,11.348,11.178,9.803,17.172
				c-2.204,8.551-18.888,11.079-29.967,12.757c-26.962,4.085-36.934-3.083-44.776,4.299c-7.94,7.474-7.99,24.491-0.596,34.146
				c4.109,5.366,13.745,12.671,49.014,8.261C2924.447,3133.912,2964.688,3124.711,3012.526,3093.576z"/>
		</g>
		<g>
			<g>
				<g>
					<g>
						
							<linearGradient id="SVGID_00000158016535502796434050000016984922612920140981_" gradientUnits="userSpaceOnUse" x1="3296.2083" y1="409.6881" x2="3307.7751" y2="3115.8496" gradientTransform="matrix(-1 0 0 1 4360.3916 0)">
							<stop  offset="0" style="stop-color:#AA80F9"/>
							<stop  offset="0.9964" style="stop-color:#6165D7"/>
						</linearGradient>
						<path style="fill:url(#SVGID_00000158016535502796434050000016984922612920140981_);" d="M850.196,1989.155
							c75.05,148.124,182.228,163.858,207.178,165.354v0.121c0,0-2.245,0.073,0,0.024c2.245,0.049,0-0.024,0-0.024v-0.121
							c27.721-1.231,99.783-12.187,167.136-99.352c14.214-18.389,29.005-40.18,42.084-66.002
							c87.189-172.063,22.747-260.676,22.747-260.676l-231.968-0.555v-0.024v0.024v-0.024v0.024l-98.366,0.241l-132.92,0.313
							C826.088,1728.479,763.007,1817.092,850.196,1989.155z"/>
						
							<linearGradient id="SVGID_00000119834995558479174150000018360097430061850040_" gradientUnits="userSpaceOnUse" x1="3301.0471" y1="1519.0319" x2="3302.6563" y2="1895.4938" gradientTransform="matrix(-1 0 0 1 4360.3916 0)">
							<stop  offset="0" style="stop-color:#444B8C"/>
							<stop  offset="0.9964" style="stop-color:#26264F"/>
						</linearGradient>
						
							<ellipse style="fill:url(#SVGID_00000119834995558479174150000018360097430061850040_);" cx="1058.434" cy="1732.068" rx="234.463" ry="29.696"/>
						
							<linearGradient id="SVGID_00000024003270739330128400000008744669112848904320_" gradientUnits="userSpaceOnUse" x1="3339.6882" y1="414.0043" x2="3351.2256" y2="3113.1841" gradientTransform="matrix(-1 0 0 1 4360.3916 0)">
							<stop  offset="0" style="stop-color:#AA80F9"/>
							<stop  offset="0.9964" style="stop-color:#6165D7"/>
						</linearGradient>
						<path style="opacity:0.3;fill:url(#SVGID_00000024003270739330128400000008744669112848904320_);" d="M850.196,1989.155
							c75.05,148.124,182.228,163.858,207.178,165.354v0.121c0,0-2.245,0.073,0,0.024c2.245,0.049,0-0.024,0-0.024v-0.121
							c27.721-1.231,99.783-12.187,167.136-99.352c-0.386-80.264-185.916-134.803-244.099-172.014
							c-73.603-47.058-14.034-151.068-14.034-151.068c-2.848-1.352-5.448-2.654-8.223-3.909l-132.494,0.313
							C825.661,1728.479,763.007,1817.092,850.196,1989.155z"/>
					</g>
					
						<linearGradient id="SVGID_00000172404191880030637250000008344127209233940640_" gradientUnits="userSpaceOnUse" x1="2822.9702" y1="1314.7452" x2="3067.4944" y2="1314.7452" gradientTransform="matrix(-1 0 0 1 4360.3916 0)">
						<stop  offset="0" style="stop-color:#444B8C"/>
						<stop  offset="0.9964" style="stop-color:#26264F"/>
					</linearGradient>
					
						<ellipse style="fill:url(#SVGID_00000172404191880030637250000008344127209233940640_);" cx="1415.159" cy="1314.745" rx="122.262" ry="156.443"/>
					
						<linearGradient id="SVGID_00000097479087495344647800000005842049621142851999_" gradientUnits="userSpaceOnUse" x1="2857.2534" y1="1349.9897" x2="3717.3735" y2="1349.9897" gradientTransform="matrix(-1 0 0 1 4360.3916 0)">
						<stop  offset="0" style="stop-color:#AA80F9"/>
						<stop  offset="0.9964" style="stop-color:#6165D7"/>
					</linearGradient>
					<path style="fill:url(#SVGID_00000097479087495344647800000005842049621142851999_);" d="M643.018,1349.99
						c0,194.626,192.551,352.378,430.061,352.378c36.487,0,71.889-3.716,105.722-10.738
						c186.398-38.588,324.337-176.913,324.337-341.64c0-194.602-192.551-352.378-430.059-352.378
						c-66.727,0-129.904,12.452-186.277,34.678C742.563,1089.169,643.018,1210.071,643.018,1349.99z"/>
					<path style="fill:#F4F7FA;" d="M1360.266,1510.842l-331.591,28.94c-73.302,6.397-136.537-50.944-139.101-128.887l-2.736-83.166
						c-1.177-35.775,26.215-65.614,60.719-66.504l472.7-12.191c27.452-0.708,49.443,24.243,49.443,55.62v73.004
						C1469.699,1446.153,1421.412,1505.505,1360.266,1510.842z"/>
					
						<linearGradient id="SVGID_00000023266884338601707350000007410467212003951763_" gradientUnits="userSpaceOnUse" x1="3563.041" y1="1385.0995" x2="4096.1826" y2="1385.0995" gradientTransform="matrix(1 0 0 1 -2649.7209 0)">
						<stop  offset="0" style="stop-color:#444B8C"/>
						<stop  offset="0.9964" style="stop-color:#26264F"/>
					</linearGradient>
					<path style="fill:url(#SVGID_00000023266884338601707350000007410467212003951763_);" d="M1368.225,1463.283l-354.807,26.119
						c-52.4,3.857-97.17-37.561-98.909-92.905l-1.155-36.732c-1.116-35.491,25.976-65.224,60.057-66.266l422.981-12.931
						c27.735-0.848,49.986,24.078,50.027,55.561l0.043,32.599C1446.526,1417.875,1411.861,1460.071,1368.225,1463.283z"/>
					<path style="fill:#D8DEE8;" d="M1099.67,1373.014c3.339-5.489,5.359-11.55,5.249-17.957
						c-0.358-20.771-21.174-36.609-46.755-35.318c-25.877,1.307-46.688,19.602-46.211,40.803c0.147,6.54,2.494,12.456,6.178,17.608
						L1099.67,1373.014z"/>
					<path style="fill:#D8DEE8;" d="M1351.311,1362.978c3.076-5.212,4.973-10.974,4.943-17.07
						c-0.097-19.762-18.72-34.878-41.827-33.711c-23.356,1.179-42.322,18.515-42.127,38.665c0.06,6.216,2.11,11.846,5.374,16.755
						L1351.311,1362.978z"/>
					
						<linearGradient id="SVGID_00000142879343284121081860000006587376935871733181_" gradientUnits="userSpaceOnUse" x1="3436.6692" y1="-1032.2354" x2="3454.7915" y2="3207.592" gradientTransform="matrix(-1 0 0 1 4360.3916 0)">
						<stop  offset="0" style="stop-color:#AA80F9"/>
						<stop  offset="0.9964" style="stop-color:#6165D7"/>
					</linearGradient>
					<path style="opacity:0.3;fill:url(#SVGID_00000142879343284121081860000006587376935871733181_);" d="M643.018,1349.99
						c0,194.626,192.551,352.378,430.061,352.378c36.487,0,71.889-3.716,105.722-10.738
						c33.448-105.578-155.58-221.365-264.296-295.137c-133.185-90.374-27.704-364.203-27.704-364.203
						C742.563,1089.169,643.018,1210.071,643.018,1349.99z"/>
					
						<linearGradient id="SVGID_00000132052634530413076560000008583986411975698870_" gradientUnits="userSpaceOnUse" x1="3536.4211" y1="1376.0985" x2="3780.9456" y2="1376.0985" gradientTransform="matrix(-1 0 0 1 4360.3916 0)">
						<stop  offset="0" style="stop-color:#444B8C"/>
						<stop  offset="0.9964" style="stop-color:#26264F"/>
					</linearGradient>
					
						<ellipse style="fill:url(#SVGID_00000132052634530413076560000008583986411975698870_);" cx="701.708" cy="1376.099" rx="122.262" ry="156.443"/>
				</g>
			</g>
			<g>
				<polygon style="fill:#AEB7C4;" points="3212.088,2201.757 3197.762,2141.016 3197.599,2141.019 3180.69,2273.69 
					3212.088,2273.69 				"/>
				<path style="fill:#AEB7C4;" d="M838.114,2181.837c-14.048,0-187.748,20.877-200.488,26.795v65.057H3180.69l16.909-132.671
					L838.114,2181.837z"/>
				<path style="fill:#D8DEE8;" d="M1107.312,2773.997l-270.547-16.296l484.858-505.96l401.888-40.804v67.118l-499.348,454.708
					C1192.373,2761.711,1150.231,2776.582,1107.312,2773.997z"/>
				<path style="fill:#D8DEE8;" d="M2172.81,3120.303h-316.46l831.557-868.563l402.554-42.07v63.713l-841.518,815.564
					C2228.694,3109.033,2201.33,3120.303,2172.81,3120.303z"/>
				<path style="fill:#D8DEE8;" d="M1476.044,2881.843l-279.657-23.177l582.717-606.925l402.268-41.64v67.954l-623.051,575.468
					C1536.073,2874.07,1506.226,2884.344,1476.044,2881.843z"/>
				<polygon style="fill:#D8DEE8;" points="3200.577,2117.66 816.789,2117.66 637.611,2208.629 637.611,2209.511 3188.869,2209.511 
									"/>
				<polygon style="fill:#D8DEE8;" points="3212.088,2117.66 3200.577,2117.66 3188.869,2209.511 3212.088,2209.511 				"/>
				<path style="fill:#D8DEE8;" d="M1836.317,2990.082l-289.105-20.766l689.374-717.575l402.267-40.781v67.094l-720.434,682.672
					C1896.386,2981.603,1866.592,2992.257,1836.317,2990.082z"/>
				
					<linearGradient id="SVGID_00000140712548624839197660000011311624957126220454_" gradientUnits="userSpaceOnUse" x1="547.5477" y1="2494.9009" x2="1723.8955" y2="2494.9009">
					<stop  offset="0" style="stop-color:#FF9085"/>
					<stop  offset="1" style="stop-color:#FB6FBB"/>
				</linearGradient>
				<path style="fill:url(#SVGID_00000140712548624839197660000011311624957126220454_);" d="M1126.922,2779.336H586.313
					c-19.958,0-37.329-15.062-38.677-34.974c-0.772-11.413,3.576-21.809,10.948-29.182c6.807-6.807,16.193-11.036,26.576-11.036
					h210.604c33.722,0,65.982-13.767,89.313-38.114l436.56-455.564h402.259l-518.713,535.712
					C1184.662,2767.371,1156.422,2779.336,1126.922,2779.336z"/>
				
					<linearGradient id="SVGID_00000077304693355046925490000000810663473976988860_" gradientUnits="userSpaceOnUse" x1="547.5477" y1="2548.1914" x2="2181.3701" y2="2548.1914">
					<stop  offset="0" style="stop-color:#AB316D"/>
					<stop  offset="1" style="stop-color:#792D3D"/>
				</linearGradient>
				<path style="fill:url(#SVGID_00000077304693355046925490000000810663473976988860_);" d="M1477.915,2885.917H586.358
					c-19.968,0-37.356-15.059-38.72-34.981c-0.782-11.421,3.567-21.831,10.946-29.208c6.807-6.809,16.193-11.003,26.576-11.003
					h564.903c33.68,0,65.905-13.733,89.231-38.028l539.817-562.231h402.258l-625.394,642.499
					C1535.469,2874.033,1507.316,2885.917,1477.915,2885.917z"/>
				
					<linearGradient id="SVGID_00000106867602098586069590000004046050137746705556_" gradientUnits="userSpaceOnUse" x1="2208.4414" y1="1891.172" x2="1176.3076" y2="3282.4727">
					<stop  offset="0.0036" style="stop-color:#6165D7"/>
					<stop  offset="1" style="stop-color:#AA80F9"/>
				</linearGradient>
				<path style="fill:url(#SVGID_00000106867602098586069590000004046050137746705556_);" d="M2638.845,2210.466l-722.776,749.44
					c-20.531,21.289-48.836,33.314-78.412,33.314H799.487c-19.917,0-37.275-14.993-38.68-34.86
					c-0.81-11.451,3.543-21.932,10.94-29.329c6.807-6.809,16.193-11.003,26.576-11.003h705.849
					c33.669,0,65.883-13.724,89.208-38.005l643.205-669.558H2638.845z"/>
				<path style="fill:#E38DDD;" d="M3090.165,2210.466l-841.477,875.155c-20.539,21.361-48.893,33.432-78.525,33.432H933.544
					c-20.754,0-37.579-16.825-37.579-37.579v-19.63c0-20.754,16.825-37.579,37.579-37.579h922.428
					c33.742,0,66.02-13.783,89.354-38.156l742.58-775.643H3090.165z"/>
			</g>
			<g>
				<g>
					
						<linearGradient id="SVGID_00000181797892106245761800000007959532479826581921_" gradientUnits="userSpaceOnUse" x1="5334.4434" y1="2422.7622" x2="5127.1089" y2="2772.9272" gradientTransform="matrix(-1 0 0 1 6308.8105 0)">
						<stop  offset="0" style="stop-color:#FFC444"/>
						<stop  offset="0.3138" style="stop-color:#FBA94A"/>
						<stop  offset="0.9964" style="stop-color:#F36F56"/>
					</linearGradient>
					<polygon style="fill:url(#SVGID_00000181797892106245761800000007959532479826581921_);" points="973.102,2740.283 
						1162.584,2715.841 1162.584,2420.981 973.102,2401.769 					"/>
					<g>
						
							<linearGradient id="SVGID_00000017480285558911224270000002319157063735084941_" gradientUnits="userSpaceOnUse" x1="5536.3784" y1="2412.1001" x2="5307.272" y2="2799.0352" gradientTransform="matrix(-1 0 0 1 6308.8105 0)">
							<stop  offset="0" style="stop-color:#FFC444"/>
							<stop  offset="0.3138" style="stop-color:#FBA94A"/>
							<stop  offset="0.9964" style="stop-color:#F36F56"/>
						</linearGradient>
						<polygon style="fill:url(#SVGID_00000017480285558911224270000002319157063735084941_);" points="741.978,2709.905 
							973.102,2740.283 973.102,2401.769 741.978,2406.106 						"/>
						<polygon style="fill:#FFFFFF;" points="888.14,2403.363 888.14,2451.538 810.955,2450.101 810.955,2404.812 						"/>
					</g>
				</g>
				<g>
					
						<linearGradient id="SVGID_00000161616531170453080330000001421683548831373969_" gradientUnits="userSpaceOnUse" x1="3412.0579" y1="1996.967" x2="3250.1045" y2="2270.488" gradientTransform="matrix(-1 0 0 1 6308.8105 0)">
						<stop  offset="0" style="stop-color:#FFC444"/>
						<stop  offset="0.3138" style="stop-color:#FBA94A"/>
						<stop  offset="0.9964" style="stop-color:#F36F56"/>
					</linearGradient>
					<polygon style="fill:url(#SVGID_00000161616531170453080330000001421683548831373969_);" points="2895.764,2244.989 
						3043.773,2225.896 3043.773,1995.575 2895.764,1980.569 					"/>
					<g>
						
							<linearGradient id="SVGID_00000100384700030468336310000006998141780809548456_" gradientUnits="userSpaceOnUse" x1="3569.7935" y1="1988.6385" x2="3390.8337" y2="2290.8816" gradientTransform="matrix(-1 0 0 1 6308.8105 0)">
							<stop  offset="0" style="stop-color:#FFC444"/>
							<stop  offset="0.3138" style="stop-color:#FBA94A"/>
							<stop  offset="0.9964" style="stop-color:#F36F56"/>
						</linearGradient>
						<polygon style="fill:url(#SVGID_00000100384700030468336310000006998141780809548456_);" points="2715.229,2221.26 
							2895.764,2244.989 2895.764,1980.569 2715.229,1983.957 						"/>
						<polygon style="fill:#FFFFFF;" points="2829.398,1981.814 2829.398,2019.444 2769.108,2018.322 2769.108,1982.946 						"/>
					</g>
				</g>
				<g>
					
						<linearGradient id="SVGID_00000021118466678240134560000000233049752759722418_" gradientUnits="userSpaceOnUse" x1="1842.7423" y1="1983.8254" x2="2022.2644" y2="2296.1184">
						<stop  offset="0" style="stop-color:#FFC444"/>
						<stop  offset="0.3138" style="stop-color:#FBA94A"/>
						<stop  offset="0.9964" style="stop-color:#F36F56"/>
					</linearGradient>
					
						<rect x="1776.588" y="2021.854" style="fill:url(#SVGID_00000021118466678240134560000000233049752759722418_);" width="311.831" height="236.235"/>
					
						<linearGradient id="SVGID_00000133497716744137902050000004944535350889623192_" gradientUnits="userSpaceOnUse" x1="1881.1147" y1="1917.7804" x2="1978.2521" y2="2086.7585">
						<stop  offset="0" style="stop-color:#FFC444"/>
						<stop  offset="0.3138" style="stop-color:#FBA94A"/>
						<stop  offset="0.9964" style="stop-color:#F36F56"/>
					</linearGradient>
					<polygon style="fill:url(#SVGID_00000133497716744137902050000004944535350889623192_);" points="2088.419,2023.429 
						1776.588,2023.429 1830.135,1947.086 2063.22,1947.086 					"/>
				</g>
				<g>
					
						<linearGradient id="SVGID_00000124121833066569368620000000925734935199968432_" gradientUnits="userSpaceOnUse" x1="2260.4287" y1="2501.2422" x2="2439.9509" y2="2813.5352">
						<stop  offset="0" style="stop-color:#FFC444"/>
						<stop  offset="0.3138" style="stop-color:#FBA94A"/>
						<stop  offset="0.9964" style="stop-color:#F36F56"/>
					</linearGradient>
					
						<rect x="2194.274" y="2539.271" style="fill:url(#SVGID_00000124121833066569368620000000925734935199968432_);" width="311.831" height="236.235"/>
					
						<linearGradient id="SVGID_00000168090490097548295000000010625575695123908763_" gradientUnits="userSpaceOnUse" x1="2298.8013" y1="2435.1973" x2="2395.9385" y2="2604.1753">
						<stop  offset="0" style="stop-color:#FFC444"/>
						<stop  offset="0.3138" style="stop-color:#FBA94A"/>
						<stop  offset="0.9964" style="stop-color:#F36F56"/>
					</linearGradient>
					<polygon style="fill:url(#SVGID_00000168090490097548295000000010625575695123908763_);" points="2506.105,2540.846 
						2194.274,2540.846 2247.821,2464.503 2480.907,2464.503 					"/>
				</g>
				<g>
					
						<linearGradient id="SVGID_00000102520687526472119470000008913026253824305578_" gradientUnits="userSpaceOnUse" x1="2249.573" y1="2204.7319" x2="2422.3083" y2="2505.219">
						<stop  offset="0" style="stop-color:#FFC444"/>
						<stop  offset="0.3138" style="stop-color:#FBA94A"/>
						<stop  offset="0.9964" style="stop-color:#F36F56"/>
					</linearGradient>
					
						<rect x="2224.044" y="2237.186" style="fill:url(#SVGID_00000102520687526472119470000008913026253824305578_);" width="156.545" height="118.595"/>
					
						<linearGradient id="SVGID_00000151521729043179009460000016149950445571153085_" gradientUnits="userSpaceOnUse" x1="2270.8574" y1="2172.1165" x2="2369.2498" y2="2343.2778">
						<stop  offset="0" style="stop-color:#FFC444"/>
						<stop  offset="0.3138" style="stop-color:#FBA94A"/>
						<stop  offset="0.9964" style="stop-color:#F36F56"/>
					</linearGradient>
					<polygon style="fill:url(#SVGID_00000151521729043179009460000016149950445571153085_);" points="2380.589,2237.977 
						2224.044,2237.977 2250.925,2193.701 2367.939,2193.701 					"/>
				</g>
				<g>
					
						<linearGradient id="SVGID_00000034803508857250818780000014099488854789993393_" gradientUnits="userSpaceOnUse" x1="1703.943" y1="2800.7278" x2="1876.6783" y2="3101.2151">
						<stop  offset="0" style="stop-color:#FFC444"/>
						<stop  offset="0.3138" style="stop-color:#FBA94A"/>
						<stop  offset="0.9964" style="stop-color:#F36F56"/>
					</linearGradient>
					
						<rect x="1678.414" y="2833.182" style="fill:url(#SVGID_00000034803508857250818780000014099488854789993393_);" width="156.545" height="118.595"/>
					
						<linearGradient id="SVGID_00000135667696865333764650000001375927124767919747_" gradientUnits="userSpaceOnUse" x1="1725.2273" y1="2768.1123" x2="1823.6196" y2="2939.2737">
						<stop  offset="0" style="stop-color:#FFC444"/>
						<stop  offset="0.3138" style="stop-color:#FBA94A"/>
						<stop  offset="0.9964" style="stop-color:#F36F56"/>
					</linearGradient>
					<polygon style="fill:url(#SVGID_00000135667696865333764650000001375927124767919747_);" points="1834.959,2833.972 
						1678.414,2833.972 1705.295,2789.697 1822.309,2789.697 					"/>
				</g>
				<g>
					
						<linearGradient id="SVGID_00000051341790018506898760000011907845027538549654_" gradientUnits="userSpaceOnUse" x1="1132.4868" y1="2799.5996" x2="1305.2222" y2="3100.0867">
						<stop  offset="0" style="stop-color:#FFC444"/>
						<stop  offset="0.3138" style="stop-color:#FBA94A"/>
						<stop  offset="0.9964" style="stop-color:#F36F56"/>
					</linearGradient>
					
						<rect x="1106.958" y="2832.054" style="fill:url(#SVGID_00000051341790018506898760000011907845027538549654_);" width="156.545" height="118.595"/>
					
						<linearGradient id="SVGID_00000180365574065527688210000015393651466683292047_" gradientUnits="userSpaceOnUse" x1="1153.7712" y1="2766.9841" x2="1252.1636" y2="2938.1455">
						<stop  offset="0" style="stop-color:#FFC444"/>
						<stop  offset="0.3138" style="stop-color:#FBA94A"/>
						<stop  offset="0.9964" style="stop-color:#F36F56"/>
					</linearGradient>
					<polygon style="fill:url(#SVGID_00000180365574065527688210000015393651466683292047_);" points="1263.503,2832.844 
						1106.958,2832.844 1133.839,2788.569 1250.853,2788.569 					"/>
				</g>
				<g>
					
						<linearGradient id="SVGID_00000076595496509578635680000005359727916350007465_" gradientUnits="userSpaceOnUse" x1="2410.5559" y1="2091.489" x2="2583.2913" y2="2391.9761">
						<stop  offset="0" style="stop-color:#FFC444"/>
						<stop  offset="0.3138" style="stop-color:#FBA94A"/>
						<stop  offset="0.9964" style="stop-color:#F36F56"/>
					</linearGradient>
					
						<rect x="2385.027" y="2123.943" style="fill:url(#SVGID_00000076595496509578635680000005359727916350007465_);" width="156.545" height="118.595"/>
					
						<linearGradient id="SVGID_00000047050123312995774170000005204756674735585965_" gradientUnits="userSpaceOnUse" x1="2431.8403" y1="2058.8733" x2="2530.2327" y2="2230.0347">
						<stop  offset="0" style="stop-color:#FFC444"/>
						<stop  offset="0.3138" style="stop-color:#FBA94A"/>
						<stop  offset="0.9964" style="stop-color:#F36F56"/>
					</linearGradient>
					<polygon style="fill:url(#SVGID_00000047050123312995774170000005204756674735585965_);" points="2541.572,2124.734 
						2385.027,2124.734 2411.908,2080.458 2528.922,2080.458 					"/>
				</g>
			</g>
			<g>
				
					<linearGradient id="SVGID_00000179639242793782069730000009513268989303797950_" gradientUnits="userSpaceOnUse" x1="-606.5573" y1="-295.6018" x2="-1151.2374" y2="24.4114" gradientTransform="matrix(0.0617 -0.9981 0.9981 0.0617 1087.5479 1094.4615)">
					<stop  offset="0" style="stop-color:#AA80F9"/>
					<stop  offset="0.9964" style="stop-color:#6165D7"/>
				</linearGradient>
				<path style="fill:url(#SVGID_00000179639242793782069730000009513268989303797950_);" d="M878.982,2042.685l-97.012-183.832
					c-13.659-25.883-5.171-57.916,19.513-73.639h0c28.097-17.897,65.505-7.568,80.438,22.21l93.363,186.169L878.982,2042.685z"/>
				
					<linearGradient id="SVGID_00000078734577777622413390000005919712221579792575_" gradientUnits="userSpaceOnUse" x1="3440.7039" y1="1377.3508" x2="3687.4333" y2="1377.3508" gradientTransform="matrix(0.4727 0.8812 -0.8812 0.4727 578.564 -1739.813)">
					<stop  offset="0" style="stop-color:#AA80F9"/>
					<stop  offset="0.9964" style="stop-color:#6165D7"/>
				</linearGradient>
				<path style="fill:url(#SVGID_00000078734577777622413390000005919712221579792575_);" d="M957.63,1961.251l196.67,67.277
					c27.691,9.472,43.479,38.608,36.294,66.979h0c-8.178,32.293-42.488,50.427-73.777,38.994l-195.617-71.48L957.63,1961.251z"/>
				
					<linearGradient id="SVGID_00000086678727360065560860000002498804934016334732_" gradientUnits="userSpaceOnUse" x1="-1978.5487" y1="-543.9696" x2="-2146.6553" y2="-331.6247" gradientTransform="matrix(0.7131 -0.7011 0.7011 0.7131 2726.3965 902.4711)">
					<stop  offset="0" style="stop-color:#444B8C"/>
					<stop  offset="0.9964" style="stop-color:#26264F"/>
				</linearGradient>
				<circle style="fill:url(#SVGID_00000086678727360065560860000002498804934016334732_);" cx="944.738" cy="2000.359" r="75.27"/>
				<g>
					
						<linearGradient id="SVGID_00000093143874569738995050000001874436094136255143_" gradientUnits="userSpaceOnUse" x1="3366.093" y1="1865.4333" x2="3161.2805" y2="2211.3391" gradientTransform="matrix(1 0 0 1 -1974.922 0)">
						<stop  offset="0" style="stop-color:#FFC444"/>
						<stop  offset="0.3138" style="stop-color:#FBA94A"/>
						<stop  offset="0.9964" style="stop-color:#F36F56"/>
					</linearGradient>
					<polygon style="fill:url(#SVGID_00000093143874569738995050000001874436094136255143_);" points="1392.422,2179.092 
						1205.244,2154.947 1205.244,1863.673 1392.422,1844.695 					"/>
					<g>
						
							<linearGradient id="SVGID_00000134234193336178612020000005733878965453221004_" gradientUnits="userSpaceOnUse" x1="3565.572" y1="1854.9008" x2="3339.2524" y2="2237.1296" gradientTransform="matrix(1 0 0 1 -1974.922 0)">
							<stop  offset="0" style="stop-color:#FFC444"/>
							<stop  offset="0.3138" style="stop-color:#FBA94A"/>
							<stop  offset="0.9964" style="stop-color:#F36F56"/>
						</linearGradient>
						<polygon style="fill:url(#SVGID_00000134234193336178612020000005733878965453221004_);" points="1620.734,2149.084 
							1392.422,2179.092 1392.422,1844.695 1620.734,1848.98 						"/>
						<polygon style="fill:#FFFFFF;" points="1476.35,1846.27 1476.35,1893.859 1552.596,1892.44 1552.596,1847.701 						"/>
					</g>
				</g>
				
					<linearGradient id="SVGID_00000072962545543080162400000015905729822447849912_" gradientUnits="userSpaceOnUse" x1="-2175.4165" y1="-1427.8961" x2="-2042.2151" y2="-1427.8961" gradientTransform="matrix(0.8856 -0.4644 0.4644 0.8856 3725.3232 2383.1592)">
					<stop  offset="0" style="stop-color:#444B8C"/>
					<stop  offset="0.9964" style="stop-color:#26264F"/>
				</linearGradient>
				<path style="fill:url(#SVGID_00000072962545543080162400000015905729822447849912_);" d="M1169.633,2005.249l45.005,6.305
					c13.682,1.917,21.746,16.209,16.52,28.998c-11.068,27.084-21.378,70.158,8.452,97.77c7.845,7.261,18.051,11.466,28.718,12.159
					l17.362,1.127c0,0-50.095,69.506-126.392,5.047c-59.914-50.617-27.116-116.189-10.268-142.015
					C1153.508,2007.776,1161.519,2004.111,1169.633,2005.249z"/>
			</g>
		</g>
	</g>
</g>
</svg>
