<?xml version="1.0" encoding="utf-8"?>
<!-- Generator: Adobe Illustrator 27.5.0, SVG Export Plug-In . SVG Version: 6.00 Build 0)  -->
<svg version="1.1" xmlns="http://www.w3.org/2000/svg" xmlns:xlink="http://www.w3.org/1999/xlink" x="0px" y="0px"
	 viewBox="0 0 3710 3710" style="enable-background:new 0 0 3710 3710;" xml:space="preserve">
<g id="Background">
	<g>
		<g>
			<rect style="fill:#FFFFFF;" width="3710" height="3710"/>
		</g>
	</g>
</g>
<g id="Illustration">
	<g>
		<path style="fill:#F4F7FA;" d="M3271.747,1624.188c-56.433-369.382-101.737-624.658-305.521-764.541
			c-343.734-235.948-727.615,147.086-1214.528-109.935c-239.737-126.547-248.723-273.268-451.76-292.743
			c-359.217-34.455-653.393,394.235-678.888,430.999c-154.902,223.374-206.645,495.746-143.849,755.419
			c40.785,168.661,68.346,343.218,60.781,516.527c-13.164,301.627-5.589,583.173,287.134,763.056
			c261.366,160.615,590.302,302.272,904.11,327.082c213.261,16.863,452.422-10.425,657.965-65.946
			C3434.691,2901.143,3349.339,2132.068,3271.747,1624.188z"/>
		<g>
			<linearGradient id="SVGID_1_" gradientUnits="userSpaceOnUse" x1="1866.1857" y1="1324.8579" x2="2083.0381" y2="6890.6689">
				<stop  offset="0" style="stop-color:#444B8C"/>
				<stop  offset="0.9964" style="stop-color:#26264F"/>
			</linearGradient>
			<path style="fill:url(#SVGID_1_);" d="M3052.061,1291.069c-0.016-0.73-0.043-1.449-0.06-2.178
				c-0.407-46.153-5.175-90.432-13.952-132.347c-22.662-114.31-72.13-204.412-145.332-272.466
				c-35.312-33.898-75.911-61.937-121.146-82.943c-0.285-0.142-0.565-0.289-0.85-0.431l-0.013,0.036
				c-52.593-24.287-111.514-39.16-175.778-42.633c-267.847-14.474-436.78,166.059-610.743,337.73
				c-172.076-177.505-374.988-390.768-653.818-405.834c-91.906-4.966-177.698,2.493-255.056,34.099h-0.028
				c-242.282,80.77-397.836,302.469-397.836,555.944c0,81.28,13.478,157.674,38.705,226.907
				c39.163,107.561,106.401,198.513,194.926,263.152c38.732,28.306,81.479,49.662,127.649,70.732h0.085
				c78.224,28.094,166.751,43.772,261.336,39.896c228.766-9.375,381.448-117.998,525.43-245.737v0.006v-0.059
				c52.676-49.798,104.523-102.696,155.853-153.996c167.321,167.115,352.538,356.309,588.866,346.627
				c83.052-3.402,157.388-25.407,221.489-61.189l98.19-63.897c62.709-58.3,109.255-135.222,135.992-224.896
				C3043.038,1420.344,3053.504,1357.668,3052.061,1291.069z M1184.099,1559.548c-99.759-47.764-165.827-149.826-165.827-277.54
				c0-133.918,87.724-248.729,211.627-288.12c0.084-0.025,0.166-0.049,0.248-0.074c32.558-10.355,67.548-15.44,104.054-14.312
				c195.751,6.047,338.925,187.15,461.01,308.595l-139.586,138.929l2.074,0.412c-97.085,86.622-206.718,159.099-335.062,161.386
				C1272.35,1589.719,1225.392,1579.34,1184.099,1559.548z M2566.833,1566.661c-163.679,2.916-289.961-162.185-405.581-274.198
				l153.582-156.057l-0.391-2.598c79.739-68.303,166.457-118.885,261.771-115.94c34.949,1.08,67.467,9.541,96.489,24.094
				c68.595,37.79,118.352,108.746,133.9,191.526c3.247,18.371,5.012,37.578,5.162,57.484c-0.115,21.888-2.194,42.901-6.036,62.875
				C2781.508,1472.106,2686.515,1564.53,2566.833,1566.661z"/>
			<g>
				<g>
					
						<linearGradient id="SVGID_00000110456855855244361080000005454825387630803602_" gradientUnits="userSpaceOnUse" x1="1899.9146" y1="107.9267" x2="1920.9214" y2="3248.811">
						<stop  offset="0" style="stop-color:#AA80F9"/>
						<stop  offset="0.9964" style="stop-color:#6165D7"/>
					</linearGradient>
					<path style="fill:url(#SVGID_00000110456855855244361080000005454825387630803602_);" d="M3086.302,1233.162
						c-0.321-47.196-5.228-92.461-14.332-135.268c-22.762-107.342-72.051-199.849-142.238-268.537
						c-35.685-34.923-76.89-63.771-122.868-85.316c-0.022-0.001-0.042-0.026-0.064-0.028
						c-52.237-24.468-110.797-39.564-174.627-43.352c-194.193-11.524-336.511,81.156-466.509,198.421
						c-47.717,43.04-93.733,89.35-140.086,135.021c-170.868-177.769-372.333-388.696-649.136-405.086
						c-91.228-5.402-176.382,7.292-253.162,35.386h-0.027c-240.448,73.747-394.805,296.65-394.805,549.143
						c0,80.965,13.374,155.771,38.406,224.869c3.653,10.104,7.57,19.39,11.694,29.173
						c39.911,94.274,102.185,173.869,181.739,232.605c38.438,28.405,80.861,49.339,126.684,70.41h0.084
						c77.635,28.094,164.808,44.906,258.69,41.552c227.098-8.113,383.413-114.862,520.913-241.395
						c0.1-0.079,0.199-0.276,0.274-0.379c53.534-49.276,104.315-101.703,155.223-152.476
						c166.161,167.425,350.458,356.943,585.202,348.571c82.512-2.943,156.534-24.469,220.227-59.793
						c161.541-89.598,258.759-269.917,258.759-468.176C3086.343,1236.729,3086.343,1234.943,3086.302,1233.162z M1368.767,1521.842
						c-49.916,0.624-96.527-9.967-137.513-29.905c-99.014-48.115-164.586-150.143-164.586-277.375
						c0-133.412,87.065-247.337,210.046-285.942c0.082-0.025,0.165-0.048,0.246-0.072c32.317-10.149,67.049-15.034,103.286-13.723
						c194.322,7.034,336.457,188.246,457.685,309.864c0.875,0.902,1.727,1.751,2.604,2.628
						c-43.71,43.987-89.846,91.623-139.153,135.506C1605.01,1448.632,1496.168,1520.248,1368.767,1521.842z M2842.363,1291.507
						c-22.712,119.698-117.872,213.378-238.099,214.881c-162.579,2.034-288.021-163.197-402.841-275.424
						c-1.036-1.001-2.048-2.001-3.085-3.001c48.703-51.921,100.242-107.358,155.227-154.306
						c79.194-67.652,165.328-117.619,260.018-114.192c35.074,1.27,67.701,10.028,96.759,24.994
						c67.287,34.536,115.746,102.479,131.623,188.299c0.021,0.163,0.063,0.304,0.084,0.445c3.531,19.192,5.443,39.307,5.547,60.185
						c0.021,0.747,0.021,1.517,0.021,2.263C2847.616,1254.756,2845.809,1273.449,2842.363,1291.507z"/>
				</g>
				
					<linearGradient id="SVGID_00000048464872931368734650000012804653346012884096_" gradientUnits="userSpaceOnUse" x1="1011.2411" y1="1301.0623" x2="1140.3057" y2="4613.6826">
					<stop  offset="0.0036" style="stop-color:#E38DDD"/>
					<stop  offset="1" style="stop-color:#9571F6"/>
				</linearGradient>
				<path style="fill:url(#SVGID_00000048464872931368734650000012804653346012884096_);" d="M1276.96,1672.921l-189.906,96.138
					l-0.085-0.052l-126.683-70.063c-87.851-64.87-154.573-154.543-193.434-261.815c-25.032-69.099-38.406-142.62-38.406-223.585
					c0-252.493,154.358-475.396,394.805-549.143h0.028l-26.168,181.867l179.603,83.608
					c-122.98,38.611-210.046,151.906-210.046,285.318c0,127.232,65.573,228.942,164.586,277.056L1276.96,1672.921z"/>
				
					<linearGradient id="SVGID_00000118389614664475992930000007400910987903259824_" gradientUnits="userSpaceOnUse" x1="2884.2109" y1="1369.8396" x2="2996.4294" y2="4250.0791">
					<stop  offset="0.0036" style="stop-color:#E38DDD"/>
					<stop  offset="1" style="stop-color:#9571F6"/>
				</linearGradient>
				<path style="fill:url(#SVGID_00000118389614664475992930000007400910987903259824_);" d="M3086.343,1238.502
					c0,198.259-97.218,378.571-258.759,468.169l-140.633-72.945l35.779-161.422c61.361-35.099,105.148-99.62,119.633-180.797
					c3.32-18.526,5.106-37.941,5.232-58.118c0.021-0.792,0.021-1.609,0.021-2.402c0-19.734-1.912-39.079-5.569-57.783
					c-0.021-0.141-0.064-0.281-0.084-0.445c-15.961-81.032-64.697-150.604-131.623-188.299c-7.498-4.251-15.244-8.091-23.195-11.492
					l137.823-63.118l-19.628-161.75l1.46-4.086c0.022,0.001,0.042,0.026,0.064,0.028c46.483,23.462,87.537,51.828,122.868,85.316
					c71.331,67.564,119.738,156.396,142.238,268.537c8.399,41.719,13.246,86.757,14.332,135.268
					C3086.343,1234.943,3086.343,1236.722,3086.343,1238.502z"/>
				
					<linearGradient id="SVGID_00000052062328081220538850000005122883715908039577_" gradientUnits="userSpaceOnUse" x1="2028.5854" y1="1269.114" x2="2148.4688" y2="4346.083">
					<stop  offset="0.0036" style="stop-color:#E38DDD"/>
					<stop  offset="1" style="stop-color:#9571F6"/>
				</linearGradient>
				<polygon style="fill:url(#SVGID_00000052062328081220538850000005122883715908039577_);" points="1699.338,1362.4 
					1867.089,1396.807 1866.651,1570.539 2353.953,1076.251 2330.974,923.031 2165.669,899.076 				"/>
			</g>
			
				<linearGradient id="SVGID_00000067231074682057079090000000352746678866083760_" gradientUnits="userSpaceOnUse" x1="1931.1802" y1="1069.2574" x2="1991.5201" y2="2617.9644">
				<stop  offset="0" style="stop-color:#AA80F9"/>
				<stop  offset="0.9964" style="stop-color:#6165D7"/>
			</linearGradient>
			<path style="opacity:0.3;fill:url(#SVGID_00000067231074682057079090000000352746678866083760_);" d="M1841.359,1221.295
				c0,0-5.081-89.32,17.419-135.493c22.416-46,54.001-149.429,21.677-198.129c92.016,86.622,145.123,146.429,145.123,146.429
				L1841.359,1221.295z"/>
			
				<linearGradient id="SVGID_00000126310138464542568460000009945198597849347990_" gradientUnits="userSpaceOnUse" x1="2132.3584" y1="1440.9056" x2="2199.8992" y2="3174.4346">
				<stop  offset="0" style="stop-color:#AA80F9"/>
				<stop  offset="0.9964" style="stop-color:#6165D7"/>
			</linearGradient>
			<path style="opacity:0.3;fill:url(#SVGID_00000126310138464542568460000009945198597849347990_);" d="M2203.168,1232.681
				c0,0,61.809,78.356,22.081,141.018c-40.002,63.093-31.017,88.987-4.33,123.283c26.565,34.14-2.543,106.837-2.543,106.837
				l-197.606-184.589L2203.168,1232.681z"/>
		</g>
		<g>
			<g>
				
					<linearGradient id="SVGID_00000035496577222012192250000000896912987054306748_" gradientUnits="userSpaceOnUse" x1="1306.0881" y1="2250.0315" x2="1393.213" y2="2672.8445">
					<stop  offset="0" style="stop-color:#AA80F9"/>
					<stop  offset="0.9964" style="stop-color:#6165D7"/>
				</linearGradient>
				
					<ellipse style="fill:url(#SVGID_00000035496577222012192250000000896912987054306748_);" cx="1403.381" cy="2722.193" rx="224.751" ry="91.727"/>
				
					<linearGradient id="SVGID_00000014623826535789972870000015244878870525642882_" gradientUnits="userSpaceOnUse" x1="1178.6311" y1="2691.6973" x2="1628.1324" y2="2691.6973">
					<stop  offset="0" style="stop-color:#AA80F9"/>
					<stop  offset="0.9964" style="stop-color:#6165D7"/>
				</linearGradient>
				<path style="fill:url(#SVGID_00000014623826535789972870000015244878870525642882_);" d="M1178.631,2711.437
					c0,47.821,100.624,86.588,224.75,86.588c124.127,0,224.751-38.767,224.751-86.588c0-47.82-100.624-126.066-224.751-126.066
					C1279.255,2585.37,1178.631,2663.617,1178.631,2711.437z"/>
				
					<linearGradient id="SVGID_00000076599854748882230830000001268318537736340399_" gradientUnits="userSpaceOnUse" x1="-1044.7524" y1="2669.6482" x2="-667.054" y2="2669.6482" gradientTransform="matrix(-1 0 0 1 511.5771 0)">
					<stop  offset="0" style="stop-color:#AA80F9"/>
					<stop  offset="0.9964" style="stop-color:#6165D7"/>
				</linearGradient>
				<path style="opacity:0.3;fill:url(#SVGID_00000076599854748882230830000001268318537736340399_);" d="M1178.631,2711.437
					c0-47.821,100.624-126.066,224.75-126.066c57.313,0,109.586,16.698,149.286,39.364c2.778,5.822,4.074,11.61,3.547,17.106
					c-2.578,26.905-46.459,43.447-71.648,48.901c-63.43,13.739-94.406-24.192-146.705-22.746
					c-32.335,0.894-77.142,17.137-130.288,85.93C1189.177,2741.373,1178.631,2726.883,1178.631,2711.437z"/>
				<path style="fill:#FFFFFF;" d="M1391.071,2628.806c8.98,2.235,17.359,2.146,25.241,0.143c7.149-1.815,12.058-8.43,12.058-15.808
					l-0.001-253.426h-49.976v253.127C1378.393,2620.446,1383.692,2626.969,1391.071,2628.806z"/>
				
					<linearGradient id="SVGID_00000143612105417911622850000006671468671324124805_" gradientUnits="userSpaceOnUse" x1="-916.7932" y1="2495.0908" x2="-866.8162" y2="2495.0908" gradientTransform="matrix(-1 0 0 1 511.5771 0)">
					<stop  offset="0" style="stop-color:#AA80F9"/>
					<stop  offset="0.9964" style="stop-color:#6165D7"/>
				</linearGradient>
				<path style="opacity:0.65;fill:url(#SVGID_00000143612105417911622850000006671468671324124805_);" d="M1391.071,2628.806
					c8.98,2.235,17.359,2.146,25.241,0.143c7.149-1.815,12.058-8.43,12.058-15.808l-0.001-253.426h-49.976v253.127
					C1378.393,2620.446,1383.692,2626.969,1391.071,2628.806z"/>
				<g>
					
						<linearGradient id="SVGID_00000075882230741927558260000010238677511974768521_" gradientUnits="userSpaceOnUse" x1="-643.7096" y1="2441.9468" x2="-735.3378" y2="2322.5522" gradientTransform="matrix(-1 0 0 1 511.5771 0)">
						<stop  offset="0" style="stop-color:#311944"/>
						<stop  offset="1" style="stop-color:#893976"/>
					</linearGradient>
					<path style="fill:url(#SVGID_00000075882230741927558260000010238677511974768521_);" d="M1667.451,2253.058l-76.347-48.263
						c-3.176-18.029-39.164-206.639-185.268-265.867c-59.415-24.085-123.356-21.228-158.445-19.659
						c-70.048,3.128-120.014,5.36-144.044,38.774c-30.859,42.905,20.897,81.814,10.181,204.542
						c-4.37,50.048-15.484,72.277-1.641,105.432c16.583,39.717,55.039,61.731,84.939,74.124
						c35.742,20.756,97.975,50.332,180.17,57.535c138.453,12.134,241.815-47.258,277.36-69.982
						c15.806-4.983,27.682-18.127,31.043-34.355C1688.805,2278.882,1681.655,2262.037,1667.451,2253.058z"/>
				</g>
				<path style="opacity:0.26;fill:#FFFFFF;" d="M1632.346,2287.425c-2.822-16.971-50.121-2.903-94.864-36.139
					c-66.882-49.682-32.169-133.839-90.347-214.573c-53.391-74.09-160.878-111.8-194.245-83.57
					c-44.416,37.577,64.289,178.104,0,268.781c-31.229,44.048-78.808,41.927-79.053,67.76
					c-0.388,40.823,118.027,87.889,230.384,85.829C1525.011,2373.299,1636.825,2314.362,1632.346,2287.425z"/>
			</g>
			<g>
				<path style="fill:#FFFFFF;" d="M1991.999,1342.762l-10.417-19.602c0,0-9.583-1.976-13.929-8.825
					c-4.346-6.849-4.346-6.849-4.346-6.849s-2.174-7.194,5.714-15.002c1.783-1.764,2.705-4.228,2.345-6.709
					c-1.083-7.453-3.28-22.704-3.714-26.605c-0.288-2.58,0.766-5.657,1.903-8.109c0.776-1.67,3.192-1.499,3.674,0.279l8.353,30.731
					c0,0,6.692-1.687,8.991,3.94c0,0,5.785,3.452,6.651,9.468c0.868,6.016-0.01,20.555-0.01,20.555l9.168,20.679L1991.999,1342.762z
					"/>
				
					<linearGradient id="SVGID_00000135663907572668401170000006720720840016683179_" gradientUnits="userSpaceOnUse" x1="1896.7218" y1="1385.0674" x2="1962.9198" y2="2333.908">
					<stop  offset="0" style="stop-color:#FFC444"/>
					<stop  offset="0.9964" style="stop-color:#F36F56"/>
				</linearGradient>
				<path style="fill:url(#SVGID_00000135663907572668401170000006720720840016683179_);" d="M1978.302,1339.507
					c5.714,13.26,37.585,90.48,0.808,162.161c-41.01,79.935-151.366,121.755-261.782,85.688
					c-0.865,14.286-9.946,195.051,78.828,238.206c95.327,46.34,274.778-79.805,304.078-238.206
					c25.07-135.537-71.609-245.266-87.269-262.502C2001.41,1329.738,1989.855,1334.623,1978.302,1339.507z"/>
				
					<linearGradient id="SVGID_00000161609650021473345200000004487037165079102113_" gradientUnits="userSpaceOnUse" x1="1022.7141" y1="2869.3782" x2="1096.0814" y2="2869.3782" gradientTransform="matrix(-0.996 0.0897 0.0897 0.996 2456.5469 -160.4537)">
					<stop  offset="0" style="stop-color:#444B8C"/>
					<stop  offset="0.9964" style="stop-color:#26264F"/>
				</linearGradient>
				<path style="fill:url(#SVGID_00000161609650021473345200000004487037165079102113_);" d="M1626.709,2778.33
					c-3.806,3.499-4.047,11.673-4.204,17.016c-0.072,2.387-0.107,3.581,0.21,4.403c2.308,5.998,14.207,5.917,32.921,6.684
					c29.575,1.211,38.461,2.992,40.496-1.522c1.905-4.231-3.72-10.625-4.352-11.329c-3.401-3.785-7.366-4.996-15.01-7.006
					c-14.145-3.719-23.666-5.646-26.549-6.231C1632.219,2776.697,1629.208,2776.033,1626.709,2778.33z"/>
				
					<linearGradient id="SVGID_00000030453412512305055560000006637417200374558096_" gradientUnits="userSpaceOnUse" x1="584.2734" y1="2819.0518" x2="616.4623" y2="2752.428" gradientTransform="matrix(-0.9976 0.0694 0.0694 0.9976 2040.621 -60.6691)">
					<stop  offset="0" style="stop-color:#FFC444"/>
					<stop  offset="0.9964" style="stop-color:#F36F56"/>
				</linearGradient>
				<path style="fill:url(#SVGID_00000030453412512305055560000006637417200374558096_);" d="M1647.451,2748.839l1.153,33.664
					c-0.922,1.574-11.14,5.895-18.828,1.31l-5.802-33.34L1647.451,2748.839z"/>
				
					<linearGradient id="SVGID_00000157305625763427713760000000589013730131395212_" gradientUnits="userSpaceOnUse" x1="656.5652" y1="2914.3047" x2="734.5127" y2="2914.3047" gradientTransform="matrix(-0.977 0.2133 0.2133 0.977 1968.0525 -210.6557)">
					<stop  offset="0" style="stop-color:#444B8C"/>
					<stop  offset="0.9964" style="stop-color:#26264F"/>
				</linearGradient>
				<path style="fill:url(#SVGID_00000157305625763427713760000000589013730131395212_);" d="M1875.829,2773.676
					c-5.085,5.047-6.701,14.753-2.782,19.786c3.851,4.949,10.213,1.731,27.688,3.188c18.718,1.562,23.377,6.251,36.306,3.417
					c5.223-1.148,14.498-4.114,14.522-7.799c0.017-2.591-4.54-4.173-19.722-10.177c-21.549-8.522-21.431-8.918-26.049-9.939
					C1894.193,2769.588,1882.545,2767.013,1875.829,2773.676z"/>
				
					<linearGradient id="SVGID_00000091703167535510414060000002826138167046018710_" gradientUnits="userSpaceOnUse" x1="496.241" y1="2873.1951" x2="529.1113" y2="2805.1609" gradientTransform="matrix(-0.9894 0.1453 0.1453 0.9894 1974.5804 -128.6684)">
					<stop  offset="0" style="stop-color:#FFC444"/>
					<stop  offset="0.9964" style="stop-color:#F36F56"/>
				</linearGradient>
				<path style="fill:url(#SVGID_00000091703167535510414060000002826138167046018710_);" d="M1889.475,2743.739l7.734,31.783
					c-0.8,1.639-10.659,6.726-18.675,2.743l-12.344-31.107L1889.475,2743.739z"/>
				
					<linearGradient id="SVGID_00000101098743500365045340000001682772320938307761_" gradientUnits="userSpaceOnUse" x1="2306.0605" y1="2548.5549" x2="2098.1592" y2="2079.8955" gradientTransform="matrix(0.9986 0.0533 -0.0533 0.9986 -237.5799 -19.3005)">
					<stop  offset="0" style="stop-color:#311944"/>
					<stop  offset="1" style="stop-color:#893976"/>
				</linearGradient>
				<path style="fill:url(#SVGID_00000101098743500365045340000001682772320938307761_);" d="M1842.506,2054.19
					c-4.267,105.198-3.405,223.781,6.951,353.119c10.233,127.83,27.95,243.785,48.571,346.018
					c-12.171,2.588-24.34,5.175-36.511,7.761c-28.923-30.008-64.936-76.737-80.093-140.865
					c-9.406-39.802-4.498-59.734-9.219-108.324c-7.516-77.366-28.894-118.83-49.904-182.016
					c-18.88-56.779-40.349-139.774-48.371-249.608C1730.122,2071.581,1786.314,2062.885,1842.506,2054.19z"/>
				
					<linearGradient id="SVGID_00000025441895657089795390000005428469117280311728_" gradientUnits="userSpaceOnUse" x1="2273.8198" y1="2562.856" x2="2065.9187" y2="2094.1975" gradientTransform="matrix(0.9986 0.0533 -0.0533 0.9986 -237.5799 -19.3005)">
					<stop  offset="0" style="stop-color:#311944"/>
					<stop  offset="1" style="stop-color:#893976"/>
				</linearGradient>
				<path style="opacity:0.3;fill:url(#SVGID_00000025441895657089795390000005428469117280311728_);" d="M1825.697,2545.825
					c-13.401-53.071-39.218-67.104-40.137-117.198c-0.65-35.434,12.083-38.331,11.238-72.247
					c-1.282-51.445-31.418-78.419-46.559-110.779c-15.99-34.176-22.117-89.071,20.978-180.38
					c-32.429,5.018-64.858,10.037-97.287,15.054c8.022,109.833,29.491,192.83,48.371,249.608
					c21.011,63.186,42.388,104.65,49.904,182.016c4.721,48.59-0.187,68.523,9.219,108.323
					c15.157,64.128,51.17,110.858,80.093,140.866c3.095-0.658,6.191-1.315,9.286-1.974c-31.266-37.321-42.299-70.651-45.106-97.695
					C1821.131,2617.42,1839.208,2599.335,1825.697,2545.825z"/>
				
					<linearGradient id="SVGID_00000165925661249858683630000012174447080481978526_" gradientUnits="userSpaceOnUse" x1="1789.3441" y1="2712.2725" x2="1581.4375" y2="2243.6013" gradientTransform="matrix(0.9976 -0.0694 0.0694 0.9976 -160.8932 92.9864)">
					<stop  offset="0" style="stop-color:#311944"/>
					<stop  offset="1" style="stop-color:#893976"/>
				</linearGradient>
				<path style="fill:url(#SVGID_00000165925661249858683630000012174447080481978526_);" d="M1720.865,2047.614
					c-14.484,133.309-27.796,269.177-39.774,407.536c-8.989,103.824-16.995,206.378-24.083,307.625
					c-12.336,0.858-24.673,1.718-37.009,2.575c-10.665-22.68-24.594-57.229-33.061-101.009
					c-10.285-53.173-5.591-84.172-8.425-138.863c-3.182-61.34-11.826-75.128-24.287-152.959
					c-25.29-157.956-37.936-236.934,2.172-283.5C1569.416,2073.902,1609.704,2036.387,1720.865,2047.614z"/>
				
					<linearGradient id="SVGID_00000050653385482579521900000007862025131356144300_" gradientUnits="userSpaceOnUse" x1="1653.0546" y1="2343.427" x2="2020.0396" y2="1495.468">
					<stop  offset="0" style="stop-color:#FFC444"/>
					<stop  offset="0.9964" style="stop-color:#F36F56"/>
				</linearGradient>
				<path style="opacity:0.3;fill:url(#SVGID_00000050653385482579521900000007862025131356144300_);" d="M2084.527,1440.559
					c-0.591,16.317-3.92,29.788-8.375,40.835c-16.134,39.993-54.527,69.169-46.559,113.989c3.982,22.4,16.264,30.258,11.238,46.56
					c-7.123,23.106-36.33,22.021-67.429,48.164c-27.589,23.191-29.142,44.672-43.349,64.219
					c-19.238,26.472-62.683,50.683-167.985,42.999c9.353,11.876,20.573,21.667,34.087,28.237
					c95.328,46.34,274.78-79.805,304.079-238.206C2110.327,1532.784,2100.672,1482.411,2084.527,1440.559z"/>
				
					<linearGradient id="SVGID_00000139270597606828421140000014114888104604283018_" gradientUnits="userSpaceOnUse" x1="1629.767" y1="1403.6921" x2="1695.9647" y2="2352.5305">
					<stop  offset="0" style="stop-color:#FFC444"/>
					<stop  offset="0.9964" style="stop-color:#F36F56"/>
				</linearGradient>
				<path style="fill:url(#SVGID_00000139270597606828421140000014114888104604283018_);" d="M1401.374,1633.073
					c66.639-22.594,168.319-47.63,292.673-42.506c72.039,2.968,133.972,15.329,183.044,29.075
					c6.635,37.108,13.27,74.216,19.904,111.323c1.525,37.206,2.017,87.606-2.163,147.156c-4.18,59.545-8.272,60.442-17.849,144.496
					c-15.612,137.043-9.083,172.847-36.625,189.309c-17.914,10.708-24.394-2.218-115.808-11.278
					c-61.297-6.076-92.58-8.899-123.621,1.605c-42.27,14.303-56.415,38.317-73.852,30.504
					c-16.722-7.494-18.851-36.364-20.871-86.696c-3.115-77.645-2.924-130.419-3.211-149.31
					c-1.318-86.674-23.266-152.853-51.376-237.609C1434.04,1706.132,1415.522,1663.229,1401.374,1633.073z"/>
				<g>
					<path style="fill:#FFFFFF;" d="M1717.556,1578.587c-5.471-11.436,2.171-26.849,10.904-39.484
						c-7.004-15.001-35.643-19.4-42.647-34.398c-0.979,21.791-4.331,38.937-7.263,50.644c-3.358,13.414-5.442,16.815-8.016,19.526
						c-3.872,4.083-9.589,7.376-41.215,13.45c-17.211,3.303-19.391,3.072-19.856,4.737c-2.267,8.126,42.554,38.625,90.764,34.424
						c29.508-2.57,57.044-17.855,55.877-26.715C1754.928,1591.852,1725.423,1595.028,1717.556,1578.587z"/>
					<g>
						<path style="fill:#26264F;" d="M1739.708,1516.217c7.402-8.812,8.684-24.817,1.261-35.374
							c-6.388-9.085-17.105-10.904-23.522-11.995c-18.594-3.159-42.618,3.391-51.749,20.171c-5.409,9.945,3.983,31.71,5.427,35.61
							c1.637,4.41,4.941,6.069,7.897,9.495c4.097,4.752,10.504,12.3,20.947,24.911c1.051-3.501,2.595-7.821,4.93-12.469
							c0.898-1.79,4.497-8.772,9.682-14.443C1724.967,1520.754,1732.692,1524.568,1739.708,1516.217z"/>
						<path style="fill:#FFFFFF;" d="M1684.698,1548.084c0,0,11.222,20.836,35.796,20.55c22.001-0.256,27.838-49.254,14.392-60.435
							c-4.487-3.731-13.767-5.677-21.489-3.951c-4.561,1.02-6.183,2.806-13.668,4.325c-6.905,1.404-8.787,0.546-10.935,2.165
							c-2.686,2.028-4.853,7.231-1.327,21.835c-3.958-4.458-8.891-6.352-12.539-4.863c-0.582,0.239-2.142,1.183-3.072,2.69
							C1668.49,1535.852,1673.238,1543.299,1684.698,1548.084z"/>
						<path style="fill:#26264F;" d="M1687.96,1507.746c1.015,0.845-2.427,4.617-2.966,10.188
							c-1.048,10.813,9.228,24.409,20.36,26.109c6.582,1.004,8.613-2.886,19.612-3.457c6.811-0.354,12.402,0.809,15.907,1.774
							c2.803,12.07-1.064,23.748-9.303,28.822c-8.87,5.463-19.605,1.288-24.093-0.458c-3.002-1.168-12.624-4.889-17.263-14.143
							c-4.833-9.644,0.702-15.005-5.078-21.662c-2.916-3.357-6.894-4.956-10.511-11.348c-0.981-1.736-1.618-3.26-2.002-4.282
							C1678.599,1513.597,1686.489,1506.522,1687.96,1507.746z"/>
						<path style="fill:#FFFFFF;" d="M1732.678,1546.34c0,0-4.867,2.222-13.026,1.324c-0.396-0.044-0.842,0.049-0.903,0.253
							c-0.229,0.766,4.834,4.527,9.744,3.427c3.486-0.784,6.332-3.892,5.914-4.744
							C1734.23,1546.24,1733.45,1546.245,1732.678,1546.34z"/>
					</g>
				</g>
				
					<linearGradient id="SVGID_00000036243326959834463820000008945154658110859925_" gradientUnits="userSpaceOnUse" x1="1591.4513" y1="2159.6443" x2="1909.3364" y2="1425.136">
					<stop  offset="0" style="stop-color:#FFC444"/>
					<stop  offset="0.9964" style="stop-color:#F36F56"/>
				</linearGradient>
				<path style="opacity:0.3;fill:url(#SVGID_00000036243326959834463820000008945154658110859925_);" d="M1804.825,2166.934
					c-44.962-19.185-44.701-58.888-86.695-75.458c-59.924-23.645-126.129,31.286-136.466,16.054
					c-10.757-15.849,68.315-64.45,57.797-112.383c-8.36-38.092-63.556-31.342-93.118-83.484
					c-28.044-49.463-0.855-95.195-25.688-112.384c-8.906-6.165-24.614-8.598-54.399,4.509
					c20.768,64.862,35.66,122.061,36.739,192.964c0.287,18.891,0.095,71.665,3.211,149.31c2.02,50.333,4.149,79.202,20.871,86.696
					c17.438,7.813,31.583-16.201,73.852-30.504c31.041-10.505,62.324-7.681,123.621-1.605c91.414,9.06,97.894,21.986,115.808,11.278
					c11.667-6.973,17.213-17.458,20.925-37.598C1842.958,2176.305,1823.517,2174.908,1804.825,2166.934z"/>
				<path style="fill:#FFFFFF;" d="M1462.859,1996.823l22.06-1.232c0,0,24.17-20.226,35.172-18.964
					c11.001,1.262,27.458,8.895,29.464,10.497c2.007,1.601-6.021,10.571-14.048,9.699c-8.027-0.873-25.94,3.459-29.144,10.53
					c-3.203,7.071-17.106,11.342-19.468,7.195l-29.655,5.886L1462.859,1996.823z"/>
				
					<linearGradient id="SVGID_00000038388688124190676680000008028858910411027369_" gradientUnits="userSpaceOnUse" x1="1337.4192" y1="1424.0885" x2="1403.6172" y2="2372.9285">
					<stop  offset="0" style="stop-color:#FFC444"/>
					<stop  offset="0.9964" style="stop-color:#F36F56"/>
				</linearGradient>
				<path style="fill:url(#SVGID_00000038388688124190676680000008028858910411027369_);" d="M1469.533,1989.105
					c1.544,18.098-2.398,30.39-8.976,38.818c-29.157,37.36-128.249,22.084-187.144-27.959
					c-43.594-37.042-66.677-94.56-65.825-146.098c1.664-100.565,94.863-199.105,233.496-233.149
					c20.521,61.345,62.458,117.518,82.979,178.863c-85.469,1.304-158.812,70.905-151.111,116.9
					C1378.689,1950.745,1418.652,1981.566,1469.533,1989.105z"/>
			</g>
			<g>
				<path style="fill:#B7C0CE;" d="M2165.067,2910.729c-1.853,0-3.419-1.413-3.592-3.279l-65.455-707.371
					c-0.183-1.985,1.277-3.744,3.262-3.928c1.979-0.165,3.745,1.278,3.928,3.264l58.248,629.483v-644.805
					c0-1.995,1.617-3.611,3.611-3.611c1.994,0,3.611,1.617,3.611,3.611v723.025c0,1.93-1.516,3.519-3.446,3.608
					C2165.18,2910.729,2165.123,2910.729,2165.067,2910.729z"/>
				<g>
					<polygon style="fill:#D8DEE8;" points="2894.947,2261.469 2176.879,2182.795 797.345,2245.5 1519.856,2332.017 					"/>
					<polygon style="fill:#B7C0CE;" points="1519.856,2332.018 2894.947,2261.469 2894.947,2295.544 1519.856,2366.093 
						797.345,2279.575 797.345,2245.499 					"/>
				</g>
				<path style="fill:#B7C0CE;" d="M1524.737,3157.442c-0.048,0-0.095-0.001-0.143-0.003c-1.938-0.076-3.47-1.669-3.47-3.609
					v-796.027c0-1.994,1.617-3.611,3.611-3.611c1.994,0,3.611,1.617,3.611,3.611v703.522l55.033-703.803
					c0.157-1.988,1.878-3.471,3.883-3.319c1.987,0.156,3.474,1.894,3.319,3.882l-62.246,796.027
					C1528.188,3155.998,1526.613,3157.442,1524.737,3157.442z"/>
				<path style="fill:#B7C0CE;" d="M805.236,3016.032c-0.048,0-0.095-0.001-0.143-0.002c-1.938-0.076-3.47-1.669-3.47-3.609
					v-734.726c0-1.994,1.617-3.611,3.611-3.611c1.994,0,3.611,1.617,3.611,3.611v642.601l50.477-642.884
					c0.157-1.989,1.927-3.477,3.883-3.317c1.989,0.156,3.474,1.894,3.319,3.883l-57.689,734.726
					C808.687,3014.589,807.112,3016.032,805.236,3016.032z"/>
				<path style="fill:#B7C0CE;" d="M2888.142,3016.032c-1.869,0-3.44-1.433-3.597-3.312l-61.256-734.726
					c-0.166-1.987,1.312-3.732,3.299-3.898c1.994-0.161,3.733,1.312,3.898,3.299l54.046,648.248v-630.098
					c0-1.994,1.617-3.611,3.611-3.611c1.994,0,3.611,1.617,3.611,3.611v716.876c0,1.936-1.527,3.528-3.461,3.608
					C2888.242,3016.031,2888.191,3016.032,2888.142,3016.032z"/>
			</g>
			<g>
				<g>
					<g>
						<path style="fill:#BFC8D6;" d="M2604.083,2275.086l-493.381-3.671v10.863c0,2.949,2.152,5.456,5.066,5.902l139.514,21.392
							c1.656,0.254,3.334,0.321,5.005,0.2l338.434-24.39c3.022-0.218,5.362-2.732,5.362-5.762V2275.086z"/>
						<g>
							<path style="fill:#BFC8D6;" d="M2425.038,2257.13l-309.233,19.873c-5.533,0.355-10.032-3.423-10.032-8.441v-201.03
								c0-5.017,4.499-9.085,10.032-9.085h309.233c4.559,0,8.245,3.677,8.245,8.213v181.727
								C2433.283,2252.923,2429.596,2256.837,2425.038,2257.13z"/>
							<path style="fill:#D8DEE8;" d="M2429.969,2257.13l-309.233,19.873c-5.534,0.355-10.032-3.423-10.032-8.441v-201.03
								c0-5.017,4.499-9.085,10.032-9.085h309.233c4.559,0,8.245,3.677,8.245,8.213v181.727
								C2438.213,2252.923,2434.527,2256.837,2429.969,2257.13z"/>
							<path style="fill:#EFF2F6;" d="M2420.335,2244.318l-288.018,17.262c-4.503,0.27-8.163-2.832-8.163-6.928V2078.65
								c0-4.096,3.66-7.43,8.163-7.448l288.018-1.084c3.76-0.014,6.802,2.999,6.802,6.73v160.306
								C2427.138,2240.885,2424.095,2244.093,2420.335,2244.318z"/>
							<path style="fill:#FFFFFF;" d="M2286.273,2063.946c0,1.868-1.592,3.387-3.558,3.392c-1.968,0.005-3.565-1.508-3.565-3.38
								c0-1.872,1.597-3.391,3.565-3.393C2284.681,2060.564,2286.273,2062.077,2286.273,2063.946z"/>
							<path style="opacity:0.48;fill:#FFFFFF;" d="M2356.717,2202.093c-23.961-11.672-42.802,3.118-60.984-11.474
								c-11.023-8.847-5.612-15.444-19.176-28.665c-15.023-14.643-24.804-9.721-39.902-22.9
								c-19.091-16.663-9.542-29.628-25.987-41.592c-19.949-14.514-41.463-1.08-60.453-15c-8.19-6.004-12.685-14.732-15.031-24.014
								h-18.581c-3.256,0-5.9,2.389-5.9,5.336v208.527c0,2.948,2.644,5.167,5.9,4.958l316.773-20.357
								c1.555-0.1,2.933-0.921,3.818-2.113c-23.188-0.765-37.435-7.803-46.541-15.079
								C2372.838,2225.487,2375.927,2211.451,2356.717,2202.093z"/>
						</g>
						<path style="fill:#FFFFFF;" d="M2442.294,2256.575l-331.591,20.917l144.58,22.168c1.656,0.254,3.334,0.321,5.005,0.2
							l343.796-24.775l-156.515-18.369C2445.818,2256.512,2444.052,2256.464,2442.294,2256.575z"/>
						<polygon style="opacity:0.47;fill:#D8DEE8;" points="2159.087,2277.673 2435.146,2259.998 2520.584,2269.944 
							2246.903,2288.838 						"/>
					</g>
				</g>
				
					<linearGradient id="SVGID_00000029046274376022451810000006084440831319608492_" gradientUnits="userSpaceOnUse" x1="3097.0955" y1="2807.4053" x2="3113.3125" y2="3013.8022" gradientTransform="matrix(1 0 0 1 -626.2627 0)">
					<stop  offset="0.0036" style="stop-color:#26264F"/>
					<stop  offset="1" style="stop-color:#444B8C"/>
				</linearGradient>
				<path style="fill:url(#SVGID_00000029046274376022451810000006084440831319608492_);" d="M2505.1,2910.133
					c0,0-72.528,5.04-73.594,9.775c-1.067,4.736,49.229,23.042,66.802,23.725c17.573,0.683,32.03-4.51,30.439-11.953
					c-1.591-7.444-7.742-26.166-7.742-26.166L2505.1,2910.133z"/>
				
					<linearGradient id="SVGID_00000139278818630809082930000002643413791600918964_" gradientUnits="userSpaceOnUse" x1="2169.0747" y1="2625.3105" x2="2165.6697" y2="2378.4446" gradientTransform="matrix(0.9853 0.171 -0.171 0.9853 820.6597 -36.2046)">
					<stop  offset="0" style="stop-color:#FFC444"/>
					<stop  offset="0.9964" style="stop-color:#F36F56"/>
				</linearGradient>
				<path style="fill:url(#SVGID_00000139278818630809082930000002643413791600918964_);" d="M2501.673,2877.908l-1.287,34.229
					c0,0,11.033,6.228,19.791,2.65l9.739-36.095L2501.673,2877.908z"/>
				
					<linearGradient id="SVGID_00000067201468870694105760000006821447041415124873_" gradientUnits="userSpaceOnUse" x1="2894.2605" y1="2793.6023" x2="2910.4775" y2="2999.9995" gradientTransform="matrix(1 0 0 1 -626.2627 0)">
					<stop  offset="0.0036" style="stop-color:#26264F"/>
					<stop  offset="1" style="stop-color:#444B8C"/>
				</linearGradient>
				<path style="fill:url(#SVGID_00000067201468870694105760000006821447041415124873_);" d="M2302.264,2896.33
					c0,0-72.527,5.04-73.594,9.775c-1.067,4.736,49.229,23.042,66.802,23.725c17.574,0.683,32.03-4.511,30.439-11.953
					c-1.591-7.445-7.742-26.166-7.742-26.166L2302.264,2896.33z"/>
				
					<linearGradient id="SVGID_00000094577464757225082740000013912328188382225830_" gradientUnits="userSpaceOnUse" x1="1966.8722" y1="2646.394" x2="1963.4673" y2="2399.5303" gradientTransform="matrix(0.9853 0.171 -0.171 0.9853 820.6597 -36.2046)">
					<stop  offset="0" style="stop-color:#FFC444"/>
					<stop  offset="0.9964" style="stop-color:#F36F56"/>
				</linearGradient>
				<path style="fill:url(#SVGID_00000094577464757225082740000013912328188382225830_);" d="M2298.838,2864.105l-1.287,34.228
					c0,0,11.032,6.228,19.791,2.65l9.738-36.095L2298.838,2864.105z"/>
				
					<linearGradient id="SVGID_00000156570409238117923350000000902046089938526615_" gradientUnits="userSpaceOnUse" x1="2874.4512" y1="2369.1294" x2="2781.8459" y2="2506.9077">
					<stop  offset="0" style="stop-color:#893976"/>
					<stop  offset="1" style="stop-color:#311944"/>
				</linearGradient>
				<path style="fill:url(#SVGID_00000156570409238117923350000000902046089938526615_);" d="M2493.967,2882.745
					c13.552,1.505,27.104,3.013,40.656,4.517c18.303-20.288,45.628-55.664,60.231-105.403
					c28.154-95.897-12.62-165.002,13.552-182.202c37.044-24.343,117.33,115.805,246.2,112.205
					c52.875-1.478,121.89-27.373,148.417-83.769c4.006-8.514,23.673-53.083,4.518-94.864c-19.777-43.14-117.889-61.911-313.305-97.7
					c-83.882-15.361-126.239-23.023-143.259-14.897C2430.367,2478.21,2480.662,2803.78,2493.967,2882.745z"/>
				
					<linearGradient id="SVGID_00000017475186532275020540000014043599193624018589_" gradientUnits="userSpaceOnUse" x1="2287.0283" y1="2672.4954" x2="2951.6238" y2="2672.4954">
					<stop  offset="0" style="stop-color:#893976"/>
					<stop  offset="1" style="stop-color:#311944"/>
				</linearGradient>
				<path style="fill:url(#SVGID_00000017475186532275020540000014043599193624018589_);" d="M2287.048,2883.323
					c14.018,2.439,28.036,4.879,42.053,7.318c17.026-25.079,42.795-64.372,71.611-114.23
					c60.069-103.934,58.971-125.043,86.731-138.423c58.754-28.313,103.146,48.177,248.453,69.269
					c47.533,6.9,153.054,22.221,195.75-34.635c17.309-23.05,27.251-61.897,13.552-94.864
					c-24.559-59.1-105.448-52.002-371.927-103.899c-103.92-20.24-118.087-23.848-143.259-14.897
					C2289.432,2508.954,2286.694,2815.052,2287.048,2883.323z"/>
				
					<linearGradient id="SVGID_00000088853743056505274380000013891184852455127693_" gradientUnits="userSpaceOnUse" x1="2642.407" y1="2173.7495" x2="2938.2212" y2="2456.2185">
					<stop  offset="0" style="stop-color:#FF9085"/>
					<stop  offset="1" style="stop-color:#FB6FBB"/>
				</linearGradient>
				<path style="fill:url(#SVGID_00000088853743056505274380000013891184852455127693_);" d="M2578.174,2069.432
					c13.834-33.831,43.528-53.286,58.926-63.375c7.706-5.051,14.826-8.836,22.055-11.788
					c55.763-22.767,111.438-21.201,121.37-20.456c24.083,1.804,83.565,6.256,127.635,44.441
					c21.331,18.484,38.382,44.286,63.243,189.728c34.672,202.839,6.531,182.048,33.88,264.264
					c14.471,43.506,37.017,93.421,13.171,125.298c-7.702,10.297-18.706,13.252-41.138,23.346
					c-83.793,37.705-158.921,31.207-204.574,26.685c-50.236-4.976-75.625-7.822-88.945-25.573
					c-21.277-28.353,0.625-64.386,4.447-126.745c2.744-44.772-7.436-80.254-27.796-151.207
					C2613.117,2179.092,2551.669,2134.24,2578.174,2069.432z"/>
				
					<linearGradient id="SVGID_00000080923724517286536040000006230976444947478696_" gradientUnits="userSpaceOnUse" x1="2288.675" y1="2262.5508" x2="2281.9319" y2="2293.3354">
					<stop  offset="0" style="stop-color:#FFC444"/>
					<stop  offset="0.9964" style="stop-color:#F36F56"/>
				</linearGradient>
				<path style="fill:url(#SVGID_00000080923724517286536040000006230976444947478696_);" d="M2342.071,2271.414l-53.542-10.297
					c-3.847-0.74-7.795-0.779-11.656-0.115l-46.314,7.964c0,0,30.115,12.114,55.714,8.316c25.598-3.798,53.562,10.604,53.562,10.604
					L2342.071,2271.414z"/>
				<g>
					<g>
						
							<linearGradient id="SVGID_00000183238017975320604550000000718785211695466121_" gradientUnits="userSpaceOnUse" x1="5955.459" y1="1280.1345" x2="6139.9473" y2="1512.2439" gradientTransform="matrix(0.9663 0.2576 -0.2576 0.9663 -2744.3408 -923.8408)">
							<stop  offset="0" style="stop-color:#FFC444"/>
							<stop  offset="0.9964" style="stop-color:#F36F56"/>
						</linearGradient>
						<path style="fill:url(#SVGID_00000183238017975320604550000000718785211695466121_);" d="M2696.614,1936.315
							c-9.004-13.605,4.474-39.778,9.806-50.131c0.184-0.358,0.418-0.826,0.92-1.751c8.19-15.11,10.288-17.174,14.195-19.79
							l5.431-3.353c0,0,0.315-0.123,0.646-0.242c3.486-1.24,15.366-1.602,17.773-1.085c7.688,1.641,15.875,32.962,13.539,77.244
							c0.319,1.69,0.626,3.393,0.923,5.108c1.211,6.992,2.173,13.848,2.916,20.549c0.711,6.41,9.802,6.264,16.239,5.854
							c26.127-1.668,38.914,0.556,40.025,4.446c2.083,7.292-28.907,31.132-67.175,36.492c-51.357,0.384-93.134-5.086-88.644-13.173
							c1.994-3.591,41.786-13.988,52.977-24.294c10.247-9.436,9.412-19.176,10.255-26.151
							C2721.145,1946.321,2703.48,1946.691,2696.614,1936.315z"/>
						<path style="fill:#26264F;" d="M2711.031,1848.712c-4.223,9.313,6.021,28.013,9.803,30.726
							c0.425,0.304,2.818,2.192,4.969,5.426c0.293,0.441,0.551,0.957,0.782,1.623c3.006,8.647-10.741,18.82-8.088,22.688
							c1.925,2.81,11.267-0.944,12.378,1.478c1.047,2.285-6.718,7.01-5.529,9.741c0.897,2.064,5.676,0.177,8.689,3.34
							c2.329,2.444,2.6,5.907,2.652,7.636c0.373,12.29-27.498,56.679-33.304,76.707c-6.158,21.241,4.858,41.458,44.87,97.325
							c56.916,79.468,85.374,119.202,101.196,130.561c77.325,55.51,168.252,48.707,205.538,42.915
							c44.794-6.957,137.337-21.334,167.141-92.605c34.259-81.925-33.191-194.033-102.393-213.069
							c-31.646-8.704-48.495,4.517-89.594-9.785c-45.39-15.797-39.891-43.726-81.915-60.22c-56.049-22-92.214,17.328-130.399-11.307
							c-20.78-15.586-17.354-32.693-42.915-45.173C2749.698,1834.406,2716.566,1836.506,2711.031,1848.712z"/>
						
							<linearGradient id="SVGID_00000051355665199656063210000006818203104283400091_" gradientUnits="userSpaceOnUse" x1="5964.29" y1="1268.4534" x2="6170.2705" y2="1527.603" gradientTransform="matrix(0.9663 0.2576 -0.2576 0.9663 -2744.3408 -923.8408)">
							<stop  offset="0" style="stop-color:#FFC444"/>
							<stop  offset="0.9964" style="stop-color:#F36F56"/>
						</linearGradient>
						<path style="fill:url(#SVGID_00000051355665199656063210000006818203104283400091_);" d="M2723.429,1905.953
							c3.363-4.62,9.271-0.279,9.306,5.699c0.035,5.977-5.757,12.192-11.376,11.012
							C2715.739,1921.484,2718.904,1912.172,2723.429,1905.953z"/>
					</g>
				</g>
				
					<linearGradient id="SVGID_00000058587038312060919400000012180903630816049852_" gradientUnits="userSpaceOnUse" x1="2561.4626" y1="2258.4741" x2="2857.2061" y2="2540.8755">
					<stop  offset="0" style="stop-color:#FF9085"/>
					<stop  offset="1" style="stop-color:#FB6FBB"/>
				</linearGradient>
				<path style="opacity:0.3;fill:url(#SVGID_00000058587038312060919400000012180903630816049852_);" d="M2816.103,2588.648
					c-14.779-29.427,21.435-68.544-2.224-113.405c-20.094-38.102-56.596-29.565-73.379-64.485
					c-20.272-42.177,23.815-73.7,22.236-137.865c-1.887-76.708-67.89-153.494-106.734-146.76
					c-25.132,4.356-28.361,41.85-46.043,82.897c15.647,34.31,33.928,77.295,50.49,135.019
					c20.36,70.956,30.539,106.434,27.796,151.207c-3.822,62.362-25.724,98.396-4.447,126.747
					c13.32,17.749,38.71,20.598,88.945,25.572c45.653,4.52,120.781,11.02,204.574-26.683c10.606-4.772,18.547-8.347,25.023-11.874
					C2871.427,2628.678,2827.824,2611.99,2816.103,2588.648z"/>
				
					<linearGradient id="SVGID_00000040541159716994216690000005847224485724176536_" gradientUnits="userSpaceOnUse" x1="2574.7588" y1="2225.3472" x2="2910.2534" y2="2545.7065">
					<stop  offset="0" style="stop-color:#FF9085"/>
					<stop  offset="1" style="stop-color:#FB6FBB"/>
				</linearGradient>
				<path style="fill:url(#SVGID_00000040541159716994216690000005847224485724176536_);" d="M2328.436,2287.036
					c1.518-6.833,3.036-13.662,4.555-20.496c102.868,18.44,147.851-2.259,169.58-26.447c19.945-22.199,11.44-33.668,43.361-118.408
					c30.403-80.712,64.898-101.455,82.274-108.958c9.706-4.191,16.406-6.97,24.46-5.003c37.059,9.057,49.312,105.633,38.914,177.892
					c-5.858,40.709-17.346,120.539-82.831,158.433c-1.204,0.697-3.11,1.799-5.626,3.145c-8.245,4.411-41.014,20.169-105.555,8.528
					C2421.469,2341.994,2347.229,2298.382,2328.436,2287.036z"/>
			</g>
			<g>
				
					<linearGradient id="SVGID_00000142158813777369923230000013461780737549857710_" gradientUnits="userSpaceOnUse" x1="2585.1355" y1="1986.4711" x2="2672.2605" y2="2409.2839">
					<stop  offset="0" style="stop-color:#AA80F9"/>
					<stop  offset="0.9964" style="stop-color:#6165D7"/>
				</linearGradient>
				
					<ellipse style="fill:url(#SVGID_00000142158813777369923230000013461780737549857710_);" cx="2804.735" cy="3052.176" rx="224.751" ry="91.727"/>
				
					<linearGradient id="SVGID_00000113344776860413682560000003191402726380289934_" gradientUnits="userSpaceOnUse" x1="2579.9839" y1="3021.6794" x2="3029.4854" y2="3021.6794">
					<stop  offset="0" style="stop-color:#AA80F9"/>
					<stop  offset="0.9964" style="stop-color:#6165D7"/>
				</linearGradient>
				<path style="fill:url(#SVGID_00000113344776860413682560000003191402726380289934_);" d="M3029.485,3041.419
					c0,47.821-100.624,86.588-224.75,86.588c-124.127,0-224.751-38.767-224.751-86.588c0-47.82,100.624-126.066,224.751-126.066
					C2928.861,2915.353,3029.485,2993.599,3029.485,3041.419z"/>
				
					<linearGradient id="SVGID_00000101797449760994620800000010268643400796676779_" gradientUnits="userSpaceOnUse" x1="2726.1162" y1="2999.6306" x2="3103.8147" y2="2999.6306" gradientTransform="matrix(1 0 0 1 -74.3293 0)">
					<stop  offset="0" style="stop-color:#AA80F9"/>
					<stop  offset="0.9964" style="stop-color:#6165D7"/>
				</linearGradient>
				<path style="opacity:0.3;fill:url(#SVGID_00000101797449760994620800000010268643400796676779_);" d="M3029.485,3041.419
					c0-47.82-100.624-126.066-224.75-126.066c-57.313,0-109.586,16.698-149.286,39.364c-2.779,5.822-4.074,11.61-3.547,17.106
					c2.577,26.905,46.459,43.447,71.648,48.901c63.43,13.739,94.406-24.192,146.706-22.745
					c32.334,0.894,77.142,17.137,130.287,85.93C3018.939,3071.355,3029.485,3056.865,3029.485,3041.419z"/>
				<path style="fill:#FFFFFF;" d="M2817.045,2958.788c-8.98,2.235-17.359,2.146-25.241,0.143
					c-7.149-1.815-12.058-8.43-12.058-15.808l0.001-253.426h49.976v253.127C2829.723,2950.428,2824.424,2956.952,2817.045,2958.788z
					"/>
				
					<linearGradient id="SVGID_00000098904333454468375560000008980719844044267153_" gradientUnits="userSpaceOnUse" x1="2854.0754" y1="2825.0732" x2="2904.0525" y2="2825.0732" gradientTransform="matrix(1 0 0 1 -74.3293 0)">
					<stop  offset="0" style="stop-color:#AA80F9"/>
					<stop  offset="0.9964" style="stop-color:#6165D7"/>
				</linearGradient>
				<path style="opacity:0.65;fill:url(#SVGID_00000098904333454468375560000008980719844044267153_);" d="M2817.045,2958.788
					c-8.98,2.235-17.359,2.146-25.241,0.143c-7.149-1.815-12.058-8.43-12.058-15.808l0.001-253.426h49.976v253.127
					C2829.723,2950.428,2824.424,2956.952,2817.045,2958.788z"/>
				<g>
					
						<linearGradient id="SVGID_00000117636111643155544090000014604401947483054015_" gradientUnits="userSpaceOnUse" x1="3127.1592" y1="2771.9292" x2="3035.5308" y2="2652.5347" gradientTransform="matrix(1 0 0 1 -74.3293 0)">
						<stop  offset="0" style="stop-color:#311944"/>
						<stop  offset="1" style="stop-color:#893976"/>
					</linearGradient>
					<path style="fill:url(#SVGID_00000117636111643155544090000014604401947483054015_);" d="M2540.665,2583.04l76.347-48.263
						c3.177-18.029,39.164-206.639,185.269-265.867c59.415-24.085,123.357-21.228,158.446-19.659
						c70.048,3.128,120.014,5.36,144.044,38.774c30.859,42.905-20.898,81.814-10.181,204.542
						c4.37,50.048,15.484,72.276,1.641,105.431c-16.583,39.717-55.039,61.731-84.939,74.124
						c-35.742,20.756-97.975,50.332-180.17,57.535c-138.453,12.134-241.815-47.258-277.36-69.982
						c-15.806-4.983-27.682-18.127-31.043-34.355C2519.311,2608.865,2526.461,2592.019,2540.665,2583.04z"/>
				</g>
				<path style="opacity:0.26;fill:#FFFFFF;" d="M2575.77,2617.408c2.822-16.971,50.122-2.903,94.864-36.139
					c66.882-49.682,32.169-133.839,90.347-214.573c53.392-74.09,160.878-111.8,194.245-83.571
					c44.415,37.577-64.289,178.104,0,268.781c31.229,44.049,78.807,41.927,79.053,67.76c0.388,40.823-118.028,87.889-230.384,85.829
					C2683.105,2703.281,2571.291,2644.344,2575.77,2617.408z"/>
			</g>
		</g>
		<g>
			
				<linearGradient id="SVGID_00000107588196087638515740000006512981716069929107_" gradientUnits="userSpaceOnUse" x1="1987.9778" y1="3087.2175" x2="2028.14" y2="3122.9417" gradientTransform="matrix(-0.9902 -0.14 -0.14 0.9902 3687.3257 206.9384)">
				<stop  offset="0" style="stop-color:#444B8C"/>
				<stop  offset="0.9964" style="stop-color:#26264F"/>
			</linearGradient>
			<path style="fill:url(#SVGID_00000107588196087638515740000006512981716069929107_);" d="M1275.327,3003.755
				c-1.143-6.296-21.476-11.995-31.543-3.562c-4.999,4.187-8.442,12.675-5.549,16.509c1.052,1.394-3.258,3.847,0.872,3.896
				C1252.803,3020.758,1276.464,3010.012,1275.327,3003.755z"/>
			
				<linearGradient id="SVGID_00000036931786621277887590000005716854352631297445_" gradientUnits="userSpaceOnUse" x1="1740.9674" y1="3461.4529" x2="1740.9674" y2="3391.4863" gradientTransform="matrix(-0.9988 0.0498 0.0498 0.9988 2810.8794 -528.7908)">
				<stop  offset="0" style="stop-color:#FFC444"/>
				<stop  offset="0.9964" style="stop-color:#F36F56"/>
			</linearGradient>
			<path style="fill:url(#SVGID_00000036931786621277887590000005716854352631297445_);" d="M1253.093,3003.788L1232,3004.84
				c7.307-13.285-1.479-49.421-1.479-49.421l22.777,0.669c0,0-0.561,10.491-1.949,26.074
				C1250.873,2987.497,1251.75,2995.533,1253.093,3003.788z"/>
			
				<linearGradient id="SVGID_00000057110871221455048570000000664183968377243812_" gradientUnits="userSpaceOnUse" x1="1992.0156" y1="3082.6792" x2="2032.1776" y2="3118.4033" gradientTransform="matrix(-0.9902 -0.14 -0.14 0.9902 3687.3257 206.9384)">
				<stop  offset="0" style="stop-color:#444B8C"/>
				<stop  offset="0.9964" style="stop-color:#26264F"/>
			</linearGradient>
			<path style="fill:url(#SVGID_00000057110871221455048570000000664183968377243812_);" d="M1255.87,3003.471
				c0,0-25.176-5.801-27.898-0.807c-2.724,4.995-4.838,18.366,11.135,17.934C1255.079,3020.167,1257.289,3007.705,1255.87,3003.471z
				"/>
			
				<linearGradient id="SVGID_00000022533687706524046600000004081626829120592055_" gradientUnits="userSpaceOnUse" x1="2172.0964" y1="3009.8259" x2="2212.2603" y2="3045.5518" gradientTransform="matrix(-1 0 0 1 3584.4829 0)">
				<stop  offset="0" style="stop-color:#444B8C"/>
				<stop  offset="0.9964" style="stop-color:#26264F"/>
			</linearGradient>
			<path style="fill:url(#SVGID_00000022533687706524046600000004081626829120592055_);" d="M1403.75,3029.4
				c-2.014-6.073-22.944-8.871-31.733,0.888c-4.363,4.845-6.584,13.732-3.184,17.122c1.237,1.235-2.686,4.267,1.409,3.736
				C1383.826,3049.387,1405.75,3035.435,1403.75,3029.4z"/>
			
				<linearGradient id="SVGID_00000089571726670834107110000004326989111878032539_" gradientUnits="userSpaceOnUse" x1="1986.7023" y1="3309.0535" x2="1986.7023" y2="3239.0852" gradientTransform="matrix(-0.9813 0.1926 0.1926 0.9813 2684.261 -582.0115)">
				<stop  offset="0" style="stop-color:#FFC444"/>
				<stop  offset="0.9964" style="stop-color:#F36F56"/>
			</linearGradient>
			<path style="fill:url(#SVGID_00000089571726670834107110000004326989111878032539_);" d="M1379.015,3035.25l-20.723,4.067
				c5.326-14.196-8.554-48.698-8.554-48.698l22.637-2.606c0,0,0.951,10.463,1.811,26.084
				C1374.482,3019.445,1376.502,3027.273,1379.015,3035.25z"/>
			
				<linearGradient id="SVGID_00000103981641712870634520000014260347908649142444_" gradientUnits="userSpaceOnUse" x1="2176.1343" y1="3005.2878" x2="2216.2979" y2="3041.0132" gradientTransform="matrix(-1 0 0 1 3584.4829 0)">
				<stop  offset="0" style="stop-color:#444B8C"/>
				<stop  offset="0.9964" style="stop-color:#26264F"/>
			</linearGradient>
			<path style="fill:url(#SVGID_00000103981641712870634520000014260347908649142444_);" d="M1384.444,3031.841
				c0,0-25.74-2.219-27.737,3.107c-1.997,5.325-2.22,18.861,13.536,16.198C1385.997,3048.484,1386.442,3035.835,1384.444,3031.841z"
				/>
			<g>
				<path style="fill:#26264F;" d="M1274.332,2401.113l88.937-208.333c4.443-10.409-1.523-22.316-12.521-24.987l-162.913-39.564
					c-8.805-2.138-17.849,2.483-21.276,10.871l-81.802,200.234c-4.074,9.971,1.296,21.287,11.595,24.439l155.778,47.663
					C1261.081,2414.174,1270.656,2409.722,1274.332,2401.113z"/>
				<path style="fill:#EFF2F6;" d="M1270.307,2391.092l83.074-194.597c4.15-9.722-1.423-20.845-11.696-23.34l-152.172-36.956
					c-8.224-1.997-16.672,2.319-19.872,10.154l-76.41,187.032c-3.805,9.314,1.21,19.884,10.831,22.827l145.508,44.521
					C1257.929,2403.292,1266.874,2399.134,1270.307,2391.092z"/>
			</g>
			
				<linearGradient id="SVGID_00000012454141154311199430000014504006604873414824_" gradientUnits="userSpaceOnUse" x1="-343.6905" y1="2258.8813" x2="-368.2396" y2="2370.9529" gradientTransform="matrix(-1 0 0 1 975.4035 0)">
				<stop  offset="0" style="stop-color:#FFC444"/>
				<stop  offset="0.9964" style="stop-color:#F36F56"/>
			</linearGradient>
			<path style="fill:url(#SVGID_00000012454141154311199430000014504006604873414824_);" d="M1321.593,2333.887l2.668-24.549
				l14.145-26.964c1.927-3.672,2.933-7.757,2.933-11.904v-26.775l-17.077,39.492c0,0-11.207-10.14-15.477-12.275
				c-4.269-2.134-3.735,6.405-0.534,9.607c3.202,3.202-1.601,29.352,1.601,32.02l-1.067,16.01L1321.593,2333.887z"/>
			
				<linearGradient id="SVGID_00000113355289629019224270000011012929871240512689_" gradientUnits="userSpaceOnUse" x1="-121.8662" y1="2249.2397" x2="162.0482" y2="2520.3459" gradientTransform="matrix(-1 0 0 1 975.4035 0)">
				<stop  offset="0.0036" style="stop-color:#E38DDD"/>
				<stop  offset="1" style="stop-color:#9571F6"/>
			</linearGradient>
			<path style="fill:url(#SVGID_00000113355289629019224270000011012929871240512689_);" d="M1186.039,2177.521
				c-13.28-32.476-41.787-51.153-56.569-60.839c-34.976-22.917-57.368-18.733-137.688-30.953
				c-107.044-16.287-119.857-31.719-155.832-19.212c-47.258,16.429-71.942,59.326-83.253,78.984
				c-57.027,99.104,9.646,149.475-7.471,346.888c-6.991,80.624-24.915,150.687,18.145,192.122
				c9.067,8.725,19.208,13.288,39.492,22.415c80.442,36.195,152.565,29.956,196.392,25.616c48.226-4.775,72.6-7.51,85.388-24.549
				c20.426-27.218-0.601-61.81-4.269-121.678c-2.634-42.982,7.138-77.041,26.684-145.159
				C1152.494,2282.795,1211.484,2239.74,1186.039,2177.521z"/>
			<g>
				<g>
					
						<linearGradient id="SVGID_00000112606258825614634530000002457814290822248348_" gradientUnits="userSpaceOnUse" x1="3343.2517" y1="2087.717" x2="3520.3582" y2="2310.5398" gradientTransform="matrix(-0.9663 0.2576 0.2576 0.9663 3719.7444 -923.8408)">
						<stop  offset="0" style="stop-color:#FFC444"/>
						<stop  offset="0.9964" style="stop-color:#F36F56"/>
					</linearGradient>
					<path style="fill:url(#SVGID_00000112606258825614634530000002457814290822248348_);" d="M1006.866,2027.311
						c4.873-17.362-3.647-33.44-5.525-36.905c-7.862-14.504-9.876-16.486-13.628-18.998l-5.214-3.217c0,0-0.302-0.121-0.62-0.235
						c-3.346-1.191-14.751-1.537-17.062-1.044c-7.381,1.576-15.24,31.646-12.998,74.158c-0.306,1.62-0.601,3.254-0.886,4.902
						c-1.162,6.713-2.086,13.294-2.8,19.728c-0.683,6.154-9.409,6.013-15.589,5.619c-25.082-1.601-37.357,0.534-38.424,4.269
						c-2,7.001,27.751,29.886,64.488,35.035c49.303,0.366,89.409-4.883,85.098-12.647c-1.914-3.447-40.115-13.428-50.858-23.322
						c-9.837-9.06-9.035-18.412-9.844-25.108C985.985,2047.999,1003.279,2040.102,1006.866,2027.311z"/>
					<path style="fill:#26264F;" d="M997.797,1956.116c-0.044,13.17-6.25,27.236-9.412,29.496c-0.408,0.292-2.705,2.107-4.77,5.211
						c-0.281,0.422-0.529,0.917-0.75,1.557c-2.885,8.299,10.311,18.066,7.764,21.783c-1.848,2.695-10.816-0.91-11.883,1.419
						c-1.005,2.19,6.449,6.727,5.308,9.351c-0.861,1.982-5.448,0.169-8.341,3.204c-1.442,1.512-1.019,2.71-2.546,7.33
						c-0.864,2.613-2.072,5.472-3.009,7.063c-4.552,7.733-17.443,10.558-19.924,7.463c-0.69-0.863-0.097-1.587-0.803-4.482
						c0,0-0.654-2.682-2.52-5.783c-2.667-4.431-9.104-7.6-15.599-12.277c-12.028-8.662-15.298-16.045-16.279-18.539
						c-0.349-0.889-0.566-1.559-0.723-2.043c-3.128-9.708-3.142-23.967,1.222-32.736c7.311-14.689,23.804-7.715,37.303-22.271
						c15.575-16.792,6.299-39.746,14.751-42.281C976.903,1906.785,997.878,1931.763,997.797,1956.116z"/>
					
						<linearGradient id="SVGID_00000164502397672292383260000008548152983708734611_" gradientUnits="userSpaceOnUse" x1="3351.7283" y1="2076.5015" x2="3549.47" y2="2325.2859" gradientTransform="matrix(-0.9663 0.2576 0.2576 0.9663 3719.7444 -923.8408)">
						<stop  offset="0" style="stop-color:#FFC444"/>
						<stop  offset="0.9964" style="stop-color:#F36F56"/>
					</linearGradient>
					<path style="fill:url(#SVGID_00000164502397672292383260000008548152983708734611_);" d="M985.895,2011.067
						c-3.229-4.436-8.901-0.268-8.934,5.471c-0.034,5.738,5.527,11.705,10.921,10.572
						C993.278,2025.977,990.239,2017.037,985.895,2011.067z"/>
				</g>
				<path style="fill:#26264F;" d="M983.277,2001.466l7.489,9.742c0,0,8.073,11.935,12.787,5.397c3.85-5.343,4.848-5.223,5.084-5
					c0.045,0.043,0.057,0.107,0.068,0.104c0.067-0.018-0.565-2.659-1.133-4.981c1.993,2.862,4.741,7.504,6.405,13.75
					c1.616,6.067,3.349,12.563-0.075,18.803c-0.198,0.36-3.968,7.002-11.009,8.609c0,0-2.769,0.632-14.467-1.425
					c0,0,12.787-9.279,12.983-11.483c0.53-5.994-7.783-9.233-13.955-21.521C985.073,2008.721,983.899,2004.424,983.277,2001.466z"/>
			</g>
			
				<linearGradient id="SVGID_00000015345414966918320280000016825638813562741660_" gradientUnits="userSpaceOnUse" x1="-226.6782" y1="2359.0037" x2="57.2365" y2="2630.1099" gradientTransform="matrix(-1 0 0 1 975.4035 0)">
				<stop  offset="0.0036" style="stop-color:#E38DDD"/>
				<stop  offset="1" style="stop-color:#9571F6"/>
			</linearGradient>
			<path style="opacity:0.3;fill:url(#SVGID_00000015345414966918320280000016825638813562741660_);" d="M957.627,2675.972
				c14.188-28.25-20.578-65.802,2.135-108.87c19.29-36.578,54.333-28.383,70.444-61.906c19.461-40.49-22.862-70.752-21.346-132.351
				c1.812-73.639,65.175-147.354,102.465-140.89c24.127,4.182,27.226,40.176,44.202,79.581
				c-15.021,32.938-32.571,74.203-48.471,129.619c-19.546,68.118-29.318,102.177-26.684,145.159
				c3.669,59.868,24.695,94.46,4.269,121.678c-12.787,17.039-37.161,19.774-85.388,24.549
				c-43.827,4.339-115.95,10.579-196.392-25.616c-10.182-4.582-17.805-8.013-24.022-11.399
				C904.515,2714.4,946.373,2698.38,957.627,2675.972z"/>
			
				<linearGradient id="SVGID_00000079470376213260497570000002595877317450632097_" gradientUnits="userSpaceOnUse" x1="-184.239" y1="2314.5596" x2="99.6756" y2="2585.6658" gradientTransform="matrix(-1 0 0 1 975.4035 0)">
				<stop  offset="0.0036" style="stop-color:#E38DDD"/>
				<stop  offset="1" style="stop-color:#9571F6"/>
			</linearGradient>
			<path style="fill:url(#SVGID_00000079470376213260497570000002595877317450632097_);" d="M1326.396,2329.084
				c-7.827-3.38-15.655-6.76-23.482-10.14c-13.229,13.529-30.102,26.686-44.295,22.414c-21.156-6.367-15.867-45.288-41.626-113.673
				c-29.187-77.483-62.302-97.398-78.984-104.6c-9.318-4.023-15.75-6.693-23.482-4.803c-35.577,8.697-47.339,101.406-37.357,170.775
				c5.624,39.084,16.652,115.72,79.518,152.098c8.93,5.167,58.087,33.612,106.735,11.207
				C1304.982,2433.222,1330.663,2384.114,1326.396,2329.084z"/>
			
				<linearGradient id="SVGID_00000179626275977801298260000013844821566480578445_" gradientUnits="userSpaceOnUse" x1="73.4761" y1="2569.1353" x2="-159.2577" y2="2735.3738" gradientTransform="matrix(-1 0 0 1 975.4035 0)">
				<stop  offset="0" style="stop-color:#444B8C"/>
				<stop  offset="0.9964" style="stop-color:#26264F"/>
			</linearGradient>
			<path style="fill:url(#SVGID_00000179626275977801298260000013844821566480578445_);" d="M1266.877,2958.308
				c-13.01,1.444-26.02,2.893-39.03,4.337c-17.571-19.477-43.803-53.438-57.822-101.187
				c-26.856-91.472,15.191-151.512-13.01-174.915c-32.513-26.981-96.737,45.916-238.516,66.499
				c-45.632,6.623-146.934,21.332-187.922-33.25c-16.616-22.127-26.16-59.421-13.01-91.07
				c23.576-56.736,101.231-49.922,357.051-99.743c98.547-19.193,114.117-25.478,137.529-14.302
				C1327.934,2569.953,1279.65,2882.501,1266.877,2958.308z"/>
			
				<linearGradient id="SVGID_00000122001033862912804220000014315945083028479149_" gradientUnits="userSpaceOnUse" x1="-428.4739" y1="2772.6956" x2="147.8779" y2="2772.6956" gradientTransform="matrix(-1 0 0 1 975.4035 0)">
				<stop  offset="0" style="stop-color:#444B8C"/>
				<stop  offset="0.9964" style="stop-color:#26264F"/>
			</linearGradient>
			<path style="fill:url(#SVGID_00000122001033862912804220000014315945083028479149_);" d="M1383.002,2995.105
				c-13.01,1.444-26.02,2.892-39.03,4.336c-17.571-19.477-43.803-53.438-57.822-101.187
				c-26.856-91.472,15.191-151.512-13.01-174.915c-32.513-26.981-96.737,45.916-238.516,66.498
				c-45.632,6.624-146.933,21.332-187.921-33.249c-16.617-22.128-26.161-59.422-13.01-91.07
				c23.576-56.736,101.231-49.922,357.051-99.743c98.547-19.193,114.117-25.478,137.529-14.302
				C1444.058,2606.75,1395.775,2919.298,1383.002,2995.105z"/>
		</g>
		<g>
			
				<linearGradient id="SVGID_00000037681458303722925840000008367923669759755914_" gradientUnits="userSpaceOnUse" x1="774.3633" y1="2359.5994" x2="861.4884" y2="2782.4131">
				<stop  offset="0" style="stop-color:#AA80F9"/>
				<stop  offset="0.9964" style="stop-color:#6165D7"/>
			</linearGradient>
			
				<ellipse style="fill:url(#SVGID_00000037681458303722925840000008367923669759755914_);" cx="937.656" cy="3152.054" rx="215.762" ry="88.058"/>
			
				<linearGradient id="SVGID_00000173122327082136015530000002464107243196058509_" gradientUnits="userSpaceOnUse" x1="721.895" y1="3122.7776" x2="1153.4181" y2="3122.7776">
				<stop  offset="0" style="stop-color:#AA80F9"/>
				<stop  offset="0.9964" style="stop-color:#6165D7"/>
			</linearGradient>
			<path style="fill:url(#SVGID_00000173122327082136015530000002464107243196058509_);" d="M721.895,3141.727
				c0,45.908,96.599,83.125,215.761,83.125c119.163,0,215.762-37.216,215.762-83.125c0-45.907-96.599-121.024-215.762-121.024
				C818.494,3020.703,721.895,3095.82,721.895,3141.727z"/>
			
				<linearGradient id="SVGID_00000175311881681044593300000016489979728445464752_" gradientUnits="userSpaceOnUse" x1="-572.9099" y1="3101.6106" x2="-210.3179" y2="3101.6106" gradientTransform="matrix(-1 0 0 1 511.5771 0)">
				<stop  offset="0" style="stop-color:#AA80F9"/>
				<stop  offset="0.9964" style="stop-color:#6165D7"/>
			</linearGradient>
			<path style="opacity:0.3;fill:url(#SVGID_00000175311881681044593300000016489979728445464752_);" d="M721.895,3141.727
				c0-45.908,96.599-121.024,215.761-121.024c55.021,0,105.203,16.03,143.315,37.789c2.667,5.589,3.911,11.146,3.405,16.422
				c-2.474,25.829-44.601,41.709-68.782,46.946c-60.894,13.189-90.63-23.224-140.838-21.836
				c-31.041,0.858-74.057,16.452-125.077,82.493C732.019,3170.466,721.895,3156.556,721.895,3141.727z"/>
			<path style="fill:#FFFFFF;" d="M925.839,3062.402c8.621,2.146,16.665,2.061,24.232,0.137c6.863-1.742,11.576-8.093,11.576-15.176
				l-0.001-243.29h-47.977v243.003C913.667,3054.376,918.755,3060.639,925.839,3062.402z"/>
			
				<linearGradient id="SVGID_00000145748934041791608230000016068021064964276902_" gradientUnits="userSpaceOnUse" x1="-450.0685" y1="2934.0347" x2="-402.0904" y2="2934.0347" gradientTransform="matrix(-1 0 0 1 511.5771 0)">
				<stop  offset="0" style="stop-color:#AA80F9"/>
				<stop  offset="0.9964" style="stop-color:#6165D7"/>
			</linearGradient>
			<path style="opacity:0.65;fill:url(#SVGID_00000145748934041791608230000016068021064964276902_);" d="M925.839,3062.402
				c8.621,2.146,16.665,2.061,24.232,0.137c6.863-1.742,11.576-8.093,11.576-15.176l-0.001-243.29h-47.977v243.003
				C913.667,3054.376,918.755,3060.639,925.839,3062.402z"/>
			<g>
				
					<linearGradient id="SVGID_00000096770868528726381140000002054066602594786984_" gradientUnits="userSpaceOnUse" x1="-187.9072" y1="2883.0164" x2="-275.8706" y2="2768.3972" gradientTransform="matrix(-1 0 0 1 511.5771 0)">
					<stop  offset="0" style="stop-color:#311944"/>
					<stop  offset="1" style="stop-color:#893976"/>
				</linearGradient>
				<path style="fill:url(#SVGID_00000096770868528726381140000002054066602594786984_);" d="M1191.164,2701.682l-73.294-46.333
					c-3.049-17.308-37.597-198.374-177.858-255.233c-57.039-23.121-118.423-20.378-152.108-18.873
					c-67.247,3.003-115.214,5.145-138.283,37.223c-29.625,41.189,20.062,78.542,9.773,196.361
					c-4.195,48.046-14.865,69.386-1.576,101.215c15.92,38.128,52.837,59.262,81.542,71.159
					c34.313,19.926,94.057,48.319,172.964,55.234c132.915,11.649,232.143-45.368,266.267-67.183
					c15.174-4.784,26.575-17.402,29.801-32.981C1211.664,2726.474,1204.8,2710.302,1191.164,2701.682z"/>
			</g>
			<path style="opacity:0.26;fill:#FFFFFF;" d="M1157.463,2734.675c-2.709-16.292-48.117-2.787-91.07-34.693
				c-64.207-47.695-30.882-128.486-86.733-205.991c-51.256-71.127-154.443-107.328-186.476-80.228
				c-42.639,36.074,61.717,170.98,0,258.031c-29.98,42.287-75.656,40.25-75.891,65.05c-0.373,39.191,113.307,84.374,221.169,82.396
				C1054.421,2817.114,1161.763,2760.534,1157.463,2734.675z"/>
		</g>
		<g>
			<path style="fill:#26264F;" d="M1566.22,2211.566c-1.295,0.02-2.382,0.696-2.555,1.718c-0.025,0.15,1.33,5.728,1.338,5.89
				c0.066,1.266,1.182,2.553,2.693,3.106l126.612,46.319l225.318-50.568l-110.832-4.759L1566.22,2211.566z"/>
			<path style="fill:#444B8C;" d="M1566.052,2210.81c-1.486,0.023-2.49,0.941-2.423,2.214c0.067,1.272,1.185,2.563,2.698,3.117
				l126.863,46.457l225.724-50.832l-111.043-4.742L1566.052,2210.81z"/>
			
				<linearGradient id="SVGID_00000018915827311758761660000005641818164558631590_" gradientUnits="userSpaceOnUse" x1="1585.8048" y1="2208.3638" x2="1903.2087" y2="2208.3638" gradientTransform="matrix(0.9981 -0.0611 0.0611 0.9981 -36.4323 49.9065)">
				<stop  offset="0" style="stop-color:#40447E"/>
				<stop  offset="0.9964" style="stop-color:#3C3B6B"/>
			</linearGradient>
			<path style="fill:url(#SVGID_00000018915827311758761660000005641818164558631590_);" d="M1687.618,2260.539l-5.04-208.639
				c-0.086-3.571,2.663-6.196,6.641-6.334l292.594-10.176c2.665-0.093,5.4,0.902,7.445,2.707c2.044,1.804,3.183,4.225,3.103,6.593
				l-6.752,199.582c-0.109,3.237-2.906,5.648-6.748,5.826l-283.986,13.152L1687.618,2260.539z"/>
			<path style="fill:#26264F;" d="M1694.308,2268.6l-4.51-212.471c-0.076-3.56,2.677-6.176,6.651-6.313l292.446-10.095
				c2.664-0.092,5.394,0.901,7.435,2.703c2.039,1.8,3.172,4.216,3.087,6.579l-7.165,199.177c-0.116,3.217-2.895,5.619-6.716,5.811
				L1694.308,2268.6z"/>
			<path style="fill:#1F1F44;" d="M1694.309,2268.599l291.227-14.61c3.821-0.192,6.6-2.594,6.716-5.81l2.07-57.537
				c-88.45,33.302-199.514,26.756-300.977,32.59L1694.309,2268.599z"/>
		</g>
		<g>
			<g>
				
					<linearGradient id="SVGID_00000122696582082450570560000003312936076499837589_" gradientUnits="userSpaceOnUse" x1="1612.7046" y1="1272.3566" x2="2126.8428" y2="1272.3566" gradientTransform="matrix(1 0 0 1 -479.9574 0)">
					<stop  offset="0" style="stop-color:#FF9085"/>
					<stop  offset="1" style="stop-color:#FB6FBB"/>
				</linearGradient>
				<path style="fill:url(#SVGID_00000122696582082450570560000003312936076499837589_);" d="M1609.637,1373.884
					c23.636-29.601,37.248-64.353,37.248-101.527c0-108.095-115.094-195.723-257.069-195.723s-257.069,87.628-257.069,195.723
					c0,108.095,115.094,195.723,257.069,195.723c53.211,0,102.645-12.309,143.659-33.391c27.11,4.625,69.192,12.396,91.399,16.529
					c6.539,1.217,11.896-5.177,9.555-11.403L1609.637,1373.884z"/>
				<g style="opacity:0.3;">
					
						<linearGradient id="SVGID_00000164487301761075136340000009161559280873927566_" gradientUnits="userSpaceOnUse" x1="1680.5668" y1="1137.1101" x2="2126.7283" y2="1724.6954" gradientTransform="matrix(1 0 0 1 -479.9574 0)">
						<stop  offset="0" style="stop-color:#FF9085"/>
						<stop  offset="1" style="stop-color:#FB6FBB"/>
					</linearGradient>
					<path style="fill:url(#SVGID_00000164487301761075136340000009161559280873927566_);" d="M1530.491,1313.776
						c-57.643-24.228-121.031,26.914-160.661-8.763c-39.948-35.964,3.208-107.068-35.053-157.739
						c-18.243-24.16-48.892-35.591-83.954-39.587c-71.032,34.827-118.076,95.564-118.076,164.67
						c0,108.095,115.094,195.723,257.069,195.723c53.211,0,102.645-12.309,143.659-33.391c21.39,3.649,52.094,9.255,75.01,13.49
						C1591.581,1360.54,1560.489,1326.384,1530.491,1313.776z"/>
				</g>
			</g>
			<g>
				<path style="opacity:0.8;fill:#FFFFFF;" d="M1295.03,1141.04c-4.259,1.727-8.352,3.75-12.251,6.05
					c-0.243-0.342-0.491-0.683-0.768-1.008c-5.407-6.351-15.309-6.805-22.119-1.015c-6.809,5.791-7.946,15.633-2.539,21.984
					c0.282,0.332,0.584,0.638,0.89,0.938c-2.921,3.512-5.577,7.224-7.945,11.104c-0.4-0.169-0.804-0.331-1.227-0.467
					c-8.086-2.605-17.231,1.923-20.424,10.113c-3.194,8.19,0.773,16.941,8.86,19.546c0.414,0.133,0.833,0.236,1.252,0.332
					c-0.844,4.329-1.349,8.733-1.508,13.182c-0.442,0.057-0.884,0.122-1.33,0.217c-8.6,1.839-14.536,10.136-13.258,18.531
					s9.285,13.71,17.885,11.871c0.445-0.095,0.879-0.219,1.31-0.347c1.46,4.102,3.232,8.019,5.299,11.726
					c-0.364,0.264-0.726,0.533-1.075,0.83c-6.809,5.79-7.946,15.633-2.539,21.984c5.406,6.351,15.309,6.805,22.118,1.015
					c0.356-0.302,0.687-0.622,1.012-0.946c3.362,2.654,6.945,5.032,10.717,7.113c-0.198,0.407-0.391,0.82-0.558,1.247
					c-3.193,8.19,0.773,16.942,8.86,19.546c8.087,2.605,17.231-1.923,20.425-10.113c0.163-0.419,0.296-0.841,0.422-1.263
					c4.332,0.54,8.763,0.74,13.262,0.594c0.028,0.434,0.063,0.868,0.13,1.303c1.278,8.395,9.285,13.71,17.885,11.871
					s14.536-10.136,13.258-18.531c-0.066-0.435-0.161-0.857-0.263-1.274c4.259-1.727,8.352-3.75,12.251-6.05
					c0.243,0.342,0.491,0.682,0.768,1.008c5.407,6.351,15.309,6.805,22.118,1.015c6.809-5.79,7.946-15.633,2.54-21.984
					c-0.283-0.332-0.585-0.638-0.891-0.938c2.921-3.513,5.577-7.224,7.945-11.104c0.4,0.169,0.804,0.331,1.227,0.467
					c8.086,2.605,17.231-1.923,20.424-10.113c3.193-8.19-0.773-16.941-8.86-19.546c-0.415-0.133-0.833-0.236-1.252-0.332
					c0.844-4.329,1.349-8.733,1.508-13.181c0.442-0.057,0.884-0.122,1.33-0.217c8.6-1.839,14.536-10.136,13.258-18.531
					c-1.278-8.395-9.285-13.71-17.885-11.871c-0.445,0.095-0.879,0.218-1.31,0.347c-1.46-4.102-3.232-8.02-5.298-11.726
					c0.364-0.264,0.726-0.533,1.075-0.83c6.809-5.79,7.946-15.633,2.539-21.984c-5.407-6.351-15.309-6.805-22.118-1.015
					c-0.356,0.303-0.687,0.622-1.012,0.946c-3.362-2.654-6.945-5.032-10.717-7.113c0.198-0.408,0.391-0.82,0.558-1.248
					c3.193-8.19-0.773-16.942-8.86-19.546c-8.087-2.605-17.231,1.923-20.424,10.113c-0.164,0.42-0.296,0.841-0.423,1.263
					c-4.332-0.54-8.763-0.74-13.262-0.594c-0.028-0.433-0.064-0.868-0.13-1.302c-1.278-8.396-9.285-13.71-17.885-11.871
					c-8.6,1.839-14.536,10.136-13.258,18.531C1294.833,1140.201,1294.928,1140.622,1295.03,1141.04z M1314.521,1163.915
					c31.225-6.678,60.298,12.619,64.937,43.101c4.639,30.482-16.912,60.605-48.137,67.283
					c-31.225,6.678-60.298-12.619-64.937-43.101C1261.745,1200.716,1283.296,1170.592,1314.521,1163.915z"/>
				<path style="opacity:0.8;fill:#FFFFFF;" d="M1445.312,1271.496c-3.126,1.267-6.13,2.752-8.992,4.441
					c-0.178-0.251-0.361-0.501-0.564-0.74c-3.969-4.661-11.237-4.995-16.234-0.745c-4.998,4.25-5.832,11.474-1.864,16.136
					c0.207,0.244,0.429,0.469,0.653,0.688c-2.144,2.578-4.093,5.302-5.831,8.15c-0.293-0.124-0.59-0.243-0.9-0.343
					c-5.935-1.912-12.647,1.411-14.991,7.423c-2.344,6.011,0.568,12.435,6.503,14.347c0.304,0.098,0.611,0.173,0.919,0.244
					c-0.619,3.177-0.99,6.41-1.107,9.675c-0.324,0.042-0.649,0.089-0.976,0.159c-6.312,1.35-10.669,7.44-9.731,13.602
					c0.938,6.162,6.815,10.063,13.127,8.713c0.327-0.07,0.645-0.16,0.961-0.255c1.072,3.011,2.372,5.886,3.889,8.607
					c-0.267,0.193-0.533,0.391-0.789,0.609c-4.997,4.25-5.832,11.474-1.864,16.136c3.968,4.661,11.237,4.995,16.234,0.745
					c0.261-0.222,0.504-0.457,0.743-0.694c2.468,1.948,5.097,3.693,7.866,5.221c-0.146,0.299-0.287,0.601-0.409,0.916
					c-2.344,6.011,0.567,12.435,6.503,14.346c5.936,1.912,12.647-1.411,14.991-7.423c0.12-0.308,0.217-0.617,0.31-0.927
					c3.179,0.396,6.432,0.543,9.734,0.436c0.021,0.318,0.047,0.637,0.095,0.956c0.938,6.162,6.815,10.063,13.127,8.713
					c6.312-1.35,10.669-7.439,9.731-13.602c-0.048-0.319-0.118-0.629-0.193-0.935c3.126-1.267,6.13-2.752,8.992-4.441
					c0.178,0.251,0.361,0.501,0.564,0.74c3.968,4.661,11.236,4.995,16.234,0.745s5.832-11.474,1.864-16.136
					c-0.208-0.244-0.429-0.468-0.654-0.688c2.144-2.578,4.093-5.302,5.831-8.15c0.293,0.124,0.59,0.243,0.9,0.343
					c5.935,1.912,12.647-1.411,14.991-7.423c2.344-6.011-0.568-12.435-6.503-14.347c-0.304-0.098-0.611-0.173-0.919-0.244
					c0.619-3.177,0.99-6.41,1.106-9.675c0.324-0.042,0.649-0.089,0.976-0.159c6.312-1.35,10.669-7.439,9.731-13.602
					c-0.938-6.162-6.815-10.063-13.127-8.713c-0.327,0.07-0.646,0.16-0.962,0.255c-1.072-3.011-2.372-5.886-3.889-8.606
					c0.267-0.194,0.533-0.391,0.789-0.609c4.998-4.25,5.832-11.474,1.864-16.136c-3.968-4.661-11.237-4.995-16.234-0.745
					c-0.261,0.222-0.504,0.457-0.743,0.694c-2.468-1.948-5.097-3.693-7.866-5.221c0.146-0.299,0.287-0.602,0.41-0.916
					c2.344-6.011-0.568-12.435-6.503-14.346c-5.935-1.912-12.647,1.411-14.991,7.423c-0.12,0.308-0.218,0.617-0.31,0.927
					c-3.179-0.396-6.432-0.543-9.734-0.436c-0.021-0.318-0.047-0.637-0.095-0.956c-0.938-6.162-6.815-10.063-13.127-8.713
					c-6.312,1.35-10.669,7.44-9.731,13.601C1445.168,1270.88,1445.238,1271.189,1445.312,1271.496z M1459.618,1288.286
					c22.918-4.901,44.257,9.262,47.662,31.635c3.405,22.373-12.413,44.483-35.331,49.384c-22.918,4.901-44.257-9.262-47.662-31.635
					C1420.882,1315.297,1436.7,1293.187,1459.618,1288.286z"/>
			</g>
		</g>
		<g>
			<g>
				
					<linearGradient id="SVGID_00000088120924977379398840000003377017397981132472_" gradientUnits="userSpaceOnUse" x1="2239.6392" y1="2472.2947" x2="1990.756" y2="2947.2051">
					<stop  offset="0.0036" style="stop-color:#E38DDD"/>
					<stop  offset="1" style="stop-color:#9571F6"/>
				</linearGradient>
				<path style="fill:url(#SVGID_00000088120924977379398840000003377017397981132472_);" d="M1964.085,3085.771
					c-29.023-2.302-66.154-10.368-101.793-33.667c-38.559-25.209-88.781-77.016-75.672-109.66
					c4.894-12.188,18.984-22.623,31.37-21.629c18.298,1.469,20.429,26.886,52.203,54.532c5.872,5.109,36.233,31.525,51.326,22.624
					c7.504-4.425,9.723-16.688,8.499-26.01c-3.578-27.259-36.86-31.445-68.855-60.954c-32.439-29.918-59.479-82.109-44.022-117.393
					c8.882-20.277,32.377-36.291,47.822-31.79c6.6,1.924,10.785,7.318,30.825,50.612c16.448,35.534,20.106,45.892,30.711,49.261
					c10.915,3.468,27.885-0.884,34.335-11.637c16.798-28.007-55.804-69.359-62.397-147.739
					c-2.955-35.125,6.548-87.184,38.356-98.342c21.503-7.543,52.137,3.978,63.212,23.704c9.983,17.783-2.144,31.164,5.472,71.113
					c2.311,12.123,7.067,37.07,17.104,38.379c11.783,1.536,24.967-30.272,28.014-38.019c22.94-58.322-3.364-88.312,18.266-116.624
					c16.867-22.077,53.568-30.944,82.642-19.793c25.441,9.758,45.794,35.133,47.154,61.43c1.384,26.756-21.12,53.391-66.127,106.661
					c-21.343,25.262-38.324,42.33-37.359,67.439c0.471,12.24,5.324,29.457,14.092,31.03c19.35,3.471,28.874-74.447,74.734-86.48
					c23.474-6.159,52.643,5.946,65.461,27.105c15.705,25.925,5.183,62.67-14.547,81.991c-25.743,25.21-52.142,6.051-100.58,33.13
					c-21.488,12.013-55.257,37.566-50.313,58.697c2.153,9.201,11.796,18.21,22.38,19.412c23.723,2.693,31.558-36.186,69.698-53.276
					c27.478-12.313,65.474-10.981,74.5,4.515c12.742,21.877-32.513,71.545-56.573,93.492
					C2164.933,3034.416,2096.337,3084.727,1964.085,3085.771z"/>
				<path style="opacity:0.5;fill:#FFFFFF;" d="M1977.118,3073.309c-3.835-65.025,39.235-197.475,70.571-260.09
					c30.663-61.27,59.995-158.198,60.287-159.17l1.91,0.575c-0.294,0.973-29.675,98.066-60.414,159.487
					c-31.239,62.42-74.18,194.38-70.364,259.08L1977.118,3073.309z"/>
			</g>
			
				<linearGradient id="SVGID_00000010287388621867389430000001279039292738343350_" gradientUnits="userSpaceOnUse" x1="2065.7065" y1="2829.6145" x2="1780.0396" y2="3172.0706">
				<stop  offset="0" style="stop-color:#FF9085"/>
				<stop  offset="1" style="stop-color:#FB6FBB"/>
			</linearGradient>
			<path style="fill:url(#SVGID_00000010287388621867389430000001279039292738343350_);" d="M1895.676,3094.25
				c-21.854-30.341-53.912-85.086-59.661-158.33c-2.369-30.18-6.995-89.126,29.065-139.973
				c17.973-25.343,56.089-62.824,81.842-52.012c16.571,6.957,26.858,33.419,22.181,53.542c-4.715,20.29-21.864,22.169-40.538,56.601
				c-6.911,12.741-14.805,27.697-8.74,36.146c5.065,7.056,18.98,8.34,29.413,4.108c21.551-8.742,14.817-35.573,38.116-54.819
				c16.567-13.685,44.184-20.118,56.102-8.909c10.348,9.732,8.546,32.468-0.598,47.624c-14.642,24.268-40.896,17.149-58.013,43.68
				c-7.594,11.77-12.992,29.549-6.346,36.578c7.573,8.01,29.859,1.083,44.142-7.771c18.858-11.69,19.554-24.128,31.974-25.688
				c13.853-1.739,31.171,11.453,33.88,26.048c3.793,20.441-21.285,42.488-41.144,52.066c-25.423,12.262-44.314,5.065-56.731,21.818
				c-4.557,6.148-8.732,16.184-4.995,22.274c5.332,8.688,24.601,5.82,37.396,3.915c31.139-4.635,39.712-15.927,50.87-10.441
				c11.297,5.555,17.123,24.317,12.238,37.479c-2.715,7.315-10.871,18.645-51.287,25.739
				C2006.554,3108.892,1959.026,3112.385,1895.676,3094.25z"/>
		</g>
	</g>
</g>
</svg>
