<?xml version="1.0" encoding="utf-8"?>
<!-- Generator: Adobe Illustrator 27.5.0, SVG Export Plug-In . SVG Version: 6.00 Build 0)  -->
<svg version="1.1" xmlns="http://www.w3.org/2000/svg" xmlns:xlink="http://www.w3.org/1999/xlink" x="0px" y="0px"
	 viewBox="0 0 3710 3710" style="enable-background:new 0 0 3710 3710;" xml:space="preserve">
<g id="Background">
	<g>
		<g>
			<rect style="fill:#FFFFFF;" width="3710" height="3710"/>
		</g>
	</g>
</g>
<g id="Illustration">
	<g>
		<path style="fill:#F4F7FA;" d="M2987.982,919.917c-21.942-27.723-411.408-502.908-1033.582-462.478
			c-87.908,5.712-619.443,50.799-822.41,412.401c-158.013,281.513,9.276,531.287-183.488,723.089
			c-167.961,167.124-374.379,56.505-477.596,191.649c-157.226,205.864,93.16,761.849,477.864,1071.917
			c426.352,343.635,1184.07,531.139,1747.843,127.89c558.295-399.329,553.983-1110.901,553.3-1223.534
			C3248.988,1608.46,3246.799,1246.906,2987.982,919.917z"/>
		<g>
			<path style="fill:#BCC1C9;" d="M1934.093,2714.131c54.036,27.434,121.925,2.244,151.632-56.266
				c29.707-58.511,9.982-128.184-44.053-155.619c-2.8-1.422-5.657-2.616-8.522-3.759c10.039-32.376,17.608-65.006,22.684-97.647
				c3.098-0.009,6.206-0.061,9.365-0.343c61.65-5.496,110.58-62.146,109.289-126.538c-1.29-64.389-52.314-112.134-113.965-106.639
				c-3.224,0.289-6.389,0.797-9.536,1.356c-6.439-31.909-15.263-63.08-26.394-93.249c2.836-1.659,5.657-3.374,8.414-5.305
				c52.744-36.952,69.608-109.887,37.664-162.902c-31.943-53.015-100.598-66.035-153.343-29.083
				c-2.703,1.895-5.245,3.939-7.758,6.015c-20.834-23.03-43.682-44.373-68.403-63.851c1.738-2.85,3.439-5.737,4.978-8.768
				c29.708-58.511,68.527-122.425,14.068-149.01c-125.982-61.502-180.043-8.854-209.752,49.657
				c-1.538,3.031-2.864,6.109-4.141,9.193c-30.313-8.464-61.026-14.317-91.913-17.547c0.193-3.253,0.343-6.512,0.278-9.812
				c-1.293-64.388,17.813-99.233-44.071-100.436c-134.946-2.624-180.478,55.95-179.187,120.337c0.068,3.366,0.349,6.656,0.682,9.924
				c-30.925,8.815-61.296,20.085-90.858,33.717c-1.405-2.872-2.863-5.726-4.531-8.499c-31.943-53.015-100.598-66.034-153.344-29.079
				c-52.746,36.956-69.608,109.888-37.665,162.902c1.635,2.716,3.429,5.256,5.249,7.762c-23.358,23.361-45.233,48.727-65.446,75.937
				c-2.614-1.64-5.266-3.242-8.065-4.663c-54.037-27.436-121.924-2.245-151.631,56.266c-29.707,58.51-9.983,128.184,44.053,155.619
				c2.799,1.422,5.657,2.616,8.523,3.76c-10.04,32.376-17.61,65.005-22.686,97.647c-3.098,0.01-6.205,0.061-9.362,0.339
				c-61.652,5.499-110.582,62.15-109.292,126.541c1.292,64.39,52.317,112.131,113.968,106.636c3.22-0.287,6.387-0.794,9.533-1.354
				c6.44,31.91,15.263,63.08,26.395,93.25c-2.835,1.66-5.658,3.374-8.414,5.305c-52.745,36.952-69.609,109.888-37.665,162.902
				c31.943,53.016,137.697,77.646,190.442,40.693c2.703-1.895-31.854-15.549-29.342-17.625
				c20.834,23.03,43.683,44.373,68.403,63.851c-1.736,2.85-3.439,5.737-4.978,8.768c-29.707,58.511-9.983,128.185,44.053,155.619
				c54.037,27.436,121.925,2.245,151.631-56.266c1.54-3.031,2.865-6.109,4.14-9.193c30.313,8.463,61.026,14.316,91.914,17.545
				c-0.193,3.253-0.343,6.512-0.278,9.813c1.291,64.387,52.317,112.132,113.967,106.636
				c61.651-5.495,110.582-62.149,109.289-126.538c-0.068-3.365-0.348-6.655-0.682-9.924c30.926-8.814,61.297-20.084,90.859-33.716
				c1.405,2.872,2.864,5.726,4.532,8.496c31.944,53.014,100.596,66.037,153.343,29.082c52.746-36.955,69.609-109.887,37.666-162.906
				c-1.636-2.713-3.429-5.252-5.25-7.758c23.357-23.36,45.233-48.727,65.446-75.936
				C1928.643,2711.107,1931.293,2712.71,1934.093,2714.131z M1260.474,2722.678c-196.196-99.612-267.805-352.58-159.944-565.018
				c107.859-212.441,354.344-303.904,550.539-204.291c196.195,99.613,267.805,352.58,159.945,565.019
				C1703.154,2730.828,1456.669,2822.291,1260.474,2722.678z"/>
			<path style="fill:#BCC1C9;" d="M2065.198,2400.497c61.65-5.497,110.58-62.149,109.289-126.54
				c-1.29-64.388-52.314-112.135-113.965-106.637c-3.223,0.287-6.389,0.797-9.536,1.355c-6.438-31.911-15.263-63.08-26.394-93.249
				c2.836-1.657,5.657-3.374,8.414-5.306c52.744-36.952,117.998-126.242,80.786-175.699
				c-70.628-93.868-143.72-53.237-196.465-16.285c-2.703,1.895-5.245,3.938-7.757,6.013c-20.835-23.031-43.683-44.371-68.404-63.85
				c1.738-2.85,3.439-5.736,4.978-8.766c16.169-31.845,17.595-66.954,6.917-96.801c-50.945,89.667-101.205,179.711-150.564,270.244
				c156.518,114.694,206.348,340.716,108.515,533.411c-82.905,163.29-247.706,254.98-408.622,243.49
				c-7.179,18.616-14.226,37.333-21.913,55.768c-20.859,50.032-44.555,99.032-68.283,147.969c14.924,2.813,29.91,5.027,44.94,6.601
				c-0.193,3.255-0.343,6.514-0.278,9.814c1.291,64.388,40.385,119.096,152.117,113.169c61.809-3.277,72.431-68.68,71.14-133.071
				c-0.068-3.364-0.347-6.654-0.681-9.923c30.925-8.814,61.296-20.086,90.858-33.717c1.405,2.873,2.864,5.726,4.533,8.496
				c31.943,53.019,142.758,75.543,195.504,38.588c52.746-36.956,27.447-119.391-4.496-172.408c-1.636-2.716-3.429-5.255-5.249-7.762
				c23.357-23.36,45.233-48.726,65.446-75.935c2.614,1.64,5.265,3.243,8.064,4.66c54.036,27.438,121.925,2.244,151.633-56.266
				c29.706-58.508,9.983-128.184-44.053-155.618c-2.801-1.423-5.658-2.616-8.523-3.758c10.039-32.376,17.608-65.007,22.684-97.646
				C2058.932,2400.83,2062.04,2400.778,2065.198,2400.497z"/>
			<path style="fill:#D8DEE8;" d="M1992.212,2720.74c54.037,27.436,121.924,2.245,151.632-56.267
				c29.707-58.51,9.984-128.183-44.053-155.62c-2.799-1.421-5.656-2.615-8.522-3.757c10.039-32.376,17.609-65.006,22.685-97.648
				c3.096-0.008,6.205-0.06,9.364-0.342c61.65-5.496,110.579-62.147,109.289-126.538c-1.29-64.391-52.315-112.135-113.965-106.64
				c-3.222,0.29-6.387,0.798-9.535,1.357c-6.439-31.91-15.263-63.081-26.395-93.249c2.836-1.659,5.658-3.374,8.415-5.305
				c52.744-36.952,69.608-109.888,37.665-162.903c-31.943-53.014-100.598-66.035-153.343-29.082
				c-2.702,1.894-5.245,3.939-7.758,6.014c-20.832-23.031-43.681-44.372-68.402-63.851c1.737-2.849,3.439-5.737,4.978-8.767
				c29.707-58.511,9.984-128.184-44.053-155.619c-54.037-27.436-121.924-2.245-151.632,56.265c-1.538,3.032-2.865,6.11-4.141,9.193
				c-30.314-8.464-61.027-14.316-91.913-17.546c0.192-3.253,0.342-6.512,0.278-9.812c-1.293-64.389-52.317-112.132-113.968-106.636
				c-61.651,5.495-110.582,62.149-109.29,126.536c0.068,3.367,0.349,6.656,0.683,9.924c-30.925,8.816-61.296,20.087-90.859,33.718
				c-1.405-2.872-2.863-5.726-4.531-8.5c-31.944-53.014-100.598-66.035-153.344-29.079
				c-52.745,36.956-69.608,109.888-37.665,162.903c1.636,2.715,3.429,5.256,5.249,7.761c-23.357,23.36-45.233,48.725-65.446,75.937
				c-2.614-1.64-5.264-3.243-8.065-4.663c-54.035-27.437-121.923-2.245-151.63,56.265c-29.708,58.511-9.984,128.185,44.053,155.62
				c2.799,1.422,5.658,2.616,8.523,3.759c-10.039,32.376-17.61,65.006-22.684,97.647c-3.098,0.009-6.207,0.061-9.364,0.339
				c-61.651,5.499-110.583,62.149-109.29,126.541c1.29,64.39,52.316,112.13,113.967,106.636c3.22-0.287,6.386-0.794,9.532-1.355
				c6.44,31.911,15.263,63.081,26.395,93.25c-2.835,1.658-5.658,3.373-8.414,5.305c-52.744,36.952-69.608,109.888-37.665,162.902
				c31.944,53.015,100.598,66.035,153.342,29.083c2.703-1.896,5.247-3.939,7.759-6.015c20.834,23.03,43.682,44.373,68.402,63.851
				c-1.736,2.85-3.438,5.737-4.978,8.768c-29.707,58.51-9.983,128.183,44.053,155.619c54.036,27.434,121.924,2.245,151.631-56.267
				c1.54-3.03,2.865-6.108,4.141-9.192c30.314,8.463,61.028,14.315,91.914,17.544c-0.192,3.253-0.343,6.513-0.278,9.814
				c1.293,64.387,52.316,112.132,113.967,106.636c61.65-5.496,110.582-62.149,109.289-126.538c-0.066-3.365-0.348-6.655-0.682-9.924
				c30.926-8.815,61.297-20.085,90.859-33.716c1.405,2.87,2.863,5.726,4.533,8.494c31.944,53.016,100.596,66.039,153.342,29.083
				c52.746-36.956,69.609-109.888,37.667-162.906c-1.638-2.713-3.43-5.253-5.251-7.759c23.358-23.359,45.233-48.726,65.448-75.936
				C1986.763,2717.716,1989.413,2719.318,1992.212,2720.74z M1318.594,2729.287c-196.195-99.613-267.806-352.579-159.945-565.019
				c107.861-212.438,354.344-303.902,550.539-204.29c196.195,99.613,267.804,352.579,159.945,565.019
				C1761.273,2737.437,1514.789,2828.899,1318.594,2729.287z"/>
		</g>
		<g>
			<path style="fill:#BCC1C9;" d="M2751.993,1450.396c31.087,15.784,70.141,1.292,87.232-32.369
				c17.091-33.66,5.743-73.743-25.344-89.526c-1.61-0.818-3.254-1.504-4.902-2.163c5.775-18.625,10.129-37.397,13.05-56.175
				c1.781-0.005,3.57-0.034,5.387-0.196c35.466-3.162,63.615-35.753,62.873-72.796c-0.742-37.044-30.096-64.51-65.563-61.349
				c-1.854,0.167-3.675,0.458-5.485,0.781c-3.705-18.357-8.782-36.29-15.185-53.645c1.631-0.955,3.254-1.941,4.84-3.052
				c30.343-21.257,40.045-63.216,21.669-93.716c-18.377-30.5-57.874-37.99-88.217-16.731c-1.555,1.09-3.018,2.266-4.463,3.46
				c-11.985-13.249-25.13-25.528-39.351-36.734c1-1.639,1.978-3.3,2.863-5.044c17.091-33.66,39.423-70.429,8.093-85.724
				c-72.476-35.381-103.577-5.093-120.667,28.567c-0.885,1.744-1.649,3.514-2.383,5.29c-17.439-4.87-35.108-8.237-52.877-10.095
				c0.112-1.87,0.198-3.746,0.16-5.644c-0.744-37.043,10.249-57.088-25.354-57.78c-77.634-1.509-103.828,32.186-103.084,69.228
				c0.038,1.937,0.2,3.829,0.393,5.71c-17.791,5.071-35.264,11.555-52.27,19.397c-0.809-1.651-1.647-3.295-2.608-4.89
				c-18.376-30.499-57.872-37.988-88.217-16.729c-30.344,21.26-40.046,63.218-21.669,93.717c0.941,1.563,1.973,3.023,3.021,4.465
				c-13.438,13.439-26.022,28.032-37.651,43.686c-1.504-0.944-3.03-1.865-4.64-2.682c-31.087-15.784-70.143-1.292-87.232,32.369
				c-17.091,33.66-5.744,73.743,25.343,89.526c1.611,0.818,3.255,1.505,4.904,2.161c-5.776,18.626-10.131,37.397-13.051,56.177
				c-1.782,0.005-3.57,0.034-5.386,0.195c-35.469,3.164-63.617,35.754-62.875,72.798c0.742,37.042,30.098,64.509,65.565,61.346
				c1.852-0.164,3.674-0.456,5.484-0.78c3.705,18.358,8.781,36.29,15.185,53.646c-1.631,0.955-3.255,1.941-4.84,3.053
				c-30.343,21.258-40.046,63.217-21.669,93.716c18.377,30.5,79.216,44.669,109.56,23.41c1.555-1.089-18.326-8.945-16.879-10.14
				c11.985,13.249,25.13,25.527,39.351,36.732c-1,1.641-1.979,3.301-2.864,5.045c-17.091,33.66-5.744,73.743,25.343,89.526
				c31.087,15.782,70.143,1.291,87.232-32.369c0.886-1.744,1.648-3.516,2.382-5.29c17.439,4.87,35.108,8.236,52.877,10.094
				c-0.11,1.871-0.197,3.747-0.159,5.645c0.743,37.042,30.097,64.509,65.565,61.346c35.466-3.161,63.617-35.754,62.873-72.795
				c-0.04-1.936-0.202-3.828-0.393-5.71c17.791-5.071,35.263-11.554,52.27-19.396c0.808,1.652,1.648,3.293,2.608,4.887
				c18.377,30.499,57.872,37.991,88.217,16.731c30.344-21.26,40.044-63.218,21.669-93.718c-0.941-1.562-1.973-3.023-3.02-4.465
				c13.438-13.438,26.022-28.032,37.65-43.685C2748.858,1448.657,2750.382,1449.58,2751.993,1450.396z M2364.466,1455.315
				c-112.869-57.307-154.066-202.836-92.014-325.051c62.05-122.214,203.85-174.833,316.721-117.526
				c112.869,57.307,154.065,202.835,92.014,325.05C2619.135,1460.002,2477.335,1512.621,2364.466,1455.315z"/>
			<path style="fill:#BCC1C9;" d="M2827.417,1269.967c35.466-3.162,63.615-35.754,62.873-72.798
				c-0.742-37.043-30.096-64.51-65.563-61.346c-1.854,0.164-3.675,0.458-5.485,0.78c-3.705-18.358-8.782-36.289-15.185-53.645
				c1.631-0.954,3.254-1.941,4.84-3.052c30.343-21.259,67.884-72.626,46.477-101.078c-40.632-54.002-82.681-30.628-113.025-9.369
				c-1.555,1.09-3.018,2.266-4.463,3.459c-11.985-13.249-25.13-25.526-39.351-36.732c1-1.639,1.978-3.3,2.863-5.042
				c9.302-18.32,10.122-38.519,3.979-55.69c-29.308,51.585-58.222,103.387-86.619,155.47
				c90.044,65.982,118.711,196.011,62.428,306.866c-47.695,93.94-142.503,146.688-235.077,140.078
				c-4.13,10.709-8.184,21.476-12.607,32.083c-12,28.783-25.632,56.972-39.282,85.125c8.585,1.618,17.207,2.892,25.853,3.797
				c-0.11,1.873-0.197,3.748-0.159,5.647c0.743,37.042,23.233,68.515,87.512,65.105c35.557-1.886,41.669-39.512,40.926-76.555
				c-0.04-1.934-0.2-3.827-0.392-5.708c17.79-5.071,35.262-11.555,52.269-19.397c0.808,1.653,1.648,3.294,2.608,4.888
				c18.377,30.5,82.127,43.459,112.471,22.199c30.344-21.26,15.79-68.685-2.586-99.185c-0.941-1.563-1.973-3.023-3.02-4.466
				c13.438-13.438,26.022-28.031,37.65-43.683c1.505,0.944,3.029,1.865,4.64,2.681c31.087,15.785,70.141,1.291,87.232-32.369
				c17.091-33.659,5.744-73.743-25.343-89.525c-1.611-0.819-3.255-1.506-4.903-2.163c5.775-18.625,10.129-37.398,13.05-56.174
				C2823.811,1270.158,2825.6,1270.127,2827.417,1269.967z"/>
			<path style="fill:#D8DEE8;" d="M2785.428,1454.199c31.087,15.784,70.141,1.291,87.232-32.369
				c17.091-33.661,5.744-73.743-25.344-89.526c-1.609-0.818-3.254-1.506-4.902-2.163c5.775-18.625,10.13-37.397,13.05-56.175
				c1.783-0.005,3.57-0.035,5.387-0.198c35.468-3.161,63.615-35.751,62.873-72.795c-0.742-37.043-30.096-64.51-65.564-61.349
				c-1.853,0.167-3.674,0.458-5.485,0.781c-3.705-18.358-8.781-36.29-15.185-53.645c1.632-0.955,3.254-1.942,4.84-3.053
				c30.343-21.257,40.046-63.216,21.669-93.717c-18.376-30.499-57.872-37.988-88.217-16.73c-1.555,1.089-3.018,2.265-4.463,3.459
				c-11.985-13.249-25.129-25.527-39.351-36.732c1-1.64,1.978-3.301,2.864-5.044c17.091-33.66,5.744-73.743-25.343-89.526
				c-31.086-15.784-70.141-1.291-87.232,32.369c-0.885,1.744-1.648,3.515-2.382,5.289c-17.439-4.868-35.108-8.236-52.877-10.094
				c0.111-1.871,0.197-3.745,0.159-5.644c-0.743-37.042-30.096-64.509-65.565-61.347c-35.466,3.161-63.616,35.754-62.873,72.795
				c0.039,1.937,0.2,3.83,0.393,5.71c-17.791,5.071-35.263,11.555-52.27,19.397c-0.808-1.652-1.647-3.294-2.607-4.889
				c-18.377-30.499-57.874-37.99-88.219-16.73c-30.344,21.261-40.044,63.219-21.667,93.718c0.942,1.561,1.973,3.023,3.019,4.464
				c-13.436,13.439-26.022,28.032-37.65,43.686c-1.505-0.944-3.029-1.865-4.64-2.682c-31.087-15.785-70.141-1.292-87.231,32.369
				c-17.092,33.66-5.744,73.743,25.341,89.526c1.611,0.818,3.255,1.505,4.904,2.162c-5.776,18.626-10.131,37.397-13.05,56.176
				c-1.783,0.005-3.571,0.034-5.387,0.195c-35.468,3.163-63.617,35.754-62.874,72.798c0.742,37.042,30.097,64.507,65.564,61.346
				c1.852-0.164,3.674-0.456,5.484-0.78c3.705,18.358,8.781,36.29,15.185,53.647c-1.63,0.953-3.254,1.941-4.84,3.052
				c-30.343,21.257-40.045,63.216-21.669,93.715c18.376,30.5,57.874,37.99,88.217,16.731c1.555-1.09,3.018-2.265,4.463-3.46
				c11.985,13.249,25.13,25.528,39.351,36.732c-0.998,1.641-1.978,3.301-2.863,5.045c-17.091,33.66-5.743,73.743,25.342,89.526
				c31.087,15.783,70.143,1.291,87.233-32.37c0.885-1.743,1.648-3.514,2.382-5.288c17.44,4.87,35.109,8.236,52.878,10.094
				c-0.111,1.872-0.198,3.747-0.16,5.646c0.744,37.041,30.097,64.509,65.565,61.346c35.466-3.161,63.617-35.754,62.873-72.795
				c-0.038-1.936-0.2-3.828-0.393-5.71c17.792-5.071,35.264-11.554,52.27-19.396c0.808,1.65,1.648,3.293,2.608,4.887
				c18.376,30.499,57.872,37.991,88.217,16.731c30.344-21.26,40.044-63.218,21.669-93.718c-0.941-1.562-1.973-3.023-3.021-4.464
				c13.438-13.438,26.022-28.032,37.652-43.685C2782.293,1452.46,2783.817,1453.381,2785.428,1454.199z M2397.902,1459.116
				c-112.869-57.306-154.067-202.835-92.015-325.05s203.852-174.833,316.721-117.526c112.869,57.307,154.066,202.835,92.014,325.049
				C2652.572,1463.805,2510.771,1516.422,2397.902,1459.116z"/>
		</g>
		<g>
			<path style="opacity:0.75;fill:#F4F7FA;" d="M2707.13,1707.42c0-390.538-332.494-707.134-742.647-707.134
				s-742.647,316.595-742.647,707.134c0,237.009,122.466,446.775,310.426,575.078c79.741,54.431,128.101,144.147,128.101,240.695
				v54.114c0,117.578,95.315,212.893,212.893,212.893h182.454c117.577,0,212.892-95.315,212.892-212.893v-54.114
				c0-96.548,48.36-186.263,128.101-240.695C2584.664,2154.195,2707.13,1944.429,2707.13,1707.42z"/>
			<linearGradient id="SVGID_1_" gradientUnits="userSpaceOnUse" x1="1949.0135" y1="3229.238" x2="1962.203" y2="3123.7217">
				<stop  offset="0.0036" style="stop-color:#26264F"/>
				<stop  offset="1" style="stop-color:#444B8C"/>
			</linearGradient>
			<ellipse style="fill:url(#SVGID_1_);" cx="1964.483" cy="3105.484" rx="164.739" ry="87.218"/>
			
				<linearGradient id="SVGID_00000020382776921530513830000000873695443906727603_" gradientUnits="userSpaceOnUse" x1="1894.7687" y1="3133.0686" x2="2026.6642" y2="2895.6565">
				<stop  offset="0.0036" style="stop-color:#26264F"/>
				<stop  offset="1" style="stop-color:#444B8C"/>
			</linearGradient>
			<path style="fill:url(#SVGID_00000020382776921530513830000000873695443906727603_);" d="M1745.605,2949.679v89.069
				c0,30.134,17.149,57.744,44.348,70.716c37.761,18.008,100.542,37.771,191.784,35.433c74.021-1.897,122.289-13.986,152.976-26.685
				c29.646-12.269,48.648-41.584,48.648-73.668v-49.281L1745.605,2949.679z"/>
			
				<linearGradient id="SVGID_00000029763890854257410080000004346940919630401971_" gradientUnits="userSpaceOnUse" x1="1745.6049" y1="3020.5598" x2="2183.3611" y2="3020.5598">
				<stop  offset="0.0036" style="stop-color:#26264F"/>
				<stop  offset="1" style="stop-color:#444B8C"/>
			</linearGradient>
			<path style="opacity:0.3;fill:url(#SVGID_00000029763890854257410080000004346940919630401971_);" d="M1745.605,3027.694
				c6.671,6.486,14.399,11.989,23.077,16.127c42.363,20.203,319.846,65.342,386.779,40.193c8.693-3.265,16.513-7.635,23.361-12.906
				c2.929-8.411,4.539-17.363,4.539-26.566v-49.281l-437.756-45.583V3027.694z"/>
			
				<linearGradient id="SVGID_00000141420155346286945340000000164811012327697559_" gradientUnits="userSpaceOnUse" x1="1907.3236" y1="3068.1936" x2="2037.5709" y2="2817.5916">
				<stop  offset="0.0036" style="stop-color:#26264F"/>
				<stop  offset="1" style="stop-color:#444B8C"/>
			</linearGradient>
			<path style="fill:url(#SVGID_00000141420155346286945340000000164811012327697559_);" d="M1765.039,2889.079
				c-24.654-2.568-46.11,16.77-46.11,41.558v2.524c0,33.807,19.239,64.782,49.753,79.335
				c42.363,20.203,319.845,65.343,386.779,40.193c33.695-12.66,54.576-41.589,54.576-77.583v-2.032
				c0-21.401-16.17-39.342-37.455-41.558L1765.039,2889.079z"/>
			
				<linearGradient id="SVGID_00000154403359037862806190000012456437067966787740_" gradientUnits="userSpaceOnUse" x1="1725.9917" y1="2946.781" x2="2202.7566" y2="2946.781">
				<stop  offset="0.0036" style="stop-color:#26264F"/>
				<stop  offset="1" style="stop-color:#444B8C"/>
			</linearGradient>
			<path style="opacity:0.3;fill:url(#SVGID_00000154403359037862806190000012456437067966787740_);" d="M2172.582,2931.516
				l-407.543-42.438c-16.079-1.675-30.753,5.999-39.047,18.393c8.187,19.292,23.094,35.428,42.69,44.773
				c42.363,20.203,331.663,71.229,386.779,45.258c21.454-10.111,38.279-27.177,47.296-47.925
				C2196.04,2939.728,2185.231,2932.833,2172.582,2931.516z"/>
			
				<linearGradient id="SVGID_00000114069399373132644880000007737035689032332162_" gradientUnits="userSpaceOnUse" x1="1718.9286" y1="2860.6377" x2="2210.0369" y2="2860.6377">
				<stop  offset="0.0036" style="stop-color:#26264F"/>
				<stop  offset="1" style="stop-color:#444B8C"/>
			</linearGradient>
			<path style="fill:url(#SVGID_00000114069399373132644880000007737035689032332162_);" d="M1749.094,2744.775
				c-16.66,0-30.165,13.506-30.165,30.166v69.758c0,33.806,19.239,64.782,49.753,79.334
				c42.363,20.203,331.663,71.229,386.779,45.257c32.56-15.344,54.576-46.652,54.576-82.647v-111.702
				c0-16.66-13.506-30.166-30.165-30.166H1749.094z"/>
			
				<linearGradient id="SVGID_00000032612463327340440120000011661925682365317783_" gradientUnits="userSpaceOnUse" x1="1952.2864" y1="2823.5935" x2="2000.6482" y2="2597.1729">
				<stop  offset="0.0036" style="stop-color:#26264F"/>
				<stop  offset="1" style="stop-color:#444B8C"/>
			</linearGradient>
			
				<ellipse style="fill:url(#SVGID_00000032612463327340440120000011661925682365317783_);" cx="1964.483" cy="2766.491" rx="239.48" ry="56.619"/>
			
				<linearGradient id="SVGID_00000049939579396115751020000013195326249685298067_" gradientUnits="userSpaceOnUse" x1="1859.4124" y1="1560.1965" x2="2818.9009" y2="3083.5083">
				<stop  offset="0" style="stop-color:#FCB148"/>
				<stop  offset="0.0521" style="stop-color:#FDBA46"/>
				<stop  offset="0.1424" style="stop-color:#FFC244"/>
				<stop  offset="0.3183" style="stop-color:#FFC444"/>
				<stop  offset="0.4849" style="stop-color:#FDB946"/>
				<stop  offset="0.7754" style="stop-color:#F99C4D"/>
				<stop  offset="0.8658" style="stop-color:#F8924F"/>
				<stop  offset="1" style="stop-color:#F8924F"/>
			</linearGradient>
			<path style="fill:url(#SVGID_00000049939579396115751020000013195326249685298067_);" d="M2707.13,1707.42
				c0-390.538-332.494-707.134-742.647-707.134s-742.647,316.595-742.647,707.134c0,237.009,122.466,446.775,310.426,575.078
				c79.741,54.431,128.101,144.147,128.101,240.695v54.114c0,117.578,95.315,212.893,212.893,212.893h182.454
				c117.577,0,212.892-95.315,212.892-212.893v-54.114c0-96.548,48.36-186.263,128.101-240.695
				C2584.664,2154.195,2707.13,1944.429,2707.13,1707.42z"/>
			<ellipse style="opacity:0.5;fill:#F4F7FA;" cx="1964.483" cy="2721.846" rx="175.233" ry="41.43"/>
			<g>
				
					<linearGradient id="SVGID_00000036238117113137024680000017350527065409693851_" gradientUnits="userSpaceOnUse" x1="1684.1257" y1="2733.1284" x2="1879.7709" y2="2161.5815">
					<stop  offset="0.494" style="stop-color:#EBEFF2"/>
					<stop  offset="1" style="stop-color:#FFFFFF"/>
				</linearGradient>
				<path style="fill:url(#SVGID_00000036238117113137024680000017350527065409693851_);" d="M1918.818,2747.164
					c-5.018,0-9.375-3.729-10.032-8.836l-128.913-1002.526c-0.712-5.547,3.206-10.621,8.754-11.333
					c5.558-0.747,10.621,3.204,11.335,8.752l128.913,1002.526c0.712,5.548-3.207,10.621-8.755,11.333
					C1919.683,2747.139,1919.248,2747.164,1918.818,2747.164z"/>
				
					<linearGradient id="SVGID_00000049183701354967025520000015745062819545109906_" gradientUnits="userSpaceOnUse" x1="1871.1683" y1="2797.1543" x2="2066.8137" y2="2225.6072">
					<stop  offset="0.494" style="stop-color:#EBEFF2"/>
					<stop  offset="1" style="stop-color:#FFFFFF"/>
				</linearGradient>
				<path style="fill:url(#SVGID_00000049183701354967025520000015745062819545109906_);" d="M1998.888,2747.164
					c-0.43,0-0.865-0.025-1.303-0.084c-5.547-0.712-9.466-5.785-8.754-11.333l128.915-1002.526
					c0.715-5.548,5.783-9.503,11.335-8.752c5.548,0.712,9.466,5.785,8.755,11.333l-128.916,1002.526
					C2008.263,2743.436,2003.907,2747.164,1998.888,2747.164z"/>
				
					<linearGradient id="SVGID_00000020384226907560541950000007125461473589500321_" gradientUnits="userSpaceOnUse" x1="1615.9968" y1="2709.8083" x2="1811.6422" y2="2138.261">
					<stop  offset="0.494" style="stop-color:#EBEFF2"/>
					<stop  offset="1" style="stop-color:#FFFFFF"/>
				</linearGradient>
				<path style="fill:url(#SVGID_00000020384226907560541950000007125461473589500321_);" d="M2103.877,1734.991
					c-3.291,0-6.52-1.602-8.465-4.554l-35.579-53.975c-0.366-0.554-0.929-0.875-1.444-0.811c-0.882,0.02-1.256,0.648-1.376,0.851
					l-23.49,39.344c-3.894,6.517-10.717,10.522-18.255,10.71c-7.491,0.243-14.572-3.476-18.797-9.805l-32.254-48.358
					c-0.351-0.524-0.821-0.796-1.394-0.801c-0.685,0.129-1.006,0.242-1.35,0.737l-28.335,40.956
					c-4.092,5.919-10.801,9.459-17.949,9.474c-0.015,0-0.03,0-0.044,0c-7.145,0-13.868-3.521-17.989-9.429l-40.849-58.519
					c-0.369-0.529-0.888-0.712-1.442-0.766c-0.583,0.025-1.041,0.321-1.362,0.875l-37.285,64.364
					c-2.801,4.836-9.001,6.487-13.837,3.684c-4.841-2.804-6.49-8.999-3.686-13.84l37.285-64.364
					c3.792-6.541,10.535-10.636,18.035-10.952c7.442-0.381,14.569,3.205,18.901,9.41l40.847,58.52
					c0.354,0.504,0.819,0.766,1.38,0.766h0.003c0.549-0.005,0.999-0.253,1.34-0.742l28.335-40.956
					c4.146-5.988,10.973-9.553,18.177-9.469c7.256,0.064,14.013,3.733,18.073,9.82l32.251,48.353
					c0.363,0.544,0.907,0.999,1.444,0.797c0.878-0.02,1.248-0.643,1.37-0.846l23.489-39.344
					c3.909-6.542,10.757-10.547,18.319-10.715c7.487-0.168,14.602,3.54,18.802,9.914l35.579,53.975
					c3.078,4.667,1.787,10.947-2.883,14.027C2107.724,1734.452,2105.791,1734.991,2103.877,1734.991z"/>
			</g>
			
				<linearGradient id="SVGID_00000151525407236293195890000017516725187921334400_" gradientUnits="userSpaceOnUse" x1="1893.0829" y1="1216.829" x2="1701.8341" y2="2792.9797">
				<stop  offset="0" style="stop-color:#FCB148"/>
				<stop  offset="0.0521" style="stop-color:#FDBA46"/>
				<stop  offset="0.1424" style="stop-color:#FFC244"/>
				<stop  offset="0.3183" style="stop-color:#FFC444"/>
				<stop  offset="0.4849" style="stop-color:#FDB946"/>
				<stop  offset="0.7754" style="stop-color:#F99C4D"/>
				<stop  offset="0.8658" style="stop-color:#F8924F"/>
				<stop  offset="1" style="stop-color:#F8924F"/>
			</linearGradient>
			<path style="opacity:0.3;fill:url(#SVGID_00000151525407236293195890000017516725187921334400_);" d="M1977.96,2265.185
				c15.909-272.553,475.384-336.339,473.415-579.744c-1.212-149.912-183.796-261.245-222.783-283.543
				c-287.286-164.311-640.892,25.433-713.92-108.86c-18.183-33.435-9.657-69.832-4.803-90.56
				c7.338-31.326,23.952-60.505,48.597-87.193c-202.689,126.265-336.63,344.29-336.63,592.135
				c0,237.009,122.465,446.776,310.426,575.078c79.742,54.433,128.101,144.147,128.101,240.695v54.114
				c0,117.577,95.316,212.892,212.893,212.892h182.454c117.577,0,212.892-95.315,212.892-212.892v-43.265
				c-25.112,19.245-53.953,32.667-85.579,32.407C2073.287,2565.547,1970.043,2400.815,1977.96,2265.185z"/>
			<g>
				
					<linearGradient id="SVGID_00000169560453502519006600000007356334250667087521_" gradientUnits="userSpaceOnUse" x1="1923.7817" y1="1263.8115" x2="2009.6072" y2="1013.0859">
					<stop  offset="0" style="stop-color:#FCB148"/>
					<stop  offset="0.0521" style="stop-color:#FDBA46"/>
					<stop  offset="0.1424" style="stop-color:#FFC244"/>
					<stop  offset="0.3183" style="stop-color:#FFC444"/>
					<stop  offset="0.4849" style="stop-color:#FDB946"/>
					<stop  offset="0.7754" style="stop-color:#F99C4D"/>
					<stop  offset="0.8658" style="stop-color:#F8924F"/>
					<stop  offset="1" style="stop-color:#F8924F"/>
				</linearGradient>
				<path style="fill:url(#SVGID_00000169560453502519006600000007356334250667087521_);" d="M2272.958,1173.182
					c-4.316-0.005-8.702-1.084-12.8-3.344c-84.228-46.549-181.436-72.077-281.586-73.104
					c-102.558-1.051-207.013,23.598-301.712,72.114c-15.586,7.971-34.909,2.051-43.127-13.295
					c-8.237-15.382-2.164-34.298,13.525-42.21c104.264-52.569,218.975-78.794,331.314-76.838
					c109.455,1.906,215.484,30.548,307.193,81.97c13.433,7.531,18.604,25.062,11.579,39.205
					C2292.443,1167.55,2282.878,1173.194,2272.958,1173.182z"/>
				
					<linearGradient id="SVGID_00000087384130463917207810000011673416634076447899_" gradientUnits="userSpaceOnUse" x1="1925.0703" y1="1260.0474" x2="2009.6072" y2="1013.0859">
					<stop  offset="0" style="stop-color:#FCB148"/>
					<stop  offset="0.0521" style="stop-color:#FDBA46"/>
					<stop  offset="0.1424" style="stop-color:#FFC244"/>
					<stop  offset="0.3183" style="stop-color:#FFC444"/>
					<stop  offset="0.4849" style="stop-color:#FDB946"/>
					<stop  offset="0.7754" style="stop-color:#F99C4D"/>
					<stop  offset="0.8658" style="stop-color:#F8924F"/>
					<stop  offset="1" style="stop-color:#F8924F"/>
				</linearGradient>
				<path style="opacity:0.3;fill:url(#SVGID_00000087384130463917207810000011673416634076447899_);" d="M1638.381,1161.911
					c2.482-2.689,5.401-5.063,8.877-6.832c104.264-53.068,218.975-79.841,331.314-78.421
					c109.455,1.383,215.484,29.518,307.193,80.503c3,1.668,5.516,3.893,7.647,6.409c1.498-1.754,2.846-3.7,3.932-5.888
					c7.025-14.144,1.853-31.675-11.579-39.205c-91.708-51.422-197.738-80.064-307.193-81.97
					c-112.339-1.956-227.05,24.269-331.314,76.838c-15.689,7.912-21.761,26.828-13.525,42.21
					C1635.009,1157.934,1636.625,1160.003,1638.381,1161.911z"/>
				<path style="opacity:0.79;fill:#F4F7FA;" d="M2272.958,1182.869c-5.896,0-11.803-1.535-17.078-4.437
					c-82.976-45.743-178.709-70.767-277.308-71.66c-100.935-0.914-203.687,23.464-296.798,71.292
					c-20.738,10.636-46.581,2.729-57.53-17.685c-10.991-20.493-2.857-45.804,18.059-56.326
					c105.867-53.23,222.296-79.707,336.269-77.586c111.004,2.066,218.495,31.24,311.446,83.478
					c8.656,4.868,15.02,12.974,17.923,22.835c2.904,9.848,2.014,20.289-2.509,29.405
					C2299.108,1174.935,2286.674,1182.869,2272.958,1182.869z M1978.572,1086.696c101.703,1.164,200.386,27.205,285.867,74.557
					c2.672,1.484,5.54,2.235,8.519,2.242c6.87,0.017,13.108-3.942,16.282-10.327c2.271-4.566,2.718-9.799,1.261-14.733
					c-1.461-4.942-4.652-8.998-8.99-11.421c-90.47-50.609-195.034-78.722-302.938-80.471
					c-110.708-1.796-223.708,24.18-326.367,76.079c-10.423,5.271-14.466,17.894-9.001,28.115
					c5.454,10.201,18.362,14.173,28.745,8.884C1768.219,1110.427,1874.379,1085.504,1978.572,1086.696z"/>
			</g>
			<g>
				
					<linearGradient id="SVGID_00000016076639813109272420000015705269282690051475_" gradientUnits="userSpaceOnUse" x1="1819.0835" y1="926.8808" x2="1464.6145" y2="1040.6406">
					<stop  offset="0" style="stop-color:#FCB148"/>
					<stop  offset="0.0521" style="stop-color:#FDBA46"/>
					<stop  offset="0.1424" style="stop-color:#FFC244"/>
					<stop  offset="0.3183" style="stop-color:#FFC444"/>
					<stop  offset="0.4849" style="stop-color:#FDB946"/>
					<stop  offset="0.7754" style="stop-color:#F99C4D"/>
					<stop  offset="0.8658" style="stop-color:#F8924F"/>
					<stop  offset="1" style="stop-color:#F8924F"/>
				</linearGradient>
				<path style="fill:url(#SVGID_00000016076639813109272420000015705269282690051475_);" d="M2227.153,914.019
					c0,164.442-128.584,293.801-292.929,288.754c-171.034-5.252-314.88-152.965-314.88-329.731
					c0-176.765,143.846-305.083,314.88-287.274C2098.569,602.88,2227.153,749.576,2227.153,914.019z"/>
				
					<linearGradient id="SVGID_00000129164950890002778130000010987567320183657402_" gradientUnits="userSpaceOnUse" x1="2105.8284" y1="574.0427" x2="1789.3804" y2="1272.186">
					<stop  offset="0" style="stop-color:#FFDB44"/>
					<stop  offset="1" style="stop-color:#FEEF06"/>
				</linearGradient>
				<path style="fill:url(#SVGID_00000129164950890002778130000010987567320183657402_);" d="M2271.562,899.84
					c0,164.443-128.584,293.801-292.929,288.754c-171.034-5.252-314.88-152.966-314.88-329.731
					c0-176.765,143.845-305.084,314.88-287.274C2142.978,588.702,2271.562,735.397,2271.562,899.84z"/>
				
					<linearGradient id="SVGID_00000004511480785133619100000016295195611713727138_" gradientUnits="userSpaceOnUse" x1="2047.6176" y1="1311.2051" x2="1986.5583" y2="977.6404">
					<stop  offset="0" style="stop-color:#FCB148"/>
					<stop  offset="0.0521" style="stop-color:#FDBA46"/>
					<stop  offset="0.1424" style="stop-color:#FFC244"/>
					<stop  offset="0.3183" style="stop-color:#FFC444"/>
					<stop  offset="0.4849" style="stop-color:#FDB946"/>
					<stop  offset="0.7754" style="stop-color:#F99C4D"/>
					<stop  offset="0.8658" style="stop-color:#F8924F"/>
					<stop  offset="1" style="stop-color:#F8924F"/>
				</linearGradient>
				<path style="fill:url(#SVGID_00000004511480785133619100000016295195611713727138_);" d="M2258.663,898.97
					c0,157.201-123.031,280.654-280.03,275.57c-163.092-5.281-300.024-146.25-300.024-314.675
					c0-168.425,136.932-290.932,300.024-274.222C2135.631,601.727,2258.663,741.769,2258.663,898.97z"/>
				
					<linearGradient id="SVGID_00000172406190823579827800000013793832856763843719_" gradientUnits="userSpaceOnUse" x1="1918.16" y1="771.294" x2="2169.7935" y2="1305.4637">
					<stop  offset="0" style="stop-color:#FCB148"/>
					<stop  offset="0.0521" style="stop-color:#FDBA46"/>
					<stop  offset="0.1424" style="stop-color:#FFC244"/>
					<stop  offset="0.3183" style="stop-color:#FFC444"/>
					<stop  offset="0.4849" style="stop-color:#FDB946"/>
					<stop  offset="0.7754" style="stop-color:#F99C4D"/>
					<stop  offset="0.8658" style="stop-color:#F8924F"/>
					<stop  offset="1" style="stop-color:#F8924F"/>
				</linearGradient>
				<path style="fill:url(#SVGID_00000172406190823579827800000013793832856763843719_);" d="M2249.423,898.347
					c0,152.014-119.048,271.25-270.791,266.155c-157.428-5.285-289.444-141.439-289.444-303.925
					c0-162.486,132.016-280.839,289.444-264.897C2130.375,611.046,2249.423,746.333,2249.423,898.347z"/>
				<g>
					
						<linearGradient id="SVGID_00000060726482699779089810000005712225685086615937_" gradientUnits="userSpaceOnUse" x1="1908.1349" y1="656.3475" x2="2034.6649" y2="1130.5597">
						<stop  offset="0" style="stop-color:#FFDB44"/>
						<stop  offset="1" style="stop-color:#FEEF06"/>
					</linearGradient>
					<path style="fill:url(#SVGID_00000060726482699779089810000005712225685086615937_);" d="M1977.079,647.395L1977.079,647.395
						c8.075,0.768,14.61,8.037,14.61,16.238v27.989c16.146,1.802,32.315,4.609,48.508,8.415
						c11.939,2.805,23.798,6.146,35.576,10.018c7.058,2.32,11.867,9.446,11.147,16.796l-3.437,35.097
						c-0.912,9.312-10.117,14.78-18.782,10.915c-7.759-3.459-15.714-6.423-23.867-8.89c-14.226-4.305-29.23-7.112-45.017-8.413
						l-4.128-0.34v80.155c42.124,11.785,73.059,27.64,93.051,47.582c19.896,19.846,29.809,44.579,29.809,74.273
						c0,32.111-10.959,57.823-32.965,77.214c-22.123,19.496-53.141,30.461-93.251,32.834v30.892c0,8.204-6.54,14.595-14.622,14.273
						l-0.26-0.01c-8.098-0.322-14.675-7.258-14.675-15.49v-30.473l-6.509-0.294c-18.804-0.849-36.815-2.766-54.023-5.76
						c-12.745-2.216-25.19-5.078-37.333-8.586c-7.344-2.122-12.385-9.117-11.711-16.633l4.044-45.115
						c0.874-9.753,10.671-15.428,19.945-11.77c10.81,4.264,21.755,7.856,32.833,10.777c17.265,4.553,34.764,7.473,52.494,8.77
						l0.26-89.162c-40.434-10.005-70.706-24.824-90.594-44.453c-19.982-19.721-30.008-44.96-30.008-75.646
						c0-31.757,10.872-56.27,32.533-73.474c21.551-17.116,52.187-25.632,91.711-25.611v-28.613
						C1962.417,652.673,1968.988,646.627,1977.079,647.395z M1962.417,754.391c-12.496,0.909-22.241,4.341-29.216,10.3
						c-6.986,5.97-10.483,13.991-10.483,24.06c0,9.539,3.235,17.512,9.698,23.912c6.453,6.39,16.462,11.493,30.001,15.305V754.391z
						 M1988.333,915.844v81.765c13.585,0.027,24.001-3.217,31.273-9.721c7.259-6.493,10.884-15.665,10.884-27.524
						c0-10.812-3.369-19.78-10.115-26.91C2013.618,926.31,2002.947,920.442,1988.333,915.844z"/>
				</g>
				
					<linearGradient id="SVGID_00000044156891414822332840000002328150149538631338_" gradientUnits="userSpaceOnUse" x1="1844.1304" y1="805.8629" x2="2095.2563" y2="1338.9554">
					<stop  offset="0" style="stop-color:#FCB148"/>
					<stop  offset="0.0521" style="stop-color:#FDBA46"/>
					<stop  offset="0.1424" style="stop-color:#FFC244"/>
					<stop  offset="0.3183" style="stop-color:#FFC444"/>
					<stop  offset="0.4849" style="stop-color:#FDB946"/>
					<stop  offset="0.7754" style="stop-color:#F99C4D"/>
					<stop  offset="0.8658" style="stop-color:#F8924F"/>
					<stop  offset="1" style="stop-color:#F8924F"/>
				</linearGradient>
				<path style="opacity:0.3;fill:url(#SVGID_00000044156891414822332840000002328150149538631338_);" d="M1929.63,935.573
					c9.149-90.362,92.196-128.615,81.358-211.734c-6.679-51.229-45.509-94.403-88.824-128.113
					c-131.381,13.778-232.975,122.566-232.975,264.853c0,162.486,132.016,298.639,289.444,303.925
					c15.285,0.513,30.214-0.281,44.729-2.184C1960.841,1100.105,1921.77,1013.206,1929.63,935.573z"/>
			</g>
			<ellipse style="opacity:0.44;fill:#F4F7FA;" cx="1976.361" cy="1734.991" rx="639.062" ry="616.306"/>
			<path style="opacity:0.79;fill:#F4F7FA;" d="M1741.563,1128.896c6.339,5.223,12.835,10.246,19.538,14.984
				c70.558-25.111,144.476-37.769,217.471-37.109c60.538,0.551,119.934,10.343,176.017,28.308
				c6.326-4.611,12.446-9.483,18.352-14.603c-61.53-21.394-127.286-33.012-194.368-33.779
				C1898.954,1085.785,1818.188,1100.131,1741.563,1128.896z"/>
		</g>
		<g>
			<g>
				<path style="fill:#999999;" d="M1421.12,3191.389c-2.181,0-3.95-1.767-3.95-3.948V2121.084c0-2.181,1.769-3.948,3.95-3.948
					c2.181,0,3.95,1.767,3.95,3.948v1066.357C1425.07,3189.622,1423.301,3191.389,1421.12,3191.389z"/>
			</g>
			<g>
				<path style="fill:#999999;" d="M1133.833,3124.402c-2.181,0-3.95-1.767-3.95-3.948V2094.195c0-2.181,1.769-3.948,3.95-3.948
					c2.181,0,3.95,1.767,3.95,3.948v1026.259C1137.782,3122.635,1136.014,3124.402,1133.833,3124.402z"/>
			</g>
			<g>
				<path style="fill:#999999;" d="M469.635,3172.194c-0.448,0-0.902-0.077-1.348-0.239c-2.05-0.744-3.108-3.009-2.364-5.059
					l384.034-1058.178c0.742-2.05,3-3.113,5.06-2.366c2.05,0.744,3.108,3.009,2.364,5.059L473.348,3169.589
					C472.765,3171.195,471.249,3172.194,469.635,3172.194z"/>
			</g>
			<g>
				<path style="fill:#999999;" d="M753.145,3255c-0.387,0-0.779-0.057-1.168-0.178c-2.083-0.643-3.251-2.854-2.607-4.937
					l344.672-1115.664c0.643-2.087,2.856-3.258,4.939-2.608c2.083,0.643,3.251,2.854,2.607,4.938L756.916,3252.213
					C756.392,3253.909,754.831,3255,753.145,3255z"/>
			</g>
			<polygon style="fill:#999999;" points="1136.992,2093.13 1425.184,2114.459 1425.184,2120.943 1095.823,2135.706 
				849.65,2105.543 849.65,2099.061 			"/>
			<polygon style="fill:#C2C2C2;" points="1136.992,2086.648 1425.184,2114.459 1095.823,2129.225 849.65,2099.061 			"/>
			<g>
				<path style="fill:#999999;" d="M827.713,3013.641c-0.333,0-0.67-0.044-1.006-0.131l-274.405-71.992
					c-2.109-0.552-3.371-2.713-2.817-4.823c0.554-2.114,2.716-3.369,4.823-2.817l274.405,71.992
					c2.109,0.552,3.371,2.713,2.817,4.823C831.063,3012.466,829.463,3013.641,827.713,3013.641z"/>
			</g>
			<g>
				<path style="fill:#999999;" d="M905.446,2761.094c-0.229,0-0.461-0.02-0.693-0.064l-269.305-47.685
					c-2.147-0.38-3.581-2.427-3.201-4.577c0.38-2.144,2.437-3.594,4.577-3.197l269.305,47.685c2.147,0.38,3.581,2.427,3.201,4.577
					C908.991,2759.744,907.325,2761.094,905.446,2761.094z"/>
			</g>
			<g>
				<path style="fill:#999999;" d="M986.266,2500.422c-0.168,0-0.338-0.01-0.51-0.03l-260.635-33.596
					c-2.162-0.279-3.69-2.258-3.411-4.423c0.278-2.164,2.257-3.662,4.421-3.413l260.635,33.596c2.162,0.28,3.69,2.259,3.411,4.423
					C989.922,2498.972,988.222,2500.422,986.266,2500.422z"/>
			</g>
			<g>
				<path style="fill:#999999;" d="M1038.054,2319.534c-0.204,0-0.409-0.017-0.616-0.051l-245.05-38.345
					c-2.154-0.336-3.628-2.356-3.292-4.51c0.338-2.154,2.366-3.645,4.513-3.292l245.05,38.345c2.154,0.337,3.628,2.356,3.292,4.51
					C1041.645,2318.141,1039.966,2319.534,1038.054,2319.534z"/>
			</g>
		</g>
		<g>
			
				<linearGradient id="SVGID_00000062899526330921907310000006954751744384539522_" gradientUnits="userSpaceOnUse" x1="1673.7273" y1="785.0463" x2="1718.9286" y2="785.0463">
				<stop  offset="0" style="stop-color:#311944"/>
				<stop  offset="1" style="stop-color:#893976"/>
			</linearGradient>
			<path style="fill:url(#SVGID_00000062899526330921907310000006954751744384539522_);" d="M1673.727,811.613
				c0,0,10.759-1.499,7.405-22.047c-2.629-16.107-0.638-21.524,3.164-18.668c3.802,2.855,4.339,12.163,4.339,12.163
				s13.869-11.829,19.579-27.329c5.711-15.5,9.382-2.447,10.605,5.302c1.224,7.75-8.158,31.816-13.46,36.302
				c-5.303,4.487-13.053,24.262-13.053,24.262L1673.727,811.613z"/>
			
				<linearGradient id="SVGID_00000110446967010615112940000000699331140094271912_" gradientUnits="userSpaceOnUse" x1="1622.6978" y1="976.7477" x2="1649.9161" y2="976.7477">
				<stop  offset="0" style="stop-color:#311944"/>
				<stop  offset="1" style="stop-color:#893976"/>
			</linearGradient>
			<polygon style="fill:url(#SVGID_00000110446967010615112940000000699331140094271912_);" points="1636.838,1008.773 
				1622.698,981.705 1622.698,944.723 1649.916,1008.773 			"/>
			
				<linearGradient id="SVGID_00000069379172085479200540000004266407832453782171_" gradientUnits="userSpaceOnUse" x1="180.3412" y1="1956.9895" x2="198.0531" y2="2182.4126" gradientTransform="matrix(-1 0 0 1 1460.9358 0)">
				<stop  offset="0" style="stop-color:#311944"/>
				<stop  offset="1" style="stop-color:#A03976"/>
			</linearGradient>
			<path style="fill:url(#SVGID_00000069379172085479200540000004266407832453782171_);" d="M1246.051,2069.413
				c0,0,71.298,32.405,72.462,37.577c1.165,5.173-45.851-1.734-65.045-0.989c-19.194,0.747-34.983-4.926-33.246-13.055
				c1.738-8.13,8.456-28.578,8.456-28.578L1246.051,2069.413z"/>
			
				<linearGradient id="SVGID_00000018204787862348839970000001860602437012069774_" gradientUnits="userSpaceOnUse" x1="226.0666" y1="2082.4905" x2="222.8464" y2="1849.0187" gradientTransform="matrix(-1 0 0 1 1460.9358 0)">
				<stop  offset="0" style="stop-color:#FFC444"/>
				<stop  offset="0.9964" style="stop-color:#F36F56"/>
			</linearGradient>
			<path style="fill:url(#SVGID_00000018204787862348839970000001860602437012069774_);" d="M1248.66,2043.115l-4.337,32.101
				c0,0-11.287,4.017-18.87-0.733l-3.235-35.207L1248.66,2043.115z"/>
			
				<linearGradient id="SVGID_00000057870482890048533710000005791607067727422902_" gradientUnits="userSpaceOnUse" x1="515.0572" y1="1930.6913" x2="532.769" y2="2156.1133" gradientTransform="matrix(-1 0 0 1 1460.9358 0)">
				<stop  offset="0" style="stop-color:#311944"/>
				<stop  offset="1" style="stop-color:#A03976"/>
			</linearGradient>
			<path style="fill:url(#SVGID_00000057870482890048533710000005791607067727422902_);" d="M912.891,2043.885l-8.293,13.313
				c-2.32,3.723-3.01,8.205-1.898,12.449c2.9,11.071,8.692,32.646,11.218,38.272c3.439,7.664,49.579,12.216,49.579,12.216
				s4.114-5.789-5.465-12.783c-9.579-6.992-15.736-8.093-19.118-18.413c-3.38-10.319-5.636-39.509-5.636-39.509L912.891,2043.885z"
				/>
			
				<linearGradient id="SVGID_00000048465205100609713310000004108511187406675849_" gradientUnits="userSpaceOnUse" x1="532.819" y1="2078.26" x2="529.5988" y2="1844.7809" gradientTransform="matrix(-1 0 0 1 1460.9358 0)">
				<stop  offset="0" style="stop-color:#FFC444"/>
				<stop  offset="0.9964" style="stop-color:#F36F56"/>
			</linearGradient>
			<path style="fill:url(#SVGID_00000048465205100609713310000004108511187406675849_);" d="M947.41,2010.052
				c-3.029,2.415-17.848,47.394-17.848,47.394s-4.797,6.133-13.909-2.919c-9.111-9.053-4.123-4.061-4.123-4.061l1.708-44.238
				L947.41,2010.052z"/>
			
				<linearGradient id="SVGID_00000057840575536006994990000016521211357588388226_" gradientUnits="userSpaceOnUse" x1="170.3475" y1="1704.2683" x2="342.9722" y2="1704.2683" gradientTransform="matrix(-1 0 0 1 1460.9358 0)">
				<stop  offset="0" style="stop-color:#444B8C"/>
				<stop  offset="0.9964" style="stop-color:#3E4177"/>
			</linearGradient>
			<path style="fill:url(#SVGID_00000057840575536006994990000016521211357588388226_);" d="M1287.888,1398.184
				c3.761,95.757,3.915,199.792-1.595,310.933c-6.203,125.153-18.67,240.827-34.38,345.685c-5.841,0.186-11.978,0.217-18.388,0.037
				c-4.329-0.12-8.524-0.331-12.578-0.611c-8.153-21.743-17.79-50.336-26.419-84.488c-9.072-35.912-14.546-68.125-18.445-98.928
				c-13.73-108.458,2.361-117.92-8.782-198.298c-9.868-71.186-23.902-73.966-40.376-175.035
				c-17.875-109.663-4.569-126.116,1.902-132.058C1156.374,1340.12,1221.082,1357.345,1287.888,1398.184z"/>
			
				<linearGradient id="SVGID_00000089548715344558045170000002365276014040836759_" gradientUnits="userSpaceOnUse" x1="170.3465" y1="1704.2758" x2="342.9709" y2="1704.2758" gradientTransform="matrix(-1 0 0 1 1460.9358 0)">
				<stop  offset="0" style="stop-color:#444B8C"/>
				<stop  offset="0.9964" style="stop-color:#3E4177"/>
			</linearGradient>
			<path style="opacity:0.3;fill:url(#SVGID_00000089548715344558045170000002365276014040836759_);" d="M1128.827,1365.423
				c26.274-24.134,86.362-9.523,149.826,27.309c-73.01,78.88-80.969,130.05-72.216,163.251
				c9.892,37.526,39.966,48.333,39.851,89.365c-0.141,50.424-45.65,63.782-44.682,117.14c0.64,35.283,20.637,34.917,25.36,78.495
				c5.587,51.563-20.538,69.33-12.076,107.48c3.64,16.412,14.031,37.858,43.623,59.951c-2.134,15.666-4.321,31.174-6.601,46.39
				c-5.839,0.184-11.976,0.216-18.387,0.035c-4.329-0.12-8.525-0.33-12.577-0.61c-8.153-21.743-17.79-50.335-26.419-84.487
				c-9.072-35.913-14.546-68.125-18.445-98.929c-13.729-108.457,2.361-117.92-8.782-198.298
				c-9.868-71.186-23.902-73.967-40.376-175.036C1109.051,1387.816,1122.356,1371.364,1128.827,1365.423z"/>
			
				<linearGradient id="SVGID_00000091003882402075739500000015065207628463541945_" gradientUnits="userSpaceOnUse" x1="218.271" y1="1687.2523" x2="565.783" y2="1687.2523" gradientTransform="matrix(-1 0 0 1 1460.9358 0)">
				<stop  offset="0" style="stop-color:#444B8C"/>
				<stop  offset="0.9964" style="stop-color:#3E4177"/>
			</linearGradient>
			<path style="fill:url(#SVGID_00000091003882402075739500000015065207628463541945_);" d="M1242.665,1396.576
				c-62.864,91.983-130.669,206.459-191.307,343.483c-45.825,103.55-79.06,200.773-103.461,287.42
				c-3.302,1.529-11.091,4.579-21.044,3.263c-13.576-1.796-21.712-10.461-23.839-12.879c-9.931-62.115-8.837-114.721-5.466-152.687
				c2.158-24.308,5.978-64.79,21.472-114.764c17.355-55.979,29.287-59.125,51.928-118.348
				c23.501-61.471,17.808-76.812,40.313-153.739c9.245-31.602,24.722-78.63,50.259-134.884
				C1121.902,1361.152,1182.284,1378.865,1242.665,1396.576z"/>
			
				<linearGradient id="SVGID_00000137128715923150475020000009085624695396209549_" gradientUnits="userSpaceOnUse" x1="1263.5537" y1="912.5097" x2="1283.1326" y2="1065.8777">
				<stop  offset="0" style="stop-color:#311944"/>
				<stop  offset="1" style="stop-color:#893976"/>
			</linearGradient>
			<path style="fill:url(#SVGID_00000137128715923150475020000009085624695396209549_);" d="M1266.203,876.44
				c0,0-2.053,26.932-11.05,46.869c-8.133,18.019-48.28,28.26-56.473,32.084c-8.192,3.824,14.617,16.452,37.821,19.514
				c23.202,3.062,89.838-0.163,102.094-8.616c12.256-8.452-9.376-8.458-25.8-15.072c-16.425-6.613-25.024-39.403-21.634-54.059
				C1294.549,882.503,1266.203,876.44,1266.203,876.44z"/>
			<g>
				
					<linearGradient id="SVGID_00000150823411247712120750000006017581783558581950_" gradientUnits="userSpaceOnUse" x1="1274.6453" y1="882.5852" x2="1265.9436" y2="778.1653">
					<stop  offset="0.0036" style="stop-color:#26264F"/>
					<stop  offset="1" style="stop-color:#444B8C"/>
				</linearGradient>
				<path style="fill:url(#SVGID_00000150823411247712120750000006017581783558581950_);" d="M1299.697,855.857
					c12.226-16.224,7.016-48.068-3.89-52.157c-3.117-1.169-5.225,0.481-36.324,25.936c-15.443,12.642-22.949,19.148-23.358,27.852
					c-0.251,5.312,2.054,11.659,5.578,16.123c1.814,2.297,4.772,4.936,11.027,9.783c5.551,4.3,5.235,4.195,6.909,5.425
					c4.022,2.957,11.485,7.717,23.79,12.087c-0.328-2.979-0.547-6.733-0.274-10.989c0.105-1.637,0.584-8.061,2.676-14.002
					C1289.433,865.69,1295.729,861.123,1299.697,855.857z"/>
				
					<linearGradient id="SVGID_00000103231800438011310180000009634784991309133480_" gradientUnits="userSpaceOnUse" x1="1220.525" y1="814.7524" x2="1301.0159" y2="899.594">
					<stop  offset="0" style="stop-color:#311944"/>
					<stop  offset="1" style="stop-color:#893976"/>
				</linearGradient>
				<path style="fill:url(#SVGID_00000103231800438011310180000009634784991309133480_);" d="M1268.395,897.536
					c0,0,15.146,12.126,33.598,4.037c16.522-7.245,5.226-46.091-8.505-50.221c-4.58-1.378-12.207,0.129-17.482,3.905
					c-3.116,2.231-3.766,4.099-8.928,7.645c-4.761,3.27-6.457,3.226-7.559,5.138c-1.378,2.39-1.345,7.011,5.995,16.903
					c-4.415-2.098-8.746-1.945-11.021,0.347c-0.363,0.366-1.238,1.578-1.456,3.013
					C1252.246,893.498,1258.212,897.596,1268.395,897.536z"/>
			</g>
			
				<linearGradient id="SVGID_00000050646312626682072400000003593458515255822216_" gradientUnits="userSpaceOnUse" x1="1252.8732" y1="1201.9641" x2="1722.7659" y2="849.5446">
				<stop  offset="0.0036" style="stop-color:#6165D7"/>
				<stop  offset="1" style="stop-color:#AA80F9"/>
			</linearGradient>
			<path style="fill:url(#SVGID_00000050646312626682072400000003593458515255822216_);" d="M1314.542,980.347
				c60.094-21.603,104.718,75.67,195.659,62.106c60.56-9.033,102.941-61.441,132.66-41.742c9.672,6.411,13.61,17.547,15.427,25.417
				c-11.47,28.33-42.431,93.213-111.73,131.786c-101.495,56.494-255.367,39.93-287.156-34.263
				C1238.563,1075.015,1268.21,997.002,1314.542,980.347z"/>
			
				<linearGradient id="SVGID_00000082366945328120242370000005796586669618310022_" gradientUnits="userSpaceOnUse" x1="1388.775" y1="1629.647" x2="1315.524" y2="925.1413">
				<stop  offset="0.0036" style="stop-color:#6165D7"/>
				<stop  offset="1" style="stop-color:#AA80F9"/>
			</linearGradient>
			<path style="fill:url(#SVGID_00000082366945328120242370000005796586669618310022_);" d="M986.929,1430.387
				c26.23,23.753,71.659,25.685,81.579,26.105c46.681,1.982,53.348-18.285,99.526-16.316c46.32,1.976,58.532,23.132,91.368,14.684
				c5.819-1.498,28.546-8.107,52.697-39.668c68.447-89.443,11.233-187.858,79.46-314.384c10.284-19.072,19.331-35.848,37.526-53.842
				c58.883-58.23,115.027-31.747,189.226-78.475c60.874-38.336,101.731-115.393,84.062-150.131
				c-8.007-15.744-14.942-13.664-25.697-14.929c-18.068,30.639-62.787,68.009-114.228,89.766
				c-48.808,20.643-86.418,10.776-161.1,11.823c-45.645,0.639-124.003,1.737-186.137,23.981
				c-155.379,55.625-212.905,244.774-229.914,300.701C970.43,1278.59,937.874,1385.963,986.929,1430.387z"/>
			
				<linearGradient id="SVGID_00000127741200890632638340000001648098410373618076_" gradientUnits="userSpaceOnUse" x1="1164.5942" y1="1654.782" x2="1090.6301" y2="943.4174">
				<stop  offset="0" style="stop-color:#AA80F9"/>
				<stop  offset="0.9964" style="stop-color:#6165D7"/>
			</linearGradient>
			<path style="opacity:0.3;fill:url(#SVGID_00000127741200890632638340000001648098410373618076_);" d="M1114.191,1387.423
				c-16.941-21.853,70.468-82.053,58.737-152.281c-9.878-59.135-79.971-65.04-97.894-119.648
				c-7.743-23.591-6.288-57.946,26.668-109.068c-72.264,78.374-104.42,183.873-116.404,223.278
				c-14.867,48.887-47.423,156.26,1.632,200.683c26.23,23.753,71.659,25.685,81.579,26.105
				c46.681,1.982,53.348-18.285,99.526-16.316c46.321,1.976,58.532,23.132,91.368,14.684c5.819-1.498,28.546-8.107,52.697-39.668
				c0.36-0.47,0.666-0.945,1.019-1.416c-18.233-17.379-40.112-31.395-66.225-37.232
				C1182.572,1362.168,1127.913,1405.123,1114.191,1387.423z"/>
		</g>
		<g>
			<g>
				
					<linearGradient id="SVGID_00000087408983854242706000000007433731772698349969_" gradientUnits="userSpaceOnUse" x1="2567.6135" y1="1809.7054" x2="2232.3701" y2="1917.2953">
					<stop  offset="0" style="stop-color:#FCB148"/>
					<stop  offset="0.0521" style="stop-color:#FDBA46"/>
					<stop  offset="0.1424" style="stop-color:#FFC244"/>
					<stop  offset="0.3183" style="stop-color:#FFC444"/>
					<stop  offset="0.4849" style="stop-color:#FDB946"/>
					<stop  offset="0.7754" style="stop-color:#F99C4D"/>
					<stop  offset="0.8658" style="stop-color:#F8924F"/>
					<stop  offset="1" style="stop-color:#F8924F"/>
				</linearGradient>
				<path style="fill:url(#SVGID_00000087408983854242706000000007433731772698349969_);" d="M2953.55,1797.541
					c0,155.523-121.61,277.866-277.042,273.093c-161.758-4.968-297.802-144.67-297.802-311.848
					c0-167.178,136.044-288.536,297.802-271.693C2831.94,1503.278,2953.55,1642.017,2953.55,1797.541z"/>
				
					<linearGradient id="SVGID_00000055708855846581631420000003550220424472961214_" gradientUnits="userSpaceOnUse" x1="2838.8062" y1="1476.004" x2="2539.5212" y2="2136.2825">
					<stop  offset="0" style="stop-color:#FFDB44"/>
					<stop  offset="1" style="stop-color:#FEEF06"/>
				</linearGradient>
				<path style="fill:url(#SVGID_00000055708855846581631420000003550220424472961214_);" d="M2995.551,1784.131
					c0,155.523-121.61,277.866-277.042,273.093c-161.758-4.968-297.802-144.67-297.802-311.847
					c0-167.178,136.044-288.537,297.802-271.693C2873.941,1489.868,2995.551,1628.607,2995.551,1784.131z"/>
				
					<linearGradient id="SVGID_00000180349177578385901070000009741143761248577680_" gradientUnits="userSpaceOnUse" x1="2783.7524" y1="2173.1855" x2="2726.0049" y2="1857.7123">
					<stop  offset="0" style="stop-color:#FCB148"/>
					<stop  offset="0.0521" style="stop-color:#FDBA46"/>
					<stop  offset="0.1424" style="stop-color:#FFC244"/>
					<stop  offset="0.3183" style="stop-color:#FFC444"/>
					<stop  offset="0.4849" style="stop-color:#FDB946"/>
					<stop  offset="0.7754" style="stop-color:#F99C4D"/>
					<stop  offset="0.8658" style="stop-color:#F8924F"/>
					<stop  offset="1" style="stop-color:#F8924F"/>
				</linearGradient>
				<path style="fill:url(#SVGID_00000180349177578385901070000009741143761248577680_);" d="M2983.351,1783.309
					c0,148.675-116.358,265.432-264.842,260.625c-154.246-4.995-283.752-138.318-283.752-297.609s129.506-275.153,283.752-259.349
					C2866.993,1502.187,2983.351,1634.634,2983.351,1783.309z"/>
				
					<linearGradient id="SVGID_00000067925444667291978280000002559700484499037082_" gradientUnits="userSpaceOnUse" x1="2661.3164" y1="1662.5573" x2="2899.3022" y2="2167.7554">
					<stop  offset="0" style="stop-color:#FCB148"/>
					<stop  offset="0.0521" style="stop-color:#FDBA46"/>
					<stop  offset="0.1424" style="stop-color:#FFC244"/>
					<stop  offset="0.3183" style="stop-color:#FFC444"/>
					<stop  offset="0.4849" style="stop-color:#FDB946"/>
					<stop  offset="0.7754" style="stop-color:#F99C4D"/>
					<stop  offset="0.8658" style="stop-color:#F8924F"/>
					<stop  offset="1" style="stop-color:#F8924F"/>
				</linearGradient>
				<path style="fill:url(#SVGID_00000067925444667291978280000002559700484499037082_);" d="M2974.613,1782.72
					c0,143.77-112.591,256.538-256.104,251.72c-148.89-4.999-273.746-133.767-273.746-287.441s124.856-265.607,273.746-250.531
					C2862.022,1511,2974.613,1638.95,2974.613,1782.72z"/>
				<g>
					
						<linearGradient id="SVGID_00000063614888387939644190000004170380954394699141_" gradientUnits="userSpaceOnUse" x1="2651.835" y1="1553.8452" x2="2771.5024" y2="2002.3375">
						<stop  offset="0" style="stop-color:#FFDB44"/>
						<stop  offset="1" style="stop-color:#FEEF06"/>
					</linearGradient>
					<path style="fill:url(#SVGID_00000063614888387939644190000004170380954394699141_);" d="M2717.04,1545.379L2717.04,1545.379
						c7.637,0.726,13.818,7.601,13.818,15.357v26.47c15.271,1.705,30.563,4.36,45.877,7.958c11.292,2.654,22.507,5.813,33.647,9.475
						c6.675,2.195,11.223,8.934,10.543,15.885l-3.251,33.193c-0.863,8.806-9.568,13.978-17.763,10.324
						c-7.338-3.272-14.861-6.075-22.572-8.409c-13.455-4.071-27.644-6.725-42.576-7.956l-3.904-0.322v75.807
						c39.839,11.146,69.096,26.141,88.004,45.001c18.817,18.77,28.192,42.163,28.192,70.245c0,30.369-10.365,54.687-31.177,73.027
						c-20.924,18.438-50.259,28.808-88.194,31.053v29.216c0,7.759-6.186,13.803-13.83,13.499l-0.245-0.01
						c-7.659-0.305-13.878-6.864-13.878-14.65v-28.82l-6.156-0.278c-17.784-0.802-34.818-2.617-51.093-5.448
						c-12.053-2.097-23.823-4.803-35.308-8.121c-6.946-2.006-11.714-8.623-11.077-15.731l3.825-42.669
						c0.827-9.224,10.092-14.592,18.864-11.132c10.224,4.033,20.575,7.43,31.052,10.193c16.328,4.306,32.878,7.068,49.647,8.294
						l0.246-84.326c-38.241-9.462-66.871-23.478-85.681-42.042c-18.898-18.652-28.38-42.522-28.38-71.543
						c0-30.035,10.282-53.218,30.768-69.488c20.382-16.189,49.357-24.242,86.737-24.222v-27.062
						C2703.174,1550.37,2709.387,1544.651,2717.04,1545.379z M2703.174,1646.571c-11.819,0.86-21.035,4.105-27.631,9.741
						c-6.607,5.646-9.915,13.233-9.915,22.756c0,9.021,3.06,16.562,9.172,22.615c6.103,6.044,15.569,10.87,28.374,14.475V1646.571z
						 M2727.683,1799.267v77.33c12.848,0.025,22.699-3.042,29.577-9.194c6.865-6.141,10.294-14.815,10.294-26.031
						c0-10.226-3.186-18.707-9.566-25.451C2751.597,1809.166,2741.505,1803.616,2727.683,1799.267z"/>
				</g>
				
					<linearGradient id="SVGID_00000154414159342241419230000007207609142052317078_" gradientUnits="userSpaceOnUse" x1="2591.302" y1="1695.2511" x2="2828.8074" y2="2199.4299">
					<stop  offset="0" style="stop-color:#FCB148"/>
					<stop  offset="0.0521" style="stop-color:#FDBA46"/>
					<stop  offset="0.1424" style="stop-color:#FFC244"/>
					<stop  offset="0.3183" style="stop-color:#FFC444"/>
					<stop  offset="0.4849" style="stop-color:#FDB946"/>
					<stop  offset="0.7754" style="stop-color:#F99C4D"/>
					<stop  offset="0.8658" style="stop-color:#F8924F"/>
					<stop  offset="1" style="stop-color:#F8924F"/>
				</linearGradient>
				<path style="opacity:0.3;fill:url(#SVGID_00000154414159342241419230000007207609142052317078_);" d="M2672.164,1817.927
					c8.653-85.461,87.195-121.64,76.946-200.251c-6.318-48.451-43.041-89.283-84.007-121.165
					c-124.256,13.031-220.34,115.919-220.34,250.488c0,153.674,124.856,282.442,273.745,287.441
					c14.456,0.485,28.575-0.266,42.303-2.066C2701.683,1973.535,2664.731,1891.348,2672.164,1817.927z"/>
			</g>
			<g>
				
					<linearGradient id="SVGID_00000162351287491826032770000014203571407188431014_" gradientUnits="userSpaceOnUse" x1="2967.1272" y1="2484.1885" x2="2929.7046" y2="2259.6531">
					<stop  offset="0" style="stop-color:#FF9085"/>
					<stop  offset="1" style="stop-color:#FB6FBB"/>
				</linearGradient>
				<path style="fill:url(#SVGID_00000162351287491826032770000014203571407188431014_);" d="M2889.86,2033.974
					c0,0-16.533,123.09,113.168,209.876l-138.013,32.921c0,0-44.173-82.596-12.192-219.411L2889.86,2033.974z"/>
				
					<linearGradient id="SVGID_00000147935009683226261000000006086727634216809102_" gradientUnits="userSpaceOnUse" x1="2879.574" y1="2019.8922" x2="2885.2913" y2="2103.054">
					<stop  offset="0.0036" style="stop-color:#F36F56"/>
					<stop  offset="1" style="stop-color:#FFC444"/>
				</linearGradient>
				<path style="fill:url(#SVGID_00000147935009683226261000000006086727634216809102_);" d="M2865.573,2057.359
					c0,0-7.438-18.361-6.238-26.626c1.2-8.265,20.876-19.296,34.287-30.687c13.411-11.391-0.503,11.456-3.622,16.654
					c-3.119,5.198-14.06,12.994-12.487,30.666L2865.573,2057.359z"/>
				
					<linearGradient id="SVGID_00000088836346681832307810000005159376282435553431_" gradientUnits="userSpaceOnUse" x1="2972.8906" y1="2064.9026" x2="2964.7341" y2="1967.0234" gradientTransform="matrix(0.9986 0.0537 -0.0537 0.9986 185.5795 -55.8024)">
					<stop  offset="0.0036" style="stop-color:#26264F"/>
					<stop  offset="1" style="stop-color:#444B8C"/>
				</linearGradient>
				<path style="fill:url(#SVGID_00000088836346681832307810000005159376282435553431_);" d="M3020,2151.066
					c-6.778-13.349-9.573-13.271-11.238-20.317c-3.793-16.057,6-36.451,14.306-36.734c5.355-0.182,5.798,8.141,17.132,21.115
					c13.886,15.892,22.313,13.807,30.484,27.603c1.912,3.227,10.514,17.753,5.224,28.594c-6.751,13.836-33.371,16.028-44.498,5.355
					C3026.134,2171.621,3028.35,2167.512,3020,2151.066z"/>
				
					<linearGradient id="SVGID_00000099620478005603364220000008391053446862165158_" gradientUnits="userSpaceOnUse" x1="2943.8474" y1="1920.5999" x2="2951.6438" y2="2209.0532" gradientTransform="matrix(0.9986 0.0537 -0.0537 0.9986 185.5795 -55.8024)">
					<stop  offset="0.0036" style="stop-color:#F36F56"/>
					<stop  offset="1" style="stop-color:#FFC444"/>
				</linearGradient>
				<path style="fill:url(#SVGID_00000099620478005603364220000008391053446862165158_);" d="M3039.956,2165.471
					c0,0-4.754,25.371-1.371,46c3.059,18.644,37.597,38.011,44.216,43.565c6.619,5.553-17.557,11.58-39.736,8.677
					c-22.177-2.902-82.902-22.332-92.13-33.163c-9.229-10.829,10.744-5.494,27.541-7.544c16.797-2.051,32.832-30.201,33.322-44.569
					C3012.289,2164.069,3039.956,2165.471,3039.956,2165.471z"/>
				<g>
					
						<linearGradient id="SVGID_00000099624270776916418370000013801140651782534075_" gradientUnits="userSpaceOnUse" x1="-448.0131" y1="1657.4353" x2="-371.0853" y2="1738.5212" gradientTransform="matrix(-0.966 -0.2584 -0.2584 0.966 3092.8628 402.9503)">
						<stop  offset="0.0036" style="stop-color:#F36F56"/>
						<stop  offset="1" style="stop-color:#FFC444"/>
					</linearGradient>
					<path style="fill:url(#SVGID_00000099624270776916418370000013801140651782534075_);" d="M3032.723,2184.406
						c0,0-16.978,7.456-32.016-4.57c-13.465-10.768,6.556-43.843,20.253-44.266c4.569-0.141,11.239,3.133,15.177,7.923
						c2.326,2.829,2.464,4.713,6.354,9.262c3.587,4.194,5.165,4.573,5.71,6.61c0.683,2.547-0.489,6.805-9.709,14.125
						c4.594-0.847,8.555,0.364,10.089,3.042c0.244,0.427,0.753,1.763,0.601,3.141
						C3048.63,2184.666,3042.11,2186.976,3032.723,2184.406z"/>
				</g>
				
					<linearGradient id="SVGID_00000054235027993817396640000015951357933902822807_" gradientUnits="userSpaceOnUse" x1="2647.7222" y1="2097.4531" x2="2663.8347" y2="2148.9089">
					<stop  offset="0.0036" style="stop-color:#F36F56"/>
					<stop  offset="1" style="stop-color:#FFC444"/>
				</linearGradient>
				<path style="fill:url(#SVGID_00000054235027993817396640000015951357933902822807_);" d="M2659.599,2096.159
					c0,0-10.282-1.432-7.077-21.071c2.513-15.393,0.61-20.57-3.024-17.841c-3.634,2.729-4.147,11.625-4.147,11.625
					s-13.254-11.305-18.711-26.118c-5.458-14.813-8.966-2.339-10.136,5.068c-1.169,7.406,7.797,30.406,12.864,34.693
					c5.068,4.288,12.475,23.187,12.475,23.187L2659.599,2096.159z"/>
				
					<linearGradient id="SVGID_00000111164498958507824000000003328100302446994331_" gradientUnits="userSpaceOnUse" x1="-106.1939" y1="3282.1621" x2="-157.8873" y2="3111.7134" gradientTransform="matrix(-0.9999 0.0138 0.0138 0.9999 2839.1826 -14.86)">
					<stop  offset="0" style="stop-color:#444B8C"/>
					<stop  offset="0.9964" style="stop-color:#26264F"/>
				</linearGradient>
				<path style="fill:url(#SVGID_00000111164498958507824000000003328100302446994331_);" d="M3039.89,3182.213
					c5.29,10.791,3.806,15.429,2.488,17.468c-3.861,5.985-13.156,0.334-37.422,3.207c-2.846,0.338-8.277,1.072-15.056-0.525
					c-5.806-1.369-12.652-4.459-12.36-6.014c0.107-0.566,1.139-0.793,1.53-0.876c6.734-1.436,48.889-14.373,48.889-14.373
					L3039.89,3182.213z"/>
				
					<linearGradient id="SVGID_00000091714100834482990980000017997426575766039224_" gradientUnits="userSpaceOnUse" x1="-150.7556" y1="3248.9695" x2="-150.7556" y2="2975.1433" gradientTransform="matrix(-0.9999 0.0138 0.0138 0.9999 2839.1826 -14.86)">
					<stop  offset="0" style="stop-color:#FFC444"/>
					<stop  offset="0.9964" style="stop-color:#F36F56"/>
				</linearGradient>
				<path style="fill:url(#SVGID_00000091714100834482990980000017997426575766039224_);" d="M3043.125,3158.491l-3.764,24.124
					c0,0-10.361,7.324-13.084-1.567c-1.959-6.396-1.904-23.634-1.904-23.634L3043.125,3158.491z"/>
				
					<linearGradient id="SVGID_00000062873702532162144900000011845345053129282479_" gradientUnits="userSpaceOnUse" x1="-54.2858" y1="3238.7449" x2="-54.2858" y2="2964.9075" gradientTransform="matrix(-0.9999 0.0138 0.0138 0.9999 2839.1826 -14.86)">
					<stop  offset="0" style="stop-color:#FFC444"/>
					<stop  offset="0.9964" style="stop-color:#F36F56"/>
				</linearGradient>
				<polygon style="fill:url(#SVGID_00000062873702532162144900000011845345053129282479_);" points="2924.991,3160.147 
					2935.163,3187.922 2949.945,3185.567 2946.518,3159.849 				"/>
				
					<linearGradient id="SVGID_00000080198036909343600040000006644992228331160223_" gradientUnits="userSpaceOnUse" x1="-35.2466" y1="3249.0969" x2="-86.9395" y2="3078.6497" gradientTransform="matrix(-0.9999 0.0138 0.0138 0.9999 2839.1826 -14.86)">
					<stop  offset="0" style="stop-color:#444B8C"/>
					<stop  offset="0.9964" style="stop-color:#26264F"/>
				</linearGradient>
				<path style="fill:url(#SVGID_00000080198036909343600040000006644992228331160223_);" d="M2939.767,3203.219
					c7.155-8.491,13.543-7.72,14.832-13.555c1.013-4.584-1.795-10.207-6.03-12.343c-5.953-3-13.164,1.687-14.794,2.745
					c-11.066,7.194-8.052,18.445-18.487,23.323c-2.101,0.983-5.428,2.024-8.936,5.311c-1.489,1.396-5.18,4.853-4.315,7.234
					c0.999,2.754,7.578,2.659,13.833,2.568c7.506-0.108,11.259-0.159,14.868-2.413
					C2935.742,3212.967,2934.244,3209.772,2939.767,3203.219z"/>
				
					<linearGradient id="SVGID_00000028326454455760926190000000210934504052965039_" gradientUnits="userSpaceOnUse" x1="-174.4142" y1="2658.0972" x2="-199.5619" y2="3223.9214" gradientTransform="matrix(-0.9999 0.0138 0.0138 0.9999 2839.1826 -14.86)">
					<stop  offset="0" style="stop-color:#311944"/>
					<stop  offset="1" style="stop-color:#893976"/>
				</linearGradient>
				<path style="fill:url(#SVGID_00000028326454455760926190000000210934504052965039_);" d="M3122.221,2581.488
					c-2.735,56.109-10.768,104.007-19.906,143.053c-9.831,42.004-15.187,49.183-18.597,78.301
					c-7.418,63.363,12.848,72.89,15.067,144.736c2.45,79.333-19.973,141.863-28.772,165.71
					c-7.693,20.847-15.636,37.646-21.59,49.304c-7.402,6.179-18.458,3.508-30.119,0.875c-2.775-71.969-6.702-139.726-9.476-211.694
					c-11.595-108.426-23.192-216.848-34.787-325.273C3023.434,2611.496,3072.827,2596.494,3122.221,2581.488z"/>
				
					<linearGradient id="SVGID_00000084489208849848816700000012964343263344508809_" gradientUnits="userSpaceOnUse" x1="-174.4142" y1="2658.0972" x2="-199.5619" y2="3223.9211" gradientTransform="matrix(-0.9999 0.0138 0.0138 0.9999 2839.1826 -14.86)">
					<stop  offset="0" style="stop-color:#311944"/>
					<stop  offset="1" style="stop-color:#893976"/>
				</linearGradient>
				<path style="opacity:0.3;fill:url(#SVGID_00000084489208849848816700000012964343263344508809_);" d="M3018.302,3163.469
					c-2.775-71.969-6.702-139.726-9.476-211.694c-11.595-108.426-23.192-216.848-34.787-325.273
					c49.395-15.006,98.788-30.007,148.182-45.013c-0.181,3.716-0.445,7.296-0.67,10.943
					c-70.098,58.285-84.582,105.338-84.603,137.643c-0.025,39.183,20.975,59.056,15.573,115.751
					c-3.863,40.537-16.222,47.429-17.002,84.068c-1.005,47.179,18.675,74.14,27.952,101.613
					c8.965,26.553,11.557,63.947-7.994,116.634c-2.535,5.43-4.926,10.285-7.055,14.453
					C3041.02,3168.771,3029.964,3166.103,3018.302,3163.469z"/>
				
					<linearGradient id="SVGID_00000074408078572827736780000004659935631130846654_" gradientUnits="userSpaceOnUse" x1="281.0074" y1="2892.0544" x2="-273.263" y2="2866.8599" gradientTransform="matrix(-0.9999 0.0138 0.0138 0.9999 2839.1826 -14.86)">
					<stop  offset="0" style="stop-color:#311944"/>
					<stop  offset="1" style="stop-color:#893976"/>
				</linearGradient>
				<path style="fill:url(#SVGID_00000074408078572827736780000004659935631130846654_);" d="M3038.431,2623.418
					c-44.449,54.431-69.802,105.318-84.43,140.968c-17.601,42.892-30.36,75.037-26.361,116.671
					c4.402,45.822,25.182,62.289,38.982,101.353c13.384,37.886,19.906,96.182-15.012,182.929c-8.787,3.042-17.574,6.085-26.36,9.125
					c-5.838-23.441-15.282-58.506-29.403-100.266c-27.982-82.752-55.873-137.207-63.416-154.122
					c-26.563-59.566-29.248-165.907,81.316-371.086C2955.309,2573.799,2996.87,2598.607,3038.431,2623.418z"/>
				
					<linearGradient id="SVGID_00000124150547278093416690000005632712205551677336_" gradientUnits="userSpaceOnUse" x1="2887.3008" y1="2246.7231" x2="2987.094" y2="2766.4812">
					<stop  offset="0" style="stop-color:#FF9085"/>
					<stop  offset="1" style="stop-color:#FB6FBB"/>
				</linearGradient>
				<path style="fill:url(#SVGID_00000124150547278093416690000005632712205551677336_);" d="M2632.202,2101.421
					c11.696-8.193,23.393-16.382,35.09-24.574c14.232,87.487,46.582,121.822,74.059,136.841
					c66.286,36.232,125.446-28.334,252.324-1.985c34.963,7.26,95.906,20.785,129.698,70.594
					c8.883,13.092,12.043,23.005,26.793,116.927c18.854,120.058,19.525,141.011,16.866,166.861
					c-4.865,47.308-7.813,75.978-29.626,101.353c-57.922,67.381-181.033,32.638-196.468,28.067
					c-28.514-8.445-72.831-21.573-90.438-59.252c-8.285-17.728-7.405-33.936,5.328-98.768
					c25.222-128.427,28.444-136.738,21.404-150.802c-23.759-47.46-99.041-20.304-162.636-64.438
					C2677.411,2296.439,2635.499,2240.205,2632.202,2101.421z"/>
				
					<linearGradient id="SVGID_00000155140746849490236780000007971934654622533799_" gradientUnits="userSpaceOnUse" x1="2806.2295" y1="2262.2886" x2="2906.0229" y2="2782.0469">
					<stop  offset="0" style="stop-color:#FF9085"/>
					<stop  offset="1" style="stop-color:#FB6FBB"/>
				</linearGradient>
				<path style="opacity:0.3;fill:url(#SVGID_00000155140746849490236780000007971934654622533799_);" d="M2998.631,2678.352
					c-12.414-25.46,4.269-48.922-14.033-79.523c-23.325-39-65.291-25.759-81.082-54.575
					c-27.006-49.281,79.293-118.011,57.693-196.469c-10.313-37.459-46.323-64.573-76.405-74.845
					c-66.785-22.805-110.468,35.327-173.08,17.151c-14.84-4.309-31.872-13.235-49.099-31.758
					c15.227,32.123,34.137,51.532,51.971,63.909c63.595,44.135,138.877,16.979,162.636,64.438
					c7.04,14.064,3.818,22.375-21.404,150.802c-12.733,64.832-13.613,81.04-5.328,98.768c17.607,37.679,61.924,50.807,90.438,59.252
					c8.449,2.504,49.168,14.012,93.79,12.898C3014.82,2700.313,3004.107,2689.584,2998.631,2678.352z"/>
			</g>
		</g>
	</g>
</g>
</svg>
