<?xml version="1.0" encoding="utf-8"?>
<!-- Generator: Adobe Illustrator 27.5.0, SVG Export Plug-In . SVG Version: 6.00 Build 0)  -->
<svg version="1.1" xmlns="http://www.w3.org/2000/svg" xmlns:xlink="http://www.w3.org/1999/xlink" x="0px" y="0px"
	 viewBox="0 0 500 500" style="enable-background:new 0 0 500 500;" xml:space="preserve">
<g id="Device">
	<g>
		<g>
			<polygon style="fill:#FFFFFF;stroke:#263238;stroke-linecap:round;stroke-linejoin:round;stroke-miterlimit:10;" points="
				344.102,361.116 151.32,361.116 166.539,346.434 328.882,346.434 			"/>
			<g>
				<path style="fill:#C6FF00;" d="M322.679,352.097c0,3.022-34.908,5.472-77.968,5.472c-43.061,0-77.968-2.45-77.968-5.472
					c0-3.022,34.908-5.472,77.968-5.472C287.771,346.625,322.679,349.075,322.679,352.097z"/>
				<path style="opacity:0.5;fill:#FFFFFF;" d="M322.679,352.097c0,3.022-34.908,5.472-77.968,5.472
					c-43.061,0-77.968-2.45-77.968-5.472c0-3.022,34.908-5.472,77.968-5.472C287.771,346.625,322.679,349.075,322.679,352.097z"/>
			</g>
			
				<rect x="151.32" y="361.116" style="fill:#263238;stroke:#263238;stroke-linecap:round;stroke-linejoin:round;stroke-miterlimit:10;" width="192.782" height="13.608"/>
			<polygon style="fill:#FFFFFF;stroke:#263238;stroke-linecap:round;stroke-linejoin:round;stroke-miterlimit:10;" points="
				357.74,389.407 137.682,389.407 151.32,374.725 344.102,374.725 			"/>
			
				<rect x="137.72" y="389.407" style="fill:#263238;stroke:#263238;stroke-linecap:round;stroke-linejoin:round;stroke-miterlimit:10;" width="219.982" height="14.324"/>
		</g>
		<g>
			<polyline style="fill:none;stroke:#263238;stroke-miterlimit:10;" points="245.578,215.932 245.578,124.402 280.41,124.402 
				280.41,85.886 			"/>
			<line style="fill:none;stroke:#263238;stroke-miterlimit:10;" x1="259.187" y1="123.971" x2="259.187" y2="85.886"/>
			<polyline style="fill:none;stroke:#263238;stroke-miterlimit:10;" points="248.182,230.518 408.535,230.518 408.535,207.723 
				439.19,207.723 			"/>
			<polyline style="fill:none;stroke:#263238;stroke-miterlimit:10;" points="240.322,229.732 87.83,229.732 87.83,205.365 
				54.817,205.365 			"/>
			<polyline style="fill:none;stroke:#263238;stroke-miterlimit:10;" points="214.383,61.519 214.383,96.105 194.732,96.105 
				194.732,118.114 219.099,118.114 219.099,192.002 			"/>
			<polyline style="fill:none;stroke:#263238;stroke-miterlimit:10;" points="322.07,163.704 322.07,114.184 335.433,114.184 
				335.433,92.961 346.438,92.961 			"/>
			<polyline style="fill:none;stroke:#263238;stroke-miterlimit:10;" points="160.146,158.988 160.146,121.258 149.141,110.254 
				149.141,82.742 			"/>
			<polyline style="fill:none;stroke:#263238;stroke-miterlimit:10;" points="351.94,180.997 379.451,180.997 379.451,162.918 
				397.53,162.918 397.53,152.7 413.251,152.7 			"/>
			<polyline style="fill:none;stroke:#263238;stroke-miterlimit:10;" points="132.635,187.286 103.551,187.286 103.551,164.49 
				62.677,164.49 			"/>
			<polyline style="fill:none;stroke:#263238;stroke-miterlimit:10;" points="159.36,310.694 159.36,331.131 145.997,331.131 
				145.997,353.926 107.481,353.926 			"/>
			<polyline style="fill:none;stroke:#263238;stroke-miterlimit:10;" points="306.349,313.838 306.349,335.061 337.005,335.061 
				337.005,326.415 345.651,326.415 345.651,344.494 372.377,344.494 			"/>
			<path style="fill:#263238;stroke:#263238;stroke-linecap:round;stroke-linejoin:round;stroke-miterlimit:10;" d="M282.653,85.886
				c0,1.239-1.004,2.243-2.242,2.243c-1.238,0-2.242-1.004-2.242-2.243c0-1.238,1.004-2.243,2.242-2.243
				C281.649,83.644,282.653,84.648,282.653,85.886z"/>
			<path style="fill:#263238;stroke:#263238;stroke-linecap:round;stroke-linejoin:round;stroke-miterlimit:10;" d="M261.515,85.886
				c0,1.239-1.004,2.243-2.242,2.243c-1.239,0-2.243-1.004-2.243-2.243c0-1.238,1.004-2.243,2.243-2.243
				C260.511,83.644,261.515,84.648,261.515,85.886z"/>
			<path style="fill:#263238;stroke:#263238;stroke-linecap:round;stroke-linejoin:round;stroke-miterlimit:10;" d="M216.639,60.866
				c0,1.238-1.004,2.242-2.242,2.242s-2.242-1.004-2.242-2.242c0-1.238,1.004-2.243,2.242-2.243S216.639,59.628,216.639,60.866z"/>
			<path style="fill:#263238;stroke:#263238;stroke-linecap:round;stroke-linejoin:round;stroke-miterlimit:10;" d="M151.401,81.607
				c0,1.239-1.004,2.243-2.242,2.243c-1.239,0-2.243-1.004-2.243-2.243c0-1.238,1.004-2.243,2.243-2.243
				C150.397,79.364,151.401,80.368,151.401,81.607z"/>
			<path style="fill:#263238;stroke:#263238;stroke-linecap:round;stroke-linejoin:round;stroke-miterlimit:10;" d="M64.92,164.49
				c0,1.239-1.004,2.242-2.243,2.242c-1.239,0-2.243-1.004-2.243-2.242c0-1.238,1.004-2.242,2.243-2.242
				C63.916,162.248,64.92,163.252,64.92,164.49z"/>
			<path style="fill:#263238;stroke:#263238;stroke-linecap:round;stroke-linejoin:round;stroke-miterlimit:10;" d="M57.125,205.296
				c0,1.238-1.004,2.242-2.243,2.242c-1.239,0-2.243-1.004-2.243-2.242c0-1.238,1.004-2.242,2.243-2.242
				C56.121,203.054,57.125,204.058,57.125,205.296z"/>
			<path style="fill:#263238;stroke:#263238;stroke-linecap:round;stroke-linejoin:round;stroke-miterlimit:10;" d="M109.92,353.497
				c0,1.238-1.004,2.242-2.243,2.242c-1.238,0-2.242-1.004-2.242-2.242s1.004-2.242,2.242-2.242
				C108.916,351.255,109.92,352.259,109.92,353.497z"/>
			<path style="fill:#263238;stroke:#263238;stroke-linecap:round;stroke-linejoin:round;stroke-miterlimit:10;" d="M375.757,344.05
				c0,1.238-1.004,2.242-2.242,2.242s-2.242-1.004-2.242-2.242s1.004-2.242,2.242-2.242S375.757,342.811,375.757,344.05z"/>
			<path style="fill:#263238;stroke:#263238;stroke-linecap:round;stroke-linejoin:round;stroke-miterlimit:10;" d="M442.57,207.279
				c0,1.239-1.004,2.243-2.243,2.243c-1.238,0-2.242-1.004-2.242-2.243c0-1.238,1.004-2.242,2.242-2.242
				C441.566,205.036,442.57,206.04,442.57,207.279z"/>
			<path style="fill:#263238;stroke:#263238;stroke-linecap:round;stroke-linejoin:round;stroke-miterlimit:10;" d="M416.55,152.222
				c0,1.239-1.004,2.242-2.242,2.242c-1.238,0-2.242-1.004-2.242-2.242c0-1.238,1.004-2.242,2.242-2.242
				C415.546,149.979,416.55,150.983,416.55,152.222z"/>
			<path style="fill:#263238;stroke:#263238;stroke-linecap:round;stroke-linejoin:round;stroke-miterlimit:10;" d="M350.134,92.9
				c0,1.239-1.004,2.243-2.242,2.243s-2.242-1.004-2.242-2.243c0-1.238,1.004-2.242,2.242-2.242S350.134,91.661,350.134,92.9z"/>
		</g>
		<g>
			<g id="XMLID_139_">
				<g>
					<defs>
						<path id="XMLID_147_" d="M274.915,330.501v-19.504H216.24v19.504c0,6.365-2.196,12.543-6.232,17.532l-2.569,3.177h76.278
							l-2.569-3.177C277.111,343.044,274.915,336.866,274.915,330.501z"/>
					</defs>
					<use xlink:href="#XMLID_147_"  style="overflow:visible;fill:#FFFFFF;"/>
					<clipPath id="XMLID_00000173118774714246347220000012420234519890762427_">
						<use xlink:href="#XMLID_147_"  style="overflow:visible;"/>
					</clipPath>
					<path style="clip-path:url(#XMLID_00000173118774714246347220000012420234519890762427_);fill:#C6FF00;" d="M212.638,344.16
						h65.88c-2.348-4.16-3.602-8.855-3.602-13.659v-3.478v-16.026H216.24v16.026v3.478C216.24,335.305,214.986,340,212.638,344.16z"
						/>
					<path style="opacity:0.3;clip-path:url(#XMLID_00000173118774714246347220000012420234519890762427_);fill:#FFFFFF;" d="
						M212.638,344.16h65.88c-2.348-4.16-3.602-8.855-3.602-13.659v-3.478v-16.026H216.24v16.026v3.478
						C216.24,335.305,214.986,340,212.638,344.16z"/>
					<path style="clip-path:url(#XMLID_00000173118774714246347220000012420234519890762427_);fill:#263238;" d="M212.638,323.599
						h65.88c-2.348-4.16-3.602-8.855-3.602-13.659v-3.479v-16.026H216.24v16.026v3.479
						C216.24,314.744,214.986,319.439,212.638,323.599z"/>
					
						<use xlink:href="#XMLID_147_"  style="overflow:visible;fill:none;stroke:#263238;stroke-linecap:round;stroke-linejoin:round;stroke-miterlimit:10;"/>
				</g>
				
					<path id="XMLID_146_" style="fill:#263238;stroke:#263238;stroke-linecap:round;stroke-linejoin:round;stroke-miterlimit:10;" d="
					M355.003,317.147h-218.85c-4.686,0-8.484-3.799-8.484-8.484V152.477c0-4.686,3.799-8.484,8.484-8.484h218.85
					c4.686,0,8.484,3.799,8.484,8.484v156.186C363.487,313.349,359.688,317.147,355.003,317.147z"/>
				
					<path id="XMLID_145_" style="fill:#FFFFFF;stroke:#263238;stroke-linecap:round;stroke-linejoin:round;stroke-miterlimit:10;" d="
					M355.003,317.147h-218.85c-4.686,0-8.484-3.799-8.484-8.484v-18.431h235.819v18.431
					C363.487,313.349,359.688,317.147,355.003,317.147z"/>
				
					<rect id="XMLID_144_" x="139.53" y="154.765" style="fill:#FFFFFF;stroke:#263238;stroke-linecap:round;stroke-linejoin:round;stroke-miterlimit:10;" width="212.095" height="122.333"/>
				
					<path id="XMLID_143_" style="fill:#263238;stroke:#263238;stroke-linecap:round;stroke-linejoin:round;stroke-miterlimit:10;" d="
					M249.927,307.948c0-2.352-1.947-4.258-4.349-4.258c-2.402,0-4.349,1.906-4.349,4.258c0,2.352,1.947,4.258,4.349,4.258
					C247.979,312.206,249.927,310.299,249.927,307.948z"/>
				
					<rect id="XMLID_142_" x="207.439" y="351.211" style="fill:#FFFFFF;stroke:#263238;stroke-linecap:round;stroke-linejoin:round;stroke-miterlimit:10;" width="76.294" height="3.483"/>
			</g>
			<g>
				<path style="fill:#C6FF00;stroke:#263238;stroke-linecap:round;stroke-linejoin:round;stroke-miterlimit:10;" d="
					M245.905,148.424c-10.668,9.946-37.975,19.984-69.813,41.283c0,0,1.989,71.974,69.813,111.316V148.424z"/>
				<path style="fill:#263238;stroke:#263238;stroke-linecap:round;stroke-linejoin:round;stroke-miterlimit:10;" d="
					M245.905,148.424c10.668,9.946,37.976,19.984,69.813,41.283c0,0-1.989,71.974-69.813,111.316V148.424z"/>
				<path style="fill:#263238;stroke:#263238;stroke-linecap:round;stroke-linejoin:round;stroke-miterlimit:10;" d="
					M245.905,154.551c-12.877,8.939-35.19,17.456-64.692,37.193c0,0,1.843,66.696,64.692,103.152
					c62.85-36.456,64.693-103.152,64.693-103.152C281.095,172.007,258.882,163.49,245.905,154.551z"/>
				<path style="fill:#C6FF00;stroke:#263238;stroke-linecap:round;stroke-linejoin:round;stroke-miterlimit:10;" d="
					M310.597,191.744c-29.502-19.737-51.716-28.254-64.692-37.193v140.345C308.754,258.44,310.597,191.744,310.597,191.744z"/>
				<g>
					
						<rect x="126.939" y="227.051" style="fill:#263238;stroke:#263238;stroke-linecap:round;stroke-linejoin:round;stroke-miterlimit:10;" width="237.276" height="15.359"/>
					<g>
						<g>
							<g>
								<path style="fill:#FFFFFF;" d="M131.613,229.486c0,0.861-0.712,1.558-1.591,1.558s-1.592-0.698-1.592-1.558
									c0-0.861,0.713-1.558,1.592-1.558S131.613,228.625,131.613,229.486z"/>
								<path style="fill:#263238;" d="M129.105,230.352c0.232,0.236,0.555,0.385,0.917,0.385c0.706,0,1.278-0.56,1.278-1.251
									c0-0.311-0.128-0.587-0.32-0.806C130.314,229.184,129.618,229.84,129.105,230.352z"/>
							</g>
							<g>
								<path style="fill:#FFFFFF;" d="M137.846,229.486c0,0.861-0.712,1.558-1.592,1.558c-0.879,0-1.591-0.698-1.591-1.558
									c0-0.861,0.712-1.558,1.591-1.558C137.133,227.928,137.846,228.625,137.846,229.486z"/>
								<path style="fill:#263238;" d="M135.337,230.352c0.232,0.236,0.555,0.385,0.917,0.385c0.706,0,1.278-0.56,1.278-1.251
									c0-0.311-0.128-0.587-0.32-0.806C136.546,229.184,135.85,229.84,135.337,230.352z"/>
							</g>
							<g>
								<path style="fill:#FFFFFF;" d="M144.078,229.486c0,0.861-0.713,1.558-1.592,1.558c-0.879,0-1.591-0.698-1.591-1.558
									c0-0.861,0.712-1.558,1.591-1.558C143.365,227.928,144.078,228.625,144.078,229.486z"/>
								<path style="fill:#263238;" d="M141.57,230.352c0.232,0.236,0.555,0.385,0.917,0.385c0.706,0,1.278-0.56,1.278-1.251
									c0-0.311-0.128-0.587-0.32-0.806C142.779,229.184,142.083,229.84,141.57,230.352z"/>
							</g>
							<g>
								<path style="fill:#FFFFFF;" d="M150.31,229.486c0,0.861-0.713,1.558-1.592,1.558c-0.879,0-1.591-0.698-1.591-1.558
									c0-0.861,0.713-1.558,1.591-1.558C149.597,227.928,150.31,228.625,150.31,229.486z"/>
								<path style="fill:#263238;" d="M147.802,230.352c0.232,0.236,0.555,0.385,0.917,0.385c0.706,0,1.278-0.56,1.278-1.251
									c0-0.311-0.128-0.587-0.32-0.806C149.011,229.184,148.315,229.84,147.802,230.352z"/>
							</g>
							<g>
								<path style="fill:#FFFFFF;" d="M156.542,229.486c0,0.861-0.713,1.558-1.592,1.558c-0.879,0-1.592-0.698-1.592-1.558
									c0-0.861,0.713-1.558,1.592-1.558C155.829,227.928,156.542,228.625,156.542,229.486z"/>
								<path style="fill:#263238;" d="M154.034,230.352c0.232,0.236,0.555,0.385,0.917,0.385c0.706,0,1.278-0.56,1.278-1.251
									c0-0.311-0.128-0.587-0.32-0.806C155.243,229.184,154.547,229.84,154.034,230.352z"/>
							</g>
							<g>
								<path style="fill:#FFFFFF;" d="M162.774,229.486c0,0.861-0.712,1.558-1.591,1.558c-0.879,0-1.592-0.698-1.592-1.558
									c0-0.861,0.713-1.558,1.592-1.558C162.062,227.928,162.774,228.625,162.774,229.486z"/>
								<path style="fill:#263238;" d="M160.266,230.352c0.232,0.236,0.555,0.385,0.917,0.385c0.706,0,1.278-0.56,1.278-1.251
									c0-0.311-0.128-0.587-0.32-0.806C161.475,229.184,160.779,229.84,160.266,230.352z"/>
							</g>
							<g>
								<path style="fill:#FFFFFF;" d="M169.006,229.486c0,0.861-0.712,1.558-1.591,1.558c-0.879,0-1.592-0.698-1.592-1.558
									c0-0.861,0.712-1.558,1.592-1.558C168.294,227.928,169.006,228.625,169.006,229.486z"/>
								<path style="fill:#263238;" d="M166.498,230.352c0.232,0.236,0.555,0.385,0.917,0.385c0.706,0,1.278-0.56,1.278-1.251
									c0-0.311-0.128-0.587-0.32-0.806C167.707,229.184,167.011,229.84,166.498,230.352z"/>
							</g>
							<g>
								<path style="fill:#FFFFFF;" d="M175.238,229.486c0,0.861-0.713,1.558-1.592,1.558c-0.879,0-1.591-0.698-1.591-1.558
									c0-0.861,0.712-1.558,1.591-1.558C174.526,227.928,175.238,228.625,175.238,229.486z"/>
								<path style="fill:#263238;" d="M172.73,230.352c0.232,0.236,0.555,0.385,0.917,0.385c0.706,0,1.278-0.56,1.278-1.251
									c0-0.311-0.128-0.587-0.32-0.806C173.939,229.184,173.243,229.84,172.73,230.352z"/>
							</g>
							<g>
								<path style="fill:#FFFFFF;" d="M181.47,229.486c0,0.861-0.713,1.558-1.592,1.558c-0.879,0-1.591-0.698-1.591-1.558
									c0-0.861,0.713-1.558,1.591-1.558C180.758,227.928,181.47,228.625,181.47,229.486z"/>
								<path style="fill:#263238;" d="M178.962,230.352c0.232,0.236,0.555,0.385,0.916,0.385c0.706,0,1.278-0.56,1.278-1.251
									c0-0.311-0.128-0.587-0.32-0.806C180.171,229.184,179.475,229.84,178.962,230.352z"/>
							</g>
							<g>
								<path style="fill:#FFFFFF;" d="M187.703,229.486c0,0.861-0.713,1.558-1.591,1.558c-0.879,0-1.592-0.698-1.592-1.558
									c0-0.861,0.713-1.558,1.592-1.558C186.99,227.928,187.703,228.625,187.703,229.486z"/>
								<path style="fill:#263238;" d="M185.194,230.352c0.232,0.236,0.555,0.385,0.917,0.385c0.706,0,1.278-0.56,1.278-1.251
									c0-0.311-0.128-0.587-0.32-0.806C186.403,229.184,185.707,229.84,185.194,230.352z"/>
							</g>
							<g>
								<path style="fill:#FFFFFF;" d="M193.935,229.486c0,0.861-0.712,1.558-1.591,1.558c-0.879,0-1.592-0.698-1.592-1.558
									c0-0.861,0.713-1.558,1.592-1.558C193.222,227.928,193.935,228.625,193.935,229.486z"/>
								<path style="fill:#263238;" d="M191.427,230.352c0.232,0.236,0.555,0.385,0.917,0.385c0.706,0,1.278-0.56,1.278-1.251
									c0-0.311-0.128-0.587-0.32-0.806C192.635,229.184,191.94,229.84,191.427,230.352z"/>
							</g>
							<g>
								<path style="fill:#FFFFFF;" d="M200.167,229.486c0,0.861-0.712,1.558-1.591,1.558c-0.879,0-1.592-0.698-1.592-1.558
									c0-0.861,0.712-1.558,1.592-1.558C199.454,227.928,200.167,228.625,200.167,229.486z"/>
								<path style="fill:#263238;" d="M197.659,230.352c0.232,0.236,0.555,0.385,0.917,0.385c0.706,0,1.278-0.56,1.278-1.251
									c0-0.311-0.128-0.587-0.32-0.806C198.868,229.184,198.172,229.84,197.659,230.352z"/>
							</g>
							<g>
								<path style="fill:#FFFFFF;" d="M206.399,229.486c0,0.861-0.713,1.558-1.592,1.558c-0.879,0-1.591-0.698-1.591-1.558
									c0-0.861,0.712-1.558,1.591-1.558C205.686,227.928,206.399,228.625,206.399,229.486z"/>
								<path style="fill:#263238;" d="M203.891,230.352c0.232,0.236,0.555,0.385,0.917,0.385c0.706,0,1.278-0.56,1.278-1.251
									c0-0.311-0.128-0.587-0.32-0.806C205.1,229.184,204.404,229.84,203.891,230.352z"/>
							</g>
							<g>
								<path style="fill:#FFFFFF;" d="M212.631,229.486c0,0.861-0.713,1.558-1.591,1.558c-0.879,0-1.592-0.698-1.592-1.558
									c0-0.861,0.713-1.558,1.592-1.558C211.918,227.928,212.631,228.625,212.631,229.486z"/>
								<path style="fill:#263238;" d="M210.123,230.352c0.232,0.236,0.555,0.385,0.916,0.385c0.706,0,1.278-0.56,1.278-1.251
									c0-0.311-0.128-0.587-0.32-0.806C211.332,229.184,210.636,229.84,210.123,230.352z"/>
							</g>
						</g>
						<g>
							<g>
								<path style="fill:#FFFFFF;" d="M131.613,239.405c0,0.861-0.712,1.558-1.591,1.558s-1.592-0.698-1.592-1.558
									c0-0.861,0.713-1.558,1.592-1.558S131.613,238.544,131.613,239.405z"/>
								<path style="fill:#263238;" d="M129.105,240.271c0.232,0.236,0.555,0.385,0.917,0.385c0.706,0,1.278-0.56,1.278-1.251
									c0-0.311-0.128-0.587-0.32-0.806C130.314,239.104,129.618,239.759,129.105,240.271z"/>
							</g>
							<g>
								<path style="fill:#FFFFFF;" d="M137.846,239.405c0,0.861-0.712,1.558-1.592,1.558c-0.879,0-1.591-0.698-1.591-1.558
									c0-0.861,0.712-1.558,1.591-1.558C137.133,237.847,137.846,238.544,137.846,239.405z"/>
								<path style="fill:#263238;" d="M135.337,240.271c0.232,0.236,0.555,0.385,0.917,0.385c0.706,0,1.278-0.56,1.278-1.251
									c0-0.311-0.128-0.587-0.32-0.806C136.546,239.104,135.85,239.759,135.337,240.271z"/>
							</g>
							<g>
								<path style="fill:#FFFFFF;" d="M144.078,239.405c0,0.861-0.713,1.558-1.592,1.558c-0.879,0-1.591-0.698-1.591-1.558
									c0-0.861,0.712-1.558,1.591-1.558C143.365,237.847,144.078,238.544,144.078,239.405z"/>
								<path style="fill:#263238;" d="M141.57,240.271c0.232,0.236,0.555,0.385,0.917,0.385c0.706,0,1.278-0.56,1.278-1.251
									c0-0.311-0.128-0.587-0.32-0.806C142.779,239.104,142.083,239.759,141.57,240.271z"/>
							</g>
							<g>
								<path style="fill:#FFFFFF;" d="M150.31,239.405c0,0.861-0.713,1.558-1.592,1.558c-0.879,0-1.591-0.698-1.591-1.558
									c0-0.861,0.713-1.558,1.591-1.558C149.597,237.847,150.31,238.544,150.31,239.405z"/>
								<path style="fill:#263238;" d="M147.802,240.271c0.232,0.236,0.555,0.385,0.917,0.385c0.706,0,1.278-0.56,1.278-1.251
									c0-0.311-0.128-0.587-0.32-0.806C149.011,239.104,148.315,239.759,147.802,240.271z"/>
							</g>
							<g>
								<path style="fill:#FFFFFF;" d="M156.542,239.405c0,0.861-0.713,1.558-1.592,1.558c-0.879,0-1.592-0.698-1.592-1.558
									c0-0.861,0.713-1.558,1.592-1.558C155.829,237.847,156.542,238.544,156.542,239.405z"/>
								<path style="fill:#263238;" d="M154.034,240.271c0.232,0.236,0.555,0.385,0.917,0.385c0.706,0,1.278-0.56,1.278-1.251
									c0-0.311-0.128-0.587-0.32-0.806C155.243,239.104,154.547,239.759,154.034,240.271z"/>
							</g>
							<g>
								<path style="fill:#FFFFFF;" d="M162.774,239.405c0,0.861-0.712,1.558-1.591,1.558c-0.879,0-1.592-0.698-1.592-1.558
									c0-0.861,0.713-1.558,1.592-1.558C162.062,237.847,162.774,238.544,162.774,239.405z"/>
								<path style="fill:#263238;" d="M160.266,240.271c0.232,0.236,0.555,0.385,0.917,0.385c0.706,0,1.278-0.56,1.278-1.251
									c0-0.311-0.128-0.587-0.32-0.806C161.475,239.104,160.779,239.759,160.266,240.271z"/>
							</g>
							<g>
								<path style="fill:#FFFFFF;" d="M169.006,239.405c0,0.861-0.712,1.558-1.591,1.558c-0.879,0-1.592-0.698-1.592-1.558
									c0-0.861,0.712-1.558,1.592-1.558C168.294,237.847,169.006,238.544,169.006,239.405z"/>
								<path style="fill:#263238;" d="M166.498,240.271c0.232,0.236,0.555,0.385,0.917,0.385c0.706,0,1.278-0.56,1.278-1.251
									c0-0.311-0.128-0.587-0.32-0.806C167.707,239.104,167.011,239.759,166.498,240.271z"/>
							</g>
							<g>
								<path style="fill:#FFFFFF;" d="M175.238,239.405c0,0.861-0.713,1.558-1.592,1.558c-0.879,0-1.591-0.698-1.591-1.558
									c0-0.861,0.712-1.558,1.591-1.558C174.526,237.847,175.238,238.544,175.238,239.405z"/>
								<path style="fill:#263238;" d="M172.73,240.271c0.232,0.236,0.555,0.385,0.917,0.385c0.706,0,1.278-0.56,1.278-1.251
									c0-0.311-0.128-0.587-0.32-0.806C173.939,239.104,173.243,239.759,172.73,240.271z"/>
							</g>
							<g>
								<path style="fill:#FFFFFF;" d="M181.47,239.405c0,0.861-0.713,1.558-1.592,1.558c-0.879,0-1.591-0.698-1.591-1.558
									c0-0.861,0.713-1.558,1.591-1.558C180.758,237.847,181.47,238.544,181.47,239.405z"/>
								<path style="fill:#263238;" d="M178.962,240.271c0.232,0.236,0.555,0.385,0.916,0.385c0.706,0,1.278-0.56,1.278-1.251
									c0-0.311-0.128-0.587-0.32-0.806C180.171,239.104,179.475,239.759,178.962,240.271z"/>
							</g>
							<g>
								<path style="fill:#FFFFFF;" d="M187.703,239.405c0,0.861-0.713,1.558-1.591,1.558c-0.879,0-1.592-0.698-1.592-1.558
									c0-0.861,0.713-1.558,1.592-1.558C186.99,237.847,187.703,238.544,187.703,239.405z"/>
								<path style="fill:#263238;" d="M185.194,240.271c0.232,0.236,0.555,0.385,0.917,0.385c0.706,0,1.278-0.56,1.278-1.251
									c0-0.311-0.128-0.587-0.32-0.806C186.403,239.104,185.707,239.759,185.194,240.271z"/>
							</g>
							<g>
								<path style="fill:#FFFFFF;" d="M193.935,239.405c0,0.861-0.712,1.558-1.591,1.558c-0.879,0-1.592-0.698-1.592-1.558
									c0-0.861,0.713-1.558,1.592-1.558C193.222,237.847,193.935,238.544,193.935,239.405z"/>
								<path style="fill:#263238;" d="M191.427,240.271c0.232,0.236,0.555,0.385,0.917,0.385c0.706,0,1.278-0.56,1.278-1.251
									c0-0.311-0.128-0.587-0.32-0.806C192.635,239.104,191.94,239.759,191.427,240.271z"/>
							</g>
							<g>
								<path style="fill:#FFFFFF;" d="M200.167,239.405c0,0.861-0.712,1.558-1.591,1.558c-0.879,0-1.592-0.698-1.592-1.558
									c0-0.861,0.712-1.558,1.592-1.558C199.454,237.847,200.167,238.544,200.167,239.405z"/>
								<path style="fill:#263238;" d="M197.659,240.271c0.232,0.236,0.555,0.385,0.917,0.385c0.706,0,1.278-0.56,1.278-1.251
									c0-0.311-0.128-0.587-0.32-0.806C198.868,239.104,198.172,239.759,197.659,240.271z"/>
							</g>
							<g>
								<path style="fill:#FFFFFF;" d="M206.399,239.405c0,0.861-0.713,1.558-1.592,1.558c-0.879,0-1.591-0.698-1.591-1.558
									c0-0.861,0.712-1.558,1.591-1.558C205.686,237.847,206.399,238.544,206.399,239.405z"/>
								<path style="fill:#263238;" d="M203.891,240.271c0.232,0.236,0.555,0.385,0.917,0.385c0.706,0,1.278-0.56,1.278-1.251
									c0-0.311-0.128-0.587-0.32-0.806C205.1,239.104,204.404,239.759,203.891,240.271z"/>
							</g>
							<g>
								<path style="fill:#FFFFFF;" d="M212.631,239.405c0,0.861-0.713,1.558-1.591,1.558c-0.879,0-1.592-0.698-1.592-1.558
									c0-0.861,0.713-1.558,1.592-1.558C211.918,237.847,212.631,238.544,212.631,239.405z"/>
								<path style="fill:#263238;" d="M210.123,240.271c0.232,0.236,0.555,0.385,0.916,0.385c0.706,0,1.278-0.56,1.278-1.251
									c0-0.311-0.128-0.587-0.32-0.806C211.332,239.104,210.636,239.759,210.123,240.271z"/>
							</g>
						</g>
						<g>
							<g>
								<path style="fill:#FFFFFF;" d="M281.685,229.486c0,0.861-0.712,1.558-1.591,1.558s-1.592-0.698-1.592-1.558
									c0-0.861,0.713-1.558,1.592-1.558S281.685,228.625,281.685,229.486z"/>
								<path style="fill:#263238;" d="M279.177,230.352c0.232,0.236,0.555,0.385,0.916,0.385c0.706,0,1.278-0.56,1.278-1.251
									c0-0.311-0.128-0.587-0.32-0.806C280.385,229.184,279.69,229.84,279.177,230.352z"/>
							</g>
							<g>
								<path style="fill:#FFFFFF;" d="M287.917,229.486c0,0.861-0.712,1.558-1.591,1.558s-1.591-0.698-1.591-1.558
									c0-0.861,0.712-1.558,1.591-1.558S287.917,228.625,287.917,229.486z"/>
								<path style="fill:#263238;" d="M285.409,230.352c0.232,0.236,0.555,0.385,0.917,0.385c0.706,0,1.278-0.56,1.278-1.251
									c0-0.311-0.128-0.587-0.32-0.806C286.618,229.184,285.922,229.84,285.409,230.352z"/>
							</g>
							<g>
								<path style="fill:#FFFFFF;" d="M294.149,229.486c0,0.861-0.713,1.558-1.592,1.558s-1.592-0.698-1.592-1.558
									c0-0.861,0.713-1.558,1.592-1.558S294.149,228.625,294.149,229.486z"/>
								<path style="fill:#263238;" d="M291.641,230.352c0.233,0.236,0.555,0.385,0.917,0.385c0.706,0,1.278-0.56,1.278-1.251
									c0-0.311-0.128-0.587-0.32-0.806C292.85,229.184,292.154,229.84,291.641,230.352z"/>
							</g>
							<g>
								<path style="fill:#FFFFFF;" d="M300.381,229.486c0,0.861-0.713,1.558-1.592,1.558c-0.879,0-1.591-0.698-1.591-1.558
									c0-0.861,0.713-1.558,1.591-1.558C299.668,227.928,300.381,228.625,300.381,229.486z"/>
								<path style="fill:#263238;" d="M297.873,230.352c0.233,0.236,0.556,0.385,0.917,0.385c0.706,0,1.278-0.56,1.278-1.251
									c0-0.311-0.128-0.587-0.32-0.806C299.082,229.184,298.386,229.84,297.873,230.352z"/>
							</g>
							<g>
								<path style="fill:#FFFFFF;" d="M306.613,229.486c0,0.861-0.713,1.558-1.591,1.558c-0.879,0-1.592-0.698-1.592-1.558
									c0-0.861,0.713-1.558,1.592-1.558C305.901,227.928,306.613,228.625,306.613,229.486z"/>
								<path style="fill:#263238;" d="M304.105,230.352c0.232,0.236,0.555,0.385,0.917,0.385c0.706,0,1.278-0.56,1.278-1.251
									c0-0.311-0.128-0.587-0.32-0.806C305.314,229.184,304.618,229.84,304.105,230.352z"/>
							</g>
							<g>
								<path style="fill:#FFFFFF;" d="M312.845,229.486c0,0.861-0.713,1.558-1.592,1.558s-1.592-0.698-1.592-1.558
									c0-0.861,0.713-1.558,1.592-1.558S312.845,228.625,312.845,229.486z"/>
								<path style="fill:#263238;" d="M310.337,230.352c0.232,0.236,0.555,0.385,0.917,0.385c0.706,0,1.278-0.56,1.278-1.251
									c0-0.311-0.128-0.587-0.32-0.806C311.546,229.184,310.85,229.84,310.337,230.352z"/>
							</g>
							<g>
								<path style="fill:#FFFFFF;" d="M319.077,229.486c0,0.861-0.712,1.558-1.591,1.558s-1.592-0.698-1.592-1.558
									c0-0.861,0.713-1.558,1.592-1.558S319.077,228.625,319.077,229.486z"/>
								<path style="fill:#263238;" d="M316.569,230.352c0.232,0.236,0.555,0.385,0.917,0.385c0.706,0,1.278-0.56,1.278-1.251
									c0-0.311-0.128-0.587-0.32-0.806C317.778,229.184,317.082,229.84,316.569,230.352z"/>
							</g>
							<g>
								<path style="fill:#FFFFFF;" d="M325.31,229.486c0,0.861-0.713,1.558-1.592,1.558s-1.591-0.698-1.591-1.558
									c0-0.861,0.712-1.558,1.591-1.558S325.31,228.625,325.31,229.486z"/>
								<path style="fill:#263238;" d="M322.801,230.352c0.233,0.236,0.555,0.385,0.917,0.385c0.706,0,1.278-0.56,1.278-1.251
									c0-0.311-0.128-0.587-0.32-0.806C324.01,229.184,323.314,229.84,322.801,230.352z"/>
							</g>
							<g>
								<path style="fill:#FFFFFF;" d="M331.542,229.486c0,0.861-0.713,1.558-1.592,1.558c-0.879,0-1.592-0.698-1.592-1.558
									c0-0.861,0.713-1.558,1.592-1.558C330.829,227.928,331.542,228.625,331.542,229.486z"/>
								<path style="fill:#263238;" d="M329.034,230.352c0.232,0.236,0.555,0.385,0.917,0.385c0.706,0,1.278-0.56,1.278-1.251
									c0-0.311-0.128-0.587-0.32-0.806C330.242,229.184,329.547,229.84,329.034,230.352z"/>
							</g>
							<g>
								<path style="fill:#FFFFFF;" d="M337.774,229.486c0,0.861-0.713,1.558-1.592,1.558s-1.592-0.698-1.592-1.558
									c0-0.861,0.713-1.558,1.592-1.558S337.774,228.625,337.774,229.486z"/>
								<path style="fill:#263238;" d="M335.266,230.352c0.232,0.236,0.555,0.385,0.917,0.385c0.706,0,1.278-0.56,1.278-1.251
									c0-0.311-0.128-0.587-0.32-0.806C336.475,229.184,335.779,229.84,335.266,230.352z"/>
							</g>
							<g>
								<path style="fill:#FFFFFF;" d="M344.006,229.486c0,0.861-0.712,1.558-1.591,1.558s-1.592-0.698-1.592-1.558
									c0-0.861,0.713-1.558,1.592-1.558S344.006,228.625,344.006,229.486z"/>
								<path style="fill:#263238;" d="M341.498,230.352c0.232,0.236,0.555,0.385,0.917,0.385c0.706,0,1.278-0.56,1.278-1.251
									c0-0.311-0.128-0.587-0.32-0.806C342.707,229.184,342.011,229.84,341.498,230.352z"/>
							</g>
							<g>
								<path style="fill:#FFFFFF;" d="M350.238,229.486c0,0.861-0.713,1.558-1.592,1.558s-1.591-0.698-1.591-1.558
									c0-0.861,0.712-1.558,1.591-1.558S350.238,228.625,350.238,229.486z"/>
								<path style="fill:#263238;" d="M347.73,230.352c0.233,0.236,0.555,0.385,0.917,0.385c0.706,0,1.278-0.56,1.278-1.251
									c0-0.311-0.128-0.587-0.32-0.806C348.939,229.184,348.243,229.84,347.73,230.352z"/>
							</g>
							<g>
								<path style="fill:#FFFFFF;" d="M356.47,229.486c0,0.861-0.713,1.558-1.592,1.558s-1.592-0.698-1.592-1.558
									c0-0.861,0.713-1.558,1.592-1.558S356.47,228.625,356.47,229.486z"/>
								<path style="fill:#263238;" d="M353.962,230.352c0.232,0.236,0.555,0.385,0.917,0.385c0.706,0,1.278-0.56,1.278-1.251
									c0-0.311-0.128-0.587-0.32-0.806C355.171,229.184,354.475,229.84,353.962,230.352z"/>
							</g>
							<g>
								<path style="fill:#FFFFFF;" d="M362.702,229.486c0,0.861-0.713,1.558-1.592,1.558c-0.879,0-1.592-0.698-1.592-1.558
									c0-0.861,0.713-1.558,1.592-1.558C361.99,227.928,362.702,228.625,362.702,229.486z"/>
								<path style="fill:#263238;" d="M360.194,230.352c0.232,0.236,0.555,0.385,0.917,0.385c0.706,0,1.278-0.56,1.278-1.251
									c0-0.311-0.128-0.587-0.32-0.806C361.403,229.184,360.707,229.84,360.194,230.352z"/>
							</g>
						</g>
						<g>
							<g>
								<path style="fill:#FFFFFF;" d="M281.685,239.405c0,0.861-0.712,1.558-1.591,1.558s-1.592-0.698-1.592-1.558
									c0-0.861,0.713-1.558,1.592-1.558S281.685,238.544,281.685,239.405z"/>
								<path style="fill:#263238;" d="M279.177,240.271c0.232,0.236,0.555,0.385,0.916,0.385c0.706,0,1.278-0.56,1.278-1.251
									c0-0.311-0.128-0.587-0.32-0.806C280.385,239.104,279.69,239.759,279.177,240.271z"/>
							</g>
							<g>
								<path style="fill:#FFFFFF;" d="M287.917,239.405c0,0.861-0.712,1.558-1.591,1.558s-1.591-0.698-1.591-1.558
									c0-0.861,0.712-1.558,1.591-1.558S287.917,238.544,287.917,239.405z"/>
								<path style="fill:#263238;" d="M285.409,240.271c0.232,0.236,0.555,0.385,0.917,0.385c0.706,0,1.278-0.56,1.278-1.251
									c0-0.311-0.128-0.587-0.32-0.806C286.618,239.104,285.922,239.759,285.409,240.271z"/>
							</g>
							<g>
								<path style="fill:#FFFFFF;" d="M294.149,239.405c0,0.861-0.713,1.558-1.592,1.558s-1.592-0.698-1.592-1.558
									c0-0.861,0.713-1.558,1.592-1.558S294.149,238.544,294.149,239.405z"/>
								<path style="fill:#263238;" d="M291.641,240.271c0.233,0.236,0.555,0.385,0.917,0.385c0.706,0,1.278-0.56,1.278-1.251
									c0-0.311-0.128-0.587-0.32-0.806C292.85,239.104,292.154,239.759,291.641,240.271z"/>
							</g>
							<g>
								<path style="fill:#FFFFFF;" d="M300.381,239.405c0,0.861-0.713,1.558-1.592,1.558c-0.879,0-1.591-0.698-1.591-1.558
									c0-0.861,0.713-1.558,1.591-1.558C299.668,237.847,300.381,238.544,300.381,239.405z"/>
								<path style="fill:#263238;" d="M297.873,240.271c0.233,0.236,0.556,0.385,0.917,0.385c0.706,0,1.278-0.56,1.278-1.251
									c0-0.311-0.128-0.587-0.32-0.806C299.082,239.104,298.386,239.759,297.873,240.271z"/>
							</g>
							<g>
								<path style="fill:#FFFFFF;" d="M306.613,239.405c0,0.861-0.713,1.558-1.591,1.558c-0.879,0-1.592-0.698-1.592-1.558
									c0-0.861,0.713-1.558,1.592-1.558C305.901,237.847,306.613,238.544,306.613,239.405z"/>
								<path style="fill:#263238;" d="M304.105,240.271c0.232,0.236,0.555,0.385,0.917,0.385c0.706,0,1.278-0.56,1.278-1.251
									c0-0.311-0.128-0.587-0.32-0.806C305.314,239.104,304.618,239.759,304.105,240.271z"/>
							</g>
							<g>
								<path style="fill:#FFFFFF;" d="M312.845,239.405c0,0.861-0.713,1.558-1.592,1.558s-1.592-0.698-1.592-1.558
									c0-0.861,0.713-1.558,1.592-1.558S312.845,238.544,312.845,239.405z"/>
								<path style="fill:#263238;" d="M310.337,240.271c0.232,0.236,0.555,0.385,0.917,0.385c0.706,0,1.278-0.56,1.278-1.251
									c0-0.311-0.128-0.587-0.32-0.806C311.546,239.104,310.85,239.759,310.337,240.271z"/>
							</g>
							<g>
								<path style="fill:#FFFFFF;" d="M319.077,239.405c0,0.861-0.712,1.558-1.591,1.558s-1.592-0.698-1.592-1.558
									c0-0.861,0.713-1.558,1.592-1.558S319.077,238.544,319.077,239.405z"/>
								<path style="fill:#263238;" d="M316.569,240.271c0.232,0.236,0.555,0.385,0.917,0.385c0.706,0,1.278-0.56,1.278-1.251
									c0-0.311-0.128-0.587-0.32-0.806C317.778,239.104,317.082,239.759,316.569,240.271z"/>
							</g>
							<g>
								<path style="fill:#FFFFFF;" d="M325.31,239.405c0,0.861-0.713,1.558-1.592,1.558s-1.591-0.698-1.591-1.558
									c0-0.861,0.712-1.558,1.591-1.558S325.31,238.544,325.31,239.405z"/>
								<path style="fill:#263238;" d="M322.801,240.271c0.233,0.236,0.555,0.385,0.917,0.385c0.706,0,1.278-0.56,1.278-1.251
									c0-0.311-0.128-0.587-0.32-0.806C324.01,239.104,323.314,239.759,322.801,240.271z"/>
							</g>
							<g>
								<path style="fill:#FFFFFF;" d="M331.542,239.405c0,0.861-0.713,1.558-1.592,1.558c-0.879,0-1.592-0.698-1.592-1.558
									c0-0.861,0.713-1.558,1.592-1.558C330.829,237.847,331.542,238.544,331.542,239.405z"/>
								<path style="fill:#263238;" d="M329.034,240.271c0.232,0.236,0.555,0.385,0.917,0.385c0.706,0,1.278-0.56,1.278-1.251
									c0-0.311-0.128-0.587-0.32-0.806C330.242,239.104,329.547,239.759,329.034,240.271z"/>
							</g>
							<g>
								<path style="fill:#FFFFFF;" d="M337.774,239.405c0,0.861-0.713,1.558-1.592,1.558s-1.592-0.698-1.592-1.558
									c0-0.861,0.713-1.558,1.592-1.558S337.774,238.544,337.774,239.405z"/>
								<path style="fill:#263238;" d="M335.266,240.271c0.232,0.236,0.555,0.385,0.917,0.385c0.706,0,1.278-0.56,1.278-1.251
									c0-0.311-0.128-0.587-0.32-0.806C336.475,239.104,335.779,239.759,335.266,240.271z"/>
							</g>
							<g>
								<path style="fill:#FFFFFF;" d="M344.006,239.405c0,0.861-0.712,1.558-1.591,1.558s-1.592-0.698-1.592-1.558
									c0-0.861,0.713-1.558,1.592-1.558S344.006,238.544,344.006,239.405z"/>
								<path style="fill:#263238;" d="M341.498,240.271c0.232,0.236,0.555,0.385,0.917,0.385c0.706,0,1.278-0.56,1.278-1.251
									c0-0.311-0.128-0.587-0.32-0.806C342.707,239.104,342.011,239.759,341.498,240.271z"/>
							</g>
							<g>
								<path style="fill:#FFFFFF;" d="M350.238,239.405c0,0.861-0.713,1.558-1.592,1.558s-1.591-0.698-1.591-1.558
									c0-0.861,0.712-1.558,1.591-1.558S350.238,238.544,350.238,239.405z"/>
								<path style="fill:#263238;" d="M347.73,240.271c0.233,0.236,0.555,0.385,0.917,0.385c0.706,0,1.278-0.56,1.278-1.251
									c0-0.311-0.128-0.587-0.32-0.806C348.939,239.104,348.243,239.759,347.73,240.271z"/>
							</g>
							<g>
								<path style="fill:#FFFFFF;" d="M356.47,239.405c0,0.861-0.713,1.558-1.592,1.558s-1.592-0.698-1.592-1.558
									c0-0.861,0.713-1.558,1.592-1.558S356.47,238.544,356.47,239.405z"/>
								<path style="fill:#263238;" d="M353.962,240.271c0.232,0.236,0.555,0.385,0.917,0.385c0.706,0,1.278-0.56,1.278-1.251
									c0-0.311-0.128-0.587-0.32-0.806C355.171,239.104,354.475,239.759,353.962,240.271z"/>
							</g>
							<g>
								<path style="fill:#FFFFFF;" d="M362.702,239.405c0,0.861-0.713,1.558-1.592,1.558c-0.879,0-1.592-0.698-1.592-1.558
									c0-0.861,0.713-1.558,1.592-1.558C361.99,237.847,362.702,238.544,362.702,239.405z"/>
								<path style="fill:#263238;" d="M360.194,240.271c0.232,0.236,0.555,0.385,0.917,0.385c0.706,0,1.278-0.56,1.278-1.251
									c0-0.311-0.128-0.587-0.32-0.806C361.403,239.104,360.707,239.759,360.194,240.271z"/>
							</g>
						</g>
					</g>
				</g>
				<g>
					<g>
						<path style="fill:#FFFFFF;stroke:#263238;stroke-linecap:round;stroke-linejoin:round;stroke-miterlimit:10;" d="
							M270.411,221.799h-48.214c-2.213,0-4.007-1.756-4.007-3.923v-22.234c0-15.177,12.612-27.524,28.114-27.524
							s28.114,12.348,28.114,27.524v22.234C274.418,220.043,272.624,221.799,270.411,221.799z M226.203,213.954h40.201v-18.311
							c0-10.851-9.017-19.679-20.1-19.679c-11.083,0-20.1,8.828-20.1,19.679V213.954z"/>
					</g>
					
						<rect x="215.213" y="211.083" style="fill:#C6FF00;stroke:#263238;stroke-linecap:round;stroke-linejoin:round;stroke-miterlimit:10;" width="61.385" height="50.779"/>
					<path style="fill:#263238;stroke:#263238;stroke-linecap:round;stroke-linejoin:round;stroke-miterlimit:10;" d="
						M252.288,232.17c0-3.613-2.992-6.543-6.683-6.543s-6.683,2.929-6.683,6.543c0,2.489,1.42,4.653,3.509,5.759l-1.123,11.533
						h8.592l-1.123-11.533C250.868,236.823,252.288,234.659,252.288,232.17z"/>
				</g>
			</g>
		</g>
	</g>
</g>
<g id="Character_1">
	<g>
		<g>
			<ellipse style="fill:#C6FF00;" cx="106.5" cy="426.5" rx="47.5" ry="10.5"/>
			<ellipse style="opacity:0.5;fill:#FFFFFF;" cx="106.5" cy="426.5" rx="47.5" ry="10.5"/>
		</g>
		<g>
			<path style="fill:#C6FF00;stroke:#263238;stroke-miterlimit:10;" d="M81.821,415.76c0,0-11.521,6.479-11.521,9.599
				c0,3.12,7.108,1.2,11.766-0.96c4.657-2.16,8.334-3.84,8.334-8.159C90.4,411.92,81.821,415.76,81.821,415.76z"/>
			<path style="fill:#C6FF00;stroke:#263238;stroke-miterlimit:10;" d="M136.973,415.76c0,0,11.521,6.479,11.521,9.599
				c0,3.12-7.108,1.2-11.766-0.96s-8.334-3.84-8.334-8.159C128.394,411.92,136.973,415.76,136.973,415.76z"/>
			<path style="fill:#263238;stroke:#263238;stroke-miterlimit:10;" d="M86.478,309.689l-4.902,107.27c0,0,2.206,1.92,4.902,1.44
				c2.696-0.48,3.922-2.16,3.922-2.16l16.668-87.592h3.432l17.649,89.272c0,0,1.716,0.96,3.432,0.96c1.716,0,4.412-2.16,4.412-2.16
				l-5.638-107.03H86.478z"/>
			<polygon style="fill:#C6FF00;stroke:#263238;stroke-miterlimit:10;" points="103.637,244.655 81.331,253.774 87.214,305.609 
				129.865,305.609 137.708,251.854 113.442,244.175 			"/>
			<rect x="86.478" y="304.65" style="fill:#263238;stroke:#263238;stroke-miterlimit:10;" width="43.876" height="5.04"/>
			<path style="fill:#263238;stroke:#263238;stroke-miterlimit:10;" d="M85.743,308.729l-7.599,3.12c0,0-0.245,3.6,0.49,6.479
				c0.735,2.88,1.716,9.119,2.451,10.319c0.735,1.2,4.412,3.6,4.902,2.88c0.49-0.72,2.941-21.838,2.941-21.838L85.743,308.729z"/>
			<polygon style="fill:#FFFFFF;stroke:#263238;stroke-miterlimit:10;" points="102.885,233.489 102.885,242.237 109.268,248.861 
				115.778,242.112 115.778,233.364 			"/>
			<path style="fill:#FFFFFF;stroke:#263238;stroke-miterlimit:10;" d="M98.417,225.366c0,0-1.149-2.624-1.915-1
				c-0.766,1.625,0.128,4.124,1.276,5.124c1.149,1,2.936,0.75,2.936,0.75l-0.638-3.749L98.417,225.366z"/>
			<path style="fill:#FFFFFF;stroke:#263238;stroke-miterlimit:10;" d="M119.224,225.366c0,0,1.149-2.624,1.915-1
				c0.766,1.625-0.128,4.124-1.277,5.124c-1.149,1-2.936,0.75-2.936,0.75l0.638-3.749L119.224,225.366z"/>
			<path style="fill:#263238;stroke:#263238;stroke-miterlimit:10;" d="M100.587,207.995c0,0-5.361,2.249-5.361,5.999
				c0,3.749,0.766,7.998,2.042,9.623c1.276,1.625,2.298,2.749,2.298,2.749l0.255-5.374l3.702-6.374c0,0,6.127,3.874,9.191,3.874
				s5.106-0.375,5.106-0.375l1.149,6.374l1.659-4.624v-4.249c0,0,3.064-2.874,2.425-4.749c-0.638-1.875-10.978-7.748-17.36-6.249
				C99.311,206.12,100.587,207.995,100.587,207.995z"/>
			<path style="fill:#FFFFFF;stroke:#263238;stroke-miterlimit:10;" d="M98.034,220.617c0,0,1.532,9.373,2.808,11.872
				c1.276,2.499,5.234,6.874,6.127,7.498c0.894,0.625,4.213,0.125,5.489,0.125c1.276,0,4.978-7.498,5.617-8.873
				c0.638-1.375,1.021-13.122,1.021-13.122l-1.149-2.125c0,0-5.489,1.375-9.829-0.375c-4.34-1.75-6.127-4.124-6.127-4.124
				s-0.383,4.249-1.915,6.749C98.545,220.742,98.034,220.617,98.034,220.617z"/>
			<path style="fill:#263238;stroke:#263238;stroke-miterlimit:10;" d="M107.863,221.617c0,0-2.17-1.25-4.978-1.25
				c-2.808,0-4.34,0.875-4.34,0.875s0,4.249,1.404,5.874c1.404,1.625,5.489,1.125,6.638-0.25
				C107.736,225.491,107.863,221.617,107.863,221.617z"/>
			<path style="fill:#263238;stroke:#263238;stroke-miterlimit:10;" d="M109.651,221.617c0,0,2.17-1.25,4.978-1.25
				c2.808,0,4.34,0.875,4.34,0.875s0,4.249-1.404,5.874c-1.404,1.625-5.489,1.125-6.638-0.25
				C109.778,225.491,109.651,221.617,109.651,221.617z"/>
			<line style="fill:#FFFFFF;stroke:#263238;stroke-miterlimit:10;" x1="107.863" y1="221.617" x2="109.651" y2="221.617"/>
			<polygon style="fill:#263238;stroke:#263238;stroke-miterlimit:10;" points="106.088,252.094 108.784,256.414 104.372,293.611 
				109.765,301.53 114.422,292.891 110.745,255.934 113.932,250.895 109.268,248.861 			"/>
			<polygon style="fill:#C6FF00;stroke:#263238;stroke-miterlimit:10;" points="109.268,248.861 105.693,254.985 99.311,246.486 
				102.885,242.237 			"/>
			<polygon style="fill:#C6FF00;stroke:#263238;stroke-miterlimit:10;" points="109.268,248.861 113.608,255.609 118.841,245.987 
				115.778,242.112 			"/>
			<polygon style="fill:#C6FF00;stroke:#263238;stroke-miterlimit:10;" points="81.331,253.774 54.123,289.531 78.144,306.809 
				81.576,300.81 74.222,286.651 84.272,277.532 			"/>
			<path style="fill:#FFFFFF;stroke:#263238;stroke-miterlimit:10;" d="M81.576,300.81l8.089-0.24l6.128,5.52c0,0,0,1.2-0.735,1.92
				c-0.735,0.72-2.696,0.24-2.696,0.24s-1.471,3.6-4.167,3.6c-2.696,0-10.05-5.04-10.05-5.04L81.576,300.81z"/>
			
				<line style="fill:none;stroke:#263238;stroke-linecap:round;stroke-linejoin:round;stroke-miterlimit:10;" x1="79.615" y1="296.73" x2="75.448" y2="304.17"/>
			
				<line style="fill:none;stroke:#263238;stroke-linecap:round;stroke-linejoin:round;stroke-miterlimit:10;" x1="74.222" y1="286.651" x2="71.036" y2="278.492"/>
			<polygon style="fill:#C6FF00;stroke:#263238;stroke-miterlimit:10;" points="137.708,251.854 165.162,289.531 141.14,306.809 
				137.708,300.81 145.062,286.651 133.541,277.292 			"/>
			<path style="fill:#FFFFFF;stroke:#263238;stroke-miterlimit:10;" d="M137.708,300.81l-8.089-0.24l-6.128,5.52
				c0,0,0,1.2,0.735,1.92c0.735,0.72,2.696,0.24,2.696,0.24s1.471,3.6,4.167,3.6c2.696,0,10.05-5.04,10.05-5.04L137.708,300.81z"/>
			
				<line style="fill:none;stroke:#263238;stroke-linecap:round;stroke-linejoin:round;stroke-miterlimit:10;" x1="139.669" y1="296.73" x2="143.837" y2="304.17"/>
			
				<line style="fill:none;stroke:#263238;stroke-linecap:round;stroke-linejoin:round;stroke-miterlimit:10;" x1="145.062" y1="286.651" x2="148.249" y2="278.492"/>
			<polygon style="fill:#C6FF00;stroke:#263238;stroke-miterlimit:10;" points="100.614,263.373 85.58,263.373 85.58,268.493 
				93.097,271.373 100.614,268.173 			"/>
			<polygon style="fill:#C6FF00;stroke:#263238;stroke-miterlimit:10;" points="130.682,263.373 115.648,263.373 115.648,268.493 
				123.165,271.373 130.682,268.173 			"/>
		</g>
	</g>
</g>
<g id="Character_2">
	<g>
		<g>
			<ellipse style="fill:#C6FF00;" cx="384.5" cy="426.5" rx="47.5" ry="10.5"/>
			<ellipse style="opacity:0.5;fill:#FFFFFF;" cx="384.5" cy="426.5" rx="47.5" ry="10.5"/>
		</g>
		<g>
			<path style="fill:#C6FF00;stroke:#263238;stroke-miterlimit:10;" d="M359.659,415.76c0,0-11.521,6.479-11.521,9.599
				c0,3.12,7.109,1.2,11.766-0.96c4.657-2.16,8.334-3.84,8.334-8.159C368.238,411.92,359.659,415.76,359.659,415.76z"/>
			<path style="fill:#C6FF00;stroke:#263238;stroke-miterlimit:10;" d="M414.811,415.76c0,0,11.521,6.479,11.521,9.599
				c0,3.12-7.108,1.2-11.766-0.96c-4.657-2.16-8.334-3.84-8.334-8.159C406.232,411.92,414.811,415.76,414.811,415.76z"/>
			<path style="fill:#263238;stroke:#263238;stroke-miterlimit:10;" d="M364.316,309.689l-4.902,107.27c0,0,2.206,1.92,4.902,1.44
				c2.696-0.48,3.922-2.16,3.922-2.16l16.668-87.592h3.432l17.649,89.272c0,0,1.716,0.96,3.432,0.96c1.716,0,4.412-2.16,4.412-2.16
				l-5.638-107.03H364.316z"/>
			<g>
				<polygon style="fill:#C6FF00;stroke:#263238;stroke-miterlimit:10;" points="381.475,244.655 359.169,253.774 365.052,305.609 
					407.703,305.609 415.547,251.854 391.28,244.175 				"/>
				<polygon style="fill:#263238;stroke:#263238;stroke-miterlimit:10;" points="383.926,252.094 386.622,256.414 382.21,293.611 
					387.603,301.53 392.26,292.891 388.583,255.934 391.77,250.895 387.106,248.861 				"/>
				<polygon style="fill:#C6FF00;stroke:#263238;stroke-miterlimit:10;" points="387.106,248.861 383.531,254.985 377.149,246.486 
					380.723,242.237 				"/>
				<polygon style="fill:#C6FF00;stroke:#263238;stroke-miterlimit:10;" points="387.106,248.861 391.446,255.609 396.68,245.987 
					393.616,242.112 				"/>
				<polygon style="fill:#C6FF00;stroke:#263238;stroke-miterlimit:10;" points="378.452,263.373 363.418,263.373 363.418,268.493 
					370.935,271.373 378.452,268.173 				"/>
				<polygon style="fill:#C6FF00;stroke:#263238;stroke-miterlimit:10;" points="408.52,263.373 393.486,263.373 393.486,268.493 
					401.003,271.373 408.52,268.173 				"/>
			</g>
			<rect x="364.316" y="304.65" style="fill:#263238;stroke:#263238;stroke-miterlimit:10;" width="43.877" height="5.04"/>
			<path style="fill:#263238;stroke:#263238;stroke-miterlimit:10;" d="M363.581,308.729l-7.599,3.12c0,0-0.245,3.6,0.49,6.479
				c0.735,2.88,1.716,9.119,2.451,10.319c0.735,1.2,4.412,3.6,4.902,2.88c0.49-0.72,2.941-21.838,2.941-21.838L363.581,308.729z"/>
			<polygon style="fill:#FFFFFF;stroke:#263238;stroke-miterlimit:10;" points="380.723,233.489 380.723,242.237 387.106,248.861 
				393.616,242.112 393.616,233.364 			"/>
			<path style="fill:#FFFFFF;stroke:#263238;stroke-miterlimit:10;" d="M376.255,225.366c0,0-1.149-2.624-1.915-1
				c-0.766,1.625,0.128,4.124,1.276,5.124c1.149,1,2.936,0.75,2.936,0.75l-0.638-3.749L376.255,225.366z"/>
			<path style="fill:#FFFFFF;stroke:#263238;stroke-miterlimit:10;" d="M397.062,225.366c0,0,1.149-2.624,1.915-1
				c0.766,1.625-0.128,4.124-1.277,5.124c-1.149,1-2.936,0.75-2.936,0.75l0.638-3.749L397.062,225.366z"/>
			<path style="fill:#263238;stroke:#263238;stroke-miterlimit:10;" d="M378.425,207.995c0,0-5.361,2.249-5.361,5.999
				c0,3.749,0.766,7.998,2.042,9.623c1.276,1.625,2.298,2.749,2.298,2.749l0.255-5.374l3.702-6.374c0,0,6.127,3.874,9.191,3.874
				s5.106-0.375,5.106-0.375l1.149,6.374l1.659-4.624v-4.249c0,0,3.064-2.874,2.425-4.749c-0.638-1.875-10.978-7.748-17.36-6.249
				C377.149,206.12,378.425,207.995,378.425,207.995z"/>
			<path style="fill:#FFFFFF;stroke:#263238;stroke-miterlimit:10;" d="M375.872,220.617c0,0,1.532,9.373,2.808,11.872
				c1.276,2.499,5.234,6.874,6.127,7.498c0.894,0.625,4.212,0.125,5.489,0.125c1.276,0,4.978-7.498,5.617-8.873
				c0.638-1.375,1.021-13.122,1.021-13.122l-1.149-2.125c0,0-5.489,1.375-9.829-0.375c-4.34-1.75-6.127-4.124-6.127-4.124
				s-0.383,4.249-1.915,6.749C376.383,220.742,375.872,220.617,375.872,220.617z"/>
			<path style="fill:#263238;stroke:#263238;stroke-miterlimit:10;" d="M385.702,221.617c0,0-2.17-1.25-4.978-1.25
				c-2.808,0-4.34,0.875-4.34,0.875s0,4.249,1.404,5.874c1.404,1.625,5.489,1.125,6.638-0.25
				C385.574,225.491,385.702,221.617,385.702,221.617z"/>
			<path style="fill:#263238;stroke:#263238;stroke-miterlimit:10;" d="M387.489,221.617c0,0,2.17-1.25,4.978-1.25
				c2.808,0,4.34,0.875,4.34,0.875s0,4.249-1.404,5.874c-1.404,1.625-5.489,1.125-6.638-0.25
				C387.616,225.491,387.489,221.617,387.489,221.617z"/>
			<line style="fill:#FFFFFF;stroke:#263238;stroke-miterlimit:10;" x1="385.702" y1="221.617" x2="387.489" y2="221.617"/>
			<path style="fill:#FFFFFF;stroke:#263238;stroke-miterlimit:10;" d="M359.414,300.81l8.089-0.24l6.128,5.52c0,0,0,1.2-0.735,1.92
				c-0.735,0.72-2.696,0.24-2.696,0.24s-1.471,3.6-4.167,3.6c-2.696,0-10.05-5.04-10.05-5.04L359.414,300.81z"/>
			<g>
				<polygon style="fill:#C6FF00;stroke:#263238;stroke-miterlimit:10;" points="359.169,253.774 331.961,289.531 355.982,306.809 
					359.414,300.81 352.06,286.651 362.11,277.532 				"/>
				
					<line style="fill:none;stroke:#263238;stroke-linecap:round;stroke-linejoin:round;stroke-miterlimit:10;" x1="357.453" y1="296.73" x2="353.286" y2="304.17"/>
				
					<line style="fill:none;stroke:#263238;stroke-linecap:round;stroke-linejoin:round;stroke-miterlimit:10;" x1="352.06" y1="286.651" x2="348.874" y2="278.492"/>
			</g>
			<path style="fill:#FFFFFF;stroke:#263238;stroke-miterlimit:10;" d="M415.547,300.81l-8.089-0.24l-6.128,5.52
				c0,0,0,1.2,0.735,1.92c0.735,0.72,2.696,0.24,2.696,0.24s1.471,3.6,4.167,3.6c2.696,0,10.05-5.04,10.05-5.04L415.547,300.81z"/>
			<g>
				<polygon style="fill:#C6FF00;stroke:#263238;stroke-miterlimit:10;" points="415.547,251.854 443,289.531 418.978,306.809 
					415.547,300.81 422.9,286.651 411.379,277.292 				"/>
				
					<line style="fill:none;stroke:#263238;stroke-linecap:round;stroke-linejoin:round;stroke-miterlimit:10;" x1="417.507" y1="296.73" x2="421.675" y2="304.17"/>
				
					<line style="fill:none;stroke:#263238;stroke-linecap:round;stroke-linejoin:round;stroke-miterlimit:10;" x1="422.9" y1="286.651" x2="426.087" y2="278.492"/>
			</g>
		</g>
	</g>
</g>
</svg>
